<svg width="1366" height="768" viewBox="0 0 1366 768" fill="none" xmlns="http://www.w3.org/2000/svg">
<g clip-path="url(#clip0)">
<rect width="1366" height="768" fill="#64BE6A"/>
<g opacity="0.9">
<mask id="mask0" mask-type="alpha" maskUnits="userSpaceOnUse" x="-5" y="689" width="1377" height="259">
<rect x="-4.0376" y="689.433" width="1375.66" height="258.186" rx="2.99057" fill="#C4C4C4"/>
</mask>
<g mask="url(#mask0)">
<path d="M-4.03773 944.63V689.435C-4.03773 687.783 -2.6988 686.444 -1.04715 686.444H364.262C367.087 686.444 368.337 690.001 366.132 691.768L47.7625 946.963C47.2318 947.389 46.5721 947.621 45.892 947.621H-1.04717C-2.69881 947.621 -4.03773 946.282 -4.03773 944.63Z" fill="#DABF92"/>
<path d="M1371.62 946.573V692.424C1371.62 690.773 1370.28 689.434 1368.63 689.434H901.888C898.789 689.434 897.736 693.569 900.458 695.051L1367.2 949.2C1369.2 950.285 1371.62 948.842 1371.62 946.573Z" fill="#DABF92"/>
<path d="M532.507 686.444C532.507 686.452 532.513 686.458 532.521 686.458C564.558 686.412 617.261 686.509 650.057 686.461C651.191 686.459 652.153 686.975 652.661 687.99C661.77 706.187 749.672 881.531 786.882 946.171C788.035 948.174 786.551 950.611 784.24 950.611H526.396C524.704 950.611 523.348 949.208 523.407 947.516L532.507 686.444V686.444Z" fill="#DABF92"/>
<path d="M292.727 686.685C293.262 686.243 293.903 686.028 294.597 686.028H406.621C406.71 684.007 406.647 688.048 406.621 686.028L364.893 738.046C317.421 797.289 247.384 888.229 199.39 947.52C198.822 948.221 197.979 948.615 197.077 948.615H25.0626C22.4055 948.615 21.0385 945.444 22.9121 943.56C53.4515 912.848 215.556 750.492 292.727 686.685Z" fill="#C1A785"/>
<path d="M786.755 950.611C785.694 950.611 784.75 950.114 784.216 949.197C749.457 889.469 667.703 719.521 653.892 690.718C652.942 688.736 654.435 686.542 656.633 686.537C670.22 686.507 678.89 686.445 678.956 686.444C678.958 686.444 678.957 686.446 678.957 686.448V686.448C678.957 686.45 678.958 686.451 678.96 686.451L735.83 686.544C736.656 686.545 737.4 686.839 737.961 687.446C786.621 740.088 903.728 915.52 924.008 946.058C925.327 948.043 923.849 950.611 921.467 950.611H786.755Z" fill="#E5C99B"/>
<path d="M1106.9 952.605C1106.12 952.605 1105.37 952.3 1104.81 951.754L840.565 693.568C838.648 691.694 839.974 688.438 842.655 688.438H999.852C1000.46 688.438 1001.06 688.627 1001.57 688.978L1370.82 947.164C1373.22 948.84 1372.03 952.605 1369.11 952.605H1106.9Z" fill="#E5C99B"/>
<path d="M538.099 686.445C539.809 686.445 541.172 687.876 541.086 689.585L528.205 947.77C528.126 949.361 526.812 950.611 525.218 950.611H434.421C432.476 950.611 431.015 948.918 431.486 947.03C438.577 918.636 485.721 729.893 496.343 688.57C496.683 687.25 497.84 686.458 499.203 686.458L538.099 686.445Z" fill="#E5C99B"/>
<path d="M506.33 686.911C506.263 685.294 506.406 688.529 506.33 686.911V686.911C506.33 686.92 506.332 686.916 506.329 686.925C506.25 687.193 478.601 780.833 463.689 833.743C452.137 874.729 434.679 936.288 431.223 948.473C430.858 949.759 429.693 950.611 428.356 950.611H337.76C335.532 950.611 334.086 948.261 335.091 946.272L465.485 688.108C465.999 687.09 467.048 686.453 468.189 686.466L506.33 686.911Z" fill="#DABF92"/>
<path d="M463.576 686.444H407.68C406.771 686.444 405.912 686.857 405.344 687.567L201.108 943.011C199.561 944.946 200.903 947.815 203.381 947.868L331.03 950.572C332.174 950.596 333.231 949.965 333.753 948.947L466.236 690.8C467.258 688.81 465.813 686.444 463.576 686.444Z" fill="#E5C99B"/>
<path d="M838.678 687.886C838.12 687.344 837.373 687.042 836.596 687.042H739.471C737.034 687.042 735.62 689.8 737.043 691.778L922.302 949.365C922.864 950.146 923.767 950.609 924.73 950.609H1102.07C1104.76 950.609 1106.08 947.343 1104.16 945.473L838.678 687.886Z" fill="#C1A785"/>
</g>
</g>
<path d="M1024.49 -106.829L-11.877 399.826C-13.8184 400.775 -16.0946 399.415 -16.1788 397.256L-36.3769 -120.842C-36.4438 -122.557 -35.0565 -123.977 -33.3403 -123.949L1024.49 -106.829L1057.39 -122.916C1058.68 -123.545 1060.23 -123.173 1061.09 -122.029L1073.13 -106.042L1408.06 -100.621C1409.69 -100.595 1411 -99.2641 1411 -97.6313V333.588C1411 336.459 1407.35 337.68 1405.62 335.387L1073.13 -106.042L1024.49 -106.829Z" fill="#4BA751" fill-opacity="0.47"/>
</g>
<defs>
<clipPath id="clip0">
<rect width="1366" height="768" fill="white"/>
</clipPath>
</defs>
</svg>
