<svg width="1366" height="768" viewBox="0 0 1366 768" fill="none" xmlns="http://www.w3.org/2000/svg">
<g clip-path="url(#clip0)">
<rect width="1366" height="768" fill="#64BE6A"/>
<g opacity="0.9">
<mask id="mask0" mask-type="alpha" maskUnits="userSpaceOnUse" x="-5" y="689" width="1377" height="259">
<rect x="-4.0376" y="689.433" width="1375.66" height="258.186" rx="2.99057" fill="#C4C4C4"/>
</mask>
<g mask="url(#mask0)">
<path d="M-4.03772 944.63V689.435C-4.03772 687.783 -2.69879 686.444 -1.04714 686.444H364.262C367.087 686.444 368.337 690.001 366.132 691.768L47.7625 946.963C47.2318 947.389 46.5721 947.621 45.892 947.621H-1.04715C-2.6988 947.621 -4.03772 946.282 -4.03772 944.63Z" fill="#DABF92"/>
<path d="M1371.62 946.573V692.424C1371.62 690.773 1370.28 689.434 1368.63 689.434H901.888C898.789 689.434 897.736 693.569 900.458 695.051L1367.2 949.2C1369.2 950.285 1371.62 948.842 1371.62 946.573Z" fill="#DABF92"/>
<path d="M532.507 686.444C532.507 686.452 532.513 686.458 532.521 686.458C564.558 686.412 617.261 686.509 650.057 686.461C651.191 686.459 652.153 686.975 652.661 687.99C661.77 706.187 749.672 881.531 786.882 946.171C788.035 948.174 786.551 950.611 784.24 950.611H526.396C524.704 950.611 523.348 949.208 523.407 947.516L532.507 686.444Z" fill="#DABF92"/>
<path d="M292.727 686.685C293.262 686.243 293.903 686.028 294.597 686.028H406.621C406.71 684.007 406.647 688.048 406.621 686.028L364.893 738.046C317.42 797.289 247.384 888.229 199.39 947.52C198.822 948.221 197.979 948.615 197.077 948.615H25.0626C22.4054 948.615 21.0384 945.444 22.912 943.56C53.4514 912.848 215.556 750.492 292.727 686.685Z" fill="#C1A785"/>
<path d="M786.755 950.611C785.694 950.611 784.75 950.114 784.216 949.197C749.457 889.469 667.703 719.521 653.892 690.718C652.942 688.736 654.435 686.542 656.633 686.537C670.22 686.507 678.89 686.445 678.956 686.444C678.958 686.444 678.957 686.446 678.957 686.448C678.957 686.45 678.958 686.451 678.96 686.451L735.83 686.544C736.656 686.545 737.4 686.839 737.961 687.446C786.621 740.088 903.728 915.52 924.008 946.058C925.327 948.043 923.849 950.611 921.467 950.611H786.755Z" fill="#E5C99B"/>
<path d="M1106.9 952.605C1106.12 952.605 1105.37 952.3 1104.81 951.754L840.565 693.568C838.648 691.694 839.974 688.438 842.655 688.438H999.852C1000.46 688.438 1001.06 688.627 1001.57 688.978L1370.82 947.164C1373.22 948.84 1372.03 952.605 1369.11 952.605H1106.9Z" fill="#E5C99B"/>
<path d="M538.099 686.445C539.809 686.445 541.172 687.876 541.086 689.585L528.205 947.77C528.126 949.361 526.812 950.611 525.218 950.611H434.421C432.476 950.611 431.015 948.918 431.486 947.03C438.577 918.636 485.721 729.893 496.343 688.57C496.683 687.25 497.84 686.458 499.203 686.458L538.099 686.445Z" fill="#E5C99B"/>
<path d="M506.33 686.911C506.263 685.294 506.406 688.529 506.33 686.911C506.33 686.92 506.332 686.916 506.329 686.925C506.25 687.193 478.601 780.833 463.689 833.743C452.137 874.729 434.679 936.288 431.223 948.473C430.858 949.759 429.693 950.611 428.356 950.611H337.761C335.532 950.611 334.086 948.261 335.091 946.272L465.485 688.108C465.999 687.09 467.048 686.453 468.189 686.466L506.33 686.911Z" fill="#DABF92"/>
<path d="M463.576 686.444H407.68C406.771 686.444 405.912 686.857 405.344 687.567L201.108 943.011C199.561 944.946 200.903 947.815 203.381 947.868L331.03 950.572C332.174 950.596 333.231 949.965 333.753 948.947L466.236 690.8C467.258 688.81 465.813 686.444 463.576 686.444Z" fill="#E5C99B"/>
<path d="M838.678 687.886C838.12 687.344 837.373 687.042 836.595 687.042H739.471C737.034 687.042 735.62 689.8 737.043 691.778L922.302 949.365C922.864 950.146 923.767 950.609 924.729 950.609H1102.07C1104.76 950.609 1106.08 947.343 1104.16 945.473L838.678 687.886Z" fill="#C1A785"/>
</g>
</g>
<path d="M1024.49 -106.829L-11.877 399.826C-13.8184 400.775 -16.0946 399.415 -16.1788 397.256L-36.3769 -120.842C-36.4438 -122.557 -35.0565 -123.977 -33.3403 -123.949L1024.49 -106.829L1057.39 -122.916C1058.68 -123.545 1060.23 -123.173 1061.09 -122.029L1073.13 -106.042L1408.06 -100.621C1409.69 -100.595 1411 -99.2641 1411 -97.6313V333.588C1411 336.459 1407.35 337.68 1405.62 335.387L1073.13 -106.042L1024.49 -106.829Z" fill="#4BA751" fill-opacity="0.47"/>
<path d="M1337.34 691.197V826.146L1199.39 789.584L1195.21 659.953L1337.34 691.197Z" fill="#48757D"/>
<path d="M1329.81 690.533V825.482L1191.87 788.919L1187.69 659.288L1329.81 690.533Z" fill="#568F9A"/>
<path d="M1243.65 779.281C1251.34 779.281 1361.83 756.362 1361.83 756.362L1360.87 762.474C1360.87 762.474 1248.46 787.685 1239.81 786.921C1231.16 786.157 1123.55 761.71 1123.55 761.71C1123.55 761.71 1122.03 757.449 1124.44 754.36C1146.3 759.221 1236.9 779.281 1243.65 779.281Z" fill="#6DB4C1"/>
<path d="M1124.44 754.36C1124.74 753.969 1125.09 753.615 1125.47 753.306C1129.32 750.25 1227.28 737.352 1252.3 736.498C1261.66 736.179 1358.72 753.884 1361.83 756.362C1361.83 756.362 1251.34 779.281 1243.65 779.281C1236.9 779.281 1146.3 759.221 1124.44 754.36Z" fill="#94D7E8"/>
<path d="M1175.3 705.06V840.009L1037.35 803.447L1033.17 673.816L1175.3 705.06Z" fill="#4F828B"/>
<path d="M1167.78 704.395V839.345L1029.83 802.782L1025.65 673.151L1167.78 704.395Z" fill="#5E9CA7"/>
<path d="M1169.98 698.067C1179.92 698.067 1322.86 668.418 1322.86 668.418L1321.62 676.325C1321.62 676.325 1176.2 708.938 1165.01 707.95C1153.82 706.963 1014.61 675.336 1014.61 675.336C1014.61 675.336 1012.65 669.824 1015.76 665.828C1044.04 672.117 1161.24 698.067 1169.98 698.067Z" fill="#6DB4C1"/>
<path d="M1015.76 665.828C1016.15 665.322 1016.6 664.864 1017.1 664.465C1022.07 660.512 1148.79 643.826 1181.17 642.722C1193.27 642.309 1318.83 665.212 1322.86 668.418C1322.86 668.418 1179.92 698.068 1169.98 698.068C1161.24 698.067 1044.04 672.117 1015.76 665.828Z" fill="#94D7E8"/>
<path d="M1241.33 671.958L1171.59 688.267L1085.45 667.065L1165.7 650.746L1241.33 671.958Z" fill="white"/>
<path d="M1389.06 625.451L1389.06 625.453C1392.06 630.817 1363.58 710.681 1356.08 714.257C1348.59 717.833 1268.39 728.561 1264.64 728.561C1263.59 728.561 1262.31 728.606 1261 728.621C1264.44 712.422 1278.86 645.127 1282.06 640.33C1285.63 634.962 1387.29 625.554 1389.06 625.451Z" fill="#6DB4C1"/>
<path d="M1254.14 726.773C1254.14 724.389 1273.63 637.969 1276.63 635.585C1279.63 633.201 1380.54 623 1380.54 623L1389.06 625.451C1387.29 625.554 1285.63 634.962 1282.06 640.331C1278.86 645.127 1264.44 712.423 1261 728.621C1257.64 728.66 1254.14 728.49 1254.14 726.773Z" fill="#94D7E8"/>
<path d="M1301.12 674.464C1302.81 674.734 1303.93 675.943 1303.65 677.214L1281.44 778.875C1281.24 779.462 1280.85 779.972 1280.35 780.332C1279.84 780.693 1279.23 780.887 1278.61 780.887L1277.65 780.97C1275.5 781.159 1273.71 779.757 1274.07 778.168L1297.24 676.423C1297.55 675.067 1299.31 674.176 1301.12 674.464Z" fill="#096D67"/>
<path d="M1350.49 673.452C1352.18 673.713 1353.29 674.881 1353.01 676.109L1332.32 767.568C1332.11 768.143 1331.72 768.639 1331.22 768.987C1330.71 769.335 1330.11 769.518 1329.49 769.512L1328.54 769.593C1326.38 769.774 1324.59 768.42 1324.95 766.885L1346.6 675.345C1346.91 674.035 1348.68 673.174 1350.49 673.452Z" fill="#096D67"/>
<path d="M178.708 81.0812L178.708 660.556C178.708 680.814 195.13 697.236 215.387 697.236L1125.53 697.236C1145.79 697.236 1162.21 680.814 1162.21 660.556V81.0812C1162.21 60.8236 1145.79 44.4016 1125.53 44.4016L215.387 44.4016C195.13 44.4016 178.708 60.8236 178.708 81.0812Z" fill="#FFC931"/>
<path d="M1146.71 63.5278H194.823V679.698H1146.71V63.5278Z" fill="#F4E1B5"/>
<g opacity="0.15">
<path opacity="0.15" d="M1146.71 63.5278H194.823V679.698H1146.71V63.5278Z" fill="#353535"/>
</g>
<path d="M257.937 40.6611H220.504C220.504 40.6611 171.06 44.025 167.987 105.854L167.568 139.972C167.568 144.966 170.186 149.678 174.33 151.215C176.822 152.161 179.505 152.49 182.151 152.176C182.151 152.176 196.061 154.388 197.318 146.218L198.995 106.334C198.995 106.334 201.928 70.2941 230.002 65.0082H255.702C255.702 65.0082 265.34 64.6883 264.781 49.3109C264.781 49.3109 262.407 42.5833 257.937 40.6611Z" fill="#5590CC"/>
<path d="M260.451 32.9727H223.018C223.018 32.9727 171.339 35.8559 168.266 97.6846L167.65 140.581C167.65 145.576 170.268 150.288 174.412 151.825C176.904 152.771 179.587 153.1 182.234 152.786C182.234 152.786 193.408 153.426 192.29 144.457V101.529C192.29 101.529 194.525 57.9605 232.516 57.3198H258.216C258.216 57.3198 266.038 57.9604 265.479 42.5833C265.48 42.5833 264.921 34.8951 260.451 32.9727Z" fill="#90D7F0"/>
<path d="M251.497 49.0243C253.665 49.0243 255.423 47.0087 255.423 44.5224C255.423 42.0361 253.665 40.0205 251.497 40.0205C249.329 40.0205 247.572 42.0361 247.572 44.5224C247.572 47.0087 249.329 49.0243 251.497 49.0243Z" fill="#5590CC"/>
<path d="M179.705 144.33C181.873 144.33 183.63 142.314 183.63 139.828C183.63 137.342 181.873 135.326 179.705 135.326C177.537 135.326 175.779 137.342 175.779 139.828C175.779 142.314 177.537 144.33 179.705 144.33Z" fill="#5590CC"/>
<path d="M178.022 606.292V649.22C178.022 649.22 180.956 705.923 234.87 709.447L264.62 709.927C266.877 709.881 269.056 709.098 270.826 707.698C272.596 706.298 273.86 704.358 274.425 702.173C275.256 699.26 275.54 696.219 275.263 693.203C275.263 693.203 277.191 677.251 270.068 675.809L235.289 673.887C235.289 673.887 203.862 670.524 199.253 638.327V608.855C199.253 608.855 198.974 597.803 185.565 598.443C185.565 598.443 179.699 601.167 178.022 606.292Z" fill="#5590CC"/>
<path d="M171.318 603.409V646.337C171.318 646.337 173.832 705.603 227.746 709.127L265.152 709.834C267.408 709.787 269.588 709.005 271.358 707.605C273.128 706.205 274.391 704.264 274.956 702.079C275.787 699.167 276.071 696.125 275.794 693.109C275.794 693.109 276.353 680.295 268.531 681.576H231.098C231.098 681.576 193.107 679.014 192.548 635.445V605.972C192.548 605.972 193.107 597.002 179.698 597.643C179.698 597.643 172.994 598.284 171.318 603.409Z" fill="#90D7F0"/>
<path d="M181.389 618.179C183.558 618.179 185.315 616.163 185.315 613.677C185.315 611.191 183.558 609.175 181.389 609.175C179.221 609.175 177.464 611.191 177.464 613.677C177.464 616.163 179.221 618.179 181.389 618.179Z" fill="#5590CC"/>
<path d="M264.495 700.511C266.664 700.511 268.421 698.495 268.421 696.009C268.421 693.522 266.664 691.507 264.495 691.507C262.327 691.507 260.57 693.522 260.57 696.009C260.57 698.495 262.327 700.511 264.495 700.511Z" fill="#5590CC"/>
<path d="M1082.97 702.239H1120.4C1120.4 702.239 1169.85 698.875 1172.92 637.046L1173.34 602.928C1173.34 597.934 1170.72 593.222 1166.58 591.685C1164.09 590.739 1161.4 590.41 1158.76 590.724C1158.76 590.724 1144.85 588.512 1143.59 596.682L1141.91 636.566C1141.91 636.566 1138.98 672.606 1110.9 677.892H1085.2C1085.2 677.892 1075.57 678.212 1076.13 693.589C1076.13 693.589 1078.5 700.317 1082.97 702.239Z" fill="#5590CC"/>
<path d="M1080.46 709.928H1117.89C1117.89 709.928 1169.57 707.044 1172.64 645.216L1173.26 602.319C1173.26 597.325 1170.64 592.612 1166.49 591.076C1164 590.13 1161.32 589.8 1158.67 590.115C1158.67 590.115 1147.5 589.474 1148.62 598.444V641.371C1148.62 641.371 1146.38 684.94 1108.39 685.581H1082.69C1082.69 685.581 1074.87 684.94 1075.43 700.317C1075.43 700.317 1075.99 708.005 1080.46 709.928Z" fill="#90D7F0"/>
<path d="M1089.41 702.88C1091.58 702.88 1093.34 700.864 1093.34 698.378C1093.34 695.892 1091.58 693.876 1089.41 693.876C1087.24 693.876 1085.48 695.892 1085.48 698.378C1085.48 700.864 1087.24 702.88 1089.41 702.88Z" fill="#5590CC"/>
<path d="M1161.2 607.574C1163.37 607.574 1165.13 605.558 1165.13 603.072C1165.13 600.585 1163.37 598.57 1161.2 598.57C1159.03 598.57 1157.28 600.585 1157.28 603.072C1157.28 605.558 1159.03 607.574 1161.2 607.574Z" fill="#5590CC"/>
<path d="M1164.4 136.608V93.6801C1164.4 93.6801 1161.46 36.9771 1107.55 33.4531L1077.8 32.9727C1075.54 33.019 1073.36 33.8018 1071.59 35.2018C1069.82 36.6018 1068.56 38.5421 1068 40.7271C1067.16 43.6397 1066.88 46.681 1067.16 49.6971C1067.16 49.6971 1065.23 65.6489 1072.35 67.0905L1107.13 69.0126C1107.13 69.0126 1138.56 72.3764 1143.17 104.573V134.045C1143.17 134.045 1143.45 145.097 1156.86 144.457C1156.86 144.457 1162.72 141.734 1164.4 136.608Z" fill="#5590CC"/>
<path d="M1171.1 139.491V96.5631C1171.1 96.5631 1168.59 37.2972 1114.67 33.7731L1077.27 33.0664C1075.01 33.1127 1072.83 33.8955 1071.06 35.2955C1069.29 36.6955 1068.03 38.6359 1067.46 40.8209C1066.63 43.7335 1066.35 46.7748 1066.63 49.7909C1066.63 49.7909 1066.07 62.6051 1073.89 61.3237H1111.32C1111.32 61.3237 1149.31 63.8866 1149.87 107.455V136.928C1149.87 136.928 1149.31 145.898 1162.72 145.257C1162.72 145.257 1169.43 144.616 1171.1 139.491Z" fill="#90D7F0"/>
<path d="M1161.03 133.725C1163.2 133.725 1164.96 131.709 1164.96 129.223C1164.96 126.736 1163.2 124.721 1161.03 124.721C1158.86 124.721 1157.1 126.736 1157.1 129.223C1157.1 131.709 1158.86 133.725 1161.03 133.725Z" fill="#5590CC"/>
<path d="M1077.92 51.3929C1080.09 51.3929 1081.85 49.3774 1081.85 46.8911C1081.85 44.4047 1080.09 42.3892 1077.92 42.3892C1075.76 42.3892 1074 44.4047 1074 46.8911C1074 49.3774 1075.76 51.3929 1077.92 51.3929Z" fill="#5590CC"/>
<path d="M1155.79 68.5249C1157.43 66.9281 1154.63 61.3854 1149.54 56.1448C1144.44 50.9043 1138.98 47.9504 1137.34 49.5472C1135.69 51.144 1138.49 56.6867 1143.59 61.9273C1148.69 67.1678 1154.15 70.1216 1155.79 68.5249Z" fill="white"/>
<path d="M301.198 626.358C297.465 618.269 286.088 616.535 286.088 616.535V601.32H249.292V616.535C249.292 616.535 237.916 618.269 234.182 626.358C230.915 633.438 231.14 662.272 231.262 674.329C231.228 675.557 231.678 676.751 232.517 677.649C233.356 678.548 234.515 679.081 235.743 679.131H299.638C300.866 679.081 302.025 678.548 302.864 677.649C303.703 676.751 304.153 675.558 304.119 674.329C304.24 662.272 304.466 633.438 301.198 626.358Z" fill="#EE2E3D"/>
<path d="M304.119 669.716C304.154 670.945 303.703 672.138 302.864 673.037C302.025 673.936 300.866 674.468 299.638 674.518H235.743C234.515 674.468 233.356 673.936 232.517 673.037C231.679 672.138 231.228 670.945 231.263 669.716C231.243 667.693 231.219 665.196 231.21 662.41C231.193 667.097 231.231 671.33 231.263 674.444C231.228 675.673 231.679 676.866 232.517 677.765C233.356 678.663 234.515 679.195 235.743 679.246H299.638C300.866 679.195 302.025 678.663 302.864 677.765C303.703 676.866 304.154 675.673 304.119 674.444C304.15 671.33 304.189 667.097 304.172 662.41C304.163 665.196 304.139 667.693 304.119 669.716Z" fill="#E8203B"/>
<path d="M301.198 626.358C297.465 618.269 286.088 616.535 286.088 616.535V601.32H277.556V616.535C277.556 616.535 288.932 618.269 292.666 626.358C295.933 633.438 295.708 662.272 295.586 674.329C295.62 675.557 295.17 676.751 294.331 677.649C293.492 678.548 292.333 679.081 291.105 679.131H299.637C300.866 679.081 302.025 678.548 302.863 677.649C303.702 676.751 304.153 675.557 304.118 674.329C304.24 662.272 304.466 633.438 301.198 626.358Z" fill="#E8203B"/>
<path d="M288.331 612.192H247.05V608.907C247.05 606.236 248.111 603.675 249.999 601.786C251.888 599.898 254.449 598.837 257.12 598.837H278.26C280.931 598.837 283.492 599.898 285.381 601.787C287.27 603.675 288.331 606.237 288.331 608.908V612.192Z" fill="#E6E6E5"/>
<path d="M287.828 613.598H247.553V616.39H287.828V613.598Z" fill="#E6E6E5"/>
<path d="M285.174 598.837H275.397C276.234 598.837 277.037 599.169 277.629 599.761C278.221 600.353 278.554 601.156 278.554 601.994V612.192H288.331V601.994C288.331 601.156 287.998 600.353 287.406 599.761C286.814 599.169 286.011 598.837 285.174 598.837Z" fill="#D2D2D2"/>
<path d="M288.331 613.598H278.554V616.39H288.331V613.598Z" fill="#D2D2D2"/>
<path d="M249.292 616.535L290.866 620.755L286.089 616.535H249.292Z" fill="#E8203B"/>
<path d="M292.683 633.08H242.081V665.432H292.683V633.08Z" fill="#E6E6E5"/>
<path d="M280.25 633.079C275.257 637.942 270.264 642.804 265.27 647.667C264.45 648.465 263.342 649.329 262.28 648.9C261.246 648.481 260.904 647.029 259.846 646.677C259.447 646.608 259.037 646.628 258.647 646.734C258.256 646.841 257.893 647.031 257.584 647.293C251.837 650.986 247.01 655.945 243.473 661.789L251.374 662.851C253.999 660.186 256.637 657.534 259.287 654.895C259.899 654.285 260.859 653.645 261.533 654.186C261.795 654.479 262.005 654.815 262.153 655.179C262.432 655.563 262.815 655.859 263.256 656.031C263.698 656.204 264.18 656.246 264.645 656.153C265.572 655.952 266.442 655.545 267.191 654.962C270.502 652.549 273.553 649.798 276.293 646.752C279.7 643.172 283.017 639.508 286.243 635.761C287 634.916 287.697 634.02 288.33 633.079H280.25Z" fill="#EE2E3D"/>
<path d="M292.683 659.388H242.081V665.432H292.683V659.388Z" fill="#555554"/>
<path d="M292.683 633.08H242.081V635.45H292.683V633.08Z" fill="#555554"/>
<path d="M290.866 653.479C290.866 654.314 290.618 655.131 290.154 655.825C289.69 656.52 289.03 657.061 288.259 657.381C287.487 657.701 286.638 657.784 285.819 657.621C284.999 657.458 284.247 657.056 283.656 656.465C283.066 655.875 282.664 655.122 282.501 654.303C282.338 653.484 282.421 652.635 282.741 651.863C283.061 651.091 283.602 650.432 284.296 649.968C284.991 649.504 285.807 649.256 286.643 649.256C287.197 649.256 287.746 649.365 288.259 649.577C288.771 649.79 289.237 650.101 289.629 650.493C290.021 650.885 290.332 651.351 290.544 651.863C290.757 652.375 290.866 652.925 290.866 653.479Z" fill="#555554"/>
<path opacity="0.46" d="M240.045 629.21C238.435 633.232 237.86 637.594 238.37 641.896C238.426 643.094 238.681 644.275 239.123 645.391C239.368 646.095 239.806 646.717 240.387 647.185C240.968 647.653 241.669 647.948 242.409 648.038C243.15 648.127 243.901 648.007 244.576 647.691C245.252 647.375 245.826 646.875 246.231 646.249C247.262 644.836 247.892 643.171 248.055 641.429C248.657 637.372 248.35 632.951 250.585 629.512C251.828 627.835 253.33 626.365 255.033 625.158C255.831 624.518 256.698 623.699 256.617 622.679C256.544 622.288 256.382 621.919 256.144 621.6C255.906 621.281 255.597 621.021 255.243 620.84C252.259 618.98 249.114 620.326 246.378 621.911C243.552 623.618 241.337 626.172 240.045 629.21Z" fill="white"/>
<path opacity="0.46" d="M243.532 650.211C242.169 650.178 240.829 650.57 239.699 651.334C239.403 651.524 239.14 651.76 238.919 652.034C238.632 652.46 238.469 652.957 238.448 653.47C238.427 653.983 238.548 654.492 238.799 654.94C239.037 655.397 239.372 655.797 239.779 656.112C240.187 656.426 240.658 656.648 241.161 656.763C241.663 656.877 242.184 656.88 242.688 656.773C243.192 656.666 243.666 656.45 244.078 656.141C244.49 655.832 244.83 655.437 245.074 654.983C245.318 654.53 245.46 654.028 245.491 653.514C245.522 653 245.44 652.485 245.252 652.006C245.064 651.526 244.774 651.093 244.401 650.737L243.532 650.211Z" fill="white"/>
<path d="M249.292 601.32H248.204V612.192H249.292V601.32Z" fill="#D2D2D2"/>
<path d="M253.265 601.32H252.176V612.192H253.265V601.32Z" fill="#D2D2D2"/>
<path d="M257.238 601.32H256.149V612.192H257.238V601.32Z" fill="#D2D2D2"/>
<path d="M261.211 601.32H260.122V612.192H261.211V601.32Z" fill="#D2D2D2"/>
<path d="M265.183 601.32H264.095V612.192H265.183V601.32Z" fill="#D2D2D2"/>
<path d="M269.156 601.32H268.067V612.192H269.156V601.32Z" fill="#D2D2D2"/>
<path d="M273.129 601.32H272.041V612.192H273.129V601.32Z" fill="#D2D2D2"/>
<path d="M277.102 601.32H276.013V612.192H277.102V601.32Z" fill="#D2D2D2"/>
<path d="M269.569 601.439C269.907 601.438 270.335 601.372 270.421 601.045C270.526 600.645 270.012 600.386 269.607 600.305C266.626 599.826 263.602 599.677 260.588 599.862C258.141 599.922 255.693 599.982 253.245 600.041C252.267 600.065 248.738 599.483 248.294 600.727C247.865 601.928 249.814 601.517 250.526 601.515C251.704 601.51 252.882 601.505 254.06 601.501C256.546 601.491 259.033 601.481 261.52 601.471C264.203 601.461 266.886 601.45 269.569 601.439Z" fill="white"/>
<path d="M249.538 614.845C249.395 614.928 249.284 615.057 249.222 615.209C249.196 615.352 249.224 615.498 249.299 615.622C249.374 615.745 249.491 615.837 249.629 615.879C249.909 615.956 250.202 615.963 250.485 615.901C252.999 615.567 255.545 615.549 258.064 615.846C259.11 616.047 260.181 616.073 261.235 615.921C261.475 615.868 261.747 615.755 261.799 615.516C261.882 615.132 261.362 614.93 260.97 614.893C258.909 614.7 256.844 614.552 254.776 614.449C253.188 614.37 250.934 613.866 249.538 614.845Z" fill="white"/>
<path d="M338.382 613.598H298.107V616.39H338.382V613.598Z" fill="#E6E6E5"/>
<path d="M335.728 598.837H325.952C326.789 598.837 327.592 599.169 328.184 599.761C328.776 600.353 329.108 601.156 329.108 601.994V612.192H338.885V601.994C338.885 601.579 338.803 601.169 338.645 600.786C338.486 600.403 338.254 600.055 337.96 599.761C337.667 599.468 337.319 599.236 336.936 599.077C336.553 598.919 336.143 598.837 335.728 598.837Z" fill="#D2D2D2"/>
<path d="M338.885 613.598H329.108V616.39H338.885V613.598Z" fill="#D2D2D2"/>
<path d="M299.847 616.535L341.42 620.755L336.643 616.535H299.847Z" fill="#78C043"/>
<path d="M343.238 633.08H292.635V665.432H343.238V633.08Z" fill="#E6E6E5"/>
<path d="M330.805 633.079C325.812 637.942 320.819 642.804 315.825 647.667C315.005 648.465 313.897 649.329 312.835 648.9C311.801 648.481 311.459 647.029 310.401 646.677C310.002 646.608 309.592 646.628 309.201 646.734C308.811 646.841 308.448 647.031 308.139 647.293C302.391 650.986 297.565 655.945 294.027 661.789L301.929 662.851C304.554 660.186 307.191 657.534 309.841 654.895C310.454 654.285 311.414 653.645 312.088 654.186C312.35 654.479 312.559 654.815 312.708 655.179C312.987 655.563 313.37 655.859 313.811 656.031C314.253 656.204 314.735 656.246 315.2 656.153C316.127 655.951 316.997 655.544 317.746 654.962C321.057 652.549 324.107 649.798 326.847 646.752C330.255 643.172 333.572 639.508 336.798 635.761C337.555 634.916 338.252 634.02 338.884 633.079H330.805Z" fill="#78C043"/>
<path d="M343.238 659.388H292.635V665.432H343.238V659.388Z" fill="#555554"/>
<path d="M343.238 633.08H292.635V635.45H343.238V633.08Z" fill="#555554"/>
<path d="M340.183 656.465C341.832 654.816 341.832 652.142 340.183 650.493C338.534 648.844 335.86 648.844 334.211 650.493C332.562 652.142 332.562 654.816 334.211 656.465C335.86 658.114 338.534 658.114 340.183 656.465Z" fill="#555554"/>
<path opacity="0.46" d="M290.6 629.21C288.991 633.232 288.415 637.594 288.925 641.896C288.982 643.094 289.236 644.275 289.678 645.391C289.923 646.095 290.361 646.717 290.942 647.185C291.523 647.653 292.224 647.948 292.965 648.038C293.705 648.127 294.456 648.007 295.132 647.691C295.807 647.375 296.381 646.875 296.787 646.249C297.818 644.836 298.448 643.171 298.61 641.429C299.212 637.372 298.905 632.951 301.14 629.512C302.383 627.835 303.885 626.365 305.589 625.158C306.386 624.518 307.253 623.699 307.172 622.679C307.099 622.288 306.937 621.919 306.699 621.6C306.461 621.281 306.153 621.021 305.798 620.84C302.814 618.98 299.669 620.326 296.933 621.911C294.108 623.618 291.892 626.172 290.6 629.21Z" fill="white"/>
<path opacity="0.46" d="M294.087 650.211C292.723 650.178 291.383 650.57 290.253 651.334C289.957 651.524 289.694 651.76 289.473 652.034C289.186 652.46 289.023 652.957 289.002 653.47C288.981 653.983 289.103 654.492 289.354 654.94C289.591 655.397 289.926 655.797 290.334 656.111C290.741 656.426 291.213 656.648 291.715 656.762C292.217 656.877 292.738 656.88 293.242 656.773C293.745 656.665 294.22 656.45 294.632 656.141C295.044 655.832 295.383 655.436 295.627 654.983C295.871 654.529 296.014 654.028 296.045 653.514C296.075 653 295.994 652.485 295.806 652.006C295.618 651.526 295.328 651.093 294.956 650.737L294.087 650.211Z" fill="white"/>
<path d="M299.847 601.32H298.758V612.192H299.847V601.32Z" fill="#D2D2D2"/>
<path d="M303.82 601.32H302.731V612.192H303.82V601.32Z" fill="#D2D2D2"/>
<path d="M307.792 601.32H306.704V612.192H307.792V601.32Z" fill="#D2D2D2"/>
<path d="M311.765 601.32H310.676V612.192H311.765V601.32Z" fill="#D2D2D2"/>
<path d="M315.738 601.32H314.649V612.192H315.738V601.32Z" fill="#D2D2D2"/>
<path d="M319.711 601.32H318.622V612.192H319.711V601.32Z" fill="#D2D2D2"/>
<path d="M323.683 601.32H322.595V612.192H323.683V601.32Z" fill="#D2D2D2"/>
<path d="M327.656 601.32H326.568V612.192H327.656V601.32Z" fill="#D2D2D2"/>
<path d="M320.123 601.439C320.461 601.438 320.889 601.372 320.975 601.045C321.08 600.645 320.567 600.386 320.161 600.305C317.181 599.826 314.156 599.677 311.143 599.862L303.8 600.041C302.822 600.065 299.292 599.483 298.848 600.727C298.42 601.928 300.369 601.517 301.081 601.515C302.259 601.51 303.436 601.505 304.614 601.501L312.074 601.471C314.757 601.461 317.44 601.45 320.123 601.439Z" fill="white"/>
<path d="M300.092 614.845C299.949 614.929 299.838 615.057 299.776 615.209C299.75 615.352 299.778 615.498 299.853 615.622C299.928 615.745 300.046 615.837 300.184 615.879C300.463 615.956 300.757 615.963 301.039 615.901C303.554 615.567 306.1 615.549 308.618 615.846C309.664 616.047 310.736 616.073 311.79 615.921C312.029 615.868 312.301 615.755 312.353 615.516C312.437 615.132 311.916 614.93 311.524 614.893C309.463 614.7 307.398 614.552 305.33 614.449C303.742 614.37 301.489 613.866 300.092 614.845Z" fill="white"/>
<path d="M1106.65 472.497C1106.57 470.659 1106.22 468.842 1105.62 467.103C1104.71 464.686 1103.05 462.588 1102.42 460.08C1101.32 463.228 1099.18 465.871 1097.61 468.806C1095.75 472.357 1094.72 476.283 1094.59 480.291C1094.46 484.298 1095.24 488.283 1096.87 491.947L1097.28 494.22C1097.54 494.711 1097.89 495.263 1098.43 495.307C1098.66 495.292 1098.88 495.229 1099.09 495.122C1099.29 495.015 1099.46 494.866 1099.6 494.686C1105.24 489.081 1107.21 480.494 1106.65 472.497Z" fill="#734339"/>
<path d="M1101.41 512.274L1097.95 511.922L1097.39 511.864L1093.93 511.513C1093.73 513.493 1084.45 564.245 1080.41 604.524C1078.32 625.334 1076.69 679.522 1076.69 679.522L1079.83 684.452L1079.75 685.17L1080.07 684.84L1080.32 685.228L1080.39 684.51L1084.46 680.313C1084.46 680.313 1093.78 626.907 1095.92 606.103C1100.08 565.835 1101.21 514.254 1101.41 512.274Z" fill="#F1CD7D"/>
<path d="M1100.66 536.75L1089.74 535.639L1096.49 490.595L1102.25 491.181L1100.66 536.75Z" fill="#BBBBBB"/>
<path d="M1090.02 533.796L1100.72 534.788L1100.78 533.163L1090.27 532.094L1090.02 533.796Z" fill="#939393"/>
<path d="M1090.73 528.615L1090.58 530.002L1100.72 531.034L1100.87 529.647L1090.73 528.615Z" fill="#939393"/>
<path opacity="0.46" d="M1097.1 496.934C1095.15 507.404 1093.66 517.99 1092.64 528.619C1092.55 529.224 1092.56 529.841 1092.69 530.44C1092.84 531.005 1093.29 531.461 1093.74 531.31C1094.32 531.12 1094.54 530.192 1094.65 529.424C1096.22 518.866 1097.56 508.273 1098.68 497.644C1098.91 495.5 1097.59 494.305 1097.1 496.934Z" fill="white"/>
<path opacity="0.46" d="M1097.12 474.745C1096.76 475.591 1096.62 476.515 1096.71 477.43C1096.75 477.716 1096.85 477.99 1097.01 478.228C1097.17 478.466 1097.39 478.662 1097.65 478.799C1098.06 478.917 1098.49 478.897 1098.89 478.742C1099.29 478.586 1099.63 478.304 1099.85 477.938C1100.53 476.778 1100.87 475.45 1100.84 474.104C1100.93 472.689 1101.03 471.274 1101.12 469.859C1101.18 468.924 1101.66 467.061 1101.14 466.305C1099.24 468.549 1098.06 471.989 1097.12 474.745Z" fill="white"/>
<path d="M1140.69 468.362C1140.37 467.818 1126.19 465.076 1120.12 464.104C1117.77 475.19 1115.9 488.018 1119.68 498.953L1124.67 504.075C1128.67 501.512 1130.77 497.155 1132.68 493.005C1136.08 485.649 1140.9 468.722 1140.69 468.362Z" fill="#B29952"/>
<path d="M1126 517.998L1121.65 517.122L1120.93 516.978L1116.58 516.102C1116.19 518.036 1101 566.966 1093.15 606.307C1089.1 626.632 1083.37 680.139 1083.37 680.139L1087.01 685.509L1086.87 686.21L1087.3 685.931L1087.59 686.354L1087.73 685.653L1093.17 682.11C1093.17 682.11 1108.58 630.552 1112.71 610.241C1120.69 570.929 1125.61 519.932 1126 517.998Z" fill="#F1CD7D"/>
<path d="M1123.35 542.155L1109.67 539.403L1118.8 495.252L1130.56 497.619L1123.35 542.155Z" fill="#BBBBBB"/>
<path d="M1110.14 537.616L1123.57 540.22L1123.84 538.635L1110.48 535.946L1110.14 537.616Z" fill="#939393"/>
<path d="M1111.02 533.92L1124.14 536.56L1124.33 535.189L1111.39 532.585L1111.02 533.92Z" fill="#939393"/>
<path opacity="0.46" d="M1121.58 502.124C1118.41 512.22 1115.81 522.488 1113.8 532.878C1113.64 533.47 1113.62 534.089 1113.74 534.691C1113.8 534.983 1113.95 535.245 1114.19 535.431C1114.42 535.618 1114.71 535.718 1115.01 535.714C1115.74 535.612 1116.09 534.725 1116.28 533.98C1118.98 523.745 1121.39 513.44 1123.53 503.067C1123.96 500.976 1122.38 499.59 1121.58 502.124Z" fill="white"/>
<path opacity="0.46" d="M1136.3 470.135C1136.66 470.217 1137.04 470.216 1137.4 470.134C1137.58 470.088 1137.75 469.986 1137.86 469.841C1137.98 469.697 1138.05 469.518 1138.05 469.332C1138.02 468.792 1137.38 468.548 1136.85 468.431L1123.63 465.513C1122.69 465.305 1120.01 465.399 1120.96 467.057C1121.59 468.152 1124.65 468.183 1125.76 468.386C1129.26 469.026 1132.78 469.609 1136.3 470.135Z" fill="white"/>
<path d="M1159.87 508.452L1147.82 493.072C1147.82 493.072 1140.84 509.962 1143.37 524.996L1147.18 529.939C1150.91 528.119 1153.16 524.554 1155.24 521.15C1157.54 517.233 1159.11 512.93 1159.87 508.452Z" fill="#734339"/>
<path d="M1146.93 542.14L1143.25 540.943L1142.64 540.746L1138.96 539.548C1138.42 541.186 1120.33 582.067 1109.57 615.376C1104.01 632.585 1093.65 678.387 1093.65 678.387L1096.27 683.409L1096.08 684.003L1096.48 683.804L1096.68 684.199L1096.88 683.606L1101.95 681.083C1101.95 681.083 1120.5 637.946 1126.12 620.756C1137 587.485 1146.4 543.777 1146.93 542.14Z" fill="#F1CD7D"/>
<path d="M1142.2 562.812L1130.62 559.049L1142.98 521.7L1152.94 524.936L1142.2 562.812Z" fill="#BBBBBB"/>
<path d="M1131.21 557.548L1142.58 561.156L1142.98 559.811L1131.67 556.134L1131.21 557.548Z" fill="#939393"/>
<path d="M1132.34 554.433L1143.45 558.042L1143.75 556.873L1132.8 553.313L1132.34 554.433Z" fill="#939393"/>
<path opacity="0.46" d="M1144.7 527.936C1140.93 536.367 1137.65 545.006 1134.86 553.81C1134.66 554.307 1134.58 554.842 1134.62 555.375C1134.64 555.634 1134.75 555.877 1134.94 556.062C1135.12 556.247 1135.36 556.363 1135.62 556.389C1136.27 556.375 1136.65 555.641 1136.9 555.015C1140.26 546.414 1143.4 537.726 1146.3 528.95C1146.88 527.181 1145.64 525.82 1144.7 527.936Z" fill="white"/>
<path opacity="0.23" d="M1145.4 511.936C1145.12 512.838 1144.99 513.778 1145 514.722C1145.01 515.194 1145.13 515.657 1145.37 516.068C1145.6 516.48 1145.93 516.827 1146.33 517.079C1146.89 514.753 1147.45 512.427 1148.01 510.101C1148.3 508.719 1148.7 507.363 1149.22 506.046C1149.98 504.246 1151.46 502.299 1150.65 500.29C1150.33 499.489 1149.07 497.735 1147.98 498.186C1146.87 498.653 1147.07 503.088 1146.91 504.162C1146.54 506.778 1146.04 509.372 1145.4 511.936Z" fill="white"/>
<path d="M175.923 409.318C175.923 409.318 177.806 396.083 169.572 389.477C169.572 389.477 163.982 386.393 160.294 387.701C160.294 387.701 153.66 389.447 155.497 397.309C155.497 397.309 160.247 408.799 166.724 412.379L175.923 409.318Z" fill="#BC6335"/>
<path d="M168.669 409.459L171.775 408.357C171.775 408.357 170.755 396.692 165.509 394.229C165.509 394.229 160.775 392.26 161.042 397.706C162.57 402.196 165.191 406.235 168.669 409.459Z" fill="#E17A6F"/>
<path d="M209.065 408.91C209.065 408.91 203.862 396.596 210.134 388.105C210.134 388.105 214.75 383.695 218.649 384.017C218.649 384.017 225.509 384.009 225.743 392.079C225.743 392.079 224.087 404.401 218.741 409.518L209.065 408.91Z" fill="#BC6335"/>
<path d="M216.114 407.192L212.83 406.921C212.83 406.921 210.834 395.383 215.277 391.661C215.277 391.661 219.35 388.547 220.483 393.88C220.154 398.612 218.653 403.187 216.114 407.192Z" fill="#E17A6F"/>
<path d="M140.522 433.347C140.522 433.347 145.379 408.94 175.541 408.535C211.233 408.057 225.85 408.288 225.85 408.288C225.85 408.288 244.42 407.962 249.633 427.836C249.633 427.836 261.034 458.496 263.316 466.931C263.316 466.931 277.651 507.655 280.378 514.021C280.378 514.021 321.598 606.7 318.137 650.889C318.137 650.889 325.607 765.057 275.044 784.903C275.044 784.903 197.736 806.095 124.597 780.161C124.597 780.161 64.3036 735.356 86.4144 636.601L113.931 527.902C113.931 527.902 133.082 447.387 140.522 433.347Z" fill="#C66E40"/>
<path d="M223.561 432.682C223.561 432.682 217.484 421.883 203.993 429.627C203.993 429.627 216.127 428.444 223.561 432.682Z" fill="#442219"/>
<path d="M187.939 432.306C187.939 432.306 178.625 423.6 168.244 434.59C168.244 434.59 179.458 430.233 187.939 432.306Z" fill="#442219"/>
<path d="M179.57 453.795C184.453 453.795 188.412 450.211 188.412 445.79C188.412 441.37 184.453 437.786 179.57 437.786C174.686 437.786 170.727 441.37 170.727 445.79C170.727 450.211 174.686 453.795 179.57 453.795Z" fill="white"/>
<path d="M170.977 443.819C170.977 443.819 177.395 439.056 187.618 442.33C187.618 442.33 185.826 436.677 178.26 437.604C178.26 437.604 172.255 437.789 170.977 443.819Z" fill="#A15241"/>
<path d="M183.171 448.75C183.171 448.75 184.619 444.445 181.502 443.074C178.385 441.702 175.099 446.383 177.143 448.947C179.187 451.51 182.602 450.304 183.171 448.75Z" fill="#4A243E"/>
<path d="M210.759 454.188C215.643 454.188 219.602 450.604 219.602 446.184C219.602 441.763 215.643 438.179 210.759 438.179C205.875 438.179 201.916 441.763 201.916 446.184C201.916 450.604 205.875 454.188 210.759 454.188Z" fill="white"/>
<path d="M219.352 444.212C219.352 444.212 212.933 439.449 202.711 442.724C202.711 442.724 204.503 437.07 212.069 437.997C212.069 437.997 218.074 438.182 219.352 444.212Z" fill="#A15241"/>
<path d="M207.158 449.143C207.158 449.143 205.709 444.838 208.827 443.467C211.944 442.095 215.23 446.776 213.186 449.339C211.142 451.903 207.727 450.697 207.158 449.143Z" fill="#4A243E"/>
<path d="M164.518 462.481C175.697 459.258 200.092 454.266 224.606 462.648C226.111 463.158 227.389 464.18 228.218 465.535C229.047 466.891 229.375 468.494 229.144 470.066C226.462 487.792 216.85 503.727 202.42 514.367C201.586 514.988 200.618 515.407 199.594 515.59C198.57 515.773 197.517 515.715 196.52 515.421C188.8 513.131 169.695 504.21 159.863 470.855C159.616 470 159.541 469.104 159.642 468.22C159.743 467.335 160.017 466.479 160.45 465.701C160.883 464.923 161.465 464.238 162.163 463.685C162.861 463.133 163.661 462.723 164.518 462.481Z" fill="#EF946C"/>
<path d="M84.1307 718.043C84.1307 718.043 241.162 771.717 315.442 714.504C315.442 714.504 333.035 616.004 293.94 535.788C293.94 535.788 291.985 528.71 284.818 528.71C284.818 528.71 258.103 566.459 200.764 577.076C200.764 577.076 132.999 562.33 110.194 533.429C110.194 533.429 65.2349 597.719 84.1307 718.043Z" fill="#EE994F"/>
<path d="M112.8 531.659C112.8 531.659 140.818 565.869 202.067 572.357C202.067 572.357 268.528 554.662 284.166 525.171C286.514 525.445 288.717 526.444 290.47 528.03C292.222 529.616 293.435 531.71 293.94 534.019C293.94 534.019 260.058 571.177 202.718 581.204C202.718 581.204 145.379 574.127 107.587 539.327C107.587 539.327 104.981 535.198 112.8 531.659Z" fill="#DB6A40"/>
<path d="M290.953 606.696C281.348 572.163 271.273 555.579 291.973 550.384C312.673 545.189 331.635 562.858 341.24 597.392C346.484 616.245 347.844 636.215 344.64 651.319C343.676 668.591 342.672 688.336 341.426 701.112C343.521 712.484 340.053 724.445 340.053 724.445C340.162 730.541 337.762 729.143 337.762 729.143C337.569 728.983 337.415 728.781 337.313 728.552C337.21 728.323 337.162 728.073 337.172 727.823L335.883 720.445C336.243 724.47 335.499 728.517 333.731 732.152C332.937 734.45 331.371 734.025 331.371 734.025C331.121 733.974 330.891 733.85 330.711 733.67C330.531 733.489 330.407 733.259 330.357 733.009C329.733 731.787 329.741 727.926 329.851 724.965C329.544 727.096 329.069 729.21 329.069 729.21C327.014 736.14 324.258 732.935 324.258 732.935C323.275 730.902 322.686 726.667 322.375 723.664C322.07 726.288 321.507 728.877 320.694 731.391C317.872 735.236 316.46 730.002 316.46 730.002C313.28 724.883 315.784 716.703 315.784 716.703C310.44 722.654 308.428 719.54 308.428 719.54C307.03 716.302 311.533 710.6 311.533 710.6C311.679 709.437 315.513 701.537 315.932 700.676L307.312 662.093C300.724 648.442 296.531 626.749 290.953 606.696Z" fill="#A15241"/>
<path d="M315.932 700.676L307.312 662.094C300.724 648.442 296.53 626.749 290.953 606.696C281.347 572.163 271.273 555.579 291.973 550.384C312.673 545.189 331.634 562.858 341.24 597.392C346.484 616.245 347.844 636.215 344.64 651.319C343.676 668.591 342.671 688.336 341.425 701.112C341.427 701.112 326.702 697.011 315.932 700.676Z" fill="#DB6A40"/>
<path d="M182.372 464.824C188.002 463.556 197.765 462.227 207.766 464.911C208.891 465.161 209.875 465.839 210.508 466.803C211.142 467.766 211.374 468.938 211.157 470.07C209.513 477.042 205.338 483.153 199.442 487.22C198.759 487.693 197.975 487.999 197.153 488.114C196.33 488.228 195.493 488.147 194.707 487.878C190.707 486.51 183.256 482.441 178.865 470.591C178.665 469.981 178.6 469.336 178.673 468.699C178.747 468.061 178.957 467.448 179.29 466.9C179.624 466.352 180.072 465.882 180.604 465.524C181.135 465.166 181.739 464.927 182.372 464.824Z" fill="#442219"/>
<path d="M183.57 497.764C189.12 499.805 199.738 502.385 209.287 497.141C209.519 497.014 209.787 496.971 210.046 497.019C210.306 497.068 210.541 497.205 210.714 497.408C210.887 497.611 210.988 497.868 210.999 498.137C211.01 498.405 210.932 498.67 210.776 498.887C208.393 502.267 203.783 506.376 195.575 505.972C195.531 505.97 195.493 505.967 195.449 505.961C194.696 505.854 187.21 504.678 182.337 499.723C182.15 499.53 182.034 499.278 182.006 499.008C181.979 498.739 182.042 498.468 182.185 498.24C182.329 498.012 182.544 497.841 182.796 497.754C183.047 497.668 183.32 497.671 183.57 497.764Z" fill="#442219"/>
<path d="M196.976 501.613L194.804 485.758H197.628L196.976 501.613Z" fill="#442219"/>
<path d="M311.283 732.715C312.521 764.393 302.918 799.431 285.001 825.584C290.752 831.11 295.379 837.697 298.628 844.981C299.722 847.436 300.595 850.492 298.984 852.644C297.579 854.519 294.929 854.817 292.589 854.931C279.993 855.542 267.372 855.416 254.791 854.553C245.436 853.911 234.859 852.14 229.705 844.306C226.622 839.622 226.206 833.731 225.883 828.132C225.232 816.852 224.398 791.877 223.747 780.597L311.283 732.715Z" fill="#C66E40"/>
<path d="M93.5198 734.733C93.2104 766.693 103.125 797.915 121.817 823.841C116.216 829.519 111.766 836.227 108.712 843.595C107.685 846.078 106.894 849.157 108.562 851.265C110.016 853.102 112.673 853.329 115.015 853.38C127.623 853.655 140.236 853.192 152.789 851.994C162.124 851.102 172.649 849.05 177.594 841.081C180.55 836.316 180.809 830.416 180.982 824.811C181.332 813.517 181.462 785.752 181.811 774.458L93.5198 734.733Z" fill="#C66E40"/>
<path d="M80.7774 543.902C91.0526 578.242 62.7306 526.888 42.1346 532.484C21.5386 538.081 35.7181 532.484 29.8556 541.837C24.246 523.09 22.4974 503.151 25.4072 487.987C26.0348 470.699 27.6319 451.153 28.6286 438.355C26.3131 427.026 29.5471 415 29.5471 415C29.3197 408.908 31.7466 410.258 31.7466 410.258C31.9429 410.414 32.1006 410.614 32.2074 410.841C32.3143 411.068 32.3674 411.316 32.3627 411.567L33.7947 418.919C33.3561 414.901 34.0211 410.84 35.7181 407.172C36.4672 404.858 38.0419 405.253 38.0419 405.253C38.2928 405.299 38.5246 405.418 38.7084 405.595C38.8922 405.773 39.0198 406 39.0755 406.249C39.7224 407.458 39.7895 411.319 39.7366 414.282C40.0029 412.145 40.4363 410.023 40.4363 410.023C42.3558 403.054 45.1744 406.205 45.1744 406.205C46.1961 408.218 46.8673 412.441 47.2371 415.437C47.491 412.807 48.0036 410.209 48.7674 407.679C51.5134 403.78 53.0276 408.985 53.0276 408.985C56.3064 414.042 53.9619 422.268 53.9619 422.268C59.1894 416.214 61.2608 419.289 61.2608 419.289C62.7218 422.499 58.3311 428.288 58.3311 428.288C58.2071 429.454 54.5278 437.426 54.126 438.295L42.1346 514.385C48.9883 527.906 61.9251 531.544 80.7774 543.902Z" fill="#A15241"/>
<path d="M53.5125 442.484L56.5125 481.984C62.0125 506.484 62.0001 517.5 105.5 540.5C110.26 554.705 101 589.5 85.9999 600.5C81 603.113 56.0123 590.484 28.1208 562.984C15.1208 544.984 16.0125 542.984 14.0125 520.484C10.7237 483.484 25.0125 455.484 28.1209 443.514C28.1209 443.514 43.8971 448.563 53.5125 442.484Z" fill="#DB6A40"/>
</g>
<defs>
<clipPath id="clip0">
<rect width="1366" height="768" fill="white"/>
</clipPath>
</defs>
</svg>
