<?xml version="1.0" encoding="utf-8"?>
<!-- Generator: Adobe Illustrator 25.2.1, SVG Export Plug-In . SVG Version: 6.00 Build 0)  -->
<svg version="1.1" id="Layer_1" xmlns="http://www.w3.org/2000/svg" xmlns:xlink="http://www.w3.org/1999/xlink" x="0px" y="0px"
	 viewBox="0 0 1366 768" style="enable-background:new 0 0 1366 768;" xml:space="preserve">
<style type="text/css">
	.st0{fill:#5DABFF;}
	.st1{fill:#7DB8F8;fill-opacity:0.7;}
	.st2{opacity:0.9;}
	.st3{fill:#C4C4C4;filter:url(#Adobe_OpacityMaskFilter);}
	.st4{mask:url(#mask0_1_);}
	.st5{fill:#DABF92;}
	.st6{fill:#C1A785;}
	.st7{fill:#E5C99B;}
	.st8{fill:#3B5368;}
	.st9{fill:#F8F8EE;}
	.st10{fill:#52CC94;}
	.st11{fill:#E9F7FE;}
	.st12{opacity:0.58;fill:#FFFFFF;enable-background:new    ;}
	.st13{opacity:0.38;fill:#FFFFFF;enable-background:new    ;}
	.st14{fill:#EEA995;}
	.st15{fill:#F8CC95;}
	.st16{opacity:0.23;}
	.st17{fill:#C7867B;}
	.st18{fill:#DBAA75;}
	.st19{fill:#AE7F5A;}
	.st20{fill:#FFF5EA;}
	.st21{fill:#D33746;}
	.st22{fill:#F4E4D3;}
	.st23{fill:#B5303D;}
	.st24{fill:#FFFFFF;fill-opacity:0.9;}
	.st25{fill:#59CAF0;stroke:#2EADE3;stroke-width:9.4824;}
	.st26{fill:#FFCC00;}
	.st27{fill:#FCDC59;}
	.st28{fill:#DA8100;}
	.st29{fill:#F0AA00;}
	.st30{fill:#EA9C00;}
	.st31{fill:#5A70AA;}
	.st32{fill:#FFFFFF;fill-opacity:0.49;}
	.st33{fill:#FBF452;}
	.st34{fill:#CAE4F2;}
	.st35{fill:#D51040;}
	.st36{fill:#0070BE;}
	.st37{fill:#161616;}
	.st38{fill:#FFFFFF;}
	.st39{fill:#E1E6F0;}
	.st40{fill:#F03131;}
	.st41{fill:#A57FF4;}
	.st42{fill-rule:evenodd;clip-rule:evenodd;fill:#358ED7;}
	.st43{fill-rule:evenodd;clip-rule:evenodd;fill:#F96131;}
	.st44{fill:#0A0D45;}
	.st45{fill-rule:evenodd;clip-rule:evenodd;fill:#F23D31;}
	.st46{fill-rule:evenodd;clip-rule:evenodd;fill:#F4CE5A;}
	.st47{fill-rule:evenodd;clip-rule:evenodd;fill:#F06292;}
	.st48{fill-rule:evenodd;clip-rule:evenodd;fill:#FF8328;}
	.st49{fill:#3BB376;}
	.st50{fill:none;stroke:#C0FB86;stroke-width:1.7026;stroke-miterlimit:10;stroke-dasharray:5.11,5.11;}
	.st51{fill:#B07EC1;}
	.st52{fill:#328FE4;}
	.st53{fill-rule:evenodd;clip-rule:evenodd;fill:#4B216C;}
	.st54{fill-rule:evenodd;clip-rule:evenodd;fill:#BC1483;}
	.st55{fill:#FF8328;}
	.st56{fill-rule:evenodd;clip-rule:evenodd;fill:#FD984F;}
	.st57{fill:#19561B;}
	.st58{fill:#9AD163;}
	.st59{fill:#FFF1DB;}
	.st60{fill:#FFC369;}
	.st61{fill:#219653;}
	.st62{fill:#B2F498;}
	.st63{fill:#9FCC58;}
	.st64{fill:#9FCC59;}
	.st65{fill:#9FCD58;}
	.st66{fill:#C4C4C4;filter:url(#Adobe_OpacityMaskFilter_1_);}
	.st67{mask:url(#mask1_1_);}
	.st68{fill:#7AB124;}
	.st69{fill:#0E5587;}
	.st70{fill:#7F7F7F;}
	.st71{fill:#4F4F4F;fill-opacity:0.2;}
	.st72{fill:#443324;stroke:#564F4F;stroke-width:15.1719;}
	.st73{fill:#5AA85C;}
	.st74{fill:#478949;}
	.st75{fill:#71BF76;}
	.st76{fill:#3A191D;}
	.st77{fill:#762E40;}
	.st78{fill:#EFE095;stroke:#3A191D;stroke-width:4.6852;stroke-miterlimit:10;}
	.st79{fill:#5F242F;}
	.st80{opacity:0.2;}
	.st81{fill:#EAE28A;}
</style>
<rect x="1" y="-2.7" class="st0" width="1365.4" height="773"/>
<path class="st1" d="M896.2,4.1L148.9,369.4c-1.5,0.7-3.2-0.4-3.1-2.1L166.9,6.1c0.1-1.2,1-2.1,2.2-2.1H896.2l33.4-16.3
	c0.9-0.5,2.1-0.2,2.7,0.6l11.8,15.7h241.6c1.2,0,2.2,1,2.2,2.2v314.9c0,2.1-2.7,3-3.9,1.3L944.1,4.1H896.2z"/>
<g class="st2">
	<defs>
		<filter id="Adobe_OpacityMaskFilter" filterUnits="userSpaceOnUse" x="-4.2" y="571" width="1378.1" height="202.3">
			<feColorMatrix  type="matrix" values="1 0 0 0 0  0 1 0 0 0  0 0 1 0 0  0 0 0 1 0"/>
		</filter>
	</defs>
	<mask maskUnits="userSpaceOnUse" x="-4.2" y="571" width="1378.1" height="202.3" id="mask0_1_">
		<path class="st3" d="M-1.2,574h1371.6c1.7,0,3,1,3,2.3v191c0,1.3-1.3,2.3-3,2.3H-1.2c-1.7,0-3-1-3-2.3v-191
			C-4.2,575.1-2.9,574-1.2,574z"/>
	</mask>
	<g class="st4">
		<path class="st5" d="M-4.2,767.3V574c0-1.2,1.3-2.3,3-2.3h365.8c2.8,0,4.1,2.7,1.9,4L47.6,769.1c-0.5,0.3-1.2,0.5-1.9,0.5h-47
			C-2.9,769.6-4.2,768.6-4.2,767.3z"/>
		<path class="st5" d="M1373.4,768.8V576.3c0-1.2-1.3-2.3-3-2.3H903c-3.1,0-4.2,3.1-1.4,4.3L1369,770.8
			C1371,771.6,1373.4,770.5,1373.4,768.8z"/>
		<path class="st5" d="M533.1,571.8C533.1,571.8,533.1,571.8,533.1,571.8c32.1,0,84.9,0.1,117.7,0c1.1,0,2.1,0.4,2.6,1.2
			c9.1,13.8,97.1,146.6,134.4,195.5c1.2,1.5-0.3,3.4-2.6,3.4H527c-1.7,0-3.1-1.1-3-2.3L533.1,571.8z"/>
		<path class="st6" d="M293,572c0.5-0.3,1.2-0.5,1.9-0.5H407c0.1-1.5,0,1.5,0,0l-41.8,39.4c-47.5,44.9-117.7,113.7-165.7,158.6
			c-0.6,0.5-1.4,0.8-2.3,0.8H24.9c-2.7,0-4-2.4-2.2-3.8C53.3,743.2,215.7,620.3,293,572z"/>
		<path class="st7" d="M787.7,771.8c-1.1,0-2-0.4-2.5-1.1C750.3,725.5,668.5,596.8,654.6,575c-1-1.5,0.5-3.2,2.7-3.2
			c13.6,0,22.3-0.1,22.4-0.1v0v0l57,0.1c0.8,0,1.6,0.2,2.1,0.7c48.7,39.9,166,172.7,186.3,195.8c1.3,1.5-0.2,3.4-2.5,3.4H787.7z"/>
		<path class="st7" d="M1108.3,773.3c-0.8,0-1.5-0.2-2.1-0.6L841.6,577.2c-1.9-1.4-0.6-3.9,2.1-3.9h157.4c0.6,0,1.2,0.1,1.7,0.4
			l369.8,195.5c2.4,1.3,1.2,4.1-1.7,4.1H1108.3z"/>
		<path class="st7" d="M538.7,571.8c1.7,0,3.1,1.1,3,2.4l-12.9,195.5c-0.1,1.2-1.4,2.1-3,2.1h-90.9c-1.9,0-3.4-1.3-2.9-2.7
			c7.1-21.5,54.3-164.4,64.9-195.7c0.3-1,1.5-1.6,2.9-1.6L538.7,571.8z"/>
		<path class="st5" d="M506.9,572.1C506.8,570.9,506.9,573.4,506.9,572.1C506.9,572.1,506.9,572.1,506.9,572.1
			c-0.1,0.2-27.8,71.1-42.7,111.2c-11.6,31-29.1,77.7-32.5,86.9c-0.4,1-1.5,1.6-2.9,1.6h-90.7c-2.2,0-3.7-1.8-2.7-3.3L466,573
			c0.5-0.8,1.6-1.3,2.7-1.2L506.9,572.1z"/>
		<path class="st7" d="M464.1,571.8h-56c-0.9,0-1.8,0.3-2.3,0.9L201.2,766.1c-1.5,1.5-0.2,3.6,2.3,3.7l127.8,2
			c1.1,0,2.2-0.5,2.7-1.2l132.7-195.5C467.7,573.6,466.3,571.8,464.1,571.8z"/>
		<path class="st6" d="M839.7,572.9c-0.6-0.4-1.3-0.6-2.1-0.6h-97.3c-2.4,0-3.9,2.1-2.4,3.6l185.5,195.1c0.6,0.6,1.5,0.9,2.4,0.9
			h177.6c2.7,0,4-2.5,2.1-3.9L839.7,572.9z"/>
	</g>
</g>
<path class="st8" d="M396.7,22.6h1.1v88.1h-1.1V22.6z"/>
<path class="st8" d="M384.2,22.6h1.1v89.8h-1.1V22.6z"/>
<path class="st8" d="M277.9,22.6h1.1v86.1h-1.1V22.6z"/>
<path class="st8" d="M267.5,22.6l-0.5,88.3l-1.1,0l0.5-88.3H267.5z"/>
<path class="st9" d="M439.7,108.3H220.5l3.7,97.9h211L439.7,108.3z"/>
<path class="st8" d="M277.1,104.8h2.7v3.5h-2.7V104.8z"/>
<path class="st8" d="M265.1,104.8h2.7v3.5h-2.7V104.8z"/>
<path class="st8" d="M395.6,105h2.7v3.5h-2.7V105z"/>
<path class="st8" d="M383.7,105h2.7v3.5h-2.7V105z"/>
<path class="st10" d="M290.4,170.1c0.2,0,0.3,0,0.4,0c0.2,0,0.3,0,0.5,0c1.2,0,2.2-0.3,3.1-1c0.9-0.6,1.7-1.5,2.3-2.5
	c0.6-1.1,1.1-2.3,1.5-3.6c0.3-1.4,0.5-2.8,0.6-4.2c0-1.4-0.1-2.7-0.4-4.1c-0.2-1.3-0.6-2.5-1.2-3.6c-0.6-1.1-1.3-2-2.2-2.8
	c-0.9-0.8-1.9-1.3-3.1-1.5c-0.2,0-0.3,0-0.5,0c-0.2,0-0.4,0-0.5,0c-1.1,0-2.2,0.4-3.1,1.1c-0.9,0.7-1.7,1.6-2.4,2.7
	c-0.7,1.1-1.2,2.4-1.6,3.8c-0.4,1.4-0.6,2.9-0.7,4.3c0,1.3,0.1,2.6,0.3,4c0.2,1.3,0.7,2.5,1.2,3.5c0.6,1,1.4,1.9,2.3,2.7
	C288,169.4,289.1,169.9,290.4,170.1z M291.2,140.6c2.4,0,4.5,0.5,6.3,1.6c1.8,1,3.3,2.4,4.4,4.1c1.2,1.7,2,3.6,2.6,5.8
	c0.6,2.2,0.9,4.4,0.9,6.6c0,2.3-0.4,4.6-1,6.8c-0.6,2.2-1.5,4.1-2.7,5.9s-2.7,3.1-4.4,4.1c-1.8,1-3.8,1.5-6,1.5
	c-2.4-0.1-4.5-0.7-6.3-1.8c-1.8-1.1-3.3-2.5-4.5-4.1c-1.2-1.7-2.1-3.6-2.7-5.7c-0.6-2.1-0.9-4.3-0.9-6.5c0-2.3,0.4-4.5,1-6.7
	c0.6-2.2,1.5-4.1,2.7-5.8c1.2-1.7,2.7-3.1,4.5-4.1C286.8,141.1,288.8,140.6,291.2,140.6z M314.9,159.6c0.3,0,0.6,0,0.9,0
	c0.3,0,0.6,0,0.9,0c1.2,0,2.3-0.1,3.5-0.3c1.2-0.2,2.2-0.6,3.1-1.1c1-0.5,1.8-1.2,2.4-2.2c0.6-1,1-2.2,1.2-3.6c0.1-1.1,0-2-0.3-2.8
	c-0.3-0.8-0.8-1.5-1.5-2.1s-1.5-1-2.5-1.3c-1-0.3-2-0.5-3.2-0.5c-0.9,0-1.7,0-2.3,0.1c-0.6,0-1.4,0.1-2.4,0.3L314.9,159.6z
	 M308.3,141.5c3.7-1,7.2-1.6,10.6-1.6c2.1,0,4,0.2,5.8,0.7c1.8,0.5,3.3,1.2,4.5,2.2c1.3,1,2.3,2.2,3,3.8c0.7,1.5,1.1,3.3,1.1,5.4
	c0,2.1-0.4,4-1.1,5.5c-0.7,1.6-1.6,2.9-2.9,4c-1.2,1-2.6,1.9-4.3,2.4c-1.7,0.6-3.5,0.9-5.4,1c-0.7,0-1.4,0-2.2,0
	c-0.8,0-1.6-0.1-2.3-0.2l0.2,11.4c-1.2,0.1-2.2,0.1-3.2,0.2c-1,0.1-2,0.1-3.2,0.2L308.3,141.5z M352.3,154.7c0.1,1,0.1,2,0.2,2.9
	c0.1,1,0.1,1.9,0.2,2.8c-2,0.2-4,0.3-5.9,0.5c-1.8,0.1-3.8,0.2-5.8,0.4l-0.2,9.6l14.7-0.9c0.1,1.1,0.2,2.2,0.3,3.1
	c0.1,1,0.2,2,0.3,3c-3.6,0.2-7.2,0.3-10.6,0.5c-3.4,0.2-7,0.3-10.6,0.5l0.8-36.4l19.9,0.6c0,1-0.1,1.9-0.1,2.7
	c0,0.8-0.1,1.7-0.1,2.6l-13.7-0.6l-0.3,9.5L352.3,154.7z M383.7,176.2c-1,0-1.9,0.1-2.8,0.1c-0.9,0-1.8,0.1-2.7,0.1l-12.9-22.7
	c0.1,3.7,0.2,7.4,0.3,11.1c0.1,3.7,0.2,7.4,0.3,11.4l-6.5,0.7l-0.3-34.1l5.9-2.3l12.8,23.7l-0.8-22.8c1,0,2.1-0.1,3.2-0.1
	c1.1-0.1,2.1-0.1,3.1-0.1L383.7,176.2z"/>
<path class="st11" d="M275,642.1l-20.4-329.4c0,0,112.4-51.5,257.7,0l-25.5,329.4H275z"/>
<path class="st12" d="M266,497.4l176.3-202.7l41.1,8.9L267.6,522.7L266,497.4z"/>
<path class="st13" d="M271.9,540.2l222.9-217.8l16.1,12.6L275.7,598.3L271.9,540.2z"/>
<path class="st14" d="M275,642.1l4.4,22.3h223.4l5.8-22.3H275z"/>
<path class="st15" d="M266.3,641.9l4.1,22.3h207.8l5.4-22.3H266.3z"/>
<g class="st16">
	<path class="st17" d="M528.3,320.9l-19.2,301.5l26.2,8.3l-7,32l-39.5,1.9l28.5-347L528.3,320.9z"/>
</g>
<path class="st17" d="M512.3,312.6l5.1,5.8l-23.2,323.6h-7.5L512.3,312.6z"/>
<path class="st14" d="M380.9,299.5c41.6,0,83.1,6.9,123.5,20.5l-24.2,312.4H281.7l-19.4-312.7c5.6-2.1,15.3-5.6,28.5-9
	C320.5,303.1,350.7,299.4,380.9,299.5L380.9,299.5L380.9,299.5z M380.9,289.7c-76.3,0-126.3,22.9-126.3,22.9L275,642.1h211.7
	l25.5-329.4C469.4,297.4,425.2,289.7,380.9,289.7z"/>
<path class="st17" d="M1131.7,229.1c0-1.8,2.2-2.8,3.6-1.6l3.6,3.1c0.5,0.4,0.8,1,0.8,1.7l-6.7,400.6c0,1.1-0.9,2.1-2,2.1l-6.4,0.4
	c-1.3,0.1-2.4-0.9-2.3-2.2L1131.7,229.1z"/>
<path class="st18" d="M1130.6,195.2l-583,0c-1.2,0-2.2,1-2.2,2.2l12.1,434.7c0,1.2,1,2.1,2.2,2.1h561.5c1.2,0,2.2-0.9,2.2-2.1
	l9.4-434.7C1132.8,196.2,1131.9,195.2,1130.6,195.2z"/>
<path class="st19" d="M1174.4,634.3H533.3c-1.3,0-2.4,1.2-2.2,2.5l3.8,24c0.2,1.1,1.1,1.8,2.2,1.8h637.3c1.2,0,2.2-1,2.2-2.2v-24
	C1176.6,635.2,1175.6,634.3,1174.4,634.3z"/>
<path class="st20" d="M876.4,193.4c0.2,1.3-0.8,2.5-2.1,2.5l-56.2,0.5c-1.2,0-2.1-0.9-2.2-2.1l-3.4-73.8c-0.1-1.2,0.9-2.3,2.2-2.3
	l47.2-0.4c1.1,0,2,0.8,2.2,1.8L876.4,193.4z"/>
<path class="st21" d="M815.9,194.2c0.1,1.2-0.9,2.3-2.2,2.3l-56.2,0.5c-1.3,0-2.3-1.1-2.2-2.3l5.6-73.8c0.1-1.1,1-2,2.2-2l47.3-0.4
	c1.2,0,2.1,0.9,2.2,2.1L815.9,194.2z"/>
<path class="st20" d="M755.2,195c-0.1,1.1-1,2-2.2,2l-56.2,0.5c-1.4,0-2.4-1.2-2.2-2.6l14.5-73.9c0.2-1,1.1-1.8,2.1-1.8l47.2-0.4
	c1.3,0,2.3,1.1,2.2,2.3L755.2,195z"/>
<path class="st21" d="M694.6,195.7c-0.2,1-1.1,1.8-2.1,1.8l-56,0.5c-1.5,0-2.5-1.4-2.1-2.8l23.5-74c0.3-0.9,1.1-1.5,2.1-1.5
	l47.1-0.4c1.4,0,2.4,1.2,2.2,2.6L694.6,195.7z"/>
<path class="st20" d="M633.9,196.5c-0.3,0.9-1.1,1.5-2.1,1.5l-55.9,0.5c-1.6,0-2.7-1.6-2-3.1l32.5-74c0.3-0.8,1.1-1.3,2-1.3
	l46.9-0.4c1.5,0,2.6,1.4,2.1,2.8L633.9,196.5z"/>
<path class="st21" d="M573.2,197.2c-0.3,0.8-1.1,1.3-2,1.3l-55.6,0.5c-1.7,0-2.7-1.8-1.9-3.3l41.4-74.1c0.4-0.7,1.1-1.1,1.9-1.1
	l46.7-0.4c1.6,0,2.7,1.6,2,3.1L573.2,197.2z"/>
<path class="st21" d="M937,192.7c0.4,1.4-0.6,2.8-2.1,2.8l-56.2,0.5c-1.1,0-2-0.8-2.2-1.8l-12.4-73.7c-0.2-1.3,0.8-2.5,2.1-2.5
	l47.2-0.4c1,0,1.8,0.6,2.1,1.6L937,192.7z"/>
<path class="st20" d="M997.5,192c0.6,1.4-0.5,3-2,3l-56,0.5c-1,0-1.8-0.6-2.1-1.6l-21.4-73.7c-0.4-1.4,0.6-2.8,2.1-2.8l47-0.4
	c0.9,0,1.7,0.5,2,1.4L997.5,192z"/>
<path class="st21" d="M1057.9,191.3c0.8,1.4-0.3,3.2-1.9,3.2l-55.9,0.5c-0.9,0-1.7-0.5-2-1.4L967.7,120c-0.6-1.4,0.4-3,2-3l46.8-0.4
	c0.8,0,1.6,0.4,1.9,1.2L1057.9,191.3z"/>
<path class="st20" d="M1118.4,190.6c1,1.4-0.1,3.4-1.8,3.4l-55.6,0.5c-0.8,0-1.6-0.4-1.9-1.2l-39.4-73.5c-0.8-1.4,0.3-3.2,1.9-3.2
	l46.6-0.4c0.7,0,1.4,0.4,1.8,1L1118.4,190.6z"/>
<path class="st21" d="M1178.4,189.4c1.1,1.4,0.1,3.5-1.7,3.5l-55.3,0.4c-0.7,0-1.4-0.4-1.8-1l-48.4-73.4c-1-1.5,0.1-3.4,1.8-3.4
	l46.7,0.2c0.7,0,1.3,0.3,1.7,0.8L1178.4,189.4z"/>
<path class="st22" d="M876.4,197.5c0.2-1.3-0.8-2.6-2.2-2.6l-56.6,0.5c-1,0-1.9,0.7-2.1,1.7l-4.7,19.9c-3,12.6,10.8,24,28.9,23.8
	l3.6,0c14.7-0.1,27-7.9,28.8-18.2L876.4,197.5z"/>
<path class="st23" d="M815.4,198.1c0.3-1.4-0.8-2.6-2.2-2.6l-56.4,0.5c-1,0-1.9,0.7-2.1,1.6l-4.9,19c-3.9,12.9,10.1,24.9,28.7,24.7
	l3.1,0c14.2-0.1,26.3-7.4,28.6-17.3L815.4,198.1z"/>
<path class="st22" d="M754.4,199.2c0.4-1.4-0.7-2.8-2.1-2.8H696c-0.9,0-1.8,0.6-2.1,1.5l-6,18.3c-4.8,13.1,9.2,25.8,28.4,25.6l2.5,0
	c13.7-0.1,25.5-6.9,28.4-16.4L754.4,199.2z"/>
<path class="st22" d="M633.4,199.8c0.7-1.5-0.4-3.1-2-3.1l-58.4,0.5c-0.8,0-1.6,0.5-1.9,1.2l-8.8,16.9c-7,13.4,7.8,27.4,28.7,27.3
	l1,0c13.2-0.1,24.9-6,28.8-14.6L633.4,199.8z"/>
<path class="st23" d="M572,199.9c0.7-1.5-0.3-3.2-2-3.2l-56,0.5c-0.8,0-1.5,0.4-1.9,1.1l-9.2,16.2c-7.7,13.6,6.6,28.3,27.2,28.1
	c12.3-0.1,23.2-5.6,27.3-13.8L572,199.9z"/>
<path class="st23" d="M937.3,196.8c0.1-1.3-0.9-2.3-2.2-2.3l-56.4,0.5c-1.1,0-2,0.8-2.2,1.9l-2.6,20.6
	c-2.1,12.3,11.6,23.1,29.1,22.9l3.9,0c15.2-0.1,27.8-8.5,28.9-19.2L937.3,196.8z"/>
<path class="st22" d="M998.3,196.1c0-1.2-1-2.2-2.2-2.1l-56.6,0.5c-1.2,0-2.1,0.9-2.2,2.1l-1.1,21.3c-1.3,12,12.2,22.1,29.2,22
	l4.2,0c15.7-0.1,28.6-9,29-20.1L998.3,196.1z"/>
<path class="st23" d="M1059.2,195.4c-0.1-1.1-1.1-2-2.2-2l-56.6,0.5c-1.2,0-2.2,1-2.2,2.2l0.4,22.1c-0.5,11.6,12.8,21.1,29.3,21
	l4.3,0c16.3-0.1,29.3-9.6,29-21.1L1059.2,195.4z"/>
<path class="st22" d="M1120.2,194.8c-0.2-1.1-1.1-1.8-2.2-1.8l-56.6,0.5c-1.3,0-2.3,1.1-2.2,2.4l2,22.9
	c0.3,11.2,13.4,20.2,29.3,20.1l4.2,0c16.8-0.1,30-10.2,28.9-22L1120.2,194.8z"/>
<path class="st23" d="M1181.4,194.8c-0.2-1-1.1-1.8-2.2-1.8h-56.9c-1.3,0-2.3,1.1-2.2,2.4l2.8,24.9c1,10.9,13.8,19.2,29.3,19.1
	l4.1,0c17.3-0.1,30.8-10.9,28.8-23L1181.4,194.8z"/>
<path class="st24" d="M559.2,265.4c-0.1-1.7,1.3-3.2,3.1-3.2h554.3c1.7,0,3.1,1.4,3.1,3.1l-8.6,341.9c0,1.7-1.4,3-3.1,3H577
	c-1.6,0-3-1.3-3.1-2.9L559.2,265.4z"/>
<path class="st23" d="M694,198.1c0.5-1.4-0.6-2.9-2.1-2.9l-56.1,0.5c-0.9,0-1.7,0.5-2,1.3l-7.8,18.2c-5.9,13.7,8.5,27.5,28.5,27.3
	l1.8,0c13.4-0.1,25.1-6.7,28.5-16L694,198.1z"/>
<path class="st17" d="M1127,115.1h5.8l-2.2,11.6h-5.8L1127,115.1z"/>
<path class="st18" d="M1127,115.1H548.2l3.6,11.7h573.4L1127,115.1z"/>
<rect x="590.8" y="438.4" class="st25" width="105.6" height="111.8"/>
<rect x="589.3" y="309.2" class="st25" width="105.6" height="111.8"/>
<rect x="720.4" y="309.2" class="st25" width="105.6" height="111.8"/>
<path class="st26" d="M773.2,402c0,4.2-3.3,7.7-7.3,7.7c-4,0-7.3-3.4-7.3-7.7s3.3-7.7,7.3-7.7C769.9,394.3,773.2,397.7,773.2,402z"
	/>
<path class="st27" d="M771.5,397c-1.3-1.7-3.3-2.7-5.6-2.7c-4,0-7.3,3.4-7.3,7.7c0,0.9,0.1,1.7,0.4,2.5
	C763.1,401.9,767.3,399.4,771.5,397z"/>
<path class="st27" d="M766.7,409.6c1.7-0.2,3.2-1,4.3-2.2c-1.1,0.6-2.3,1.2-3.4,1.7C767.3,409.3,767,409.5,766.7,409.6z"/>
<path class="st28" d="M771.3,401.8c0,3.2-2.5,5.9-5.5,5.9c-3.1,0-5.5-2.6-5.5-5.9c0-3.2,2.5-5.9,5.5-5.9
	C768.8,396,771.3,398.6,771.3,401.8z"/>
<path class="st29" d="M771.5,402.1c0,3.2-2.4,5.8-5.5,5.8c-3,0-5.5-2.6-5.5-5.8c0-3.2,2.4-5.8,5.5-5.8
	C769,396.3,771.5,398.9,771.5,402.1z"/>
<path class="st30" d="M763.5,400.8c0-0.6,0.1-2,2-2c1.7,0,2,1.2,2,1.8c0,0.1-0.1,0.2-0.2,0.2l-0.9,0.2c-0.2,0-0.3-0.1-0.3-0.3
	c0-0.4-0.2-0.6-0.6-0.6c-0.6,0-0.6,0.4-0.6,1v1.2c0,0.6,0,1,0.6,1c0.4,0,0.6-0.2,0.6-0.6c0-0.2,0.2-0.3,0.3-0.2l0.9,0.2
	c0.1,0,0.2,0.1,0.2,0.2c0,0.6-0.3,1.8-2,1.8c-1.9,0-2-1.5-2-2V400.8z"/>
<path class="st26" d="M763.9,400.8c0-0.6,0.1-2,2-2c1.7,0,2,1.2,2,1.8c0,0.1-0.1,0.2-0.2,0.2l-0.9,0.2c-0.2,0-0.3-0.1-0.3-0.3
	c0-0.4-0.2-0.6-0.6-0.6c-0.6,0-0.6,0.4-0.6,1v1.2c0,0.6,0,1,0.6,1c0.4,0,0.6-0.2,0.6-0.6c0-0.2,0.2-0.3,0.3-0.2l0.9,0.2
	c0.1,0,0.2,0.1,0.2,0.2c0,0.6-0.3,1.8-2,1.8c-1.9,0-2-1.5-2-2V400.8z"/>
<path class="st31" d="M781.2,402.7c0.2,0,0.4,0,0.5,0.1c0.1,0.1,0.2,0.1,0.2,0.3c0,0.1,0.1,0.3,0.1,0.4c0,0.2,0,0.3-0.1,0.4
	c0,0.1-0.1,0.2-0.2,0.2c-0.1,0.1-0.3,0.1-0.5,0.1h-3.4c-0.2,0-0.4-0.1-0.5-0.2c-0.2-0.2-0.2-0.3-0.2-0.6c0-0.3,0.1-0.6,0.3-0.9
	c0.2-0.3,0.5-0.5,0.8-0.7c0.3-0.2,0.6-0.4,0.9-0.6c0.3-0.2,0.6-0.4,0.8-0.6c0.2-0.2,0.3-0.5,0.3-0.7c0-0.1,0-0.1-0.1-0.2
	c0-0.1-0.1-0.2-0.1-0.2c0-0.1-0.1-0.1-0.2-0.2c-0.1-0.1-0.2-0.1-0.4-0.1c-0.2,0-0.3,0.1-0.5,0.2c-0.1,0.1-0.2,0.3-0.2,0.4l0,0.2v0.1
	c0,0.1,0,0.2,0,0.3c0,0.1,0,0.1-0.1,0.2c-0.1,0.1-0.3,0.2-0.7,0.2c-0.4,0-0.6-0.1-0.7-0.3c0-0.1,0-0.2,0-0.4c0-0.6,0.2-1.1,0.6-1.6
	c0.4-0.5,1-0.7,1.7-0.7c0.7,0,1.3,0.2,1.7,0.7c0.4,0.5,0.7,1,0.7,1.7c0,0.3-0.1,0.6-0.2,0.9c-0.1,0.3-0.3,0.5-0.5,0.7
	c-0.4,0.4-0.8,0.6-1.2,0.8l-0.2,0.1v0H781.2z M783.7,397.8l1.3,0h0.8c0.1,0,0.2,0,0.3,0c0.1,0,0.1,0,0.2,0.1
	c0.2,0.1,0.2,0.3,0.2,0.7c0,0.3-0.1,0.6-0.2,0.6c-0.1,0-0.2,0.1-0.2,0.1c-0.1,0-0.2,0-0.3,0h-1.5c0,0.1,0,0.3-0.1,0.7
	c0.1,0,0.2,0,0.3,0c0.6,0,1.1,0.2,1.5,0.6c0.4,0.4,0.7,0.9,0.7,1.5c0,0.6-0.2,1.1-0.6,1.6c-0.4,0.4-0.9,0.6-1.6,0.6
	c-0.5,0-1-0.1-1.5-0.4c-0.1-0.1-0.2-0.1-0.2-0.2l-0.1-0.1c-0.2-0.2-0.3-0.4-0.3-0.5c0-0.2,0.1-0.3,0.3-0.6c0.2-0.2,0.3-0.3,0.5-0.3
	c0.2,0,0.4,0.1,0.6,0.3c0.1,0.1,0.3,0.2,0.5,0.2c0.3,0,0.5-0.1,0.6-0.2c0.1-0.1,0.2-0.3,0.2-0.5c0-0.2-0.1-0.4-0.2-0.5
	c-0.1-0.1-0.3-0.2-0.5-0.2c-0.2,0-0.3,0.1-0.4,0.2c-0.2,0.1-0.3,0.2-0.5,0.2c-0.2,0-0.3-0.1-0.6-0.2c-0.2-0.1-0.3-0.2-0.4-0.3
	c-0.1-0.1-0.1-0.1-0.1-0.2c0-0.1,0.1-0.5,0.2-1.4c0.1-0.9,0.2-1.3,0.2-1.3c0,0,0-0.1,0.1-0.2c0-0.1,0.1-0.2,0.1-0.2
	c0-0.1,0.1-0.1,0.2-0.2C783.4,397.9,783.5,397.8,783.7,397.8z"/>
<rect x="851.4" y="309.2" class="st25" width="105.6" height="111.8"/>
<path class="st32" d="M918.2,356.4c0,0-0.2-13,2.6-14.2c0,0,11.4-0.4,11.9,9.3C932.8,351.5,931.4,359,918.2,356.4z"/>
<path class="st33" d="M918.2,356.5c0,0,1.1-13.4,2.6-14.3c0,0-7,2.5-8.3-2.7l-0.2-6.7l-8.7,0.1c0,0-0.4,7.9,1,15.6
	C904.8,348.6,906.6,355.1,918.2,356.5z"/>
<path class="st34" d="M903.5,333.2h8.9v-7.4h-8.9V333.2z"/>
<path class="st32" d="M897.8,379.5c0,0-0.2-13,2.6-14.2c0,0,11.4-0.4,11.9,9.3C912.4,374.6,911,382.1,897.8,379.5z"/>
<path class="st33" d="M897.8,379.6c0,0,1.1-13.4,2.6-14.3c0,0-7,2.5-8.3-2.7l-0.2-6.7l-8.7,0.1c0,0-0.4,7.9,1,15.6
	C884.4,371.6,886.2,378.2,897.8,379.6z"/>
<path class="st34" d="M883.1,356.3h8.9v-7.4h-8.9V356.3z"/>
<path class="st26" d="M907.1,401.2c0,4.2-3.3,7.7-7.3,7.7c-4,0-7.3-3.4-7.3-7.7s3.3-7.7,7.3-7.7
	C903.9,393.5,907.1,396.9,907.1,401.2z"/>
<path class="st27" d="M905.4,396.2c-1.3-1.7-3.3-2.7-5.6-2.7c-4,0-7.3,3.4-7.3,7.7c0,0.9,0.1,1.7,0.4,2.5
	C897.1,401.2,901.2,398.7,905.4,396.2z"/>
<path class="st27" d="M900.7,408.8c1.7-0.2,3.2-1,4.3-2.2c-1.1,0.6-2.3,1.2-3.4,1.7C901.3,408.5,901,408.7,900.7,408.8z"/>
<path class="st28" d="M905.3,401.1c0,3.2-2.5,5.9-5.5,5.9c-3.1,0-5.5-2.6-5.5-5.9c0-3.2,2.5-5.9,5.5-5.9
	C902.8,395.2,905.3,397.9,905.3,401.1z"/>
<path class="st29" d="M905.5,401.3c0,3.2-2.4,5.8-5.5,5.8c-3,0-5.5-2.6-5.5-5.8c0-3.2,2.5-5.8,5.5-5.8
	C903,395.5,905.5,398.1,905.5,401.3z"/>
<path class="st30" d="M897.5,400c0-0.6,0.1-2,2-2c1.7,0,2,1.2,2,1.8c0,0.1-0.1,0.2-0.2,0.2l-0.9,0.2c-0.2,0-0.3-0.1-0.3-0.3
	c0-0.4-0.2-0.6-0.6-0.6c-0.6,0-0.6,0.4-0.6,1v1.2c0,0.6,0,1,0.6,1c0.4,0,0.6-0.2,0.6-0.6c0-0.2,0.2-0.3,0.3-0.2l0.9,0.2
	c0.1,0,0.2,0.1,0.2,0.2c0,0.6-0.3,1.8-2,1.8c-1.9,0-2-1.5-2-2V400z"/>
<path class="st26" d="M897.8,400c0-0.6,0.1-2,2-2c1.7,0,2,1.2,2,1.8c0,0.1-0.1,0.2-0.2,0.2l-0.9,0.2c-0.2,0-0.3-0.1-0.3-0.3
	c0-0.4-0.2-0.6-0.6-0.6c-0.6,0-0.6,0.4-0.6,1v1.2c0,0.6,0,1,0.6,1c0.4,0,0.6-0.2,0.6-0.6c0-0.2,0.2-0.3,0.3-0.2l0.9,0.2
	c0.1,0,0.2,0.1,0.2,0.2c0,0.6-0.3,1.8-2,1.8c-1.9,0-2-1.5-2-2V400z"/>
<path class="st31" d="M913.4,397c0.7,0,1.3,0.2,1.7,0.6s0.6,0.9,0.6,1.4c0,0.5-0.2,0.9-0.7,1.1v0.1c0.1,0,0.1,0.1,0.3,0.2
	c0.1,0.1,0.2,0.2,0.3,0.3c0.2,0.2,0.3,0.5,0.3,0.8c0,0.6-0.2,1.1-0.7,1.5c-0.5,0.4-1.1,0.6-1.8,0.6c-0.7,0-1.3-0.2-1.7-0.6
	c-0.2-0.2-0.3-0.4-0.5-0.6c0-0.1-0.1-0.2-0.1-0.2l0-0.1c-0.1-0.2-0.1-0.3-0.1-0.5c0-0.3,0.3-0.5,0.9-0.5c0.2,0,0.4,0,0.5,0.1
	c0.1,0.1,0.2,0.2,0.3,0.5c0.1,0.2,0.2,0.3,0.5,0.4c0.1,0,0.2,0.1,0.4,0.1c0.3,0,0.5-0.1,0.7-0.2c0.1-0.1,0.2-0.3,0.2-0.4
	c0-0.2-0.1-0.3-0.2-0.4c-0.1-0.1-0.3-0.2-0.5-0.2c-0.2,0-0.3,0-0.4,0c-0.1,0-0.1,0-0.2-0.1c-0.2-0.1-0.2-0.3-0.2-0.7
	c0-0.4,0.1-0.6,0.3-0.7c0.1,0,0.3,0,0.5,0c0.4,0,0.7-0.1,0.7-0.3c0-0.1-0.1-0.2-0.2-0.3c-0.1-0.1-0.3-0.2-0.5-0.2
	c-0.2,0-0.4,0-0.5,0.1c-0.1,0.1-0.2,0.1-0.2,0.2l-0.1,0.1c-0.1,0.3-0.3,0.4-0.6,0.4c-0.1,0-0.3-0.1-0.5-0.2
	c-0.3-0.2-0.4-0.4-0.4-0.6c0-0.1,0.1-0.3,0.2-0.6c0-0.1,0.1-0.1,0.2-0.3c0.1-0.1,0.2-0.3,0.4-0.3c0.1-0.1,0.3-0.2,0.6-0.3
	C912.8,397,913.1,397,913.4,397z M918.2,397.3c0.2-0.2,0.3-0.2,0.5-0.2c0.2,0,0.3,0,0.4,0s0.2,0.1,0.2,0.1c0.1,0,0.1,0.1,0.1,0.2
	c0,0.1,0,0.3,0,0.5v4.9c0,0.1,0,0.2,0,0.3c0,0.1,0,0.1-0.1,0.2c-0.1,0.2-0.3,0.2-0.7,0.2c-0.4,0-0.6-0.1-0.7-0.2
	c0-0.1-0.1-0.2-0.1-0.2c0-0.1,0-0.2,0-0.3v-3.1l-0.1,0.1c-0.2,0.2-0.4,0.3-0.6,0.3c-0.2,0-0.3-0.1-0.5-0.3c-0.2-0.2-0.3-0.4-0.3-0.5
	c0-0.2,0.1-0.3,0.3-0.5L918.2,397.3L918.2,397.3z"/>
<rect x="982.5" y="309.2" class="st25" width="105.6" height="111.8"/>
<path class="st26" d="M1039.7,403.5c0,4.2-3.3,7.7-7.3,7.7c-4,0-7.3-3.4-7.3-7.7s3.3-7.7,7.3-7.7
	C1036.4,395.8,1039.7,399.3,1039.7,403.5z"/>
<path class="st27" d="M1038,398.6c-1.3-1.7-3.3-2.7-5.6-2.7c-4,0-7.3,3.4-7.3,7.7c0,0.9,0.1,1.7,0.4,2.5
	C1029.6,403.5,1033.8,401,1038,398.6z"/>
<path class="st27" d="M1033.2,411.1c1.7-0.2,3.2-1,4.3-2.2c-1.1,0.6-2.3,1.2-3.4,1.7C1033.8,410.8,1033.5,411,1033.2,411.1z"/>
<path class="st28" d="M1037.8,403.4c0,3.2-2.5,5.9-5.5,5.9c-3.1,0-5.5-2.6-5.5-5.9c0-3.2,2.5-5.9,5.5-5.9
	C1035.3,397.5,1037.8,400.2,1037.8,403.4z"/>
<path class="st29" d="M1038,403.6c0,3.2-2.4,5.8-5.5,5.8c-3,0-5.5-2.6-5.5-5.8c0-3.2,2.5-5.8,5.5-5.8
	C1035.5,397.9,1038,400.4,1038,403.6z"/>
<path class="st30" d="M1030,402.3c0-0.6,0.1-2,2-2c1.7,0,2,1.2,2,1.8c0,0.1-0.1,0.2-0.2,0.2l-0.9,0.2c-0.2,0-0.3-0.1-0.3-0.3
	c0-0.4-0.2-0.6-0.6-0.6c-0.6,0-0.6,0.4-0.6,1v1.2c0,0.6,0,1,0.6,1c0.4,0,0.6-0.2,0.6-0.6c0-0.2,0.2-0.3,0.3-0.2l0.9,0.2
	c0.1,0,0.2,0.1,0.2,0.2c0,0.6-0.3,1.8-2,1.8c-1.9,0-2-1.5-2-2V402.3z"/>
<path class="st26" d="M1030.4,402.3c0-0.6,0.1-2,2-2c1.7,0,2,1.2,2,1.8c0,0.1-0.1,0.2-0.2,0.2l-0.9,0.2c-0.2,0-0.3-0.1-0.3-0.3
	c0-0.4-0.2-0.6-0.6-0.6c-0.6,0-0.6,0.4-0.6,1v1.2c0,0.6,0,1,0.6,1c0.4,0,0.6-0.2,0.6-0.6c0-0.2,0.2-0.3,0.3-0.2l0.9,0.2
	c0.1,0,0.2,0.1,0.2,0.2c0,0.6-0.3,1.8-2,1.8c-1.9,0-2-1.5-2-2V402.3z"/>
<path class="st31" d="M1044.7,399.4l1.3,0h0.8c0.1,0,0.2,0,0.3,0c0.1,0,0.1,0,0.2,0.1c0.2,0.1,0.2,0.3,0.2,0.7
	c0,0.3-0.1,0.6-0.2,0.6c-0.1,0-0.2,0.1-0.2,0.1c-0.1,0-0.2,0-0.3,0h-1.5c0,0.1,0,0.3-0.1,0.7c0.1,0,0.2,0,0.3,0
	c0.6,0,1.1,0.2,1.5,0.6c0.4,0.4,0.7,0.9,0.7,1.5c0,0.6-0.2,1.1-0.6,1.6c-0.4,0.4-0.9,0.6-1.6,0.6c-0.5,0-1-0.1-1.5-0.4
	c-0.1-0.1-0.2-0.1-0.2-0.2l-0.1-0.1c-0.2-0.2-0.3-0.4-0.3-0.5c0-0.2,0.1-0.3,0.3-0.6c0.2-0.2,0.3-0.3,0.5-0.3c0.2,0,0.4,0.1,0.6,0.3
	c0.1,0.1,0.3,0.2,0.5,0.2c0.3,0,0.5-0.1,0.6-0.2c0.1-0.1,0.2-0.3,0.2-0.5c0-0.2-0.1-0.4-0.2-0.5c-0.1-0.1-0.3-0.2-0.5-0.2
	c-0.2,0-0.3,0.1-0.4,0.2c-0.2,0.1-0.3,0.2-0.5,0.2c-0.2,0-0.3-0.1-0.6-0.2c-0.2-0.1-0.3-0.2-0.4-0.3c-0.1-0.1-0.1-0.1-0.1-0.2
	c0-0.1,0.1-0.5,0.2-1.4c0.1-0.9,0.2-1.3,0.2-1.3c0,0,0-0.1,0.1-0.2c0-0.1,0.1-0.2,0.1-0.2c0-0.1,0.1-0.1,0.2-0.2
	C1044.4,399.4,1044.5,399.4,1044.7,399.4z M1049,400.1c0.2-0.2,0.4-0.4,0.7-0.6c0.3-0.2,0.7-0.2,1.1-0.2c0.4,0,0.8,0.1,1,0.2
	c0.3,0.2,0.5,0.4,0.7,0.6c0.2,0.2,0.3,0.5,0.4,0.8c0.2,0.5,0.3,1.1,0.3,1.7c0,1.1-0.2,1.9-0.7,2.5c-0.2,0.2-0.4,0.4-0.7,0.6
	c-0.3,0.2-0.6,0.2-1,0.2c-0.4,0-0.7-0.1-1.1-0.2c-0.3-0.2-0.5-0.3-0.7-0.6c-0.2-0.2-0.3-0.5-0.4-0.8c-0.2-0.5-0.3-1.1-0.3-1.7
	c0-0.6,0.1-1.1,0.2-1.5C1048.7,400.7,1048.8,400.4,1049,400.1z M1050.8,404.4c0.6,0,0.9-0.6,0.9-1.7v-0.1c0-1.2-0.3-1.8-0.9-1.8
	c-0.6,0-0.9,0.6-0.9,1.8C1049.9,403.8,1050.2,404.4,1050.8,404.4z"/>
<rect x="721.8" y="438.4" class="st25" width="105.6" height="111.8"/>
<path class="st35" d="M762.5,470.6c4-3.9,5.3-10.3,5.1-13.1h-5.1V470.6z"/>
<path class="st36" d="M785.8,457.5h-9.5v20.5l2.9,37.6h11.4l-0.4-45.4C786.1,466.4,785.7,459.8,785.8,457.5z"/>
<path class="st36" d="M776.7,457.5h-9.5c0.1,2.3-0.7,9.1-4.7,12.9V516h11.4l2.9-37.6V457.5z"/>
<path class="st35" d="M790.3,470.6c-4-3.9-5.3-10.3-5.1-13.1h5.1V470.6z"/>
<path class="st26" d="M773.2,532c0,4.2-3.3,7.7-7.3,7.7c-4,0-7.3-3.4-7.3-7.7s3.3-7.7,7.3-7.7C769.9,524.3,773.2,527.7,773.2,532z"
	/>
<path class="st27" d="M771.5,527c-1.3-1.7-3.3-2.7-5.6-2.7c-4,0-7.3,3.4-7.3,7.7c0,0.9,0.1,1.7,0.4,2.5
	C763.1,532,767.3,529.5,771.5,527z"/>
<path class="st27" d="M766.7,539.6c1.7-0.2,3.2-1,4.3-2.2c-1.1,0.6-2.3,1.2-3.4,1.7C767.3,539.3,767,539.5,766.7,539.6z"/>
<path class="st28" d="M771.3,531.9c0,3.2-2.5,5.9-5.5,5.9c-3.1,0-5.5-2.6-5.5-5.9s2.5-5.9,5.5-5.9
	C768.8,526,771.3,528.6,771.3,531.9z"/>
<path class="st29" d="M771.5,532.1c0,3.2-2.4,5.8-5.5,5.8c-3,0-5.5-2.6-5.5-5.8c0-3.2,2.4-5.8,5.5-5.8
	C769,526.3,771.5,528.9,771.5,532.1z"/>
<path class="st30" d="M763.5,530.8c0-0.6,0.1-2,2-2c1.7,0,2,1.2,2,1.8c0,0.1-0.1,0.2-0.2,0.2l-0.9,0.2c-0.2,0-0.3-0.1-0.3-0.3
	c0-0.4-0.2-0.6-0.6-0.6c-0.6,0-0.6,0.4-0.6,1v1.2c0,0.6,0,1,0.6,1c0.4,0,0.6-0.2,0.6-0.6c0-0.2,0.2-0.3,0.3-0.2l0.9,0.2
	c0.1,0,0.2,0.1,0.2,0.2c0,0.6-0.3,1.8-2,1.8c-1.9,0-2-1.5-2-2V530.8z"/>
<path class="st26" d="M763.9,530.8c0-0.6,0.1-2,2-2c1.7,0,2,1.2,2,1.8c0,0.1-0.1,0.2-0.2,0.2l-0.9,0.2c-0.2,0-0.3-0.1-0.3-0.3
	c0-0.4-0.2-0.6-0.6-0.6c-0.6,0-0.6,0.4-0.6,1v1.2c0,0.6,0,1,0.6,1c0.4,0,0.6-0.2,0.6-0.6c0-0.2,0.2-0.3,0.3-0.2l0.9,0.2
	c0.1,0,0.2,0.1,0.2,0.2c0,0.6-0.3,1.8-2,1.8c-1.9,0-2-1.5-2-2V530.8z"/>
<path class="st31" d="M779.5,527.8c0.7,0,1.3,0.2,1.7,0.6c0.4,0.4,0.6,0.9,0.6,1.4c0,0.5-0.2,0.9-0.7,1.1v0.1c0.1,0,0.1,0.1,0.3,0.2
	c0.1,0.1,0.2,0.2,0.3,0.3c0.2,0.2,0.3,0.5,0.3,0.8c0,0.6-0.2,1.1-0.7,1.5c-0.5,0.4-1.1,0.6-1.8,0.6c-0.7,0-1.3-0.2-1.7-0.6
	c-0.2-0.2-0.3-0.4-0.5-0.6c0-0.1-0.1-0.2-0.1-0.2l0-0.1c-0.1-0.2-0.1-0.3-0.1-0.5c0-0.3,0.3-0.5,0.9-0.5c0.2,0,0.4,0,0.5,0.1
	c0.1,0.1,0.2,0.2,0.3,0.5c0.1,0.2,0.2,0.3,0.5,0.4c0.1,0,0.2,0.1,0.4,0.1c0.3,0,0.5-0.1,0.7-0.2c0.1-0.1,0.2-0.3,0.2-0.4
	s-0.1-0.3-0.2-0.4c-0.1-0.1-0.3-0.2-0.5-0.2c-0.2,0-0.3,0-0.4,0c-0.1,0-0.1,0-0.2-0.1c-0.2-0.1-0.2-0.3-0.2-0.7
	c0-0.4,0.1-0.6,0.3-0.7c0.1,0,0.2,0,0.5,0c0.4,0,0.7-0.1,0.7-0.3c0-0.1-0.1-0.2-0.2-0.3c-0.1-0.1-0.3-0.2-0.5-0.2
	c-0.2,0-0.4,0-0.5,0.1c-0.1,0.1-0.2,0.1-0.2,0.2l-0.1,0.1c-0.1,0.3-0.3,0.4-0.6,0.4c-0.1,0-0.3-0.1-0.5-0.2
	c-0.3-0.2-0.4-0.4-0.4-0.6c0-0.1,0.1-0.3,0.2-0.6c0-0.1,0.1-0.1,0.2-0.3c0.1-0.1,0.2-0.2,0.4-0.3c0.1-0.1,0.3-0.2,0.6-0.3
	C778.9,527.8,779.1,527.8,779.5,527.8z M783.7,527.9l1.3,0h0.8c0.1,0,0.2,0,0.3,0c0.1,0,0.1,0,0.2,0.1c0.2,0.1,0.2,0.3,0.2,0.7
	c0,0.4-0.1,0.6-0.2,0.6c-0.1,0-0.2,0.1-0.2,0.1c-0.1,0-0.1,0-0.3,0h-1.5c0,0.1,0,0.3-0.1,0.7c0.1,0,0.2,0,0.3,0
	c0.6,0,1.1,0.2,1.5,0.6c0.4,0.4,0.7,0.9,0.7,1.5c0,0.6-0.2,1.1-0.6,1.6c-0.4,0.4-0.9,0.6-1.6,0.6c-0.5,0-1-0.1-1.5-0.4
	c-0.1-0.1-0.2-0.1-0.2-0.2l-0.1-0.1c-0.2-0.2-0.3-0.4-0.3-0.5c0-0.2,0.1-0.3,0.3-0.6c0.2-0.2,0.3-0.3,0.5-0.3c0.2,0,0.4,0.1,0.6,0.3
	c0.1,0.1,0.3,0.2,0.5,0.2c0.3,0,0.5-0.1,0.6-0.2c0.1-0.1,0.2-0.3,0.2-0.5c0-0.2-0.1-0.4-0.2-0.5c-0.1-0.1-0.3-0.2-0.5-0.2
	c-0.2,0-0.3,0.1-0.4,0.2c-0.2,0.1-0.3,0.2-0.5,0.2c-0.2,0-0.3-0.1-0.5-0.2c-0.2-0.1-0.3-0.2-0.4-0.3c-0.1-0.1-0.1-0.1-0.1-0.2
	c0-0.1,0.1-0.5,0.2-1.4c0.1-0.9,0.2-1.3,0.2-1.3c0,0,0-0.1,0.1-0.2c0-0.1,0.1-0.2,0.1-0.2c0.1-0.1,0.1-0.1,0.2-0.2
	C783.4,527.9,783.5,527.9,783.7,527.9z"/>
<rect x="852.9" y="438.4" class="st25" width="105.6" height="111.8"/>
<rect x="984" y="438.4" class="st25" width="105.6" height="111.8"/>
<path class="st26" d="M1039.7,532c0,4.2-3.3,7.7-7.3,7.7c-4,0-7.3-3.4-7.3-7.7s3.3-7.7,7.3-7.7
	C1036.4,524.3,1039.7,527.7,1039.7,532z"/>
<path class="st27" d="M1038,527c-1.3-1.7-3.3-2.7-5.6-2.7c-4,0-7.3,3.4-7.3,7.7c0,0.9,0.1,1.7,0.4,2.5
	C1029.6,532,1033.8,529.5,1038,527z"/>
<path class="st27" d="M1033.2,539.6c1.7-0.2,3.2-1,4.3-2.2c-1.1,0.6-2.3,1.2-3.4,1.7C1033.8,539.3,1033.5,539.5,1033.2,539.6z"/>
<path class="st28" d="M1037.8,531.9c0,3.2-2.5,5.9-5.5,5.9c-3.1,0-5.5-2.6-5.5-5.9s2.5-5.9,5.5-5.9
	C1035.3,526,1037.8,528.6,1037.8,531.9z"/>
<path class="st29" d="M1038,532.1c0,3.2-2.4,5.8-5.5,5.8c-3,0-5.5-2.6-5.5-5.8c0-3.2,2.5-5.8,5.5-5.8
	C1035.5,526.3,1038,528.9,1038,532.1z"/>
<path class="st30" d="M1030,530.8c0-0.6,0.1-2,2-2c1.7,0,2,1.2,2,1.8c0,0.1-0.1,0.2-0.2,0.2l-0.9,0.2c-0.2,0-0.3-0.1-0.3-0.3
	c0-0.4-0.2-0.6-0.6-0.6c-0.6,0-0.6,0.4-0.6,1v1.2c0,0.6,0,1,0.6,1c0.4,0,0.6-0.2,0.6-0.6c0-0.2,0.2-0.3,0.3-0.2l0.9,0.2
	c0.1,0,0.2,0.1,0.2,0.2c0,0.6-0.3,1.8-2,1.8c-1.9,0-2-1.5-2-2V530.8z"/>
<path class="st26" d="M1030.4,530.8c0-0.6,0.1-2,2-2c1.7,0,2,1.2,2,1.8c0,0.1-0.1,0.2-0.2,0.2l-0.9,0.2c-0.2,0-0.3-0.1-0.3-0.3
	c0-0.4-0.2-0.6-0.6-0.6c-0.6,0-0.6,0.4-0.6,1v1.2c0,0.6,0,1,0.6,1c0.4,0,0.6-0.2,0.6-0.6c0-0.2,0.2-0.3,0.3-0.2l0.9,0.2
	c0.1,0,0.2,0.1,0.2,0.2c0,0.6-0.3,1.8-2,1.8c-1.9,0-2-1.5-2-2V530.8z"/>
<path class="st31" d="M1045.9,527.8c0.7,0,1.3,0.2,1.7,0.6c0.4,0.4,0.6,0.9,0.6,1.4c0,0.5-0.2,0.9-0.7,1.1v0.1
	c0.1,0,0.1,0.1,0.3,0.2c0.1,0.1,0.2,0.2,0.3,0.3c0.2,0.2,0.3,0.5,0.3,0.8c0,0.6-0.2,1.1-0.7,1.5c-0.5,0.4-1.1,0.6-1.8,0.6
	c-0.7,0-1.3-0.2-1.7-0.6c-0.2-0.2-0.3-0.4-0.5-0.6c0-0.1-0.1-0.2-0.1-0.2l0-0.1c-0.1-0.2-0.1-0.3-0.1-0.5c0-0.3,0.3-0.5,0.9-0.5
	c0.2,0,0.4,0,0.5,0.1c0.1,0.1,0.2,0.2,0.3,0.5c0.1,0.2,0.2,0.3,0.5,0.4c0.1,0,0.2,0.1,0.4,0.1c0.3,0,0.5-0.1,0.7-0.2
	c0.1-0.1,0.2-0.3,0.2-0.4s-0.1-0.3-0.2-0.4c-0.1-0.1-0.3-0.2-0.5-0.2c-0.2,0-0.3,0-0.4,0c-0.1,0-0.1,0-0.2-0.1
	c-0.2-0.1-0.2-0.3-0.2-0.7c0-0.4,0.1-0.6,0.3-0.7c0.1,0,0.3,0,0.5,0c0.4,0,0.7-0.1,0.7-0.3c0-0.1-0.1-0.2-0.2-0.3
	c-0.1-0.1-0.3-0.2-0.5-0.2c-0.2,0-0.4,0-0.5,0.1c-0.1,0.1-0.2,0.1-0.2,0.2l0,0.1c-0.1,0.3-0.3,0.4-0.6,0.4c-0.1,0-0.3-0.1-0.5-0.2
	c-0.3-0.2-0.4-0.4-0.4-0.6c0-0.1,0.1-0.3,0.2-0.6c0-0.1,0.1-0.1,0.2-0.3c0.1-0.1,0.2-0.2,0.4-0.3c0.1-0.1,0.3-0.2,0.6-0.3
	C1045.4,527.8,1045.6,527.8,1045.9,527.8z M1053.5,532.3c0,0.6-0.2,1.1-0.6,1.5c-0.4,0.4-0.9,0.6-1.5,0.6c-0.8,0-1.3-0.2-1.7-0.7
	c-0.4-0.5-0.6-1.1-0.6-1.9c0-1.1,0.3-2,0.9-2.8c0.6-0.7,1.5-1.1,2.6-1.1c0.2,0,0.4,0,0.5,0.1c0.1,0.1,0.2,0.1,0.2,0.2
	c0,0.1,0,0.2,0,0.4c0,0.2,0,0.3,0,0.4c0,0.1-0.1,0.2-0.1,0.2c0,0.1-0.1,0.1-0.2,0.1c-0.1,0-0.3,0-0.5,0s-0.5,0-0.7,0.1
	c-0.2,0.1-0.4,0.2-0.5,0.3c-0.3,0.2-0.4,0.5-0.5,0.6l0,0.1c0.2-0.1,0.4-0.1,0.6-0.1c0.6,0,1.1,0.2,1.5,0.6
	C1053.3,531.4,1053.5,531.8,1053.5,532.3z M1051.3,533c0.4,0,0.7-0.2,0.7-0.6c0-0.1-0.1-0.3-0.2-0.4c-0.1-0.1-0.3-0.2-0.5-0.2
	c-0.2,0-0.4,0.1-0.5,0.2c-0.1,0.1-0.2,0.2-0.2,0.3c0,0.1,0,0.2,0,0.3c0,0.1,0,0.1,0.1,0.2C1050.8,532.9,1051,533,1051.3,533z"/>
<path class="st31" d="M631.6,402.2l1.1,0h0.7c0.1,0,0.2,0,0.2,0c0,0,0.1,0,0.2,0.1c0.1,0.1,0.2,0.3,0.2,0.6c0,0.3-0.1,0.5-0.2,0.5
	c-0.1,0-0.1,0.1-0.2,0.1c0,0-0.1,0-0.2,0h-1.2c0,0.1,0,0.2-0.1,0.5c0,0,0.1,0,0.2,0c0.4,0,0.8,0.2,1.2,0.5c0.4,0.3,0.5,0.7,0.5,1.2
	c0,0.5-0.2,0.9-0.5,1.2c-0.3,0.3-0.8,0.5-1.3,0.5c-0.4,0-0.8-0.1-1.2-0.3c-0.1-0.1-0.1-0.1-0.2-0.1l-0.1,0c-0.2-0.2-0.3-0.3-0.3-0.4
	c0-0.1,0.1-0.3,0.3-0.5c0.1-0.2,0.3-0.2,0.4-0.2c0.1,0,0.3,0.1,0.5,0.2c0.1,0.1,0.2,0.1,0.4,0.1s0.4,0,0.5-0.1
	c0.1-0.1,0.2-0.2,0.2-0.4c0-0.2-0.1-0.3-0.2-0.4c-0.1-0.1-0.2-0.1-0.4-0.1c-0.1,0-0.3,0-0.3,0.1c-0.1,0.1-0.3,0.2-0.4,0.2
	c-0.1,0-0.3,0-0.4-0.1c-0.2-0.1-0.3-0.2-0.3-0.2c-0.1-0.1-0.1-0.1-0.1-0.2s0-0.4,0.1-1.1c0.1-0.7,0.1-1,0.1-1.1c0,0,0-0.1,0-0.1
	c0-0.1,0.1-0.1,0.1-0.2c0-0.1,0.1-0.1,0.2-0.1C631.3,402.2,631.4,402.2,631.6,402.2z"/>
<path class="st26" d="M639.9,402c0,4.2-3.3,7.7-7.3,7.7c-4,0-7.3-3.4-7.3-7.7s3.3-7.7,7.3-7.7C636.7,394.3,639.9,397.7,639.9,402z"
	/>
<path class="st27" d="M638.2,397c-1.3-1.7-3.3-2.7-5.6-2.7c-4,0-7.3,3.4-7.3,7.7c0,0.9,0.1,1.7,0.4,2.5
	C629.9,401.9,634,399.4,638.2,397z"/>
<path class="st27" d="M633.5,409.6c1.7-0.2,3.2-1,4.3-2.2c-1.1,0.6-2.3,1.2-3.4,1.7C634.1,409.3,633.8,409.5,633.5,409.6z"/>
<path class="st28" d="M638.1,401.8c0,3.2-2.5,5.9-5.5,5.9s-5.5-2.6-5.5-5.9c0-3.2,2.5-5.9,5.5-5.9
	C635.6,396,638.1,398.6,638.1,401.8z"/>
<path class="st29" d="M638.2,402.1c0,3.2-2.4,5.8-5.5,5.8c-3,0-5.5-2.6-5.5-5.8c0-3.2,2.5-5.8,5.5-5.8S638.2,398.9,638.2,402.1z"/>
<path class="st30" d="M630.3,400.8c0-0.6,0.1-2,2-2c1.7,0,2,1.2,2,1.8c0,0.1-0.1,0.2-0.2,0.2l-0.9,0.2c-0.2,0-0.3-0.1-0.3-0.3
	c0-0.4-0.2-0.6-0.6-0.6c-0.6,0-0.6,0.4-0.6,1v1.2c0,0.6,0,1,0.6,1c0.4,0,0.6-0.2,0.6-0.6c0-0.2,0.2-0.3,0.3-0.2l0.9,0.2
	c0.1,0,0.2,0.1,0.2,0.2c0,0.6-0.3,1.8-2,1.8c-1.9,0-2-1.5-2-2V400.8z"/>
<path class="st26" d="M630.6,400.8c0-0.6,0.1-2,2-2c1.7,0,2,1.2,2,1.8c0,0.1-0.1,0.2-0.2,0.2l-0.9,0.2c-0.2,0-0.3-0.1-0.3-0.3
	c0-0.4-0.2-0.6-0.6-0.6c-0.6,0-0.6,0.4-0.6,1v1.2c0,0.6,0,1,0.6,1c0.4,0,0.6-0.2,0.6-0.6c0-0.2,0.2-0.3,0.3-0.2l0.9,0.2
	c0.1,0,0.2,0.1,0.2,0.2c0,0.6-0.3,1.8-2,1.8c-1.9,0-2-1.5-2-2V400.8z"/>
<path class="st31" d="M647.6,397.9c0.4,0,0.6,0.1,0.7,0.3c0,0.1,0.1,0.3,0.1,0.5c0,0.2-0.1,0.5-0.2,0.9c-0.2,0.3-0.3,0.7-0.6,1
	c-0.2,0.3-0.4,0.7-0.6,1c-0.5,0.8-0.8,1.5-0.8,2c0,0.1,0,0.2,0,0.3c0,0.1,0,0.1-0.1,0.2c0,0.1-0.1,0.1-0.2,0.1c-0.1,0-0.2,0-0.4,0
	c-0.2,0-0.3,0-0.4,0c-0.1,0-0.2-0.1-0.2-0.1c0-0.1-0.1-0.1-0.1-0.2c0-0.1,0-0.2,0-0.3c0-0.4,0.1-0.8,0.2-1.2
	c0.1-0.4,0.3-0.8,0.5-1.1c0.2-0.3,0.4-0.6,0.5-0.9c0.2-0.3,0.3-0.5,0.5-0.7c0.1-0.2,0.2-0.3,0.2-0.4h-2c-0.2,0-0.4,0-0.5-0.1
	c-0.1-0.1-0.2-0.1-0.2-0.3c0-0.1-0.1-0.3-0.1-0.4c0-0.2,0-0.3,0.1-0.4c0-0.1,0.1-0.2,0.2-0.2c0.1-0.1,0.3-0.1,0.5-0.1H647.6z"/>
<path class="st26" d="M639.9,532c0,4.2-3.3,7.7-7.3,7.7c-4,0-7.3-3.4-7.3-7.7s3.3-7.7,7.3-7.7C636.7,524.3,639.9,527.7,639.9,532z"
	/>
<path class="st27" d="M638.2,527c-1.3-1.7-3.3-2.7-5.6-2.7c-4,0-7.3,3.4-7.3,7.7c0,0.9,0.1,1.7,0.4,2.5
	C629.9,532,634,529.5,638.2,527z"/>
<path class="st27" d="M633.5,539.6c1.7-0.2,3.2-1,4.3-2.2c-1.1,0.6-2.3,1.2-3.4,1.7C634.1,539.3,633.8,539.5,633.5,539.6z"/>
<path class="st28" d="M638.1,531.9c0,3.2-2.5,5.9-5.5,5.9s-5.5-2.6-5.5-5.9s2.5-5.9,5.5-5.9C635.6,526,638.1,528.6,638.1,531.9z"/>
<path class="st29" d="M638.2,532.1c0,3.2-2.4,5.8-5.5,5.8c-3,0-5.5-2.6-5.5-5.8c0-3.2,2.5-5.8,5.5-5.8S638.2,528.9,638.2,532.1z"/>
<path class="st30" d="M630.3,530.8c0-0.6,0.1-2,2-2c1.7,0,2,1.2,2,1.8c0,0.1-0.1,0.2-0.2,0.2l-0.9,0.2c-0.2,0-0.3-0.1-0.3-0.3
	c0-0.4-0.2-0.6-0.6-0.6c-0.6,0-0.6,0.4-0.6,1v1.2c0,0.6,0,1,0.6,1c0.4,0,0.6-0.2,0.6-0.6c0-0.2,0.2-0.3,0.3-0.2l0.9,0.2
	c0.1,0,0.2,0.1,0.2,0.2c0,0.6-0.3,1.8-2,1.8c-1.9,0-2-1.5-2-2V530.8z"/>
<path class="st26" d="M630.6,530.8c0-0.6,0.1-2,2-2c1.7,0,2,1.2,2,1.8c0,0.1-0.1,0.2-0.2,0.2l-0.9,0.2c-0.2,0-0.3-0.1-0.3-0.3
	c0-0.4-0.2-0.6-0.6-0.6c-0.6,0-0.6,0.4-0.6,1v1.2c0,0.6,0,1,0.6,1c0.4,0,0.6-0.2,0.6-0.6c0-0.2,0.2-0.3,0.3-0.2l0.9,0.2
	c0.1,0,0.2,0.1,0.2,0.2c0,0.6-0.3,1.8-2,1.8c-1.9,0-2-1.5-2-2V530.8z"/>
<path class="st31" d="M646.2,527.8c0.7,0,1.3,0.2,1.7,0.6c0.4,0.4,0.6,0.9,0.6,1.4c0,0.5-0.2,0.9-0.7,1.1v0.1c0.1,0,0.1,0.1,0.3,0.2
	c0.1,0.1,0.2,0.2,0.3,0.3c0.2,0.2,0.3,0.5,0.3,0.8c0,0.6-0.2,1.1-0.7,1.5c-0.5,0.4-1.1,0.6-1.8,0.6c-0.7,0-1.3-0.2-1.7-0.6
	c-0.2-0.2-0.3-0.4-0.5-0.6c0-0.1-0.1-0.2-0.1-0.2l0-0.1c-0.1-0.2-0.1-0.3-0.1-0.5c0-0.3,0.3-0.5,0.9-0.5c0.2,0,0.4,0,0.5,0.1
	c0.1,0.1,0.2,0.2,0.3,0.5c0.1,0.2,0.2,0.3,0.5,0.4c0.1,0,0.2,0.1,0.4,0.1c0.3,0,0.5-0.1,0.7-0.2c0.1-0.1,0.2-0.3,0.2-0.4
	s-0.1-0.3-0.2-0.4c-0.1-0.1-0.3-0.2-0.5-0.2c-0.2,0-0.3,0-0.4,0c-0.1,0-0.1,0-0.2-0.1c-0.2-0.1-0.2-0.3-0.2-0.7
	c0-0.4,0.1-0.6,0.3-0.7c0.1,0,0.3,0,0.5,0c0.4,0,0.7-0.1,0.7-0.3c0-0.1-0.1-0.2-0.2-0.3c-0.1-0.1-0.3-0.2-0.5-0.2
	c-0.2,0-0.4,0-0.5,0.1c-0.1,0.1-0.2,0.1-0.2,0.2l0,0.1c-0.1,0.3-0.3,0.4-0.6,0.4c-0.1,0-0.3-0.1-0.5-0.2c-0.3-0.2-0.4-0.4-0.4-0.6
	c0-0.1,0.1-0.3,0.2-0.6c0-0.1,0.1-0.1,0.2-0.3c0.1-0.1,0.2-0.2,0.4-0.3c0.1-0.1,0.3-0.2,0.6-0.3
	C645.6,527.8,645.9,527.8,646.2,527.8z M651.7,527.8c0.7,0,1.3,0.2,1.7,0.6c0.4,0.4,0.6,0.9,0.6,1.4c0,0.5-0.2,0.9-0.7,1.1v0.1
	c0.1,0,0.1,0.1,0.3,0.2c0.1,0.1,0.2,0.2,0.3,0.3c0.2,0.2,0.3,0.5,0.3,0.8c0,0.6-0.2,1.1-0.7,1.5c-0.5,0.4-1.1,0.6-1.8,0.6
	c-0.7,0-1.3-0.2-1.8-0.6c-0.2-0.2-0.3-0.4-0.5-0.6c0-0.1-0.1-0.2-0.1-0.2l0-0.1c-0.1-0.2-0.1-0.3-0.1-0.5c0-0.3,0.3-0.5,0.9-0.5
	c0.2,0,0.4,0,0.5,0.1c0.1,0.1,0.2,0.2,0.3,0.5c0.1,0.2,0.2,0.3,0.5,0.4c0.1,0,0.2,0.1,0.4,0.1c0.3,0,0.5-0.1,0.7-0.2
	c0.1-0.1,0.2-0.3,0.2-0.4s-0.1-0.3-0.2-0.4c-0.1-0.1-0.3-0.2-0.5-0.2c-0.2,0-0.3,0-0.4,0c-0.1,0-0.1,0-0.2-0.1
	c-0.2-0.1-0.2-0.3-0.2-0.7c0-0.4,0.1-0.6,0.3-0.7c0.1,0,0.2,0,0.5,0c0.4,0,0.7-0.1,0.7-0.3c0-0.1-0.1-0.2-0.2-0.3
	c-0.1-0.1-0.3-0.2-0.5-0.2c-0.2,0-0.4,0-0.5,0.1c-0.1,0.1-0.2,0.1-0.2,0.2l0,0.1c-0.1,0.3-0.3,0.4-0.6,0.4c-0.1,0-0.3-0.1-0.5-0.2
	c-0.3-0.2-0.4-0.4-0.4-0.6c0-0.1,0.1-0.3,0.2-0.6c0-0.1,0.1-0.1,0.2-0.3c0.1-0.1,0.2-0.2,0.4-0.3c0.1-0.1,0.3-0.2,0.6-0.3
	C651.1,527.8,651.4,527.8,651.7,527.8z"/>
<path class="st26" d="M907.1,532c0,4.2-3.3,7.7-7.3,7.7c-4,0-7.3-3.4-7.3-7.7s3.3-7.7,7.3-7.7C903.9,524.3,907.1,527.7,907.1,532z"
	/>
<path class="st27" d="M905.4,527c-1.3-1.7-3.3-2.7-5.6-2.7c-4,0-7.3,3.4-7.3,7.7c0,0.9,0.1,1.7,0.4,2.5
	C897.1,532,901.2,529.5,905.4,527z"/>
<path class="st27" d="M900.7,539.6c1.7-0.2,3.2-1,4.3-2.2c-1.1,0.6-2.3,1.2-3.4,1.7C901.3,539.3,901,539.5,900.7,539.6z"/>
<path class="st28" d="M905.3,531.9c0,3.2-2.5,5.9-5.5,5.9c-3.1,0-5.5-2.6-5.5-5.9s2.5-5.9,5.5-5.9
	C902.8,526,905.3,528.6,905.3,531.9z"/>
<path class="st29" d="M905.5,532.1c0,3.2-2.4,5.8-5.5,5.8c-3,0-5.5-2.6-5.5-5.8c0-3.2,2.5-5.8,5.5-5.8
	C903,526.3,905.5,528.9,905.5,532.1z"/>
<path class="st30" d="M897.5,530.8c0-0.6,0.1-2,2-2c1.7,0,2,1.2,2,1.8c0,0.1-0.1,0.2-0.2,0.2l-0.9,0.2c-0.2,0-0.3-0.1-0.3-0.3
	c0-0.4-0.2-0.6-0.6-0.6c-0.6,0-0.6,0.4-0.6,1v1.2c0,0.6,0,1,0.6,1c0.4,0,0.6-0.2,0.6-0.6c0-0.2,0.2-0.3,0.3-0.2l0.9,0.2
	c0.1,0,0.2,0.1,0.2,0.2c0,0.6-0.3,1.8-2,1.8c-1.9,0-2-1.5-2-2V530.8z"/>
<path class="st26" d="M897.8,530.8c0-0.6,0.1-2,2-2c1.7,0,2,1.2,2,1.8c0,0.1-0.1,0.2-0.2,0.2l-0.9,0.2c-0.2,0-0.3-0.1-0.3-0.3
	c0-0.4-0.2-0.6-0.6-0.6c-0.6,0-0.6,0.4-0.6,1v1.2c0,0.6,0,1,0.6,1c0.4,0,0.6-0.2,0.6-0.6c0-0.2,0.2-0.3,0.3-0.2l0.9,0.2
	c0.1,0,0.2,0.1,0.2,0.2c0,0.6-0.3,1.8-2,1.8c-1.9,0-2-1.5-2-2V530.8z"/>
<path class="st31" d="M914.2,528.1c0-0.1,0.1-0.1,0.2-0.2c0.1,0,0.3-0.1,0.4-0.1c0.2,0,0.3,0,0.4,0.1c0.1,0,0.2,0.1,0.2,0.2
	c0,0.1,0.1,0.2,0.1,0.2c0,0.1,0,0.2,0,0.3v4.9c0,0.2,0,0.4-0.1,0.5c-0.1,0.1-0.1,0.2-0.3,0.2c-0.1,0-0.3,0.1-0.4,0.1
	c-0.2,0-0.3,0-0.4,0c-0.1,0-0.2-0.1-0.2-0.1c-0.1,0-0.1-0.1-0.1-0.2c0-0.1-0.1-0.2-0.1-0.5v-1.1h-2.4c-0.4,0-0.7-0.1-0.7-0.3
	c0-0.1,0-0.2,0-0.4c0-0.2,0-0.3,0-0.3l0.7-2.9c0-0.1,0.1-0.2,0.1-0.3c0-0.1,0.1-0.1,0.2-0.2c0.1-0.1,0.2-0.1,0.3-0.1
	c0.1,0,0.3,0,0.4,0.1c0.4,0.1,0.6,0.3,0.6,0.6c0,0.1,0,0.2-0.1,0.4c0,0,0,0,0,0l-0.5,2.1h1.4v-2.4c0-0.1,0-0.2,0-0.3
	C914.1,528.2,914.1,528.2,914.2,528.1z M917,528.6c0.2-0.2,0.4-0.4,0.7-0.6c0.3-0.2,0.7-0.2,1.1-0.2c0.4,0,0.8,0.1,1,0.2
	c0.3,0.2,0.5,0.4,0.7,0.6c0.2,0.2,0.3,0.5,0.4,0.8c0.2,0.5,0.3,1.1,0.3,1.7c0,1.1-0.2,1.9-0.7,2.5c-0.2,0.2-0.4,0.4-0.7,0.6
	c-0.3,0.2-0.6,0.2-1,0.2c-0.4,0-0.7-0.1-1.1-0.2c-0.3-0.2-0.5-0.3-0.7-0.6c-0.2-0.2-0.3-0.5-0.4-0.8c-0.2-0.5-0.3-1.1-0.3-1.7
	c0-0.6,0.1-1.1,0.2-1.5C916.7,529.2,916.8,528.8,917,528.6z M918.8,532.8c0.6,0,0.9-0.6,0.9-1.7v-0.1c0-1.2-0.3-1.8-0.9-1.8
	c-0.6,0-0.9,0.6-0.9,1.8C917.9,532.3,918.2,532.8,918.8,532.8z"/>
<path class="st37" d="M885.6,492.1c0-3.6,0.4-5.8,3.3-7.2c2.9-1.5,5.6-4.3,10.6-6.7c0,0,0.7-0.1,1.7,0.5c0.9,0.5,2.1,1.8,3.8,1.8
	c1.9,0,3.6-0.5,4.7-1.1c0.5-1.4,1.5-1.4,1.5-1.4s1.4,2.9,1.5,5.9c0,3,0,7.9,0,7.9L885.6,492.1z"/>
<path class="st38" d="M898.4,478.4c0.2-0.1,0.5,0,0.6,0.3c0.1,0.3,0.2,0.6,0.3,0.9c0.1,0.5,0.1,0.9,0.1,1.6c0,0.4-0.3,0.6-0.7,0.5
	l0,0l-1.7-0.8l0.4,1.4c0.1,0.4-0.2,0.7-0.6,0.6l0,0l-1.8-0.6v1.7c0,0.4-0.4,0.6-0.7,0.5l0,0l-1.2-0.7v1.2c0,0.3-0.2,0.5-0.5,0.5h0
	c-0.3,0-0.5-0.2-0.5-0.5v0v-2.1c0-0.4,0.4-0.6,0.7-0.5l0,0l1.1,0.7l0-1.6c0-0.3,0.3-0.6,0.6-0.5l0,0l1.6,0.5l-0.4-1.5
	c-0.1-0.4,0.3-0.8,0.7-0.6l0,0l2,0.9c0-0.2,0-0.4-0.1-0.5l0,0c0-0.3-0.1-0.5-0.2-0.7C898.1,478.8,898.2,478.5,898.4,478.4z"/>
<path class="st37" d="M886.7,485.2c0.9-0.3,1.8-0.6,3.6-1l-0.8,2.4l0,2.7l-5.1,0c-0.2,0-0.6-0.3-0.4-1.5
	C884.3,486.2,885.5,485.7,886.7,485.2z"/>
<path class="st39" d="M912.8,491.5l0-2.9l-23,0.4l-5.7-0.5l-0.2,2.3c-0.1,0.7,0.4,1.3,1.1,1.4l4.8,0.4l22.5-0.4
	C912.6,492.1,912.8,491.8,912.8,491.5z"/>
<path class="st40" d="M912.1,489.3h0.2c0.4,0,0.7,0.3,0.7,0.7v0.7c0,0.4-0.3,0.7-0.7,0.7h-0.2c-0.4,0-0.7-0.3-0.7-0.7V490
	C911.4,489.6,911.7,489.3,912.1,489.3z"/>
<path class="st37" d="M905,506.9c-0.7-3.5-0.7-5.7,1.9-7.8c2.5-2,4.7-5.4,9.1-8.8c0,0,0.6-0.3,1.8,0.1c1,0.3,2.4,1.4,4.1,1
	c1.9-0.4,3.5-1.2,4.4-2c0.2-1.4,1.2-1.7,1.2-1.7s2,2.6,2.6,5.5c0.6,2.9,1.5,7.7,1.5,7.7L905,506.9z"/>
<path class="st38" d="M914.9,490.7c0.2-0.2,0.5-0.1,0.7,0.1c0.2,0.2,0.3,0.5,0.4,0.8c0.2,0.5,0.3,0.8,0.4,1.5
	c0.1,0.4-0.2,0.7-0.6,0.6l0,0l-1.8-0.4l0.6,1.3c0.2,0.4-0.1,0.8-0.5,0.7l0,0l-1.9-0.2l0.3,1.7c0.1,0.4-0.3,0.7-0.6,0.6l0,0l-1.3-0.4
	l0.2,1.2c0,0.3-0.1,0.5-0.4,0.6l0,0c-0.3,0.1-0.5-0.1-0.6-0.4l0,0l-0.4-2.1c-0.1-0.4,0.3-0.7,0.6-0.6l0,0l1.3,0.4l-0.3-1.5
	c-0.1-0.3,0.2-0.6,0.5-0.6l0,0l1.6,0.2l-0.7-1.4c-0.2-0.4,0.1-0.8,0.5-0.7l0,0l2.1,0.5c0-0.2-0.1-0.3-0.2-0.5l0,0
	c-0.1-0.2-0.2-0.5-0.3-0.6C914.7,491.2,914.7,490.9,914.9,490.7z"/>
<path class="st37" d="M904.8,499.9c0.8-0.5,1.7-1,3.3-1.8l-0.3,2.5l0.5,2.6l-5,1.1c-0.2,0-0.6-0.2-0.7-1.4
	C902.6,501.4,903.6,500.6,904.8,499.9z"/>
<path class="st39" d="M931.5,500.5l-0.6-2.8l-22.5,5.3l-5.7,0.8l0.3,2.2c0.1,0.7,0.7,1.2,1.4,1.1l4.8-0.7l21.9-5.2
	C931.4,501.2,931.6,500.8,931.5,500.5z"/>
<path class="st40" d="M930.4,498.4l0.2,0c0.4-0.1,0.7,0.2,0.8,0.5l0.1,0.7c0.1,0.4-0.2,0.7-0.5,0.8l-0.2,0c-0.4,0.1-0.7-0.2-0.8-0.5
	l-0.1-0.7C929.8,498.9,930,498.5,930.4,498.4z"/>
<path class="st41" d="M1033.9,346.9h-4.1c-5.5,0-10.6,2.7-14.2,7.1c-3.6,4.4-5.8,10.3-5.8,16.9c0,0.4,0.2,0.8,0.6,1
	c4.2,1.4,8.2,1.7,10.9,1.3c-0.1-0.1,0.1,0.1,0.1,0.1c-0.4-0.5,0.6-0.4,1.1-0.8c4.1-3.2,8.7-6,14.4-7.1c5.5-1,11.3-1,16.2,0.5
	c0.2,0.1,0.4,0.1,0.7,0.3c-1.1-4.9-3.9-10.8-7.1-13.9C1043.2,348.9,1038.8,346.8,1033.9,346.9L1033.9,346.9z"/>
<path class="st42" d="M1033.5,347.6c5,4.5,9.4,11.2,11.9,17.5c-2.5,0-5.2,0.6-7.7,1.1c-6,1.1-11.7,3.5-16,6.7
	c-0.1,0.1-0.1,0.1-0.2,0.2c0.6-8.3,3.2-18.3,9-24.6c0.3-0.3,0.6-0.6,0.8-0.8H1033.5C1033.9,347.9,1033.2,347.3,1033.5,347.6z"/>
<path class="st43" d="M1048.2,352.9c3.1,3.1,5.9,8.9,7.1,13.7c-0.3-0.1-0.5-0.2-0.8-0.3c-2.9-0.9-6.1-1.3-9.3-1.3
	c-2.5-6.2-6.7-12.5-11.5-16.9c-0.3-0.3,0-0.5-0.3-0.8h2.1c0.1,0,1-0.3,1.2-0.3C1041.3,347.2,1044.8,349.6,1048.2,352.9L1048.2,352.9
	z"/>
<path class="st44" d="M1035.2,347h-4.1c-0.8,0-1.6,0.1-2.4,0.2c0.4,0.5,2.1,0.9,4.1,0.9c2.1,0,3.9-0.4,4.1-0.9
	C1036.4,347.1,1035.8,347,1035.2,347L1035.2,347z"/>
<path class="st45" d="M1031.9,331.9V348h1.9v-16.1H1031.9z"/>
<path class="st45" d="M1032.9,334.2c1.2,0,2.2-1,2.2-2.3c0-1.2-1-2.3-2.2-2.3c-1.2,0-2.2,1-2.2,2.3
	C1030.6,333.2,1031.6,334.2,1032.9,334.2z"/>
<path class="st45" d="M1032.9,340.5c1.2,0,2.2-1,2.2-2.3c0-1.2-1-2.3-2.2-2.3c-1.2,0-2.2,1-2.2,2.3
	C1030.7,339.5,1031.7,340.5,1032.9,340.5z"/>
<path class="st46" d="M1032.9,343.8c1.2,0,2.2-1,2.2-2.3c0-1.2-1-2.3-2.2-2.3c-1.2,0-2.2,1-2.2,2.3
	C1030.7,342.8,1031.7,343.8,1032.9,343.8z"/>
<path class="st45" d="M1032.9,347.6c1.2,0,2.2-1,2.2-2.3c0-1.2-1-2.3-2.2-2.3c-1.2,0-2.2,1-2.2,2.3
	C1030.7,346.6,1031.7,347.6,1032.9,347.6z"/>
<path class="st47" d="M1032.9,334.8c0,0,12-2.9,16.7-2.9s4.8,2,4.8,2s-1,2.6-4.4,2.6C1046.5,336.4,1032.9,334.8,1032.9,334.8
	L1032.9,334.8z"/>
<path class="st47" d="M1032.9,334.8c0,0-12-2.9-16.7-2.9c-4.7,0-4.8,2-4.8,2s1,2.6,4.4,2.6C1019.2,336.4,1032.9,334.8,1032.9,334.8
	L1032.9,334.8z"/>
<path class="st48" d="M1032.9,337.1c1.2,0,2.2-1,2.2-2.3c0-1.2-1-2.3-2.2-2.3c-1.2,0-2.2,1-2.2,2.3
	C1030.6,336.1,1031.6,337.1,1032.9,337.1z"/>
<path class="st49" d="M1055.3,366.5c-16.2-5-29,3-34.1,6.6c0,0,1.6,2.7,4.3,5.2c3.6,3.4,7.2,6.6,11,6.4c3.8-0.1,5.4-0.5,9.2-3
	c3.8-2.6,10.1-4.9,14-4.7c3.9,0.1,6.6,2.4,6.6,2.4s0.1-0.2-0.7-1.8C1064.7,376,1055.3,366.5,1055.3,366.5z"/>
<path class="st50" d="M1064.3,376.3c-1.3-1-7-1.7-10.8-0.9c-8.9,2.8-9,6.6-16.3,6.9c-6.3,0.3-9.9-8-13.9-10.5"/>
<path class="st51" d="M644.4,473.6c-4.8,0-6.2-1.6-8.2-2.4c-0.9,0.2-3.1,1-3.9,1.6c-0.1,4.3-0.2,12.9-1.8,14.6
	c-0.3,1.7-2.8,16-2.6,18.5c3.6,0.9,12.1,1.4,16.6,1.4c4.5,0,13-0.5,16.6-1.4c0.4-2.1-1.5-13.3-2.5-18.5c-1.3-2.1-1.7-10.6-1.8-14.6
	c-0.8-0.6-3.2-1.3-4.1-1.6C650.6,472,649.1,473.6,644.4,473.6z"/>
<path class="st52" d="M644.3,473.5c-4.8,0-8.1-2.5-8.1-2.5l-2.3,0.8c0,0,4.8,2.9,7.7,3.4c2.3,0.3,4.2,0.3,6.4-0.3
	c2.5-0.6,6.1-3.4,6.1-3.4l-1.7-0.5C652.5,471,649.1,473.5,644.3,473.5z"/>
<path class="st53" d="M630.9,486.8l-3.2,4.8l-3.4,5.2l-6.7-5.2c0.8-1.4,1.7-2.8,2.5-4.2c3.9-6.8,7.4-12.8,11.9-15
	c0.1,0,0.2-0.1,0.2-0.1C633.2,476.4,633,482.7,630.9,486.8z"/>
<path class="st52" d="M625.2,495.5c-3.5-1-6-3.7-6.9-4.9c-0.4,0.9-0.8,1.4-0.9,1.6c1.9,4.4,5.6,4.8,6.8,4.9
	C624.5,496.5,624.9,496,625.2,495.5z"/>
<path class="st53" d="M657,486.8l3.2,4.8l3.4,5.2l6.7-5.2c-0.8-1.4-1.7-2.8-2.5-4.2c-3.9-6.8-7.4-12.8-11.9-15c0,0-0.2-0.1-0.2-0.1
	C654.7,476.4,654.9,482.7,657,486.8z"/>
<path class="st52" d="M662.6,495.2c3.5-1,6-3.7,6.9-4.9c0.4,0.9,0.8,1.4,0.9,1.6c-1.9,4.4-5.6,4.8-6.8,4.9
	C663.3,496.3,663,495.8,662.6,495.2z"/>
<path class="st54" d="M640.2,474c1.5,0.8,3,1.4,3,1.9c0,0.5-1.5,1.9-3,1.9c-1.5,0-1-0.9-1-1.9C639.2,474.8,638.7,473.2,640.2,474z"
	/>
<path class="st54" d="M647.7,474c-1.5,0.8-3,1.4-3,1.9c0,0.5,1.5,1.9,3,1.9c1.5,0,1-0.9,1-1.9C648.7,474.8,649.2,473.2,647.7,474z"
	/>
<path class="st55" d="M643.8,477.8c0.8,0,1.5-0.7,1.5-1.7c0-0.9-0.7-1.7-1.5-1.7c-0.8,0-1.5,0.7-1.5,1.7
	C642.4,477,643,477.8,643.8,477.8z"/>
<path class="st56" d="M627.1,355.7l-3.2,4.8l-3.4,5.2l-6.7-5.2c0.8-1.4,1.7-2.8,2.5-4.2c3.9-6.8,7.4-12.9,11.9-15
	c0.1,0,0.2-0.1,0.2-0.1C629.4,345.3,629.2,351.5,627.1,355.7z"/>
<path class="st57" d="M621.4,364.3c-3.5-1-6-3.7-6.9-4.9c-0.4,0.9-0.8,1.4-0.9,1.6c1.9,4.4,5.6,4.8,6.8,4.9
	C620.7,365.4,621.1,364.8,621.4,364.3z"/>
<path class="st56" d="M653.2,355.9l3.2,4.8l3.4,5.2l6.7-5.2c-0.8-1.4-1.7-2.8-2.5-4.2c-3.9-6.8-7.4-12.9-11.9-15
	c-0.1,0-0.2-0.1-0.2-0.1C650.9,345.6,651.1,351.8,653.2,355.9z"/>
<path class="st57" d="M658.8,364.4c3.5-1,6-3.7,6.9-4.9c0.4,0.9,0.8,1.4,0.9,1.6c-1.9,4.4-5.6,4.8-6.8,4.9
	C659.5,365.4,659.1,364.9,658.8,364.4z"/>
<path class="st58" d="M639.7,342.4c-4.8,0-6.2-1.6-8.2-2.4c-0.9,0.2-3.2,1-3.9,1.6c-0.1,4.3-0.2,12.9-1.8,14.6
	c-0.3,1.7-2.8,16-2.6,18.6c3.6,0.9,12.1,1.4,16.6,1.4c4.5,0,13-0.5,16.6-1.4c0.4-2.1-1.5-13.4-2.5-18.6c-1.3-2.1-1.8-10.6-1.8-14.6
	c-0.8-0.6-3.2-1.3-4.1-1.6C645.9,340.9,644.5,342.4,639.7,342.4z"/>
<path class="st57" d="M639.6,342.4c-4.8,0-8.1-2.5-8.1-2.5l-2.3,0.8c0,0,4.8,2.9,7.7,3.4c2.3,0.3,4.2,0.3,6.4-0.3
	c2.5-0.6,6.1-3.4,6.1-3.4l-1.7-0.5C647.8,339.9,644.4,342.4,639.6,342.4z"/>
<ellipse transform="matrix(0.6053 -0.796 0.796 0.6053 -28.8816 651.3633)" class="st59" cx="642.4" cy="354.8" rx="4.3" ry="2.7"/>
<ellipse transform="matrix(0.7051 -0.7091 0.7091 0.7051 -66.8566 562.4309)" class="st59" cx="642.8" cy="361.6" rx="2.8" ry="4.2"/>
<ellipse transform="matrix(0.9967 -8.076366e-02 8.076366e-02 0.9967 -26.871 53.1998)" class="st59" cx="644.2" cy="358.8" rx="4.1" ry="2.8"/>
<ellipse transform="matrix(0.6053 -0.796 0.796 0.6053 -36.9268 649.5005)" class="st59" cx="636.5" cy="362" rx="4.3" ry="2.7"/>
<ellipse transform="matrix(0.9981 -6.173315e-02 6.173315e-02 0.9981 -21.2069 40.2307)" class="st59" cx="640.5" cy="363.3" rx="2.7" ry="4.4"/>
<ellipse transform="matrix(0.7051 -0.7091 0.7091 0.7051 -64.4671 555.8582)" class="st59" cx="636.1" cy="355.4" rx="2.8" ry="4.2"/>
<ellipse transform="matrix(0.9981 -6.173315e-02 6.173315e-02 0.9981 -20.6083 40.092)" class="st59" cx="638.5" cy="353.6" rx="2.7" ry="4.4"/>
<ellipse transform="matrix(0.9967 -8.076366e-02 8.076366e-02 0.9967 -26.8474 52.437)" class="st59" cx="634.8" cy="358.1" rx="4.1" ry="2.8"/>
<ellipse class="st60" cx="639.6" cy="358.1" rx="3.4" ry="3.6"/>
<path class="st61" d="M798.2,384.7c0.1,1.8,0.5,5.4,0.5,7.2l-1.2,1.8c-0.3-1.2-0.5-1.8-0.7-2.9c0,0-0.1,0-0.1,0
	c-0.3,1.1-0.5,2.2-0.8,3.5l-1.2-0.3c0,0,0.2-3.6,0.2-3.6c-0.3,1.2-0.6,2.5-0.9,3.8c-0.1-0.3-0.8,0.1-0.9,0c-0.2-0.9,0.2,0.9,0,0
	c-0.1-0.3,0-4,0-4.3c0-1.8,0.1-3.5,0.1-5.3c0.1,0,0.3,0.1,0.4,0.1C795.1,385.2,796.6,385.1,798.2,384.7z"/>
<path class="st61" d="M797.4,364.7c0.1,1.7,0.1,3.5,0.2,5.2c-1.4,0.4-2.8,0.4-4.2-0.1c0-1.7,0.1-3.5,0.1-5.2
	c0.6,0.1,1.1,0.2,1.7,0.3C795.9,364.9,796.7,364.8,797.4,364.7z"/>
<path class="st62" d="M797.9,378.4c0,1.4,0.1,2.9,0.1,4.3c-1.6,0.5-3.3,0.5-4.9-0.1c0-1.5,0.1-3,0.1-4.4
	C794.7,378.8,796.3,378.8,797.9,378.4z"/>
<path class="st61" d="M793.6,355.4c0-2,0.1-4,0.1-6c1.1,0,2.2,0,3.3,0c0.1,2,0.1,4,0.2,6C795.9,355.7,794.8,355.7,793.6,355.4z"/>
<path class="st61" d="M797.7,371.8c0.1,1.6,0.1,3.1,0.2,4.7c-0.1,0-0.2,0-0.3,0.1c-1.4,0.4-2.9,0.3-4.3-0.2c0-1.5,0.1-3.1,0.1-4.6
	c0.1,0,0.2,0,0.2,0.1C794.9,372.2,796.3,372.2,797.7,371.8z"/>
<path class="st62" d="M797.2,357.4c0.1,1.8,0.1,3.6,0.2,5.4c-0.1,0-0.3,0-0.4,0.1c-1.2,0.2-2.3,0.2-3.5-0.1c0-1.8,0.1-3.6,0.1-5.5
	C794.8,357.6,796,357.6,797.2,357.4z"/>
<path class="st63" d="M793.1,382.7c1.6,0.6,3.3,0.6,4.9,0.1c0,0.6,0,1.3,0.1,1.9c-1.5,0.5-3,0.5-4.6,0c-0.1,0-0.3-0.1-0.4-0.1
	C793.1,383.9,793.1,383.3,793.1,382.7z"/>
<path class="st64" d="M793.2,376.3c1.4,0.5,2.8,0.6,4.3,0.2c0.1,0,0.2,0,0.3-0.1c0,0.6,0,1.3,0.1,1.9c-1.6,0.4-3.1,0.4-4.7-0.2
	C793.2,377.6,793.2,377,793.2,376.3z"/>
<path class="st65" d="M797.7,371.8c-1.4,0.4-2.7,0.4-4.1-0.1c-0.1,0-0.1,0-0.2-0.1c0-0.6,0-1.3,0-1.9c1.4,0.4,2.8,0.5,4.2,0.1
	C797.6,370.6,797.6,371.2,797.7,371.8z"/>
<path class="st64" d="M793.5,362.7c1.1,0.4,2.3,0.3,3.5,0.1c0.1,0,0.3,0,0.4-0.1c0,0.6,0,1.3,0.1,1.9c-0.8,0.1-1.5,0.2-2.3,0.2
	c-0.6,0-1.1-0.2-1.7-0.3C793.4,364,793.5,363.4,793.5,362.7z"/>
<path class="st65" d="M797.2,357.4c-1.2,0.2-2.4,0.2-3.6-0.2c0-0.6,0-1.3,0-1.9c1.2,0.3,2.3,0.4,3.5,0.1
	C797.1,356.1,797.2,356.8,797.2,357.4z"/>
<defs>
	<filter id="Adobe_OpacityMaskFilter_1_" filterUnits="userSpaceOnUse" x="743.3" y="344.4" width="54.3" height="8.8">
		<feColorMatrix  type="matrix" values="1 0 0 0 0  0 1 0 0 0  0 0 1 0 0  0 0 0 1 0"/>
	</filter>
</defs>
<mask maskUnits="userSpaceOnUse" x="743.3" y="344.4" width="54.3" height="8.8" id="mask1_1_">
	<path class="st66" d="M744.6,344.8c0,0,11.7,1.8,28.7,1.8c17,0,23.8-2.4,23.8-2.4s0,1.9,0,4.7c0,4.6-52.1,2.1-52.5,1.3
		C743.3,347.4,744.6,344.8,744.6,344.8z"/>
</mask>
<g class="st67">
	<path class="st61" d="M766.7,351.8c2.6,0.1,5.3,0.3,7.9,0.4c0.6-2.5,0.6-5-0.1-7.5c-2.6,0-5.3,0-7.9,0.1c0.1,1,0.4,2,0.4,3
		C767,349.1,766.8,350.4,766.7,351.8z"/>
	<path class="st62" d="M787.5,352.8c2.2,0.1,4.4,0.2,6.6,0.3c0.8-2.9,0.8-5.8,0-8.6c-2.2,0-4.5,0-6.8,0.1
		C788.1,347.3,788.2,350,787.5,352.8z"/>
	<path class="st61" d="M752.5,344.8c-3,0-6.1,0-9.1,0.1c0,2,0,3.8-0.1,5.8c3.1,0.1,6.2,0.3,9.2,0.4C753,349,752.9,346.9,752.5,344.8
		z"/>
	<path class="st61" d="M777.5,352.3c2.4,0.1,4.7,0.2,7.1,0.4c0-0.2,0.1-0.4,0.1-0.5c0.6-2.5,0.5-5-0.3-7.5c-2.3,0-4.7,0-7,0.1
		c0,0.1,0,0.3,0.1,0.4C778.1,347.5,778.1,349.9,777.5,352.3z"/>
	<path class="st62" d="M755.6,351.2c2.7,0.1,5.5,0.3,8.2,0.4c0-0.3,0.1-0.5,0.1-0.8c0.3-2,0.4-4.1-0.1-6.1c-2.8,0-5.6,0.1-8.3,0.1
		C755.9,347,755.8,349.1,755.6,351.2z"/>
	<path class="st63" d="M794.1,344.4c0.9,2.9,0.8,5.8,0,8.6c1,0,1.9,0.1,2.9,0.1c0.8-2.7,0.8-5.3,0.1-8c-0.1-0.2-0.1-0.5-0.2-0.7
		C796,344.5,795.1,344.4,794.1,344.4z"/>
	<path class="st64" d="M784.5,344.6c0.7,2.5,0.8,5,0.3,7.5c0,0.2-0.1,0.4-0.1,0.5c1,0.1,1.9,0.1,2.9,0.1c0.7-2.8,0.6-5.5-0.2-8.3
		C786.4,344.5,785.4,344.6,784.5,344.6z"/>
	<path class="st68" d="M777.5,352.3c0.6-2.4,0.6-4.8,0-7.2c0-0.1,0-0.3-0.1-0.4c-1,0-1.9,0-2.9,0c0.7,2.5,0.7,5,0.1,7.5
		C775.6,352.2,776.5,352.2,777.5,352.3z"/>
	<path class="st64" d="M763.7,344.8c0.5,2,0.5,4.1,0.1,6.1c0,0.3-0.1,0.5-0.1,0.8c1,0.1,1.9,0.1,2.9,0.1c0.1-1.4,0.3-2.7,0.3-4.1
		c0-1-0.2-2-0.4-3C765.6,344.7,764.7,344.7,763.7,344.8z"/>
	<path class="st68" d="M755.6,351.2c0.3-2.1,0.3-4.3-0.2-6.4c-1,0-1.9,0-2.9,0c0.5,2.1,0.5,4.1,0.1,6.2
		C753.6,351.1,754.6,351.2,755.6,351.2z"/>
</g>
<rect x="762.5" y="514" class="st69" width="11.5" height="1.9"/>
<path class="st69" d="M762.5,456.4h27.7l0.1,1.9h-27.8V456.4z"/>
<rect x="779" y="513.6" class="st69" width="11.5" height="1.9"/>
<g>
	<path class="st70" d="M122.3,684.1l-9.8-53H200l-4.7,50.1c0,0-10.6,12.4-33.6,12.4S122.3,684.1,122.3,684.1z"/>
	<path class="st71" d="M184.6,641.4l15.4-9.2l-4,50.4l-12.9,7.6L184.6,641.4z"/>
	<path class="st72" d="M113.3,621.5c0,5.8,3.6,12.2,12.1,17.3c8.5,5.1,19.9,7.8,31.4,7.8c11.5,0,22.9-2.7,31.5-7.8
		c8.6-5.1,12.3-11.5,12.3-17.3c0-5.8-3.6-12.2-12.1-17.3c-8.5-5.1-19.9-7.8-31.4-7.8c-11.5,0-22.9,2.7-31.5,7.8L113.3,621.5z
		 M113.3,621.5c0-5.8,3.8-12.2,12.3-17.3L113.3,621.5z"/>
	<path class="st73" d="M150.4,589.2c-2.2-13.4,12.6-32.2,36.2-37.2c0,0,10,46.9-12.5,49.7c0,0-18.4,1.7-17.3-0.6
		C156.7,601.1,151.9,598.9,150.4,589.2z"/>
	<path class="st74" d="M156.4,600.5c0,0,0.2-14.1,21.6-36.3c0,0-17.7,11.8-22.9,35.7L156.4,600.5z"/>
	<path class="st73" d="M166.2,598.5c2.2-13.4-12.6-32.2-36.2-37.2c0,0-10,46.9,12.5,49.7c0,0,18.4,1.7,17.3-0.6
		C159.8,610.4,164.6,608.2,166.2,598.5z"/>
	<path class="st74" d="M160.1,609.8c0,0-0.2-14.1-21.6-36.3c0,0,17.7,11.8,22.9,35.7L160.1,609.8z"/>
	<path class="st75" d="M159.7,617.1c0,0-13.8-23.7-27.3-24.5c-13.5-0.7-32.9,10.5-39.5,33.7c0,0,46.2,13,50.4-9.3
		c0,0,2.9-18.2,0.5-17.3c0,0,6.1,3.6,15.2,17.8C159,617.6,159.4,619.8,159.7,617.1z"/>
	<path class="st75" d="M158.8,618.2c0,0,13.8-23.7,27.3-24.5c13.5-0.7,32.9,10.5,39.5,33.7c0,0-46.2,13-50.4-9.3
		c0,0-2.9-18.2-0.5-17.3c0,0-6.1,3.6-15.2,17.8C159.5,618.6,159.2,620.9,158.8,618.2z"/>
	<path class="st74" d="M175.2,600.5c0,0,14.1-0.7,37.6,19.2c0,0-12.9-16.9-37.1-20.6L175.2,600.5z"/>
	<path class="st75" d="M174.2,594.4c12,6.3,18.1,29.4,8,51.3c0,0-43.5-20.2-32.2-39.8c0,0,9.7-15.7,10.9-13.5
		C160.8,592.4,165.4,589.8,174.2,594.4z"/>
	<path class="st74" d="M161.4,592.4c0,0,11.2,8.6,16,39.1c0,0,1.2-21.2-14.8-39.8L161.4,592.4z"/>
</g>
<path class="st76" d="M681.3,36.5c0.5,0,6.5,0.3,7,0.4c11.9,1.5,18.2,31.9,18.7,42.7c0.6,11.3-10.9,15.1-23.5,15.8
	c-12.6,0.6-24-2.9-24.6-14.2c-0.5-10.8,8.4-41.8,20.2-44.5C679.9,36.5,680.6,36.5,681.3,36.5z"/>
<path class="st77" d="M655.4,57.8L713,60c0.8,0,1.7,0.2,2.4,0.6c0.8,0.4,1.4,0.9,2,1.6c0.5,0.7,0.9,1.4,1.1,2.3
	c0.2,0.8,0.2,1.7,0.1,2.5l-5.4,29.4c-0.2,1.4-1,2.6-2,3.5c-1.1,0.9-2.4,1.4-3.8,1.4l-50.6,0.2c-1.5,0-3-0.6-4.1-1.6
	c-1.1-1-1.8-2.5-1.8-4L649.3,64c0-0.8,0.1-1.6,0.4-2.4c0.3-0.8,0.7-1.5,1.3-2.1c0.6-0.6,1.3-1,2-1.3
	C653.8,57.9,654.6,57.8,655.4,57.8z"/>
<path class="st78" d="M682,62.9c12.6-0.6,23.1,6.9,23.6,16.8c0.5,9.9-9.3,18.4-21.8,19.1c-12.6,0.6-23.1-6.9-23.6-16.8
	C659.6,72.1,669.4,63.6,682,62.9z"/>
<path class="st79" d="M681.7,42.4l-2.1-6.3v-9.8h10.1v9.6l-2.5,6.5L681.7,42.4z"/>
<path class="st38" d="M682.7,30.4c-0.1,0.1-0.3,0.2-0.4,0.2c-0.1,0-0.2,0-0.3-0.1c-0.1,0-0.2-0.1-0.2-0.2c-0.1-0.1-0.1-0.2-0.2-0.2
	c0-0.1-0.1-0.2-0.1-0.3c0-0.2,0.1-0.3,0.2-0.4L682.7,30.4z"/>
<path class="st38" d="M682.3,29.1c0.1,0,0.2,0,0.3,0.1c0.1,0,0.2,0.1,0.2,0.2c0.1,0.1,0.1,0.2,0.2,0.2c0,0.1,0.1,0.2,0.1,0.3
	c0,0.2-0.1,0.3-0.2,0.4l-1-1C682,29.1,682.1,29.1,682.3,29.1z"/>
<path class="st38" d="M685.5,39.8c-0.3,0.2-0.6,0.3-0.9,0.3c-0.3,0-0.6-0.2-0.9-0.4c-0.2-0.2-0.4-0.6-0.4-0.9c0-0.3,0.1-0.7,0.3-0.9
	L685.5,39.8z"/>
<path class="st38" d="M684.7,37.4c0.3,0,0.5,0.1,0.7,0.2c0.2,0.1,0.4,0.3,0.5,0.6c0.1,0.2,0.1,0.5,0.1,0.7c0,0.3-0.1,0.5-0.3,0.7
	l-1.9-1.9C684.1,37.5,684.4,37.4,684.7,37.4z"/>
<path class="st38" d="M700,73.8c-0.8,1.9-1.6,3.8-2.4,5.6c-0.8,1.9-1.7,3.7-2.6,5.5c-0.9,1.8-1.8,3.7-2.7,5.5s-1.8,3.6-2.8,5.4
	c0.8-1.9,1.6-3.8,2.4-5.6c0.8-1.9,1.7-3.7,2.6-5.5c0.9-1.8,1.8-3.7,2.7-5.5C698.1,77.4,699,75.6,700,73.8z"/>
<path class="st38" d="M694.9,69.7c-0.7,2.2-1.4,4.5-2.2,6.7c-0.7,2.2-1.5,4.4-2.3,6.6c-0.8,2.2-1.6,4.4-2.4,6.6
	c-0.8,2.2-1.7,4.4-2.6,6.5c0.7-2.2,1.4-4.5,2.2-6.7c0.7-2.2,1.5-4.4,2.3-6.6c0.8-2.2,1.6-4.4,2.5-6.6
	C693.1,74,693.9,71.9,694.9,69.7z"/>
<path class="st38" d="M686.6,67.9c-0.3,2.3-0.6,4.6-0.9,6.9c-0.3,2.3-0.7,4.6-1.1,6.9c-0.4,2.3-0.8,4.6-1.2,6.9
	c-0.4,2.3-0.9,4.6-1.4,6.8c0.3-2.3,0.6-4.6,0.9-6.9c0.3-2.3,0.7-4.6,1.1-6.9c0.4-2.3,0.8-4.6,1.2-6.9S686.1,70.2,686.6,67.9z"/>
<path class="st38" d="M677.6,69.8c0.1,2.1,0.2,4.3,0.2,6.4c0,2.1,0,4.3,0.1,6.4c0,2.1,0,4.3-0.1,6.4c-0.1,2.1-0.1,4.3-0.2,6.4
	c-0.1-2.1-0.2-4.3-0.2-6.4c0-2.1,0-4.3-0.1-6.4c0-2.1,0-4.3,0.1-6.4C677.4,74,677.5,71.9,677.6,69.8z"/>
<path class="st38" d="M669.3,72.6c0.5,1.8,1,3.7,1.4,5.5c0.4,1.9,0.8,3.7,1.2,5.6c0.4,1.9,0.8,3.7,1.1,5.6c0.3,1.9,0.7,3.7,0.9,5.6
	c-0.5-1.8-1-3.7-1.4-5.5c-0.4-1.9-0.8-3.7-1.2-5.6c-0.4-1.9-0.8-3.7-1.1-5.6C669.9,76.3,669.5,74.5,669.3,72.6z"/>
<path class="st38" d="M664.1,78.4c0.5,1.1,0.8,2.3,1.2,3.4c0.4,1.2,0.7,2.3,1.1,3.5c0.3,1.2,0.7,2.3,0.9,3.5
	c0.3,1.2,0.6,2.4,0.8,3.6c-0.5-1.1-0.8-2.3-1.2-3.4c-0.4-1.2-0.7-2.3-1.1-3.5c-0.3-1.2-0.7-2.3-0.9-3.5
	C664.6,80.8,664.3,79.6,664.1,78.4z"/>
<path class="st38" d="M702.7,77.6c-3.3,0.6-6.6,1.1-9.9,1.6l-10,1.5l-10,1.3c-3.3,0.4-6.7,0.8-10,1.2c3.3-0.6,6.6-1.1,10-1.6l10-1.5
	l10-1.3C696,78.4,699.4,78,702.7,77.6z"/>
<path class="st38" d="M701.5,83.6c-3.1,0.5-6.3,0.9-9.5,1.3c-3.2,0.4-6.3,0.8-9.5,1.2l-9.5,1c-3.2,0.3-6.3,0.6-9.5,0.9
	c3.1-0.5,6.3-0.9,9.5-1.3l9.5-1.2c3.2-0.3,6.3-0.7,9.5-1C695.2,84.2,698.4,83.9,701.5,83.6z"/>
<path class="st38" d="M696.8,89.6c-2.4,0.4-4.8,0.7-7.1,0.9c-2.4,0.3-4.8,0.5-7.2,0.8c-2.4,0.2-4.8,0.4-7.2,0.6
	c-2.4,0.2-4.8,0.4-7.2,0.5c2.4-0.4,4.8-0.7,7.1-0.9c2.4-0.3,4.8-0.5,7.2-0.8c2.4-0.2,4.8-0.5,7.2-0.6
	C692,89.9,694.4,89.7,696.8,89.6z"/>
<path class="st38" d="M697.9,71.1c-2.9,0.7-5.8,1.4-8.6,2.1c-2.9,0.7-5.8,1.3-8.7,1.9c-2.9,0.6-5.8,1.2-8.7,1.8
	c-2.9,0.6-5.8,1.1-8.7,1.6c2.9-0.7,5.8-1.4,8.6-2.1c2.9-0.7,5.8-1.3,8.7-1.9c2.9-0.6,5.8-1.2,8.7-1.8
	C692,72.2,694.9,71.6,697.9,71.1z"/>
<path class="st38" d="M686.7,29.1c0.2,0,0.4,0.1,0.5,0.2c0.1,0.1,0.2,0.3,0.2,0.5c0,0.2-0.1,0.3-0.2,0.4l-1-1
	C686.4,29.1,686.6,29.1,686.7,29.1z"/>
<path class="st38" d="M687.2,30.4c-0.1,0.1-0.3,0.2-0.4,0.2c-0.1,0-0.2,0-0.3-0.1c-0.1,0-0.2-0.1-0.2-0.2c-0.1-0.1-0.1-0.2-0.2-0.2
	c0-0.1-0.1-0.2-0.1-0.3c0-0.2,0.1-0.3,0.2-0.4L687.2,30.4z"/>
<g class="st80">
	<path class="st81" d="M782.5,268.7L704.4,71l0,0c-0.9-4.8-11.3-8.5-23.6-8.2c-11.9,0.3-21.3,4.2-21.8,8.8l0,0v0c0,0.3,0,0.5,0,0.8
		c0,0.1,0,0.2,0,0.3l-82.6,195.8c0,5.7,30.8,0,94.4,0C670.8,268.7,782.5,274.4,782.5,268.7z"/>
</g>
<path class="st76" d="M1040.4,36.3c-0.5,0-6.5,0.3-7,0.4c-11.9,1.5-18.2,31.9-18.7,42.7c-0.6,11.3,10.9,15.1,23.5,15.8
	s24-2.9,24.6-14.2c0.5-10.8-8.4-41.8-20.2-44.5C1041.8,36.3,1041.1,36.3,1040.4,36.3z"/>
<path class="st77" d="M1066.3,57.6l-57.6,2.2c-0.9,0-1.7,0.2-2.4,0.6c-0.8,0.4-1.4,0.9-2,1.6c-0.5,0.7-0.9,1.4-1.1,2.3
	c-0.2,0.8-0.2,1.7-0.1,2.5l5.4,29.4c0.2,1.4,1,2.6,2,3.5c1.1,0.9,2.4,1.4,3.8,1.4l50.6,0.2c1.5,0,3-0.6,4.1-1.6c1.1-1,1.8-2.5,1.8-4
	l1.6-31.8c0-0.8-0.1-1.6-0.4-2.4s-0.7-1.5-1.3-2.1c-0.6-0.6-1.3-1-2-1.3C1067.9,57.7,1067.1,57.5,1066.3,57.6z"/>
<path class="st78" d="M1039.8,62.7c-12.6-0.6-23.1,6.9-23.6,16.8c-0.5,9.9,9.3,18.4,21.8,19.1c12.6,0.6,23.1-6.9,23.6-16.8
	C1062.1,71.9,1052.3,63.3,1039.8,62.7z"/>
<path class="st79" d="M1040,42.2l2.1-6.3V26H1032v9.6l2.5,6.5L1040,42.2z"/>
<path class="st38" d="M1039,30.2c0.1,0.1,0.3,0.2,0.4,0.2c0.1,0,0.2,0,0.3-0.1c0.1,0,0.2-0.1,0.2-0.2c0.1-0.1,0.1-0.2,0.2-0.2
	c0-0.1,0.1-0.2,0.1-0.3c0-0.2-0.1-0.3-0.2-0.4L1039,30.2z"/>
<path class="st38" d="M1039.4,28.8c-0.1,0-0.2,0-0.3,0.1c-0.1,0-0.2,0.1-0.2,0.2c-0.1,0.1-0.1,0.2-0.2,0.2c0,0.1-0.1,0.2-0.1,0.3
	c0,0.2,0.1,0.3,0.2,0.4l1-1C1039.7,28.9,1039.6,28.8,1039.4,28.8z"/>
<path class="st38" d="M1036.2,39.5c0.3,0.2,0.6,0.3,0.9,0.3c0.3,0,0.6-0.2,0.9-0.4c0.2-0.2,0.4-0.6,0.4-0.9c0-0.3-0.1-0.7-0.3-0.9
	L1036.2,39.5z"/>
<path class="st38" d="M1037,37.2c-0.3,0-0.5,0.1-0.7,0.2c-0.2,0.1-0.4,0.3-0.5,0.6c-0.1,0.2-0.1,0.5-0.1,0.7c0,0.3,0.1,0.5,0.3,0.7
	l1.9-1.9C1037.6,37.3,1037.3,37.2,1037,37.2z"/>
<path class="st38" d="M1021.8,73.6c1,1.8,1.9,3.6,2.8,5.4c0.9,1.8,1.8,3.7,2.7,5.5c0.9,1.8,1.7,3.7,2.6,5.5c0.8,1.9,1.7,3.7,2.4,5.6
	c-1-1.8-1.9-3.6-2.8-5.4c-0.9-1.8-1.8-3.7-2.7-5.5c-0.8-1.8-1.7-3.7-2.6-5.5C1023.3,77.3,1022.5,75.5,1021.8,73.6z"/>
<path class="st38" d="M1026.9,69.5c0.9,2.2,1.8,4.3,2.6,6.5c0.8,2.2,1.6,4.4,2.5,6.6c0.8,2.2,1.6,4.4,2.3,6.6
	c0.7,2.2,1.5,4.4,2.2,6.7c-0.9-2.2-1.8-4.3-2.6-6.5c-0.8-2.2-1.6-4.4-2.4-6.6c-0.8-2.2-1.6-4.4-2.3-6.6
	C1028.3,73.9,1027.5,71.7,1026.9,69.5z"/>
<path class="st38" d="M1035.1,67.7c0.5,2.3,0.9,4.6,1.4,6.8c0.4,2.3,0.8,4.6,1.2,6.9c0.4,2.3,0.7,4.6,1.1,6.9
	c0.3,2.3,0.7,4.6,0.9,6.9c-0.5-2.3-0.9-4.6-1.4-6.8c-0.4-2.3-0.8-4.6-1.2-6.9c-0.4-2.3-0.7-4.6-1.1-6.9
	C1035.7,72.3,1035.3,70,1035.1,67.7z"/>
<path class="st38" d="M1044.1,69.5c0.1,2.1,0.2,4.3,0.2,6.4c0.1,2.1,0.1,4.3,0.1,6.4c0,2.1,0,4.3-0.1,6.4c0,2.1-0.1,4.3-0.2,6.4
	c-0.1-2.1-0.2-4.3-0.2-6.4c0-2.1-0.1-4.3-0.1-6.4c0-2.1,0-4.3,0.1-6.4C1044,73.8,1044,71.7,1044.1,69.5z"/>
<path class="st38" d="M1052.5,72.3c-0.3,1.9-0.6,3.8-0.9,5.6c-0.3,1.9-0.7,3.7-1.1,5.6c-0.4,1.9-0.8,3.7-1.2,5.6
	c-0.4,1.9-0.9,3.7-1.4,5.5c0.3-1.9,0.6-3.8,0.9-5.6c0.3-1.9,0.7-3.7,1.1-5.6c0.4-1.9,0.8-3.7,1.2-5.6
	C1051.5,76,1051.9,74.2,1052.5,72.3z"/>
<path class="st38" d="M1057.6,78.2c-0.2,1.2-0.5,2.4-0.8,3.6c-0.3,1.2-0.6,2.4-0.9,3.5c-0.3,1.2-0.7,2.3-1.1,3.5
	c-0.4,1.2-0.8,2.3-1.2,3.4c0.2-1.2,0.5-2.4,0.8-3.6c0.3-1.2,0.6-2.4,0.9-3.5c0.3-1.2,0.7-2.3,1.1-3.5
	C1056.8,80.5,1057.2,79.3,1057.6,78.2z"/>
<path class="st38" d="M1019,77.4c3.3,0.3,6.7,0.8,10,1.2l10,1.3l10,1.5c3.3,0.5,6.6,1,10,1.6c-3.3-0.3-6.7-0.8-10-1.2l-10-1.3
	l-10-1.5C1025.6,78.5,1022.3,78,1019,77.4z"/>
<path class="st38" d="M1020.2,83.4c3.2,0.2,6.3,0.5,9.5,0.9c3.2,0.3,6.3,0.7,9.5,1l9.5,1.2c3.2,0.4,6.3,0.8,9.5,1.3
	c-3.2-0.2-6.3-0.5-9.5-0.9l-9.5-1c-3.2-0.4-6.3-0.7-9.5-1.2C1026.5,84.3,1023.3,83.9,1020.2,83.4z"/>
<path class="st38" d="M1024.9,89.4c2.4,0.1,4.8,0.3,7.2,0.5c2.4,0.2,4.8,0.4,7.2,0.6c2.4,0.3,4.8,0.5,7.2,0.8
	c2.4,0.3,4.8,0.6,7.1,0.9c-2.4-0.1-4.8-0.3-7.2-0.5c-2.4-0.2-4.8-0.4-7.2-0.6c-2.4-0.3-4.8-0.5-7.2-0.8
	C1029.7,90,1027.3,89.7,1024.9,89.4z"/>
<path class="st38" d="M1023.9,70.9c2.9,0.5,5.8,1,8.7,1.6c2.9,0.6,5.8,1.2,8.7,1.8c2.9,0.6,5.8,1.2,8.7,1.9c2.9,0.7,5.8,1.3,8.6,2.1
	c-2.9-0.5-5.8-1-8.7-1.6c-2.9-0.6-5.8-1.2-8.7-1.8c-2.9-0.6-5.8-1.2-8.7-1.9C1029.6,72.3,1026.7,71.6,1023.9,70.9z"/>
<path class="st38" d="M1035,28.8c-0.2,0-0.4,0.1-0.5,0.2s-0.2,0.3-0.2,0.5c0,0.2,0.1,0.3,0.2,0.4l1-1
	C1035.3,28.9,1035.1,28.8,1035,28.8z"/>
<path class="st38" d="M1034.5,30.2c0.1,0.1,0.3,0.2,0.4,0.2c0.1,0,0.2,0,0.3-0.1c0.1,0,0.2-0.1,0.2-0.2c0.1-0.1,0.1-0.2,0.2-0.2
	c0-0.1,0.1-0.2,0.1-0.3c0-0.2-0.1-0.3-0.2-0.4L1034.5,30.2z"/>
<g class="st80">
	<path class="st81" d="M881.2,271.8L1016.1,73l0,0c0.9-6,11.3-10.5,23.6-10.1c11.9,0.4,21.3,5.2,21.8,10.9l0,0v0c0,0.3,0,0.7,0,1
		c0,0.1,0,0.2,0,0.4l56.9,196.3c0,7-176.7,3.3-240.3,3.3C867.1,297.4,879.2,272.8,881.2,271.8z"/>
</g>
</svg>
