<svg width="235" height="153" viewBox="0 0 235 153" fill="none" xmlns="http://www.w3.org/2000/svg">
<path fill-rule="evenodd" clip-rule="evenodd" d="M61.412 69.6402L47.8774 89.2355L33.1723 110.237L4.43681 89.2355C7.93119 83.6446 11.5526 77.7265 15.047 72.1356C31.8388 44.4796 46.6428 19.9951 66.2038 11.2701C66.4305 11.1706 66.884 10.9715 67.1107 10.8719C71.323 27.5467 70.3993 52.8482 61.412 69.6402Z" fill="#81CCF8"/>
<path d="M36.9473 104.787C22.0111 100.787 11.2813 89.6678 7.20397 84.8529C5.32838 88.3711 3.9243 90.6859 3.16762 91.233C11.2282 108.958 27.2978 110.774 32.2562 111.277C33.8684 109.059 35.4376 106.883 36.9473 104.787Z" fill="#354258"/>
<path fill-rule="evenodd" clip-rule="evenodd" d="M173.125 70.7096L186.659 90.3048L201.364 111.307L230.1 90.3048C226.605 84.7139 222.984 78.7959 219.489 73.2049C202.698 45.5489 187.894 21.0644 168.333 12.3395C168.106 12.2399 167.653 12.0408 167.426 11.9413C163.213 28.6161 164.137 53.9175 173.125 70.7096Z" fill="#81CCF8"/>
<path d="M197.126 104.925C212.062 100.925 222.792 89.8055 226.869 84.9906C228.745 88.5088 230.149 90.8235 230.906 91.3707C222.845 109.095 206.776 110.912 201.817 111.415C200.205 109.196 198.636 107.021 197.126 104.925Z" fill="#354258"/>
<path d="M115.356 15.9099C94.9392 15.9099 88.8377 9.57378 80.1548 6.05371C76.1654 6.9924 66.6377 10.137 63.2585 12.3898C62.8436 29.9468 62.3382 64.7164 55.5143 71.5271C54.1064 78.5672 43.5534 136.405 44.2502 146.857C59.7385 150.377 96.2064 152.489 115.356 152.489C134.505 152.489 170.973 150.377 186.461 146.857C188.151 138.408 179.89 92.6475 175.901 71.5271C170.269 63.0789 168.391 28.5822 168.157 12.3898C164.777 10.137 154.546 6.9924 150.556 6.05371C141.874 9.57378 135.772 15.9099 115.356 15.9099Z" fill="#63C1F8"/>
<path d="M114.917 15.6724C94.2589 15.6724 80.1901 5.69957 80.1901 5.69957L70.3435 8.90372C70.3435 8.90372 90.7875 20.7771 103.467 22.6163C113.253 24.0357 121.458 23.6851 131.071 21.3697C141.867 18.7692 157.071 7.65712 157.071 7.65712L150 5.52148C150 5.52148 135.575 15.6724 114.917 15.6724Z" fill="#354258"/>
</svg>
