<svg width="414" height="360" viewBox="0 0 414 360" fill="none" xmlns="http://www.w3.org/2000/svg">
<path d="M409.799 289.443C410.278 302.546 413.273 327.898 413.572 341.001L404.288 354.001C402.131 345.183 400.634 341.235 398.717 333.224C398.537 333.224 398.298 333.162 398.118 333.162C396.201 341.111 394.344 349.122 392.248 357.94L383.143 355.503C382.903 355.503 384.94 329.871 384.7 329.871C382.604 338.751 380.448 347.632 378.171 357.443C377.632 355.58 371.762 358.499 371.463 357.443C369.905 350.923 372.9 363.962 371.463 357.442C370.923 355.02 371.463 329.001 371.463 326.517C371.642 313.911 371.942 301.304 372.181 288.698C373.26 289.008 374.278 289.257 375.356 289.567C386.797 293.107 398.298 292.921 409.799 289.443Z" fill="#219653"/>
<path d="M404.228 146.671C404.647 159.091 405.066 171.511 405.486 183.931C394.704 186.726 383.982 186.477 373.319 183.31C373.559 170.89 373.739 158.47 373.978 146.112C378.291 146.733 382.544 147.851 386.857 147.913C392.607 147.913 398.418 147.105 404.228 146.671Z" fill="#219653"/>
<path d="M407.702 244.727C408.002 255.036 408.361 265.407 408.66 275.716C396.261 279.38 383.922 279.442 371.582 275.157C371.762 264.6 372.002 253.98 372.181 243.423C383.922 247.211 395.722 247.708 407.702 244.727Z" fill="#B2F498"/>
<path d="M375.176 79.7257C375.416 65.5046 375.656 51.2835 375.895 37.0003C384.281 37.0003 392.308 37.0003 400.694 37.0003C401.113 51.5319 401.532 65.9393 401.952 80.3467C392.967 82.2719 384.042 81.8993 375.176 79.7257Z" fill="#219653"/>
<path d="M405.965 197.593C406.384 208.709 406.744 219.825 407.163 231.003C406.384 231.128 405.606 231.252 404.827 231.438C393.925 233.984 383.143 233.425 372.541 229.886C372.72 218.894 372.96 207.902 373.14 196.91C373.739 197.034 374.338 197.096 374.877 197.283C385.24 200.139 395.602 200.388 405.965 197.593Z" fill="#219653"/>
<path d="M402.431 94.444C402.85 107.299 403.329 120.092 403.749 132.947C402.67 133.071 401.592 133.257 400.514 133.381C391.709 134.747 382.963 134.934 374.278 132.45C374.517 119.409 374.757 106.367 374.997 93.2641C384.101 95.6239 393.206 95.6239 402.431 94.444Z" fill="#B2F498"/>
<path d="M371.582 275.158C383.862 279.443 396.261 279.38 408.66 275.717C408.78 280.312 408.96 284.845 409.08 289.441C397.579 292.918 386.078 293.105 374.577 289.565C373.559 289.255 372.481 289.006 371.403 288.696C371.522 284.162 371.522 279.691 371.582 275.158Z" fill="#9FCC58"/>
<path d="M372.541 229.824C383.143 233.426 393.925 233.923 404.827 231.377C405.606 231.19 406.384 231.128 407.163 230.942C407.343 235.537 407.522 240.071 407.642 244.666C395.722 247.647 383.862 247.212 372.181 243.362C372.301 238.891 372.421 234.357 372.541 229.824Z" fill="#9FCC59"/>
<path d="M405.965 197.593C395.542 200.326 385.24 200.139 374.877 197.221C374.278 197.034 373.739 196.972 373.14 196.848C373.2 192.315 373.2 187.781 373.26 183.248C383.922 186.415 394.644 186.663 405.426 183.869C405.665 188.464 405.845 193.06 405.965 197.593Z" fill="#9FCD58"/>
<path d="M374.338 132.449C383.023 134.995 391.769 134.809 400.574 133.381C401.652 133.194 402.73 133.07 403.809 132.946C403.988 137.541 404.108 142.075 404.288 146.67C398.477 147.105 392.667 147.912 386.857 147.85C382.544 147.85 378.291 146.732 373.978 146.049C374.038 141.516 374.158 136.982 374.338 132.449Z" fill="#9FCC59"/>
<path d="M402.431 94.4438C393.206 95.5616 384.101 95.6237 374.997 93.2639C375.057 88.7305 375.116 84.1971 375.116 79.6638C383.982 81.8994 392.907 82.2099 401.892 80.2848C402.071 85.0665 402.251 89.7862 402.431 94.4438Z" fill="#9FCD58"/>
<mask id="mask0" mask-type="alpha" maskUnits="userSpaceOnUse" x="0" y="0" width="402" height="54">
<path d="M4.45063 3.99805C4.45063 3.99805 93.0732 16.998 221.751 16.998C350.429 16.998 402 0 402 0C402 0 402 13.3003 402 33.998C402 66.998 7.07334 48.998 4.45065 43.498C-5.5633 22.498 4.45063 3.99805 4.45063 3.99805Z" fill="#C4C4C4"/>
</mask>
<g mask="url(#mask0)">
<path d="M171.379 53.6905C191.398 54.5936 211.418 55.4968 231.437 56.3999C236.126 38.4466 235.908 20.5434 230.982 2.69253C210.952 2.88932 190.922 2.98612 170.991 3.18393C171.919 10.3937 173.65 17.5116 173.676 24.7123C173.579 34.3118 172.178 43.9981 171.379 53.6905Z" fill="#219653"/>
<path d="M329.43 61.0943C346.047 61.763 362.763 62.5326 379.38 63.2012C385.499 42.5622 385.808 21.9643 379.109 1.29525C362.083 1.42253 344.956 1.64878 327.931 1.77606C333.839 21.437 334.44 41.1441 329.43 61.0943Z" fill="#B2F498"/>
<path d="M63.9285 4.09831C40.9939 4.26565 18.0593 4.43298 -4.97544 4.5993C-5.11787 18.5986 -5.25419 31.9979 -5.39661 45.9972C18.0274 46.9348 41.2513 47.8705 64.4751 48.8062C67.7318 33.8384 67.2826 18.9331 63.9285 4.09831Z" fill="#219653"/>
<path d="M253.458 57.4237C271.375 58.3056 289.293 59.0874 307.31 59.9702C307.523 58.6723 307.737 57.3744 308.05 56.0775C312.341 37.9201 311.623 19.9119 306.095 2.1549C288.369 2.27506 270.641 2.49523 252.914 2.61539C253.105 3.61737 253.195 4.61834 253.486 5.52134C257.916 22.8672 258.14 40.1703 253.458 57.4237Z" fill="#219653"/>
<path d="M87.1972 49.8366C107.918 50.7468 128.537 51.756 149.257 52.6663C149.476 50.8684 149.795 49.0716 150.013 47.2737C152.366 32.5968 152.815 18.0006 148.957 3.46072C127.925 3.64736 106.893 3.834 85.7606 4.01962C89.411 19.2574 89.2564 34.4567 87.1972 49.8366Z" fill="#B2F498"/>
<path d="M379.109 1.29567C385.809 21.8647 385.499 42.5626 379.38 63.2016C386.788 63.4768 394.095 63.8509 401.503 64.1261C407.305 44.984 407.801 25.788 402.289 6.53111C401.806 4.82612 401.423 3.02215 400.941 1.21716C393.629 1.34299 386.42 1.26984 379.109 1.29567Z" fill="#9FCC58"/>
<path d="M305.995 2.15435C311.623 19.9124 312.241 37.9196 307.95 56.077C307.637 57.3738 307.523 58.6728 307.21 59.9696C314.616 60.3448 321.923 60.719 329.331 60.9941C334.34 41.1439 333.84 21.3378 327.83 1.77585C320.619 1.90269 313.307 2.02852 305.995 2.15435Z" fill="#9FCC59"/>
<path d="M253.458 57.4237C258.041 40.0693 257.916 22.8671 253.386 5.52025C253.095 4.51726 253.004 3.61629 252.814 2.61431C245.504 2.64014 238.194 2.56598 230.883 2.59181C235.809 20.4427 236.027 38.3458 231.338 56.2992C238.744 56.7744 246.151 57.1495 253.458 57.4237Z" fill="#7AB124"/>
<path d="M148.956 3.56086C152.914 18.1018 152.465 32.698 150.012 47.3738C149.694 49.1707 149.475 50.9686 149.256 52.7664C156.663 53.1416 163.971 53.4158 171.378 53.7909C172.177 44.0985 173.578 34.4122 173.576 24.7117C173.65 17.5121 171.919 10.3942 170.891 3.18337C163.58 3.20921 156.269 3.33503 148.956 3.56086Z" fill="#9FCC59"/>
<path d="M87.1972 49.8372C89.1562 34.4562 89.411 19.258 85.7606 4.02021C78.4498 4.04604 71.1391 4.07187 63.8293 3.99771C67.2836 18.8335 67.6326 33.7378 64.3759 48.7056C72.0831 49.0838 79.6902 49.461 87.1972 49.8372Z" fill="#7AB124"/>
</g>
</svg>
