<svg width="199" height="132" viewBox="0 0 199 132" fill="none" xmlns="http://www.w3.org/2000/svg">
<path d="M46.6842 112H153.684V130.5L46.6842 132V112Z" fill="#65B086"/>
<path fill-rule="evenodd" clip-rule="evenodd" d="M15.1842 54C-1.41253 78.5635 0.0317377 131.727 0.0317377 131.727C0.0317377 131.727 24.7725 131.837 57.7499 131.789C57.7554 131.908 57.7589 131.971 57.7589 131.971C57.7589 131.971 116.456 132.206 140.681 131.268C163.037 130.99 183.404 130.582 198.401 129.958C198.401 129.958 199.432 84.1774 178.696 50.5285C162.762 24.6719 136.708 7 100.184 7C63.9913 7 34.8323 24.9204 15.1842 54ZM140.681 131.268C140.681 131.268 141.112 113.1 132.443 99.7461C125.783 89.4846 112.396 82 97.1281 82C81.9989 82 71.7382 89.8868 63.525 101.427C56.9675 110.641 57.6549 129.725 57.7499 131.789C82.9406 131.751 113.234 131.61 140.681 131.268Z" fill="#59C769"/>
<path d="M99.5397 9.5C104.563 9.5 108.635 8.60373 108.635 5.54262C108.635 2.48152 104.563 0 99.5397 0C94.5166 0 90.4446 2.48152 90.4446 5.54262C90.4446 8.60373 94.5166 9.5 99.5397 9.5Z" fill="#65B086"/>
<path d="M39.5595 47.8226C26.861 62.6692 20.9622 73.3345 17.8336 70.6585C14.7049 67.9826 17.9695 56.0258 30.668 41.1793C43.3664 26.3327 55.6206 20.6538 58.7493 23.3298C61.878 26.0058 52.2579 32.976 39.5595 47.8226Z" fill="white" fill-opacity="0.15"/>
</svg>
