<svg width="740" height="560" viewBox="0 0 740 560" fill="none" xmlns="http://www.w3.org/2000/svg">
<path d="M713.886 3.49609H22.7253C10.1745 3.49609 0 13.6655 0 26.21V537.285C0 549.829 10.1745 559.999 22.7253 559.999H713.886C726.437 559.999 736.611 549.829 736.611 537.285V26.21C736.611 13.6655 726.437 3.49609 713.886 3.49609Z" fill="#294688"/>
<path d="M717.275 0H32.7244C20.1735 0 9.99902 10.1694 9.99902 22.7139V530.305C9.99902 542.85 20.1735 553.019 32.7244 553.019H717.275C729.826 553.019 740 542.85 740 530.305V22.7139C740 10.1694 729.826 0 717.275 0Z" fill="#4166B0"/>
<mask id="mask0" mask-type="alpha" maskUnits="userSpaceOnUse" x="9" y="4" width="731" height="554">
<path d="M717.274 4H32.7234C20.1725 4 9.99805 14.1694 9.99805 26.7139V534.305C9.99805 546.85 20.1725 557.019 32.7234 557.019H717.274C729.825 557.019 739.999 546.85 739.999 534.305V26.7139C739.999 14.1694 729.825 4 717.274 4Z" fill="#4166B0"/>
</mask>
<g mask="url(#mask0)">
<path style="mix-blend-mode:screen" opacity="0.2" d="M458.808 762.109L366.893 244.627L546.164 738.715L458.809 762.11L458.808 762.109ZM321.675 768.255H412.112L366.893 244.627L321.675 768.253V768.255ZM274.978 762.11L366.893 244.627L187.623 738.714L274.978 762.11ZM144.108 720.7L366.893 244.627L65.7886 675.503L144.108 720.7ZM28.4211 646.846L366.893 244.627L-19.5298 582.929L28.4211 646.846ZM-48.2028 545.582L366.893 244.627L-93.42 467.3L-48.2028 545.582ZM-111.446 423.808L366.893 244.627L-134.851 336.497L-111.446 423.808ZM-141 289.823L366.893 244.627L-140.999 199.432L-141 289.823ZM-134.852 152.759L366.893 244.627L-111.445 65.4478L-134.852 152.759ZM-93.421 21.9546L366.893 244.627L-48.2026 -56.3259L-93.421 21.9546ZM-19.53 -93.6749L366.893 244.627L44.4181 -157.59L-19.53 -93.6749ZM65.7885 -186.249L366.893 244.627L144.108 -231.444L65.7885 -186.249ZM187.623 -249.46L366.893 244.627L274.978 -272.854L187.623 -249.46ZM321.675 -279L366.893 244.627L412.111 -278.999L321.675 -279ZM458.808 -272.855L366.893 244.627L546.162 -249.459L458.808 -272.855ZM589.678 -231.445L366.893 244.627L667.997 -186.249L589.678 -231.445ZM705.365 -157.591L366.893 244.627L769.312 -93.6745L705.365 -157.591ZM797.986 -56.327L366.893 244.627L843.203 21.9541L797.986 -56.327ZM861.229 65.4466L366.893 244.627L884.634 152.758L861.229 65.4466ZM890.783 199.431L366.893 244.627L890.782 289.822L890.783 199.431ZM884.636 336.496L366.893 244.627L861.228 423.806L884.636 336.496ZM843.205 467.3L366.893 244.627L797.986 545.581L843.205 467.3ZM769.314 582.929L366.893 244.627L705.366 646.845L769.314 582.929ZM667.999 675.503L366.893 244.627L589.678 720.699L667.999 675.503Z" fill="url(#paint0_radial)"/>
</g>
<path opacity="0.8" d="M725.635 21.8191C726.769 19.959 722.377 15.2157 715.824 11.2247C709.272 7.2337 703.041 5.50629 701.907 7.36642C700.773 9.22654 705.165 13.9697 711.717 17.9607C718.269 21.9517 724.5 23.6792 725.635 21.8191Z" fill="white"/>
<path d="M99.848 371.46C99.848 372.384 100.596 373.132 101.52 373.132C102.444 373.132 103.192 372.384 103.192 371.46V363.21L109.968 372.098C110.43 372.692 110.914 373.088 111.728 373.088H111.838C112.784 373.088 113.532 372.34 113.532 371.394V359.14C113.532 358.216 112.784 357.468 111.86 357.468C110.936 357.468 110.188 358.216 110.188 359.14V367.082L103.654 358.502C103.192 357.908 102.708 357.512 101.894 357.512H101.542C100.596 357.512 99.848 358.26 99.848 359.206V371.46ZM122.663 373.264C126.337 373.264 129.065 370.514 129.065 367.126V367.082C129.065 363.694 126.359 360.988 122.707 360.988C119.033 360.988 116.305 363.738 116.305 367.126V367.17C116.305 370.558 119.011 373.264 122.663 373.264ZM122.707 370.382C120.859 370.382 119.605 368.864 119.605 367.126V367.082C119.605 365.344 120.749 363.87 122.663 363.87C124.511 363.87 125.765 365.388 125.765 367.126V367.17C125.765 368.908 124.621 370.382 122.707 370.382ZM135.233 373.22H135.343C136.157 373.22 136.839 372.758 137.147 371.79L139.039 365.85L140.909 371.79C141.217 372.758 141.899 373.22 142.713 373.22H142.823C143.637 373.22 144.319 372.758 144.671 371.724L147.641 363.298C147.685 363.144 147.751 362.836 147.751 362.616C147.751 361.78 147.113 361.076 146.189 361.076C145.309 361.076 144.803 361.648 144.583 362.352L142.735 368.38L140.865 362.396C140.623 361.604 140.007 361.054 139.149 361.054H138.951C138.093 361.054 137.477 361.604 137.235 362.396L135.387 368.358L133.583 362.374C133.341 361.604 132.791 361.076 131.955 361.076C130.965 361.076 130.349 361.824 130.349 362.594C130.349 362.88 130.437 363.21 130.503 363.408L133.385 371.724C133.737 372.758 134.419 373.22 135.233 373.22ZM158.915 376.586C160.917 376.586 161.907 375.684 162.897 373.286L167.011 363.408C167.077 363.254 167.165 362.88 167.165 362.616C167.165 361.736 166.439 361.076 165.581 361.076C164.723 361.076 164.239 361.648 163.975 362.352L161.511 369.194L158.959 362.33C158.673 361.538 158.189 361.076 157.353 361.076C156.429 361.076 155.703 361.736 155.703 362.682C155.703 362.902 155.791 363.232 155.879 363.452L159.905 372.78L159.795 373.044C159.487 373.638 159.201 373.748 158.607 373.748C158.365 373.748 158.189 373.704 157.903 373.616C157.771 373.572 157.617 373.528 157.353 373.528C156.671 373.528 156.033 374.078 156.033 374.892C156.033 375.706 156.605 376.102 157.089 376.278C157.639 376.476 158.167 376.586 158.915 376.586ZM174.762 373.264C178.436 373.264 181.164 370.514 181.164 367.126V367.082C181.164 363.694 178.458 360.988 174.806 360.988C171.132 360.988 168.404 363.738 168.404 367.126V367.17C168.404 370.558 171.11 373.264 174.762 373.264ZM174.806 370.382C172.958 370.382 171.704 368.864 171.704 367.126V367.082C171.704 365.344 172.848 363.87 174.762 363.87C176.61 363.87 177.864 365.388 177.864 367.126V367.17C177.864 368.908 176.72 370.382 174.806 370.382ZM194.3 362.748C194.3 361.824 193.552 361.076 192.628 361.076C191.704 361.076 190.956 361.824 190.956 362.748V367.786C190.956 369.37 190.142 370.184 188.866 370.184C187.59 370.184 186.842 369.37 186.842 367.786V362.748C186.842 361.824 186.094 361.076 185.17 361.076C184.246 361.076 183.498 361.824 183.498 362.748V368.842C183.498 371.548 184.972 373.22 187.502 373.22C189.196 373.22 190.186 372.318 190.956 371.328V371.46C190.956 372.384 191.704 373.132 192.628 373.132C193.552 373.132 194.3 372.384 194.3 371.46V362.748ZM209.455 373.264C211.391 373.264 212.645 372.648 213.635 371.746C213.921 371.482 214.119 371.13 214.119 370.69C214.119 369.898 213.503 369.26 212.711 369.26C212.315 369.26 211.985 369.436 211.809 369.568C211.171 370.074 210.489 370.382 209.609 370.382C207.783 370.382 206.617 368.93 206.617 367.126V367.082C206.617 365.344 207.805 363.87 209.477 363.87C210.357 363.87 210.973 364.156 211.567 364.618C211.765 364.772 212.095 364.948 212.535 364.948C213.371 364.948 214.053 364.288 214.053 363.452C214.053 362.88 213.745 362.484 213.525 362.308C212.535 361.472 211.281 360.988 209.499 360.988C205.891 360.988 203.317 363.76 203.317 367.126V367.17C203.317 370.536 205.913 373.264 209.455 373.264ZM219.801 373.22C221.429 373.22 222.551 372.626 223.365 371.724V371.746C223.365 372.45 224.003 373.132 224.971 373.132C225.873 373.132 226.599 372.428 226.599 371.526V366.158C226.599 364.574 226.203 363.276 225.323 362.396C224.487 361.56 223.167 361.076 221.341 361.076C219.779 361.076 218.635 361.296 217.579 361.692C217.051 361.89 216.677 362.396 216.677 362.99C216.677 363.76 217.293 364.354 218.063 364.354C218.217 364.354 218.349 364.332 218.547 364.266C219.185 364.068 219.933 363.936 220.857 363.936C222.529 363.936 223.387 364.706 223.387 366.092V366.29C222.551 366.004 221.693 365.806 220.505 365.806C217.711 365.806 215.753 366.994 215.753 369.568V369.612C215.753 371.944 217.579 373.22 219.801 373.22ZM220.813 370.91C219.735 370.91 218.987 370.382 218.987 369.48V369.436C218.987 368.38 219.867 367.808 221.297 367.808C222.111 367.808 222.859 367.984 223.431 368.248V368.842C223.431 370.052 222.375 370.91 220.813 370.91ZM229.476 371.46C229.476 372.384 230.224 373.132 231.148 373.132C232.072 373.132 232.82 372.384 232.82 371.46V366.422C232.82 364.838 233.634 364.024 234.91 364.024C236.186 364.024 236.934 364.838 236.934 366.422V371.46C236.934 372.384 237.682 373.132 238.606 373.132C239.53 373.132 240.278 372.384 240.278 371.46V365.366C240.278 362.66 238.804 360.988 236.274 360.988C234.58 360.988 233.59 361.89 232.82 362.88V362.748C232.82 361.824 232.072 361.076 231.148 361.076C230.224 361.076 229.476 361.824 229.476 362.748V371.46ZM255.565 373.264C259.239 373.264 261.967 370.514 261.967 367.126V367.082C261.967 363.694 259.261 360.988 255.609 360.988C251.935 360.988 249.207 363.738 249.207 367.126V367.17C249.207 370.558 251.913 373.264 255.565 373.264ZM255.609 370.382C253.761 370.382 252.507 368.864 252.507 367.126V367.082C252.507 365.344 253.651 363.87 255.565 363.87C257.413 363.87 258.667 365.388 258.667 367.126V367.17C258.667 368.908 257.523 370.382 255.609 370.382ZM264.389 374.98C264.389 375.904 265.137 376.652 266.061 376.652C266.985 376.652 267.733 375.904 267.733 374.98V371.46C268.525 372.406 269.625 373.22 271.407 373.22C274.201 373.22 276.775 371.064 276.775 367.126V367.082C276.775 363.144 274.157 360.988 271.407 360.988C269.669 360.988 268.547 361.802 267.733 362.902V362.748C267.733 361.824 266.985 361.076 266.061 361.076C265.137 361.076 264.389 361.824 264.389 362.748V374.98ZM270.549 370.382C268.987 370.382 267.689 369.084 267.689 367.126V367.082C267.689 365.124 268.987 363.826 270.549 363.826C272.111 363.826 273.431 365.124 273.431 367.082V367.126C273.431 369.106 272.111 370.382 270.549 370.382ZM281.94 366.18C282.204 364.662 283.106 363.672 284.492 363.672C285.9 363.672 286.78 364.684 286.978 366.18H281.94ZM288.914 371.834C289.156 371.614 289.354 371.284 289.354 370.844C289.354 370.096 288.804 369.524 288.056 369.524C287.704 369.524 287.484 369.612 287.242 369.788C286.56 370.294 285.79 370.58 284.866 370.58C283.37 370.58 282.314 369.788 281.984 368.27H288.606C289.486 368.27 290.168 367.632 290.168 366.664C290.168 364.222 288.43 360.988 284.492 360.988C281.06 360.988 278.662 363.76 278.662 367.126V367.17C278.662 370.778 281.28 373.264 284.822 373.264C286.538 373.264 287.88 372.714 288.914 371.834ZM292.726 371.46C292.726 372.384 293.474 373.132 294.398 373.132C295.322 373.132 296.07 372.384 296.07 371.46V366.422C296.07 364.838 296.884 364.024 298.16 364.024C299.436 364.024 300.184 364.838 300.184 366.422V371.46C300.184 372.384 300.932 373.132 301.856 373.132C302.78 373.132 303.528 372.384 303.528 371.46V365.366C303.528 362.66 302.054 360.988 299.524 360.988C297.83 360.988 296.84 361.89 296.07 362.88V362.748C296.07 361.824 295.322 361.076 294.398 361.076C293.474 361.076 292.726 361.824 292.726 362.748V371.46ZM317.011 373.198C317.737 373.198 318.309 373.11 318.925 372.868C319.387 372.692 319.783 372.208 319.783 371.614C319.783 370.844 319.145 370.228 318.397 370.228C318.331 370.228 318.111 370.25 318.001 370.25C317.253 370.25 316.923 369.876 316.923 369.106V364.068H318.397C319.189 364.068 319.827 363.43 319.827 362.638C319.827 361.846 319.189 361.208 318.397 361.208H316.923V359.734C316.923 358.81 316.175 358.062 315.251 358.062C314.327 358.062 313.579 358.81 313.579 359.734V361.208H313.469C312.677 361.208 312.039 361.846 312.039 362.638C312.039 363.43 312.677 364.068 313.469 364.068H313.579V369.656C313.579 372.384 314.965 373.198 317.011 373.198ZM322.16 371.46C322.16 372.384 322.908 373.132 323.832 373.132C324.756 373.132 325.504 372.384 325.504 371.46V366.422C325.504 364.838 326.318 364.024 327.594 364.024C328.87 364.024 329.618 364.838 329.618 366.422V371.46C329.618 372.384 330.366 373.132 331.29 373.132C332.214 373.132 332.962 372.384 332.962 371.46V365.366C332.962 362.66 331.488 360.988 328.958 360.988C327.264 360.988 326.274 361.89 325.504 362.88V358.48C325.504 357.556 324.756 356.808 323.832 356.808C322.908 356.808 322.16 357.556 322.16 358.48V371.46ZM338.573 366.18C338.837 364.662 339.739 363.672 341.125 363.672C342.533 363.672 343.413 364.684 343.611 366.18H338.573ZM345.547 371.834C345.789 371.614 345.987 371.284 345.987 370.844C345.987 370.096 345.437 369.524 344.689 369.524C344.337 369.524 344.117 369.612 343.875 369.788C343.193 370.294 342.423 370.58 341.499 370.58C340.003 370.58 338.947 369.788 338.617 368.27H345.239C346.119 368.27 346.801 367.632 346.801 366.664C346.801 364.222 345.063 360.988 341.125 360.988C337.693 360.988 335.295 363.76 335.295 367.126V367.17C335.295 370.778 337.913 373.264 341.455 373.264C343.171 373.264 344.513 372.714 345.547 371.834ZM367.813 358.48C367.813 357.556 367.065 356.808 366.141 356.808C365.217 356.808 364.469 357.556 364.469 358.48V362.748C363.677 361.802 362.577 360.988 360.795 360.988C358.001 360.988 355.427 363.144 355.427 367.082V367.126C355.427 371.064 358.045 373.22 360.795 373.22C362.533 373.22 363.655 372.406 364.469 371.306V371.46C364.469 372.384 365.217 373.132 366.141 373.132C367.065 373.132 367.813 372.384 367.813 371.46V358.48ZM361.653 363.826C363.215 363.826 364.513 365.124 364.513 367.082V367.126C364.513 369.084 363.215 370.382 361.653 370.382C360.091 370.382 358.771 369.084 358.771 367.126V367.082C358.771 365.102 360.091 363.826 361.653 363.826ZM376.587 373.264C380.261 373.264 382.989 370.514 382.989 367.126V367.082C382.989 363.694 380.283 360.988 376.631 360.988C372.957 360.988 370.229 363.738 370.229 367.126V367.17C370.229 370.558 372.935 373.264 376.587 373.264ZM376.631 370.382C374.783 370.382 373.529 368.864 373.529 367.126V367.082C373.529 365.344 374.673 363.87 376.587 363.87C378.435 363.87 379.689 365.388 379.689 367.126V367.17C379.689 368.908 378.545 370.382 376.631 370.382ZM391.196 373.264C394.87 373.264 397.598 370.514 397.598 367.126V367.082C397.598 363.694 394.892 360.988 391.24 360.988C387.566 360.988 384.838 363.738 384.838 367.126V367.17C384.838 370.558 387.544 373.264 391.196 373.264ZM391.24 370.382C389.392 370.382 388.138 368.864 388.138 367.126V367.082C388.138 365.344 389.282 363.87 391.196 363.87C393.044 363.87 394.298 365.388 394.298 367.126V367.17C394.298 368.908 393.154 370.382 391.24 370.382ZM400.019 371.46C400.019 372.384 400.767 373.132 401.691 373.132C402.615 373.132 403.363 372.384 403.363 371.46V368.336C403.363 365.96 404.309 364.662 406.003 364.266C406.685 364.112 407.257 363.584 407.257 362.704C407.257 361.758 406.663 361.076 405.629 361.076C404.639 361.076 403.847 362.132 403.363 363.276V362.748C403.363 361.824 402.615 361.076 401.691 361.076C400.767 361.076 400.019 361.824 400.019 362.748V371.46ZM419.792 373.198C420.518 373.198 421.09 373.11 421.706 372.868C422.168 372.692 422.564 372.208 422.564 371.614C422.564 370.844 421.926 370.228 421.178 370.228C421.112 370.228 420.892 370.25 420.782 370.25C420.034 370.25 419.704 369.876 419.704 369.106V364.068H421.178C421.97 364.068 422.608 363.43 422.608 362.638C422.608 361.846 421.97 361.208 421.178 361.208H419.704V359.734C419.704 358.81 418.956 358.062 418.032 358.062C417.108 358.062 416.36 358.81 416.36 359.734V361.208H416.25C415.458 361.208 414.82 361.846 414.82 362.638C414.82 363.43 415.458 364.068 416.25 364.068H416.36V369.656C416.36 372.384 417.746 373.198 419.792 373.198ZM430.405 373.264C434.079 373.264 436.807 370.514 436.807 367.126V367.082C436.807 363.694 434.101 360.988 430.449 360.988C426.775 360.988 424.047 363.738 424.047 367.126V367.17C424.047 370.558 426.753 373.264 430.405 373.264ZM430.449 370.382C428.601 370.382 427.347 368.864 427.347 367.126V367.082C427.347 365.344 428.491 363.87 430.405 363.87C432.253 363.87 433.507 365.388 433.507 367.126V367.17C433.507 368.908 432.363 370.382 430.449 370.382ZM449.806 373.198C450.532 373.198 451.104 373.11 451.72 372.868C452.182 372.692 452.578 372.208 452.578 371.614C452.578 370.844 451.94 370.228 451.192 370.228C451.126 370.228 450.906 370.25 450.796 370.25C450.048 370.25 449.718 369.876 449.718 369.106V364.068H451.192C451.984 364.068 452.622 363.43 452.622 362.638C452.622 361.846 451.984 361.208 451.192 361.208H449.718V359.734C449.718 358.81 448.97 358.062 448.046 358.062C447.122 358.062 446.374 358.81 446.374 359.734V361.208H446.264C445.472 361.208 444.834 361.846 444.834 362.638C444.834 363.43 445.472 364.068 446.264 364.068H446.374V369.656C446.374 372.384 447.76 373.198 449.806 373.198ZM454.955 371.46C454.955 372.384 455.703 373.132 456.627 373.132C457.551 373.132 458.299 372.384 458.299 371.46V366.422C458.299 364.838 459.113 364.024 460.389 364.024C461.665 364.024 462.413 364.838 462.413 366.422V371.46C462.413 372.384 463.161 373.132 464.085 373.132C465.009 373.132 465.757 372.384 465.757 371.46V365.366C465.757 362.66 464.283 360.988 461.753 360.988C460.059 360.988 459.069 361.89 458.299 362.88V358.48C458.299 357.556 457.551 356.808 456.627 356.808C455.703 356.808 454.955 357.556 454.955 358.48V371.46ZM471.368 366.18C471.632 364.662 472.534 363.672 473.92 363.672C475.328 363.672 476.208 364.684 476.406 366.18H471.368ZM478.342 371.834C478.584 371.614 478.782 371.284 478.782 370.844C478.782 370.096 478.232 369.524 477.484 369.524C477.132 369.524 476.912 369.612 476.67 369.788C475.988 370.294 475.218 370.58 474.294 370.58C472.798 370.58 471.742 369.788 471.412 368.27H478.034C478.914 368.27 479.596 367.632 479.596 366.664C479.596 364.222 477.858 360.988 473.92 360.988C470.488 360.988 468.09 363.76 468.09 367.126V367.17C468.09 370.778 470.708 373.264 474.25 373.264C475.966 373.264 477.308 372.714 478.342 371.834ZM489.102 371.482C489.102 372.406 489.828 373.132 490.752 373.132C491.676 373.132 492.424 372.406 492.424 371.482V363.826L495.35 368.336C495.702 368.864 496.142 369.194 496.758 369.194C497.374 369.194 497.814 368.864 498.166 368.336L501.136 363.76V371.438C501.136 372.362 501.884 373.132 502.808 373.132C503.754 373.132 504.502 372.384 504.502 371.438V359.206C504.502 358.26 503.754 357.512 502.808 357.512H502.434C501.752 357.512 501.268 357.798 500.916 358.37L496.802 365.058L492.71 358.392C492.402 357.886 491.896 357.512 491.17 357.512H490.796C489.85 357.512 489.102 358.26 489.102 359.206V371.482ZM518.564 362.748C518.564 361.824 517.816 361.076 516.892 361.076C515.968 361.076 515.22 361.824 515.22 362.748V367.786C515.22 369.37 514.406 370.184 513.13 370.184C511.854 370.184 511.106 369.37 511.106 367.786V362.748C511.106 361.824 510.358 361.076 509.434 361.076C508.51 361.076 507.762 361.824 507.762 362.748V368.842C507.762 371.548 509.236 373.22 511.766 373.22C513.46 373.22 514.45 372.318 515.22 371.328V371.46C515.22 372.384 515.968 373.132 516.892 373.132C517.816 373.132 518.564 372.384 518.564 371.46V362.748ZM525.693 373.22C528.245 373.22 530.203 372.032 530.203 369.414V369.37C530.203 367.214 528.289 366.422 526.639 365.872C525.363 365.432 524.241 365.124 524.241 364.464V364.42C524.241 363.958 524.659 363.606 525.473 363.606C526.177 363.606 527.079 363.892 528.025 364.354C528.245 364.464 528.399 364.508 528.641 364.508C529.389 364.508 529.983 363.936 529.983 363.188C529.983 362.616 529.675 362.176 529.191 361.934C528.047 361.362 526.771 361.032 525.539 361.032C523.163 361.032 521.227 362.374 521.227 364.772V364.816C521.227 367.104 523.097 367.874 524.747 368.358C526.045 368.754 527.189 368.996 527.189 369.722V369.766C527.189 370.294 526.749 370.646 525.781 370.646C524.835 370.646 523.713 370.294 522.591 369.59C522.415 369.48 522.173 369.414 521.931 369.414C521.183 369.414 520.611 369.986 520.611 370.734C520.611 371.262 520.897 371.658 521.249 371.878C522.679 372.802 524.241 373.22 525.693 373.22ZM532.556 358.436C532.556 359.404 533.37 360.02 534.426 360.02C535.482 360.02 536.296 359.404 536.296 358.436V358.392C536.296 357.424 535.482 356.83 534.426 356.83C533.37 356.83 532.556 357.424 532.556 358.392V358.436ZM532.754 371.46C532.754 372.384 533.502 373.132 534.426 373.132C535.35 373.132 536.098 372.384 536.098 371.46V362.748C536.098 361.824 535.35 361.076 534.426 361.076C533.502 361.076 532.754 361.824 532.754 362.748V371.46ZM544.804 373.264C546.74 373.264 547.994 372.648 548.984 371.746C549.27 371.482 549.468 371.13 549.468 370.69C549.468 369.898 548.852 369.26 548.06 369.26C547.664 369.26 547.334 369.436 547.158 369.568C546.52 370.074 545.838 370.382 544.958 370.382C543.132 370.382 541.966 368.93 541.966 367.126V367.082C541.966 365.344 543.154 363.87 544.826 363.87C545.706 363.87 546.322 364.156 546.916 364.618C547.114 364.772 547.444 364.948 547.884 364.948C548.72 364.948 549.402 364.288 549.402 363.452C549.402 362.88 549.094 362.484 548.874 362.308C547.884 361.472 546.63 360.988 544.848 360.988C541.24 360.988 538.666 363.76 538.666 367.126V367.17C538.666 370.536 541.262 373.264 544.804 373.264ZM558.754 371.438C558.754 372.384 559.502 373.132 560.448 373.132C561.394 373.132 562.142 372.384 562.142 371.438V368.072H564.848L568.148 372.252C568.544 372.758 569.05 373.132 569.82 373.132C570.634 373.132 571.426 372.516 571.426 371.57C571.426 371.042 571.206 370.69 570.876 370.272L568.522 367.412C570.392 366.642 571.602 365.146 571.602 362.726V362.682C571.602 361.23 571.14 360.02 570.282 359.162C569.27 358.15 567.752 357.6 565.794 357.6H560.448C559.502 357.6 558.754 358.348 558.754 359.294V371.438ZM562.142 365.08V360.658H565.508C567.158 360.658 568.17 361.406 568.17 362.858V362.902C568.17 364.2 567.224 365.08 565.574 365.08H562.142ZM579.872 373.264C583.546 373.264 586.274 370.514 586.274 367.126V367.082C586.274 363.694 583.568 360.988 579.916 360.988C576.242 360.988 573.514 363.738 573.514 367.126V367.17C573.514 370.558 576.22 373.264 579.872 373.264ZM579.916 370.382C578.068 370.382 576.814 368.864 576.814 367.126V367.082C576.814 365.344 577.958 363.87 579.872 363.87C581.72 363.87 582.974 365.388 582.974 367.126V367.17C582.974 368.908 581.83 370.382 579.916 370.382ZM594.481 373.264C598.155 373.264 600.883 370.514 600.883 367.126V367.082C600.883 363.694 598.177 360.988 594.525 360.988C590.851 360.988 588.123 363.738 588.123 367.126V367.17C588.123 370.558 590.829 373.264 594.481 373.264ZM594.525 370.382C592.677 370.382 591.423 368.864 591.423 367.126V367.082C591.423 365.344 592.567 363.87 594.481 363.87C596.329 363.87 597.583 365.388 597.583 367.126V367.17C597.583 368.908 596.439 370.382 594.525 370.382ZM603.305 371.46C603.305 372.384 604.053 373.132 604.977 373.132C605.901 373.132 606.649 372.384 606.649 371.46V366.422C606.649 364.838 607.419 364.024 608.673 364.024C609.927 364.024 610.631 364.838 610.631 366.422V371.46C610.631 372.384 611.379 373.132 612.303 373.132C613.227 373.132 613.975 372.384 613.975 371.46V366.422C613.975 364.838 614.745 364.024 615.999 364.024C617.253 364.024 617.957 364.838 617.957 366.422V371.46C617.957 372.384 618.705 373.132 619.629 373.132C620.553 373.132 621.301 372.384 621.301 371.46V365.322C621.301 362.484 619.805 360.988 617.319 360.988C615.713 360.988 614.481 361.648 613.447 362.858C612.831 361.67 611.665 360.988 610.125 360.988C608.431 360.988 607.419 361.89 606.649 362.88V362.748C606.649 361.824 605.901 361.076 604.977 361.076C604.053 361.076 603.305 361.824 603.305 362.748V371.46ZM625.265 366.928C625.331 367.522 625.727 367.896 626.277 367.896C626.827 367.896 627.223 367.522 627.289 366.928L628.235 358.656C628.301 358.018 627.949 357.534 627.355 357.534H625.199C624.605 357.534 624.253 358.018 624.319 358.656L625.265 366.928ZM624.363 371.218V371.262C624.363 372.318 625.177 373.132 626.277 373.132C627.377 373.132 628.191 372.318 628.191 371.262V371.218C628.191 370.162 627.377 369.348 626.277 369.348C625.177 369.348 624.363 370.162 624.363 371.218Z" fill="#FCDC59"/>
<path d="M217.6 73.4C215.667 76.6333 213.783 80.0333 211.95 83.6C210.117 87.1667 208.217 90.5667 206.25 93.8L205.95 109.35C204.483 109.283 203.017 109.233 201.55 109.2C200.083 109.2 198.617 109.167 197.15 109.1L197.55 93.9L185.7 73.2L193.2 68.7L201.7 84.85C202.4 83.65 203.1 82.3833 203.8 81.05C204.533 79.6833 205.25 78.3167 205.95 76.95C206.683 75.5833 207.4 74.2333 208.1 72.9C208.833 71.5667 209.55 70.3167 210.25 69.15L217.6 73.4ZM232.034 100.45C232.168 100.483 232.301 100.5 232.434 100.5C232.568 100.5 232.701 100.5 232.834 100.5C233.868 100.5 234.784 100.233 235.584 99.7C236.418 99.1333 237.134 98.3833 237.734 97.45C238.334 96.5167 238.818 95.45 239.184 94.25C239.584 93.0167 239.834 91.75 239.934 90.45C240.068 88.9833 240.034 87.5167 239.834 86.05C239.634 84.55 239.268 83.1833 238.734 81.95C238.201 80.7167 237.484 79.6833 236.584 78.85C235.718 77.9833 234.668 77.4333 233.434 77.2C233.268 77.1667 233.118 77.15 232.984 77.15C232.851 77.15 232.701 77.15 232.534 77.15C231.534 77.15 230.618 77.4167 229.784 77.95C228.984 78.4833 228.268 79.2167 227.634 80.15C227.001 81.05 226.468 82.1 226.034 83.3C225.601 84.4667 225.268 85.7 225.034 87C224.834 88.4667 224.818 89.9667 224.984 91.5C225.151 93 225.501 94.3833 226.034 95.65C226.601 96.9167 227.368 97.9833 228.334 98.85C229.334 99.7167 230.568 100.25 232.034 100.45ZM232.784 68.5C235.618 68.5 238.068 69.1167 240.134 70.35C242.201 71.55 243.901 73.15 245.234 75.15C246.601 77.15 247.601 79.4167 248.234 81.95C248.868 84.4833 249.151 87.0667 249.084 89.7C249.018 92.2333 248.634 94.7167 247.934 97.15C247.234 99.55 246.218 101.7 244.884 103.6C243.584 105.467 241.968 106.967 240.034 108.1C238.101 109.267 235.851 109.85 233.284 109.85H232.684C229.818 109.783 227.318 109.133 225.184 107.9C223.084 106.667 221.351 105.067 219.984 103.1C218.618 101.1 217.618 98.8667 216.984 96.4C216.351 93.9 216.051 91.3667 216.084 88.8C216.151 86.2 216.551 83.6833 217.284 81.25C218.018 78.8167 219.084 76.6667 220.484 74.8C221.884 72.9 223.601 71.3833 225.634 70.25C227.701 69.0833 230.084 68.5 232.784 68.5ZM265.578 109.35C263.111 109.25 260.961 108.783 259.128 107.95C257.294 107.083 255.794 105.9 254.628 104.4C253.494 102.9 252.678 101.117 252.178 99.05C251.711 96.9833 251.594 94.7167 251.828 92.25C252.061 88.55 252.261 84.85 252.428 81.15C252.594 77.45 252.678 73.7667 252.678 70.1C254.044 70.0333 255.461 69.9833 256.928 69.95C258.394 69.8833 259.844 69.8167 261.278 69.75C261.211 73.5833 261.144 77.3833 261.078 81.15C261.011 84.8833 260.944 88.6667 260.878 92.5C260.711 95.2 261.011 97.1833 261.778 98.45C262.544 99.6833 263.928 100.367 265.928 100.5H266.478C268.178 100.5 269.511 99.9 270.478 98.7C271.444 97.4667 271.978 95.4833 272.078 92.75C272.178 88.9167 272.261 85.0667 272.328 81.2C272.428 77.3333 272.528 73.4833 272.628 69.65L281.778 70.05C281.678 73.8833 281.561 77.8833 281.428 82.05C281.294 86.2167 281.194 90.25 281.128 94.15C281.128 96.1167 280.744 98.0167 279.978 99.85C279.244 101.683 278.211 103.3 276.878 104.7C275.578 106.1 274.011 107.217 272.178 108.05C270.378 108.917 268.411 109.35 266.278 109.35H265.578ZM323.056 79.25C321.023 77.55 318.923 76.7 316.756 76.7C315.456 76.7 314.19 77 312.956 77.6C311.723 78.2 310.623 79.1 309.656 80.3C308.723 81.4667 307.956 82.9333 307.356 84.7C306.79 86.4667 306.506 88.5167 306.506 90.85C306.506 92.7167 306.74 94.35 307.206 95.75C307.673 97.15 308.273 98.3167 309.006 99.25C309.773 100.183 310.656 100.883 311.656 101.35C312.656 101.817 313.673 102.05 314.706 102.05C314.806 102.05 314.906 102.05 315.006 102.05C315.14 102.017 315.256 102 315.356 102C315.823 101.967 316.273 101.85 316.706 101.65C317.173 101.45 317.606 101.217 318.006 100.95L318.706 93.8L312.656 93.3L313.706 85.85L327.006 86.55C326.806 89.5833 326.606 92.5667 326.406 95.5C326.206 98.4 325.99 101.367 325.756 104.4C324.29 106.3 322.54 107.75 320.506 108.75C318.506 109.75 316.406 110.25 314.206 110.25C313.606 110.25 312.973 110.2 312.306 110.1C310.506 109.867 308.773 109.317 307.106 108.45C305.44 107.583 303.956 106.383 302.656 104.85C301.39 103.283 300.373 101.367 299.606 99.1C298.84 96.8333 298.456 94.2 298.456 91.2C298.456 87.0667 298.956 83.55 299.956 80.65C300.99 77.75 302.34 75.3833 304.006 73.55C305.673 71.7167 307.573 70.3833 309.706 69.55C311.873 68.6833 314.073 68.25 316.306 68.25C318.206 68.25 320.09 68.5333 321.956 69.1C323.856 69.6667 325.573 70.5333 327.106 71.7L323.056 79.25ZM345.609 100.45C345.742 100.483 345.875 100.5 346.009 100.5C346.142 100.5 346.275 100.5 346.409 100.5C347.442 100.5 348.359 100.233 349.159 99.7C349.992 99.1333 350.709 98.3833 351.309 97.45C351.909 96.5167 352.392 95.45 352.759 94.25C353.159 93.0167 353.409 91.75 353.509 90.45C353.642 88.9833 353.609 87.5167 353.409 86.05C353.209 84.55 352.842 83.1833 352.309 81.95C351.775 80.7167 351.059 79.6833 350.159 78.85C349.292 77.9833 348.242 77.4333 347.009 77.2C346.842 77.1667 346.692 77.15 346.559 77.15C346.425 77.15 346.275 77.15 346.109 77.15C345.109 77.15 344.192 77.4167 343.359 77.95C342.559 78.4833 341.842 79.2167 341.209 80.15C340.575 81.05 340.042 82.1 339.609 83.3C339.175 84.4667 338.842 85.7 338.609 87C338.409 88.4667 338.392 89.9667 338.559 91.5C338.725 93 339.075 94.3833 339.609 95.65C340.175 96.9167 340.942 97.9833 341.909 98.85C342.909 99.7167 344.142 100.25 345.609 100.45ZM346.359 68.5C349.192 68.5 351.642 69.1167 353.709 70.35C355.775 71.55 357.475 73.15 358.809 75.15C360.175 77.15 361.175 79.4167 361.809 81.95C362.442 84.4833 362.725 87.0667 362.659 89.7C362.592 92.2333 362.209 94.7167 361.509 97.15C360.809 99.55 359.792 101.7 358.459 103.6C357.159 105.467 355.542 106.967 353.609 108.1C351.675 109.267 349.425 109.85 346.859 109.85H346.259C343.392 109.783 340.892 109.133 338.759 107.9C336.659 106.667 334.925 105.067 333.559 103.1C332.192 101.1 331.192 98.8667 330.559 96.4C329.925 93.9 329.625 91.3667 329.659 88.8C329.725 86.2 330.125 83.6833 330.859 81.25C331.592 78.8167 332.659 76.6667 334.059 74.8C335.459 72.9 337.175 71.3833 339.209 70.25C341.275 69.0833 343.659 68.5 346.359 68.5ZM390.01 78.05L380.66 77.8C380.527 83.1 380.41 88.35 380.31 93.55C380.21 98.75 380.11 104.017 380.01 109.35C378.61 109.283 377.16 109.233 375.66 109.2C374.193 109.2 372.727 109.167 371.26 109.1L371.91 77.45L362.36 77.75L362.81 68.75C367.51 68.9167 372.177 69.0833 376.81 69.25C381.443 69.3833 386.06 69.5167 390.66 69.65L390.01 78.05ZM415.423 95.7L423.473 95.05L420.423 80.25L415.423 95.7ZM415.323 68.7C416.889 68.8 418.423 68.9 419.923 69C421.456 69.0667 422.973 69.15 424.473 69.25L436.123 108.4C434.689 108.7 433.189 109 431.623 109.3C430.056 109.633 428.523 109.983 427.023 110.35L425.373 103.4L412.623 104.05L410.673 110.35L402.573 109.2L415.323 68.7ZM459.75 69.15C459.75 71.9833 459.767 74.9833 459.8 78.15C459.833 81.3167 459.867 84.3167 459.9 87.15L474.85 67.9L481.9 72.7L470 88.35L483.8 105.2L476.9 111.2L459.95 90.75L460.35 109.05C458.85 109.117 457.367 109.2 455.9 109.3C454.433 109.4 452.917 109.483 451.35 109.55C451.25 103.017 451.15 96.3833 451.05 89.65C450.95 82.9167 450.867 76.25 450.8 69.65L459.75 69.15ZM505.589 83.75C505.656 85.0167 505.722 86.35 505.789 87.75C505.889 89.1167 505.972 90.4667 506.039 91.8C503.972 91.9667 501.872 92.1333 499.739 92.3C497.606 92.4667 495.489 92.6167 493.389 92.75L493.189 101.2L509.039 100.25C509.206 101.683 509.339 103.133 509.439 104.6C509.572 106.067 509.672 107.5 509.739 108.9C505.639 109.133 501.472 109.333 497.239 109.5C493.006 109.7 488.806 109.883 484.639 110.05L485.489 68.45L509.039 69.1C508.972 70.3667 508.922 71.65 508.889 72.95C508.889 74.25 508.872 75.55 508.839 76.85L493.889 76.3L493.539 84.25L505.589 83.75ZM541.623 73.4C539.69 76.6333 537.807 80.0333 535.973 83.6C534.14 87.1667 532.24 90.5667 530.273 93.8L529.973 109.35C528.507 109.283 527.04 109.233 525.573 109.2C524.107 109.2 522.64 109.167 521.173 109.1L521.573 93.9L509.723 73.2L517.223 68.7L525.723 84.85C526.423 83.65 527.123 82.3833 527.823 81.05C528.557 79.6833 529.273 78.3167 529.973 76.95C530.707 75.5833 531.423 74.2333 532.123 72.9C532.857 71.5667 533.573 70.3167 534.273 69.15L541.623 73.4ZM546.479 96.8H546.929C548.129 96.8 549.162 97 550.029 97.4C550.895 97.7667 551.595 98.2667 552.129 98.9C552.662 99.5 553.045 100.2 553.279 101C553.545 101.8 553.645 102.633 553.579 103.5C553.545 104.3 553.379 105.1 553.079 105.9C552.779 106.667 552.362 107.367 551.829 108C551.329 108.6 550.712 109.083 549.979 109.45C549.245 109.817 548.429 110 547.529 110C545.662 110 544.062 109.433 542.729 108.3C541.429 107.167 540.679 105.667 540.479 103.8C540.379 102.967 540.429 102.15 540.629 101.35C540.829 100.517 541.179 99.7833 541.679 99.15C542.179 98.4833 542.829 97.9333 543.629 97.5C544.429 97.0667 545.379 96.8333 546.479 96.8ZM552.479 65.05L551.329 93.5L542.579 94.15C542.412 89.5167 542.245 84.7833 542.079 79.95C541.912 75.1167 541.745 70.3667 541.579 65.7L552.479 65.05Z" fill="white"/>
<path d="M319.846 285.75L319.112 281.337C318.987 280.582 319.167 279.808 319.612 279.185L326.203 269.973C326.648 269.351 327.323 268.93 328.079 268.805L332.493 268.072C332.868 268.01 333.226 267.875 333.548 267.674C333.869 267.474 334.149 267.212 334.369 266.904C334.59 266.595 334.747 266.246 334.833 265.877C334.919 265.508 334.931 265.126 334.869 264.752L334.135 260.339C334.01 259.584 334.189 258.81 334.635 258.187C335.08 257.564 335.755 257.144 336.511 257.019L340.925 256.286C341.3 256.224 341.658 256.089 341.98 255.888C342.301 255.688 342.581 255.426 342.801 255.117C343.022 254.809 343.179 254.46 343.265 254.091C343.351 253.722 343.363 253.34 343.301 252.966L342.567 248.553C342.442 247.798 342.622 247.024 343.067 246.401L353.803 231.394L373.916 245.77L324.435 314.932C323.914 315.66 323.184 316.214 322.343 316.52L306.028 322.455C305.728 322.564 305.404 322.592 305.09 322.538C304.775 322.483 304.48 322.347 304.235 322.144C303.989 321.94 303.801 321.675 303.689 321.376C303.577 321.078 303.546 320.755 303.597 320.44L307.464 296.951C307.574 296.28 307.838 295.643 308.233 295.09L311.18 290.971C311.626 290.348 312.301 289.928 313.056 289.802L317.471 289.069C318.226 288.944 318.901 288.524 319.346 287.901C319.792 287.279 319.971 286.505 319.846 285.75Z" fill="#F0CE4A"/>
<path d="M315.629 318.965L309.76 321.101L365.828 242.732L368.7 244.785L315.629 318.965Z" fill="#E6B123"/>
<g filter="url(#filter0_d)">
<path d="M373.647 177.83L417.53 209.195C418.6 209.96 419.505 210.934 420.193 212.061C420.881 213.189 421.338 214.447 421.539 215.766C421.739 217.084 421.679 218.436 421.362 219.745C421.045 221.053 420.477 222.292 419.69 223.392L392.355 261.6C391.568 262.699 390.579 263.637 389.442 264.36C388.306 265.083 387.046 265.577 385.733 265.814C384.42 266.05 383.08 266.025 381.79 265.739C380.5 265.453 379.286 264.912 378.216 264.147L377.171 263.4C376.395 262.845 375.424 262.63 374.472 262.802C373.52 262.973 372.665 263.517 372.095 264.314C371.525 265.111 370.67 265.655 369.718 265.827C368.766 265.998 367.795 265.783 367.019 265.228L336.929 243.721C336.153 243.167 335.635 242.318 335.49 241.363C335.344 240.407 335.583 239.422 336.153 238.625C336.436 238.23 336.64 237.786 336.753 237.316C336.867 236.846 336.889 236.361 336.817 235.888C336.745 235.414 336.581 234.963 336.334 234.558C336.087 234.153 335.762 233.803 335.378 233.529L334.333 232.782C333.263 232.017 332.358 231.043 331.67 229.916C330.982 228.788 330.525 227.53 330.324 226.211C330.124 224.893 330.184 223.541 330.501 222.233C330.818 220.924 331.386 219.685 332.173 218.586L359.509 180.377C360.295 179.277 361.285 178.339 362.421 177.616C363.557 176.893 364.818 176.4 366.131 176.163C367.444 175.927 368.783 175.952 370.073 176.238C371.363 176.524 372.577 177.065 373.647 177.83ZM368.814 200.798L397.348 221.193C397.875 221.574 398.475 221.844 399.112 221.988C399.749 222.132 400.412 222.147 401.061 222.031C401.71 221.916 402.334 221.673 402.897 221.316C403.459 220.959 403.949 220.496 404.337 219.952C404.726 219.408 405.007 218.795 405.163 218.148C405.319 217.501 405.347 216.832 405.247 216.181C405.146 215.529 404.918 214.907 404.576 214.351C404.233 213.795 403.784 213.315 403.253 212.94L374.718 192.545C373.652 191.792 372.323 191.502 371.021 191.74C369.718 191.978 368.549 192.724 367.769 193.815C366.988 194.906 366.66 196.253 366.856 197.561C367.052 198.87 367.756 200.034 368.814 200.798Z" fill="#FF8328"/>
</g>
<path d="M386.926 255.011C386.662 255.06 386.455 255.143 386.305 255.259C386.154 255.367 386.006 255.529 385.862 255.746C385.726 255.951 385.649 256.188 385.631 256.456C385.613 256.724 385.662 257 385.777 257.285C385.892 257.569 386.073 257.857 386.32 258.149C386.564 258.431 386.883 258.698 387.276 258.951C387.607 259.163 387.922 259.315 388.22 259.409C388.512 259.499 388.778 259.539 389.016 259.529C389.258 259.514 389.473 259.456 389.659 259.356C389.85 259.25 390.006 259.11 390.13 258.936C390.281 258.708 390.377 258.468 390.417 258.215C390.452 257.958 390.44 257.698 390.382 257.435L391.564 257.463C391.681 257.853 391.709 258.239 391.647 258.622C391.588 259 391.462 259.347 391.266 259.666C390.986 260.088 390.658 260.394 390.283 260.586C389.908 260.777 389.517 260.878 389.11 260.888C388.698 260.894 388.283 260.827 387.864 260.685C387.441 260.54 387.04 260.342 386.662 260.092C386.029 259.672 385.529 259.236 385.164 258.786C384.799 258.336 384.545 257.892 384.404 257.454C384.257 257.013 384.213 256.591 384.271 256.19C384.328 255.779 384.464 255.406 384.679 255.069C385.096 254.441 385.659 254.003 386.369 253.753L386.926 255.011ZM392.821 254.829C392.845 254.805 392.874 254.768 392.907 254.718C393.006 254.568 393.057 254.413 393.058 254.254C393.058 254.086 393.022 253.918 392.949 253.75C392.877 253.582 392.772 253.42 392.635 253.265C392.501 253.105 392.349 252.96 392.179 252.831C391.997 252.695 391.801 252.58 391.59 252.488C391.383 252.391 391.175 252.329 390.968 252.304C390.765 252.273 390.57 252.284 390.383 252.336C390.194 252.379 390.031 252.474 389.893 252.622C389.869 252.646 389.84 252.684 389.807 252.734C389.715 252.872 389.669 253.026 389.669 253.194C389.668 253.353 389.701 253.519 389.77 253.693C389.839 253.867 389.938 254.036 390.068 254.203C390.201 254.363 390.351 254.511 390.518 254.645C390.689 254.798 390.876 254.926 391.079 255.029C391.283 255.133 391.489 255.201 391.698 255.236C391.906 255.262 392.106 255.243 392.3 255.179C392.494 255.116 392.668 254.999 392.821 254.829ZM388.732 252.02C388.975 251.654 389.26 251.387 389.587 251.22C389.918 251.047 390.266 250.958 390.63 250.951C390.992 250.936 391.357 250.99 391.723 251.113C392.09 251.236 392.433 251.412 392.753 251.64C393.066 251.856 393.346 252.109 393.593 252.401C393.839 252.692 394.026 253.008 394.152 253.348C394.277 253.679 394.328 254.024 394.304 254.385C394.275 254.741 394.143 255.098 393.907 255.453C393.656 255.807 393.367 256.067 393.04 256.234C392.711 256.392 392.368 256.476 392.009 256.486C391.648 256.487 391.287 256.427 390.927 256.308C390.564 256.18 390.223 256.006 389.905 255.786C389.586 255.567 389.304 255.312 389.057 255.02C388.814 254.723 388.63 254.409 388.506 254.078C388.385 253.742 388.337 253.399 388.362 253.047C388.387 252.696 388.511 252.354 388.732 252.02ZM395.916 250.167C395.94 250.143 395.969 250.106 396.002 250.056C396.101 249.906 396.152 249.752 396.153 249.593C396.153 249.424 396.117 249.256 396.044 249.088C395.972 248.92 395.867 248.759 395.73 248.604C395.596 248.443 395.444 248.298 395.274 248.169C395.092 248.033 394.896 247.919 394.685 247.827C394.478 247.729 394.271 247.668 394.063 247.642C393.86 247.611 393.665 247.622 393.478 247.674C393.29 247.717 393.126 247.812 392.988 247.961C392.964 247.985 392.935 248.022 392.902 248.072C392.81 248.211 392.764 248.364 392.764 248.532C392.763 248.691 392.796 248.858 392.865 249.031C392.934 249.205 393.033 249.375 393.163 249.541C393.296 249.701 393.446 249.849 393.613 249.984C393.784 250.137 393.971 250.265 394.174 250.368C394.378 250.471 394.584 250.54 394.793 250.574C395.001 250.6 395.201 250.581 395.395 250.518C395.589 250.454 395.763 250.337 395.916 250.167ZM391.827 247.359C392.07 246.992 392.355 246.725 392.682 246.558C393.013 246.386 393.361 246.296 393.725 246.29C394.087 246.274 394.452 246.328 394.818 246.451C395.185 246.574 395.528 246.75 395.848 246.978C396.161 247.194 396.441 247.448 396.688 247.739C396.934 248.031 397.121 248.346 397.247 248.686C397.372 249.017 397.423 249.362 397.399 249.723C397.37 250.08 397.238 250.436 397.002 250.791C396.751 251.145 396.462 251.405 396.135 251.572C395.806 251.73 395.463 251.814 395.104 251.824C394.743 251.825 394.382 251.766 394.022 251.646C393.659 251.518 393.318 251.344 393 251.125C392.681 250.905 392.399 250.65 392.152 250.358C391.909 250.061 391.725 249.747 391.601 249.417C391.48 249.081 391.432 248.737 391.457 248.386C391.482 248.034 391.606 247.692 391.827 247.359ZM392.846 242.46L399.375 246.946C399.257 247.148 399.137 247.353 399.015 247.56C398.899 247.771 398.782 247.977 398.664 248.179C397.573 247.424 396.489 246.676 395.411 245.937C394.328 245.195 393.241 244.446 392.15 243.69L392.846 242.46ZM397.66 239.423C397.773 239.506 397.889 239.547 398.01 239.547C398.13 239.547 398.256 239.519 398.389 239.463C398.526 239.402 398.668 239.32 398.816 239.218C398.968 239.11 399.123 238.997 399.281 238.879C399.498 238.71 399.735 238.539 399.993 238.367C400.252 238.194 400.524 238.063 400.808 237.971C401.096 237.875 401.394 237.836 401.701 237.856C402.003 237.872 402.31 237.987 402.623 238.203C402.947 238.45 403.186 238.729 403.34 239.039C403.493 239.34 403.58 239.654 403.603 239.981C403.626 240.308 403.584 240.637 403.477 240.966C403.38 241.293 403.24 241.6 403.058 241.887C402.925 242.087 402.772 242.282 402.598 242.471C402.425 242.66 402.236 242.83 402.031 242.982C401.829 243.129 401.613 243.249 401.382 243.344C401.151 243.439 400.91 243.495 400.659 243.512C400.592 243.324 400.527 243.132 400.463 242.938C400.394 242.741 400.325 242.551 400.254 242.368C400.572 242.323 400.875 242.204 401.163 242.011C401.446 241.814 401.69 241.56 401.897 241.249C401.915 241.222 401.932 241.197 401.947 241.174C401.959 241.143 401.975 241.113 401.994 241.086C402.108 240.889 402.185 240.701 402.225 240.519C402.264 240.329 402.27 240.157 402.244 240.004C402.216 239.841 402.156 239.701 402.065 239.585C401.973 239.46 401.853 239.368 401.707 239.311C401.5 239.238 401.283 239.25 401.058 239.349C400.836 239.442 400.605 239.573 400.365 239.741C400.12 239.907 399.865 240.085 399.601 240.278C399.335 240.462 399.062 240.613 398.783 240.732C398.502 240.842 398.212 240.893 397.912 240.886C397.611 240.871 397.3 240.748 396.98 240.52C396.681 240.306 396.462 240.064 396.321 239.795C396.174 239.521 396.088 239.241 396.064 238.952C396.043 238.658 396.077 238.365 396.167 238.073C396.257 237.781 396.387 237.507 396.557 237.251C396.778 236.918 397.042 236.629 397.348 236.384C397.659 236.134 398.009 235.95 398.399 235.833L398.914 237.099C398.637 237.155 398.378 237.268 398.138 237.436C397.898 237.605 397.699 237.809 397.54 238.048C397.378 238.292 397.301 238.541 397.309 238.794C397.315 239.038 397.432 239.248 397.66 239.423ZM403.311 233.678C403.039 233.617 402.79 233.612 402.565 233.663C402.333 233.709 402.135 233.858 401.969 234.108C401.858 234.274 401.802 234.449 401.801 234.632C401.799 234.815 401.844 235.001 401.935 235.189C402.03 235.372 402.165 235.554 402.341 235.734C402.517 235.915 402.729 236.084 402.978 236.24C403.198 236.379 403.419 236.485 403.641 236.561C403.858 236.632 404.065 236.67 404.263 236.673C404.461 236.676 404.639 236.643 404.798 236.572C404.961 236.496 405.094 236.38 405.197 236.225C405.274 236.108 405.322 235.988 405.34 235.864C405.362 235.734 405.366 235.609 405.351 235.487C405.33 235.361 405.299 235.245 405.258 235.137C405.212 235.027 405.164 234.931 405.114 234.849L406.278 234.362C406.356 234.509 406.424 234.683 406.484 234.882C406.547 235.076 406.585 235.285 406.596 235.509C406.608 235.732 406.585 235.965 406.528 236.208C406.475 236.444 406.368 236.685 406.205 236.929C405.958 237.302 405.656 237.569 405.3 237.733C404.947 237.891 404.574 237.964 404.182 237.951C403.788 237.93 403.392 237.84 402.994 237.68C402.6 237.514 402.239 237.299 401.911 237.033C401.635 236.81 401.395 236.563 401.191 236.292C400.985 236.011 400.837 235.716 400.746 235.408C400.654 235.099 400.627 234.785 400.663 234.465C400.698 234.136 400.818 233.816 401.025 233.505C401.194 233.25 401.374 233.045 401.564 232.891C401.758 232.732 401.959 232.617 402.166 232.546C402.367 232.472 402.573 232.432 402.784 232.428C402.989 232.42 403.193 232.439 403.394 232.485L403.311 233.678ZM401.764 229.028L404.076 230.718C404.007 230.592 403.951 230.459 403.908 230.319C403.869 230.173 403.849 230.023 403.846 229.87C403.839 229.712 403.855 229.555 403.895 229.398C403.939 229.235 404.013 229.076 404.116 228.921L404.127 228.904C404.299 228.658 404.498 228.478 404.726 228.365C404.951 228.242 405.215 228.194 405.519 228.219C405.82 228.235 406.161 228.325 406.54 228.488C406.918 228.643 407.341 228.879 407.809 229.198C408.122 229.414 408.458 229.661 408.818 229.939C409.181 230.212 409.576 230.526 410.004 230.882L409.28 232.082C408.735 231.648 408.232 231.255 407.771 230.901C407.314 230.541 406.9 230.255 406.529 230.041C406.159 229.828 405.845 229.703 405.588 229.669C405.325 229.631 405.121 229.715 404.976 229.923C404.883 230.061 404.844 230.211 404.857 230.372C404.874 230.527 404.92 230.682 404.994 230.835C405.068 230.988 405.161 231.138 405.272 231.283C405.384 231.429 405.494 231.558 405.603 231.671C406.052 231.984 406.499 232.293 406.945 232.597C407.395 232.895 407.844 233.201 408.292 233.515C408.175 233.716 408.052 233.919 407.925 234.123C407.792 234.323 407.667 234.523 407.549 234.725C406.463 233.973 405.385 233.23 404.312 232.494C403.234 231.756 402.153 231.01 401.068 230.258L401.764 229.028ZM410.867 227.648C410.891 227.624 410.92 227.586 410.953 227.536C411.053 227.387 411.103 227.232 411.105 227.073C411.104 226.905 411.068 226.737 410.995 226.569C410.923 226.401 410.818 226.239 410.681 226.084C410.547 225.924 410.396 225.779 410.225 225.65C410.044 225.513 409.847 225.399 409.636 225.307C409.429 225.21 409.222 225.148 409.015 225.123C408.811 225.092 408.616 225.102 408.429 225.155C408.241 225.197 408.077 225.293 407.939 225.441C407.915 225.465 407.886 225.502 407.853 225.552C407.761 225.691 407.715 225.845 407.715 226.013C407.714 226.172 407.747 226.338 407.816 226.512C407.885 226.685 407.984 226.855 408.114 227.021C408.248 227.182 408.398 227.33 408.564 227.464C408.735 227.617 408.922 227.745 409.126 227.848C409.329 227.951 409.536 228.02 409.745 228.055C409.952 228.08 410.152 228.061 410.346 227.998C410.541 227.935 410.714 227.818 410.867 227.648ZM406.778 224.839C407.021 224.473 407.307 224.206 407.634 224.039C407.964 223.866 408.312 223.777 408.676 223.77C409.039 223.755 409.403 223.808 409.769 223.932C410.136 224.055 410.479 224.23 410.8 224.459C411.113 224.674 411.392 224.928 411.639 225.22C411.886 225.511 412.072 225.827 412.199 226.167C412.323 226.497 412.374 226.843 412.35 227.203C412.322 227.56 412.189 227.916 411.953 228.272C411.702 228.626 411.414 228.886 411.087 229.053C410.758 229.211 410.414 229.295 410.055 229.305C409.694 229.306 409.334 229.246 408.973 229.127C408.61 228.998 408.269 228.824 407.951 228.605C407.632 228.386 407.35 228.13 407.103 227.839C406.86 227.542 406.677 227.228 406.552 226.897C406.431 226.561 406.383 226.217 406.408 225.866C406.434 225.515 406.557 225.173 406.778 224.839ZM413.962 222.986C413.986 222.962 414.015 222.925 414.048 222.875C414.148 222.725 414.198 222.57 414.2 222.411C414.199 222.243 414.163 222.075 414.09 221.907C414.018 221.739 413.913 221.577 413.776 221.422C413.643 221.262 413.491 221.117 413.32 220.988C413.139 220.852 412.942 220.737 412.731 220.645C412.524 220.548 412.317 220.486 412.11 220.461C411.906 220.43 411.711 220.441 411.524 220.493C411.336 220.536 411.172 220.631 411.034 220.78C411.01 220.804 410.981 220.841 410.948 220.891C410.856 221.029 410.81 221.183 410.81 221.351C410.809 221.51 410.842 221.677 410.911 221.85C410.98 222.024 411.079 222.194 411.209 222.36C411.343 222.52 411.493 222.668 411.659 222.802C411.83 222.955 412.017 223.083 412.221 223.187C412.424 223.29 412.631 223.359 412.84 223.393C413.047 223.419 413.247 223.4 413.441 223.336C413.636 223.273 413.809 223.156 413.962 222.986ZM409.873 220.178C410.116 219.811 410.402 219.544 410.729 219.377C411.059 219.204 411.407 219.115 411.771 219.109C412.134 219.093 412.498 219.147 412.864 219.27C413.231 219.393 413.574 219.569 413.895 219.797C414.208 220.013 414.488 220.266 414.734 220.558C414.981 220.849 415.167 221.165 415.294 221.505C415.418 221.836 415.469 222.181 415.446 222.542C415.417 222.899 415.284 223.255 415.048 223.61C414.797 223.964 414.509 224.224 414.182 224.391C413.853 224.549 413.509 224.633 413.15 224.643C412.789 224.644 412.429 224.585 412.068 224.465C411.705 224.337 411.364 224.163 411.046 223.943C410.727 223.724 410.445 223.469 410.198 223.177C409.955 222.88 409.772 222.566 409.647 222.236C409.526 221.899 409.478 221.556 409.503 221.204C409.529 220.853 409.652 220.511 409.873 220.178ZM410.893 215.279L417.421 219.765C417.303 219.967 417.183 220.172 417.062 220.379C416.945 220.59 416.828 220.796 416.711 220.998C415.62 220.242 414.535 219.495 413.457 218.756C412.374 218.014 411.287 217.265 410.196 216.509L410.893 215.279Z" fill="#C2662C"/>
<path d="M320.839 230.988L319.815 235.372L321.125 239.178L317.098 239.17L313.279 241.555L314.239 237.126L312.993 233.365L316.956 233.329L320.839 230.988Z" fill="#FBFCE6"/>
<path d="M346.873 204.144L346.709 206.408L347.904 208.623L345.474 208.134L343.383 209.021L343.46 206.694L342.211 204.554L344.694 204.968L346.873 204.144Z" fill="#FBFCE6"/>
<path d="M338.59 290.36L338.015 293.554L339.226 296.343L336.194 296.099L333.356 297.676L333.931 294.482L332.72 291.693L335.752 291.937L338.59 290.36Z" fill="#FBFCE6"/>
<path d="M382.354 279.871L382.179 281.691L382.933 283.357L381.112 283.182L379.446 283.936L379.621 282.116L378.866 280.45L380.687 280.626L382.354 279.871Z" fill="#FBFCE6"/>
<path d="M402.577 269.759L402.326 271.218L402.988 272.51L401.551 272.302L400.25 273.01L400.396 271.476L399.734 270.184L401.172 270.393L402.577 269.759Z" fill="#FBFCE6"/>
<path d="M385.428 224.604C379.084 219.3 372.242 217.034 372.242 217.034L364.454 226.856C363.962 226.122 363.199 225.436 362.257 224.952C360.226 223.907 358.13 224.189 357.576 225.582C357.022 226.976 358.219 228.952 360.25 229.997C362.165 230.983 364.137 230.788 364.821 229.595L370.636 222.253C370.636 222.253 375.233 224.162 380.313 227.749L375.988 233.209C375.495 232.49 374.744 231.821 373.819 231.345C371.788 230.3 369.693 230.582 369.138 231.976C368.584 233.369 369.781 235.346 371.812 236.391C373.586 237.303 375.408 237.204 376.211 236.236L376.211 236.238L385.428 224.604Z" fill="#C2662C"/>
<defs>
<filter id="filter0_d" x="330.208" y="176.004" width="93.4461" height="89.9711" filterUnits="userSpaceOnUse" color-interpolation-filters="sRGB">
<feFlood flood-opacity="0" result="BackgroundImageFix"/>
<feColorMatrix in="SourceAlpha" type="matrix" values="0 0 0 0 0 0 0 0 0 0 0 0 0 0 0 0 0 0 127 0"/>
<feOffset dx="2"/>
<feColorMatrix type="matrix" values="0 0 0 0 0.7625 0 0 0 0 0.401202 0 0 0 0 0.171562 0 0 0 1 0"/>
<feBlend mode="normal" in2="BackgroundImageFix" result="effect1_dropShadow"/>
<feBlend mode="normal" in="SourceGraphic" in2="effect1_dropShadow" result="shape"/>
</filter>
<radialGradient id="paint0_radial" cx="0" cy="0" r="1" gradientUnits="userSpaceOnUse" gradientTransform="translate(364.431 251.149) scale(481.206 480.965)">
<stop stop-color="white"/>
<stop offset="0.1822" stop-color="#D6D6D6"/>
<stop offset="0.5911" stop-color="#6E6E6E"/>
<stop offset="1"/>
</radialGradient>
</defs>
</svg>
