<svg width="740" height="560" viewBox="0 0 740 560" fill="none" xmlns="http://www.w3.org/2000/svg">
<path d="M690.806 6.98438H22.6642C10.1472 6.98438 0 17.1537 0 29.6982V537.287C0 549.832 10.1472 560.001 22.6642 560.001H690.806C703.323 560.001 713.47 549.832 713.47 537.287V29.6982C713.47 17.1537 703.323 6.98438 690.806 6.98438Z" fill="#E1AB25"/>
<path d="M717.336 0H34.6308C22.1137 0 11.9668 10.1693 11.9668 22.7138V530.303C11.9668 542.847 22.1137 553.017 34.6308 553.017H717.336C729.854 553.017 740 542.847 740 530.303V22.7138C740 10.1693 729.854 0 717.336 0Z" fill="#EFDC10"/>
<mask id="mask0" mask-type="alpha" maskUnits="userSpaceOnUse" x="5" y="3" width="730" height="555">
<path d="M711.353 3.99609H28.6474C16.1303 3.99609 5.9834 14.1654 5.9834 26.7099V534.299C5.9834 546.844 16.1303 557.013 28.6474 557.013H711.353C723.87 557.013 734.017 546.844 734.017 534.299V26.7099C734.017 14.1654 723.87 3.99609 711.353 3.99609Z" fill="#EFDC10"/>
</mask>
<g mask="url(#mask0)">
<path style="mix-blend-mode:screen" opacity="0.4" d="M461.589 797.276L369.922 279.797L548.71 773.882L461.59 797.277V797.276H461.589ZM324.826 803.422H415.019L369.922 279.797L324.826 803.421V803.422ZM278.255 797.277L369.922 279.797L191.135 773.881L278.255 797.277ZM147.738 755.867L369.922 279.797L69.6291 710.671L147.738 755.867ZM32.3624 682.014L369.922 279.797L-31.4128 618.097L32.3624 682.014ZM-60.0085 580.75L369.922 279.797L-105.104 502.469L-60.0085 580.75ZM-123.081 458.976L369.922 279.797L-146.424 371.666L-123.081 458.976ZM-152.556 324.993L369.922 279.797L-152.555 234.602L-152.556 324.993ZM-146.425 187.929L369.922 279.797L-123.08 100.618L-146.425 187.929ZM-105.105 57.1251L369.922 279.797L-60.0083 -21.155L-105.105 57.1251ZM-31.413 -58.5039L369.922 279.797L32.3627 -122.419L-31.413 -58.5039ZM69.629 -151.078L369.922 279.797L147.738 -196.272L69.629 -151.078ZM191.136 -214.288L369.922 279.797L278.254 -237.683L191.136 -214.288ZM324.825 -243.828L369.922 279.797L415.018 -243.827L324.825 -243.828ZM461.589 -237.684L369.922 279.797L548.708 -214.288L461.589 -237.684ZM592.106 -196.273L369.922 279.797L670.215 -151.077L592.106 -196.273ZM707.482 -122.42L369.922 279.797L771.257 -58.5035L707.482 -122.42ZM799.853 -21.1561L369.922 279.797L844.948 57.1246L799.853 -21.1561ZM862.926 100.617L369.922 279.797L886.268 187.928L862.926 100.617ZM892.401 234.601L369.922 279.797L892.399 324.991L892.401 234.601ZM886.27 371.665L369.922 279.797L862.925 458.975L886.27 371.665ZM844.95 502.469L369.922 279.797L799.853 580.749L844.95 502.469ZM771.259 618.097L369.922 279.797L707.482 682.012L771.259 618.097ZM670.217 710.671L369.922 279.797L592.107 755.867L670.217 710.671Z" fill="url(#paint0_radial)"/>
</g>
<path d="M728.926 27.3892C730.058 25.5291 725.677 20.7859 719.143 16.7949C712.608 12.8039 706.394 11.0765 705.263 12.9366C704.132 14.7968 708.512 19.54 715.047 23.531C721.581 27.522 727.795 29.2493 728.926 27.3892Z" fill="white"/>
<path d="M176.848 371.46C176.848 372.384 177.596 373.132 178.52 373.132C179.444 373.132 180.192 372.384 180.192 371.46V363.21L186.968 372.098C187.43 372.692 187.914 373.088 188.728 373.088H188.838C189.784 373.088 190.532 372.34 190.532 371.394V359.14C190.532 358.216 189.784 357.468 188.86 357.468C187.936 357.468 187.188 358.216 187.188 359.14V367.082L180.654 358.502C180.192 357.908 179.708 357.512 178.894 357.512H178.542C177.596 357.512 176.848 358.26 176.848 359.206V371.46ZM199.663 373.264C203.337 373.264 206.065 370.514 206.065 367.126V367.082C206.065 363.694 203.359 360.988 199.707 360.988C196.033 360.988 193.305 363.738 193.305 367.126V367.17C193.305 370.558 196.011 373.264 199.663 373.264ZM199.707 370.382C197.859 370.382 196.605 368.864 196.605 367.126V367.082C196.605 365.344 197.749 363.87 199.663 363.87C201.511 363.87 202.765 365.388 202.765 367.126V367.17C202.765 368.908 201.621 370.382 199.707 370.382ZM212.233 373.22H212.343C213.157 373.22 213.839 372.758 214.147 371.79L216.039 365.85L217.909 371.79C218.217 372.758 218.899 373.22 219.713 373.22H219.823C220.637 373.22 221.319 372.758 221.671 371.724L224.641 363.298C224.685 363.144 224.751 362.836 224.751 362.616C224.751 361.78 224.113 361.076 223.189 361.076C222.309 361.076 221.803 361.648 221.583 362.352L219.735 368.38L217.865 362.396C217.623 361.604 217.007 361.054 216.149 361.054H215.951C215.093 361.054 214.477 361.604 214.235 362.396L212.387 368.358L210.583 362.374C210.341 361.604 209.791 361.076 208.955 361.076C207.965 361.076 207.349 361.824 207.349 362.594C207.349 362.88 207.437 363.21 207.503 363.408L210.385 371.724C210.737 372.758 211.419 373.22 212.233 373.22ZM235.915 376.586C237.917 376.586 238.907 375.684 239.897 373.286L244.011 363.408C244.077 363.254 244.165 362.88 244.165 362.616C244.165 361.736 243.439 361.076 242.581 361.076C241.723 361.076 241.239 361.648 240.975 362.352L238.511 369.194L235.959 362.33C235.673 361.538 235.189 361.076 234.353 361.076C233.429 361.076 232.703 361.736 232.703 362.682C232.703 362.902 232.791 363.232 232.879 363.452L236.905 372.78L236.795 373.044C236.487 373.638 236.201 373.748 235.607 373.748C235.365 373.748 235.189 373.704 234.903 373.616C234.771 373.572 234.617 373.528 234.353 373.528C233.671 373.528 233.033 374.078 233.033 374.892C233.033 375.706 233.605 376.102 234.089 376.278C234.639 376.476 235.167 376.586 235.915 376.586ZM251.762 373.264C255.436 373.264 258.164 370.514 258.164 367.126V367.082C258.164 363.694 255.458 360.988 251.806 360.988C248.132 360.988 245.404 363.738 245.404 367.126V367.17C245.404 370.558 248.11 373.264 251.762 373.264ZM251.806 370.382C249.958 370.382 248.704 368.864 248.704 367.126V367.082C248.704 365.344 249.848 363.87 251.762 363.87C253.61 363.87 254.864 365.388 254.864 367.126V367.17C254.864 368.908 253.72 370.382 251.806 370.382ZM271.3 362.748C271.3 361.824 270.552 361.076 269.628 361.076C268.704 361.076 267.956 361.824 267.956 362.748V367.786C267.956 369.37 267.142 370.184 265.866 370.184C264.59 370.184 263.842 369.37 263.842 367.786V362.748C263.842 361.824 263.094 361.076 262.17 361.076C261.246 361.076 260.498 361.824 260.498 362.748V368.842C260.498 371.548 261.972 373.22 264.502 373.22C266.196 373.22 267.186 372.318 267.956 371.328V371.46C267.956 372.384 268.704 373.132 269.628 373.132C270.552 373.132 271.3 372.384 271.3 371.46V362.748ZM286.455 373.264C288.391 373.264 289.645 372.648 290.635 371.746C290.921 371.482 291.119 371.13 291.119 370.69C291.119 369.898 290.503 369.26 289.711 369.26C289.315 369.26 288.985 369.436 288.809 369.568C288.171 370.074 287.489 370.382 286.609 370.382C284.783 370.382 283.617 368.93 283.617 367.126V367.082C283.617 365.344 284.805 363.87 286.477 363.87C287.357 363.87 287.973 364.156 288.567 364.618C288.765 364.772 289.095 364.948 289.535 364.948C290.371 364.948 291.053 364.288 291.053 363.452C291.053 362.88 290.745 362.484 290.525 362.308C289.535 361.472 288.281 360.988 286.499 360.988C282.891 360.988 280.317 363.76 280.317 367.126V367.17C280.317 370.536 282.913 373.264 286.455 373.264ZM296.801 373.22C298.429 373.22 299.551 372.626 300.365 371.724V371.746C300.365 372.45 301.003 373.132 301.971 373.132C302.873 373.132 303.599 372.428 303.599 371.526V366.158C303.599 364.574 303.203 363.276 302.323 362.396C301.487 361.56 300.167 361.076 298.341 361.076C296.779 361.076 295.635 361.296 294.579 361.692C294.051 361.89 293.677 362.396 293.677 362.99C293.677 363.76 294.293 364.354 295.063 364.354C295.217 364.354 295.349 364.332 295.547 364.266C296.185 364.068 296.933 363.936 297.857 363.936C299.529 363.936 300.387 364.706 300.387 366.092V366.29C299.551 366.004 298.693 365.806 297.505 365.806C294.711 365.806 292.753 366.994 292.753 369.568V369.612C292.753 371.944 294.579 373.22 296.801 373.22ZM297.813 370.91C296.735 370.91 295.987 370.382 295.987 369.48V369.436C295.987 368.38 296.867 367.808 298.297 367.808C299.111 367.808 299.859 367.984 300.431 368.248V368.842C300.431 370.052 299.375 370.91 297.813 370.91ZM306.476 371.46C306.476 372.384 307.224 373.132 308.148 373.132C309.072 373.132 309.82 372.384 309.82 371.46V366.422C309.82 364.838 310.634 364.024 311.91 364.024C313.186 364.024 313.934 364.838 313.934 366.422V371.46C313.934 372.384 314.682 373.132 315.606 373.132C316.53 373.132 317.278 372.384 317.278 371.46V365.366C317.278 362.66 315.804 360.988 313.274 360.988C311.58 360.988 310.59 361.89 309.82 362.88V362.748C309.82 361.824 309.072 361.076 308.148 361.076C307.224 361.076 306.476 361.824 306.476 362.748V371.46ZM329.485 366.18C329.749 364.662 330.651 363.672 332.037 363.672C333.445 363.672 334.325 364.684 334.523 366.18H329.485ZM336.459 371.834C336.701 371.614 336.899 371.284 336.899 370.844C336.899 370.096 336.349 369.524 335.601 369.524C335.249 369.524 335.029 369.612 334.787 369.788C334.105 370.294 333.335 370.58 332.411 370.58C330.915 370.58 329.859 369.788 329.529 368.27H336.151C337.031 368.27 337.713 367.632 337.713 366.664C337.713 364.222 335.975 360.988 332.037 360.988C328.605 360.988 326.207 363.76 326.207 367.126V367.17C326.207 370.778 328.825 373.264 332.367 373.264C334.083 373.264 335.425 372.714 336.459 371.834ZM339.333 371.724C339.333 372.56 340.015 373.176 340.895 373.176C341.489 373.176 341.951 372.802 342.347 372.318L344.723 369.194L347.099 372.318C347.539 372.868 348.001 373.176 348.661 373.176C349.497 373.176 350.201 372.582 350.201 371.636C350.201 371.196 350.025 370.8 349.651 370.36L346.703 366.972L349.563 363.628C349.827 363.298 350.025 362.946 350.025 362.484C350.025 361.648 349.343 361.032 348.463 361.032C347.869 361.032 347.407 361.406 347.011 361.89L344.789 364.794L342.611 361.89C342.171 361.34 341.709 361.032 341.049 361.032C340.213 361.032 339.509 361.626 339.509 362.572C339.509 363.012 339.685 363.408 340.059 363.848L342.809 367.016L339.795 370.58C339.509 370.91 339.333 371.262 339.333 371.724ZM352.582 374.98C352.582 375.904 353.33 376.652 354.254 376.652C355.178 376.652 355.926 375.904 355.926 374.98V371.46C356.718 372.406 357.818 373.22 359.6 373.22C362.394 373.22 364.968 371.064 364.968 367.126V367.082C364.968 363.144 362.35 360.988 359.6 360.988C357.862 360.988 356.74 361.802 355.926 362.902V362.748C355.926 361.824 355.178 361.076 354.254 361.076C353.33 361.076 352.582 361.824 352.582 362.748V374.98ZM358.742 370.382C357.18 370.382 355.882 369.084 355.882 367.126V367.082C355.882 365.124 357.18 363.826 358.742 363.826C360.304 363.826 361.624 365.124 361.624 367.082V367.126C361.624 369.106 360.304 370.382 358.742 370.382ZM367.582 371.46C367.582 372.384 368.33 373.132 369.254 373.132C370.178 373.132 370.926 372.384 370.926 371.46V358.48C370.926 357.556 370.178 356.808 369.254 356.808C368.33 356.808 367.582 357.556 367.582 358.48V371.46ZM379.852 373.264C383.526 373.264 386.254 370.514 386.254 367.126V367.082C386.254 363.694 383.548 360.988 379.896 360.988C376.222 360.988 373.494 363.738 373.494 367.126V367.17C373.494 370.558 376.2 373.264 379.852 373.264ZM379.896 370.382C378.048 370.382 376.794 368.864 376.794 367.126V367.082C376.794 365.344 377.938 363.87 379.852 363.87C381.7 363.87 382.954 365.388 382.954 367.126V367.17C382.954 368.908 381.81 370.382 379.896 370.382ZM388.676 371.46C388.676 372.384 389.424 373.132 390.348 373.132C391.272 373.132 392.02 372.384 392.02 371.46V368.336C392.02 365.96 392.966 364.662 394.66 364.266C395.342 364.112 395.914 363.584 395.914 362.704C395.914 361.758 395.32 361.076 394.286 361.076C393.296 361.076 392.504 362.132 392.02 363.276V362.748C392.02 361.824 391.272 361.076 390.348 361.076C389.424 361.076 388.676 361.824 388.676 362.748V371.46ZM400.255 366.18C400.519 364.662 401.421 363.672 402.807 363.672C404.215 363.672 405.095 364.684 405.293 366.18H400.255ZM407.229 371.834C407.471 371.614 407.669 371.284 407.669 370.844C407.669 370.096 407.119 369.524 406.371 369.524C406.019 369.524 405.799 369.612 405.557 369.788C404.875 370.294 404.105 370.58 403.181 370.58C401.685 370.58 400.629 369.788 400.299 368.27H406.921C407.801 368.27 408.483 367.632 408.483 366.664C408.483 364.222 406.745 360.988 402.807 360.988C399.375 360.988 396.977 363.76 396.977 367.126V367.17C396.977 370.778 399.595 373.264 403.137 373.264C404.853 373.264 406.195 372.714 407.229 371.834ZM421.619 373.198C422.345 373.198 422.917 373.11 423.533 372.868C423.995 372.692 424.391 372.208 424.391 371.614C424.391 370.844 423.753 370.228 423.005 370.228C422.939 370.228 422.719 370.25 422.609 370.25C421.861 370.25 421.531 369.876 421.531 369.106V364.068H423.005C423.797 364.068 424.435 363.43 424.435 362.638C424.435 361.846 423.797 361.208 423.005 361.208H421.531V359.734C421.531 358.81 420.783 358.062 419.859 358.062C418.935 358.062 418.187 358.81 418.187 359.734V361.208H418.077C417.285 361.208 416.647 361.846 416.647 362.638C416.647 363.43 417.285 364.068 418.077 364.068H418.187V369.656C418.187 372.384 419.573 373.198 421.619 373.198ZM426.767 371.46C426.767 372.384 427.515 373.132 428.439 373.132C429.363 373.132 430.111 372.384 430.111 371.46V366.422C430.111 364.838 430.925 364.024 432.201 364.024C433.477 364.024 434.225 364.838 434.225 366.422V371.46C434.225 372.384 434.973 373.132 435.897 373.132C436.821 373.132 437.569 372.384 437.569 371.46V365.366C437.569 362.66 436.095 360.988 433.565 360.988C431.871 360.988 430.881 361.89 430.111 362.88V358.48C430.111 357.556 429.363 356.808 428.439 356.808C427.515 356.808 426.767 357.556 426.767 358.48V371.46ZM443.181 366.18C443.445 364.662 444.347 363.672 445.733 363.672C447.141 363.672 448.021 364.684 448.219 366.18H443.181ZM450.155 371.834C450.397 371.614 450.595 371.284 450.595 370.844C450.595 370.096 450.045 369.524 449.297 369.524C448.945 369.524 448.725 369.612 448.483 369.788C447.801 370.294 447.031 370.58 446.107 370.58C444.611 370.58 443.555 369.788 443.225 368.27H449.847C450.727 368.27 451.409 367.632 451.409 366.664C451.409 364.222 449.671 360.988 445.733 360.988C442.301 360.988 439.903 363.76 439.903 367.126V367.17C439.903 370.778 442.521 373.264 446.063 373.264C447.779 373.264 449.121 372.714 450.155 371.834ZM460.562 371.46C460.562 372.384 461.31 373.132 462.234 373.132C463.158 373.132 463.906 372.384 463.906 371.46V366.422C463.906 364.838 464.72 364.024 465.996 364.024C467.272 364.024 468.02 364.838 468.02 366.422V371.46C468.02 372.384 468.768 373.132 469.692 373.132C470.616 373.132 471.364 372.384 471.364 371.46V365.366C471.364 362.66 469.89 360.988 467.36 360.988C465.666 360.988 464.676 361.89 463.906 362.88V362.748C463.906 361.824 463.158 361.076 462.234 361.076C461.31 361.076 460.562 361.824 460.562 362.748V371.46ZM476.975 366.18C477.239 364.662 478.141 363.672 479.527 363.672C480.935 363.672 481.815 364.684 482.013 366.18H476.975ZM483.949 371.834C484.191 371.614 484.389 371.284 484.389 370.844C484.389 370.096 483.839 369.524 483.091 369.524C482.739 369.524 482.519 369.612 482.277 369.788C481.595 370.294 480.825 370.58 479.901 370.58C478.405 370.58 477.349 369.788 477.019 368.27H483.641C484.521 368.27 485.203 367.632 485.203 366.664C485.203 364.222 483.465 360.988 479.527 360.988C476.095 360.988 473.697 363.76 473.697 367.126V367.17C473.697 370.778 476.315 373.264 479.857 373.264C481.573 373.264 482.915 372.714 483.949 371.834ZM491.465 373.22H491.575C492.389 373.22 493.071 372.758 493.379 371.79L495.271 365.85L497.141 371.79C497.449 372.758 498.131 373.22 498.945 373.22H499.055C499.869 373.22 500.551 372.758 500.903 371.724L503.873 363.298C503.917 363.144 503.983 362.836 503.983 362.616C503.983 361.78 503.345 361.076 502.421 361.076C501.541 361.076 501.035 361.648 500.815 362.352L498.967 368.38L497.097 362.396C496.855 361.604 496.239 361.054 495.381 361.054H495.183C494.325 361.054 493.709 361.604 493.467 362.396L491.619 368.358L489.815 362.374C489.573 361.604 489.023 361.076 488.187 361.076C487.197 361.076 486.581 361.824 486.581 362.594C486.581 362.88 486.669 363.21 486.735 363.408L489.617 371.724C489.969 372.758 490.651 373.22 491.465 373.22ZM512.705 371.46C512.705 372.384 513.453 373.132 514.377 373.132C515.301 373.132 516.049 372.384 516.049 371.46V368.336C516.049 365.96 516.995 364.662 518.689 364.266C519.371 364.112 519.943 363.584 519.943 362.704C519.943 361.758 519.349 361.076 518.315 361.076C517.325 361.076 516.533 362.132 516.049 363.276V362.748C516.049 361.824 515.301 361.076 514.377 361.076C513.453 361.076 512.705 361.824 512.705 362.748V371.46ZM527.364 373.264C531.038 373.264 533.766 370.514 533.766 367.126V367.082C533.766 363.694 531.06 360.988 527.408 360.988C523.734 360.988 521.006 363.738 521.006 367.126V367.17C521.006 370.558 523.712 373.264 527.364 373.264ZM527.408 370.382C525.56 370.382 524.306 368.864 524.306 367.126V367.082C524.306 365.344 525.45 363.87 527.364 363.87C529.212 363.87 530.466 365.388 530.466 367.126V367.17C530.466 368.908 529.322 370.382 527.408 370.382ZM541.973 373.264C545.647 373.264 548.375 370.514 548.375 367.126V367.082C548.375 363.694 545.669 360.988 542.017 360.988C538.343 360.988 535.615 363.738 535.615 367.126V367.17C535.615 370.558 538.321 373.264 541.973 373.264ZM542.017 370.382C540.169 370.382 538.915 368.864 538.915 367.126V367.082C538.915 365.344 540.059 363.87 541.973 363.87C543.821 363.87 545.075 365.388 545.075 367.126V367.17C545.075 368.908 543.931 370.382 542.017 370.382ZM550.797 371.46C550.797 372.384 551.545 373.132 552.469 373.132C553.393 373.132 554.141 372.384 554.141 371.46V366.422C554.141 364.838 554.911 364.024 556.165 364.024C557.419 364.024 558.123 364.838 558.123 366.422V371.46C558.123 372.384 558.871 373.132 559.795 373.132C560.719 373.132 561.467 372.384 561.467 371.46V366.422C561.467 364.838 562.237 364.024 563.491 364.024C564.745 364.024 565.449 364.838 565.449 366.422V371.46C565.449 372.384 566.197 373.132 567.121 373.132C568.045 373.132 568.793 372.384 568.793 371.46V365.322C568.793 362.484 567.297 360.988 564.811 360.988C563.205 360.988 561.973 361.648 560.939 362.858C560.323 361.67 559.157 360.988 557.617 360.988C555.923 360.988 554.911 361.89 554.141 362.88V362.748C554.141 361.824 553.393 361.076 552.469 361.076C551.545 361.076 550.797 361.824 550.797 362.748V371.46ZM572.757 366.928C572.823 367.522 573.219 367.896 573.769 367.896C574.319 367.896 574.715 367.522 574.781 366.928L575.727 358.656C575.793 358.018 575.441 357.534 574.847 357.534H572.691C572.097 357.534 571.745 358.018 571.811 358.656L572.757 366.928ZM571.855 371.218V371.262C571.855 372.318 572.669 373.132 573.769 373.132C574.869 373.132 575.683 372.318 575.683 371.262V371.218C575.683 370.162 574.869 369.348 573.769 369.348C572.669 369.348 571.855 370.162 571.855 371.218Z" fill="#5590CC"/>
<path d="M398.938 216.667C398.938 216.667 399.329 218.942 400.27 220.176C402.605 223.235 408.515 221.828 408.95 218.001C409.125 216.458 408.422 214.038 408.422 214.038C403.19 195.077 383.541 183.918 364.622 189.162C345.702 194.406 334.567 214.098 339.8 233.059L348.474 264.492L357.959 261.863L349.285 230.43C348.383 227.163 348.132 223.749 348.547 220.385C348.961 217.02 350.033 213.771 351.701 210.821C353.369 207.872 355.6 205.28 358.267 203.195C360.934 201.11 363.985 199.571 367.245 198.668C370.505 197.764 373.911 197.513 377.268 197.928C380.625 198.344 383.868 199.418 386.811 201.089C389.754 202.761 392.339 204.997 394.42 207.67C396.501 210.342 398.036 213.4 398.938 216.667Z" fill="#665E58"/>
<g filter="url(#filter0_d)">
<path d="M420.519 243.164H331.664C329.665 243.164 328.045 244.775 328.045 246.763V304.182C328.045 306.17 329.665 307.781 331.664 307.781H420.519C422.518 307.781 424.138 306.17 424.138 304.182V246.763C424.138 244.775 422.518 243.164 420.519 243.164Z" fill="#73808D"/>
</g>
<path d="M382.891 269.104C382.893 267.965 382.603 266.844 382.05 265.849C381.497 264.854 380.699 264.018 379.731 263.42C378.764 262.821 377.66 262.481 376.525 262.432C375.389 262.383 374.26 262.626 373.245 263.138C372.23 263.65 371.362 264.414 370.725 265.357C370.088 266.301 369.703 267.392 369.606 268.527C369.509 269.662 369.704 270.803 370.172 271.841C370.64 272.879 371.366 273.779 372.279 274.457L371.805 289.538H380.763L380.194 274.457C381.03 273.838 381.71 273.032 382.178 272.102C382.647 271.172 382.891 270.145 382.891 269.104Z" fill="#665E58"/>
<path d="M311.21 247.248L310.525 254.095L313.255 259.607L307.165 260.388L301.861 264.757L302.44 257.854L299.816 252.399L305.8 251.562L311.21 247.248Z" fill="#FBFCE6"/>
<path d="M345.283 201.421L345.481 204.885L347.723 208.007L343.954 207.745L340.968 209.502L340.625 205.96L338.316 202.962L342.152 203.1L345.283 201.421Z" fill="#FBFCE6"/>
<path d="M349.732 333.746L349.491 338.702L351.871 342.69L347.24 342.918L343.26 345.868L343.5 340.913L341.12 336.924L345.752 336.696L349.732 333.746Z" fill="#FBFCE6"/>
<path d="M413.829 309.216L413.923 312.009L415.391 314.385L412.604 314.478L410.234 315.95L410.14 313.157L408.672 310.781L411.459 310.688L413.829 309.216Z" fill="#FBFCE6"/>
<path d="M442.411 289.89L442.319 292.151L443.574 293.979L441.36 293.947L439.535 295.278L439.453 292.924L438.198 291.096L440.412 291.128L442.411 289.89Z" fill="#FBFCE6"/>
<path d="M136.15 109.1C134.917 109.133 133.6 109.167 132.2 109.2C130.8 109.233 129.467 109.267 128.2 109.3L116.2 87.1C116.3 90.8 116.4 94.4667 116.5 98.1C116.6 101.733 116.683 105.367 116.75 109L107.7 110L107.45 71.15L115.85 67.85L127.35 91.4L126.75 69.45C128.15 69.3833 129.583 69.3333 131.05 69.3C132.517 69.2333 134.05 69.1667 135.65 69.1L136.15 109.1ZM159.745 83.75C159.812 85.0167 159.879 86.35 159.945 87.75C160.045 89.1167 160.129 90.4667 160.195 91.8C158.129 91.9667 156.029 92.1333 153.895 92.3C151.762 92.4667 149.645 92.6167 147.545 92.75L147.345 101.2L163.195 100.25C163.362 101.683 163.495 103.133 163.595 104.6C163.729 106.067 163.829 107.5 163.895 108.9C159.795 109.133 155.629 109.333 151.395 109.5C147.162 109.7 142.962 109.883 138.795 110.05L139.645 68.45L163.195 69.1C163.129 70.3667 163.079 71.65 163.045 72.95C163.045 74.25 163.029 75.55 162.995 76.85L148.045 76.3L147.695 84.25L159.745 83.75ZM208.33 69.95L200.78 107.75C199.88 107.783 198.913 107.833 197.88 107.9C196.88 107.933 195.846 107.967 194.78 108C193.746 108.033 192.73 108.05 191.73 108.05C190.73 108.083 189.796 108.117 188.93 108.15L186.03 91.65C185.496 94.1167 185.08 96.6833 184.78 99.35C184.513 101.983 184.08 104.783 183.48 107.75L171.23 108.15C170.596 104.983 170.013 101.85 169.48 98.75C168.98 95.65 168.48 92.5667 167.98 89.5C167.48 86.4 166.963 83.3 166.43 80.2C165.93 77.1 165.363 73.9667 164.73 70.8C166.13 70.4667 167.413 70.1833 168.58 69.95C169.78 69.6833 171.08 69.4167 172.48 69.15L177.53 97.75L182.18 73.45L190.43 72.85L194.73 97.45L200.83 69.05L208.33 69.95ZM231.883 86.5C232.317 86.5333 232.733 86.55 233.133 86.55C233.533 86.55 233.917 86.55 234.283 86.55C236.883 86.55 238.9 86.2 240.333 85.5C241.8 84.8 242.667 83.4833 242.933 81.55C243.167 79.7833 242.733 78.4333 241.633 77.5C240.567 76.5333 239.1 75.9667 237.233 75.8C236.167 75.8 235.25 75.8167 234.483 75.85C233.717 75.8833 232.783 76.0167 231.683 76.25C231.717 77.9833 231.733 79.7 231.733 81.4C231.767 83.1 231.817 84.8 231.883 86.5ZM222.633 69.85C225.1 69.15 227.483 68.6167 229.783 68.25C232.083 67.85 234.283 67.65 236.383 67.65C238.583 67.65 240.6 67.9 242.433 68.4C244.3 68.9 245.917 69.7 247.283 70.8C248.65 71.9 249.717 73.3167 250.483 75.05C251.25 76.75 251.633 78.8167 251.633 81.25C251.633 84.0833 251.083 86.4333 249.983 88.3C248.883 90.1667 247.35 91.6 245.383 92.6L254.833 105.3C253.767 106.167 252.633 107.1 251.433 108.1C250.267 109.133 249.083 110.15 247.883 111.15C245.917 108.417 243.9 105.667 241.833 102.9C239.8 100.133 237.783 97.3167 235.783 94.45C235.117 94.45 234.467 94.4333 233.833 94.4C233.233 94.3667 232.6 94.35 231.933 94.35C232 96.85 232.033 99.3333 232.033 101.8C232.067 104.267 232.1 106.717 232.133 109.15C230.633 109.217 229.167 109.283 227.733 109.35C226.3 109.417 224.8 109.483 223.233 109.55L222.633 69.85ZM270.81 100.45C270.943 100.483 271.076 100.5 271.21 100.5C271.343 100.5 271.476 100.5 271.61 100.5C272.643 100.5 273.56 100.233 274.36 99.7C275.193 99.1333 275.91 98.3833 276.51 97.45C277.11 96.5167 277.593 95.45 277.96 94.25C278.36 93.0167 278.61 91.75 278.71 90.45C278.843 88.9833 278.81 87.5167 278.61 86.05C278.41 84.55 278.043 83.1833 277.51 81.95C276.976 80.7167 276.26 79.6833 275.36 78.85C274.493 77.9833 273.443 77.4333 272.21 77.2C272.043 77.1667 271.893 77.15 271.76 77.15C271.626 77.15 271.476 77.15 271.31 77.15C270.31 77.15 269.393 77.4167 268.56 77.95C267.76 78.4833 267.043 79.2167 266.41 80.15C265.776 81.05 265.243 82.1 264.81 83.3C264.376 84.4667 264.043 85.7 263.81 87C263.61 88.4667 263.593 89.9667 263.76 91.5C263.926 93 264.276 94.3833 264.81 95.65C265.376 96.9167 266.143 97.9833 267.11 98.85C268.11 99.7167 269.343 100.25 270.81 100.45ZM271.56 68.5C274.393 68.5 276.843 69.1167 278.91 70.35C280.976 71.55 282.676 73.15 284.01 75.15C285.376 77.15 286.376 79.4167 287.01 81.95C287.643 84.4833 287.926 87.0667 287.86 89.7C287.793 92.2333 287.41 94.7167 286.71 97.15C286.01 99.55 284.993 101.7 283.66 103.6C282.36 105.467 280.743 106.967 278.81 108.1C276.876 109.267 274.626 109.85 272.06 109.85H271.46C268.593 109.783 266.093 109.133 263.96 107.9C261.86 106.667 260.126 105.067 258.76 103.1C257.393 101.1 256.393 98.8667 255.76 96.4C255.126 93.9 254.826 91.3667 254.86 88.8C254.926 86.2 255.326 83.6833 256.06 81.25C256.793 78.8167 257.86 76.6667 259.26 74.8C260.66 72.9 262.376 71.3833 264.41 70.25C266.476 69.0833 268.86 68.5 271.56 68.5ZM306.503 100.45C306.636 100.483 306.77 100.5 306.903 100.5C307.036 100.5 307.17 100.5 307.303 100.5C308.336 100.5 309.253 100.233 310.053 99.7C310.886 99.1333 311.603 98.3833 312.203 97.45C312.803 96.5167 313.286 95.45 313.653 94.25C314.053 93.0167 314.303 91.75 314.403 90.45C314.536 88.9833 314.503 87.5167 314.303 86.05C314.103 84.55 313.736 83.1833 313.203 81.95C312.67 80.7167 311.953 79.6833 311.053 78.85C310.186 77.9833 309.136 77.4333 307.903 77.2C307.736 77.1667 307.586 77.15 307.453 77.15C307.32 77.15 307.17 77.15 307.003 77.15C306.003 77.15 305.086 77.4167 304.253 77.95C303.453 78.4833 302.736 79.2167 302.103 80.15C301.47 81.05 300.936 82.1 300.503 83.3C300.07 84.4667 299.736 85.7 299.503 87C299.303 88.4667 299.286 89.9667 299.453 91.5C299.62 93 299.97 94.3833 300.503 95.65C301.07 96.9167 301.836 97.9833 302.803 98.85C303.803 99.7167 305.036 100.25 306.503 100.45ZM307.253 68.5C310.086 68.5 312.536 69.1167 314.603 70.35C316.67 71.55 318.37 73.15 319.703 75.15C321.07 77.15 322.07 79.4167 322.703 81.95C323.336 84.4833 323.62 87.0667 323.553 89.7C323.486 92.2333 323.103 94.7167 322.403 97.15C321.703 99.55 320.686 101.7 319.353 103.6C318.053 105.467 316.436 106.967 314.503 108.1C312.57 109.267 310.32 109.85 307.753 109.85H307.153C304.286 109.783 301.786 109.133 299.653 107.9C297.553 106.667 295.82 105.067 294.453 103.1C293.086 101.1 292.086 98.8667 291.453 96.4C290.82 93.9 290.52 91.3667 290.553 88.8C290.62 86.2 291.02 83.6833 291.753 81.25C292.486 78.8167 293.553 76.6667 294.953 74.8C296.353 72.9 298.07 71.3833 300.103 70.25C302.17 69.0833 304.553 68.5 307.253 68.5ZM355.146 85.7C354.613 87.4 354.096 89.0167 353.596 90.55C353.13 92.0833 352.663 93.6 352.196 95.1C351.73 96.6 351.263 98.1167 350.796 99.65C350.33 101.183 349.813 102.817 349.246 104.55C347.98 104.517 346.63 104.467 345.196 104.4C343.796 104.333 342.43 104.283 341.096 104.25L335.396 85.55L335.246 109.2C333.846 109.133 332.363 109.083 330.796 109.05C329.263 109.017 327.746 108.967 326.246 108.9C326.38 102.5 326.53 96.0833 326.696 89.65C326.863 83.2167 327.013 76.7667 327.146 70.3L338.696 69.8L345.396 93.7L351.996 70.3C353.83 70.2 355.746 70.1167 357.746 70.05C359.78 69.9833 361.713 69.9 363.546 69.8C363.646 76.2 363.78 82.5833 363.946 88.95C364.113 95.2833 364.28 101.7 364.446 108.2C363.013 108.3 361.513 108.4 359.946 108.5C358.38 108.6 356.846 108.733 355.346 108.9L355.146 85.7ZM394.929 109.35C392.463 109.25 390.313 108.783 388.479 107.95C386.646 107.083 385.146 105.9 383.979 104.4C382.846 102.9 382.029 101.117 381.529 99.05C381.063 96.9833 380.946 94.7167 381.179 92.25C381.413 88.55 381.613 84.85 381.779 81.15C381.946 77.45 382.029 73.7667 382.029 70.1C383.396 70.0333 384.813 69.9833 386.279 69.95C387.746 69.8833 389.196 69.8167 390.629 69.75C390.563 73.5833 390.496 77.3833 390.429 81.15C390.363 84.8833 390.296 88.6667 390.229 92.5C390.063 95.2 390.363 97.1833 391.129 98.45C391.896 99.6833 393.279 100.367 395.279 100.5H395.829C397.529 100.5 398.863 99.9 399.829 98.7C400.796 97.4667 401.329 95.4833 401.429 92.75C401.529 88.9167 401.613 85.0667 401.679 81.2C401.779 77.3333 401.879 73.4833 401.979 69.65L411.129 70.05C411.029 73.8833 410.913 77.8833 410.779 82.05C410.646 86.2167 410.546 90.25 410.479 94.15C410.479 96.1167 410.096 98.0167 409.329 99.85C408.596 101.683 407.563 103.3 406.229 104.7C404.929 106.1 403.363 107.217 401.529 108.05C399.729 108.917 397.763 109.35 395.629 109.35H394.929ZM442.595 109.1C441.362 109.133 440.045 109.167 438.645 109.2C437.245 109.233 435.912 109.267 434.645 109.3L422.645 87.1C422.745 90.8 422.845 94.4667 422.945 98.1C423.045 101.733 423.129 105.367 423.195 109L414.145 110L413.895 71.15L422.295 67.85L433.795 91.4L433.195 69.45C434.595 69.3833 436.029 69.3333 437.495 69.3C438.962 69.2333 440.495 69.1667 442.095 69.1L442.595 109.1ZM445.491 69.15C446.991 69.1167 448.491 69.1 449.991 69.1C451.491 69.1 452.991 69.0833 454.491 69.05L454.141 100.75L470.291 100.3C470.224 101.7 470.157 103.15 470.091 104.65C470.057 106.15 470.007 107.6 469.941 109L445.241 109.15L445.491 69.15ZM487.948 100.45C488.082 100.483 488.215 100.5 488.348 100.5C488.482 100.5 488.615 100.5 488.748 100.5C489.782 100.5 490.698 100.233 491.498 99.7C492.332 99.1333 493.048 98.3833 493.648 97.45C494.248 96.5167 494.732 95.45 495.098 94.25C495.498 93.0167 495.748 91.75 495.848 90.45C495.982 88.9833 495.948 87.5167 495.748 86.05C495.548 84.55 495.182 83.1833 494.648 81.95C494.115 80.7167 493.398 79.6833 492.498 78.85C491.632 77.9833 490.582 77.4333 489.348 77.2C489.182 77.1667 489.032 77.15 488.898 77.15C488.765 77.15 488.615 77.15 488.448 77.15C487.448 77.15 486.532 77.4167 485.698 77.95C484.898 78.4833 484.182 79.2167 483.548 80.15C482.915 81.05 482.382 82.1 481.948 83.3C481.515 84.4667 481.182 85.7 480.948 87C480.748 88.4667 480.732 89.9667 480.898 91.5C481.065 93 481.415 94.3833 481.948 95.65C482.515 96.9167 483.282 97.9833 484.248 98.85C485.248 99.7167 486.482 100.25 487.948 100.45ZM488.698 68.5C491.532 68.5 493.982 69.1167 496.048 70.35C498.115 71.55 499.815 73.15 501.148 75.15C502.515 77.15 503.515 79.4167 504.148 81.95C504.782 84.4833 505.065 87.0667 504.998 89.7C504.932 92.2333 504.548 94.7167 503.848 97.15C503.148 99.55 502.132 101.7 500.798 103.6C499.498 105.467 497.882 106.967 495.948 108.1C494.015 109.267 491.765 109.85 489.198 109.85H488.598C485.732 109.783 483.232 109.133 481.098 107.9C478.998 106.667 477.265 105.067 475.898 103.1C474.532 101.1 473.532 98.8667 472.898 96.4C472.265 93.9 471.965 91.3667 471.998 88.8C472.065 86.2 472.465 83.6833 473.198 81.25C473.932 78.8167 474.998 76.6667 476.398 74.8C477.798 72.9 479.515 71.3833 481.548 70.25C483.615 69.0833 485.998 68.5 488.698 68.5ZM530.792 79.95C529.058 77.85 527.025 76.8 524.692 76.8C524.525 76.8 524.342 76.8167 524.142 76.85C523.975 76.85 523.792 76.8667 523.592 76.9C522.592 77.0333 521.608 77.4333 520.642 78.1C519.708 78.7667 518.892 79.6833 518.192 80.85C517.492 82.0167 516.942 83.4333 516.542 85.1C516.175 86.7667 516.025 88.6833 516.092 90.85C516.158 92.5833 516.358 94.1 516.692 95.4C517.058 96.7 517.525 97.7833 518.092 98.65C518.692 99.5167 519.375 100.183 520.142 100.65C520.908 101.117 521.742 101.383 522.642 101.45C524.242 101.45 525.658 101.167 526.892 100.6C528.125 100 529.225 99.05 530.192 97.75L534.492 104.4C533.092 106.3 531.342 107.733 529.242 108.7C527.142 109.667 524.942 110.15 522.642 110.15C520.775 110.15 518.942 109.767 517.142 109C515.375 108.233 513.792 107.083 512.392 105.55C510.992 103.983 509.858 102.017 508.992 99.65C508.125 97.25 507.692 94.4333 507.692 91.2C507.692 88.4667 507.992 85.7333 508.592 83C509.192 80.2333 510.158 77.75 511.492 75.55C512.858 73.3167 514.625 71.5167 516.792 70.15C518.992 68.75 521.675 68.05 524.842 68.05C526.775 68.05 528.658 68.4167 530.492 69.15C532.325 69.85 534.042 70.8667 535.642 72.2L530.792 79.95ZM545.205 69.15C545.205 71.9833 545.222 74.9833 545.255 78.15C545.288 81.3167 545.322 84.3167 545.355 87.15L560.305 67.9L567.355 72.7L555.455 88.35L569.255 105.2L562.355 111.2L545.405 90.75L545.805 109.05C544.305 109.117 542.822 109.2 541.355 109.3C539.888 109.4 538.372 109.483 536.805 109.55C536.705 103.017 536.605 96.3833 536.505 89.65C536.405 82.9167 536.322 76.25 536.255 69.65L545.205 69.15ZM591.044 83.75C591.111 85.0167 591.177 86.35 591.244 87.75C591.344 89.1167 591.427 90.4667 591.494 91.8C589.427 91.9667 587.327 92.1333 585.194 92.3C583.061 92.4667 580.944 92.6167 578.844 92.75L578.644 101.2L594.494 100.25C594.661 101.683 594.794 103.133 594.894 104.6C595.027 106.067 595.127 107.5 595.194 108.9C591.094 109.133 586.927 109.333 582.694 109.5C578.461 109.7 574.261 109.883 570.094 110.05L570.944 68.45L594.494 69.1C594.427 70.3667 594.377 71.65 594.344 72.95C594.344 74.25 594.327 75.55 594.294 76.85L579.344 76.3L578.994 84.25L591.044 83.75ZM607.329 101.3C607.495 101.3 607.645 101.317 607.779 101.35C607.912 101.35 608.062 101.35 608.229 101.35C610.029 101.35 611.579 101.033 612.879 100.4C614.212 99.7333 615.312 98.8167 616.179 97.65C617.045 96.45 617.679 95.0333 618.079 93.4C618.512 91.7333 618.729 89.8833 618.729 87.85C618.729 86.4833 618.595 85.1333 618.329 83.8C618.095 82.4333 617.662 81.2167 617.029 80.15C616.395 79.05 615.545 78.1667 614.479 77.5C613.445 76.8333 612.145 76.5 610.579 76.5C609.912 76.5 609.229 76.55 608.529 76.65C607.862 76.75 607.162 76.85 606.429 76.95L607.329 101.3ZM611.229 68.6C614.229 68.9 616.779 69.6833 618.879 70.95C620.979 72.2167 622.679 73.8333 623.979 75.8C625.279 77.7333 626.212 79.95 626.779 82.45C627.379 84.95 627.662 87.6167 627.629 90.45C627.595 93.4833 627.029 96.2 625.929 98.6C624.862 101 623.412 103.033 621.579 104.7C619.745 106.367 617.629 107.65 615.229 108.55C612.829 109.45 610.295 109.9 607.629 109.9L598.829 109.35L597.829 69.9C598.029 69.9 598.562 69.8333 599.429 69.7C600.329 69.5333 601.379 69.3667 602.579 69.2C603.812 69.0333 605.095 68.8833 606.429 68.75C607.762 68.6167 608.945 68.55 609.979 68.55C610.212 68.55 610.429 68.55 610.629 68.55C610.862 68.55 611.062 68.5667 611.229 68.6ZM635.498 96.8H635.948C637.148 96.8 638.181 97 639.048 97.4C639.915 97.7667 640.615 98.2667 641.148 98.9C641.681 99.5 642.065 100.2 642.298 101C642.565 101.8 642.665 102.633 642.598 103.5C642.565 104.3 642.398 105.1 642.098 105.9C641.798 106.667 641.381 107.367 640.848 108C640.348 108.6 639.731 109.083 638.998 109.45C638.265 109.817 637.448 110 636.548 110C634.681 110 633.081 109.433 631.748 108.3C630.448 107.167 629.698 105.667 629.498 103.8C629.398 102.967 629.448 102.15 629.648 101.35C629.848 100.517 630.198 99.7833 630.698 99.15C631.198 98.4833 631.848 97.9333 632.648 97.5C633.448 97.0667 634.398 96.8333 635.498 96.8ZM641.498 65.05L640.348 93.5L631.598 94.15C631.431 89.5167 631.265 84.7833 631.098 79.95C630.931 75.1167 630.765 70.3667 630.598 65.7L641.498 65.05Z" fill="#4166B0"/>
<defs>
<filter id="filter0_d" x="328.045" y="243.164" width="98.0932" height="64.6169" filterUnits="userSpaceOnUse" color-interpolation-filters="sRGB">
<feFlood flood-opacity="0" result="BackgroundImageFix"/>
<feColorMatrix in="SourceAlpha" type="matrix" values="0 0 0 0 0 0 0 0 0 0 0 0 0 0 0 0 0 0 127 0"/>
<feOffset dx="2"/>
<feColorMatrix type="matrix" values="0 0 0 0 0.4 0 0 0 0 0.368627 0 0 0 0 0.345098 0 0 0 1 0"/>
<feBlend mode="normal" in2="BackgroundImageFix" result="effect1_dropShadow"/>
<feBlend mode="normal" in="SourceGraphic" in2="effect1_dropShadow" result="shape"/>
</filter>
<radialGradient id="paint0_radial" cx="0" cy="0" r="1" gradientUnits="userSpaceOnUse" gradientTransform="translate(367.467 286.318) scale(479.909 480.963)">
<stop stop-color="white"/>
<stop offset="0.1822" stop-color="#D6D6D6"/>
<stop offset="0.5911" stop-color="#6E6E6E"/>
<stop offset="1"/>
</radialGradient>
</defs>
</svg>
