<svg width="750" height="560" viewBox="0 0 750 560" fill="none" xmlns="http://www.w3.org/2000/svg">
<path d="M700.141 6.98438H22.9705C10.2843 6.98438 0 17.1537 0 29.6982V537.287C0 549.832 10.2843 560.001 22.9705 560.001H700.141C712.827 560.001 723.111 549.832 723.111 537.287V29.6982C723.111 17.1537 712.827 6.98438 700.141 6.98438Z" fill="#E1AB25"/>
<path d="M727.03 0H35.0991C22.413 0 12.1289 10.1693 12.1289 22.7138V530.303C12.1289 542.847 22.413 553.017 35.0991 553.017H727.03C739.717 553.017 750.001 542.847 750.001 530.303V22.7138C750.001 10.1693 739.717 0 727.03 0Z" fill="#EFDC10"/>
<path d="M738.776 27.3892C739.922 25.5291 735.483 20.7859 728.86 16.7949C722.237 12.8039 715.939 11.0765 714.793 12.9366C713.646 14.7968 718.086 19.54 724.708 23.531C731.331 27.522 737.629 29.2493 738.776 27.3892Z" fill="white"/>
<path d="M414.752 260.813H403.819V224.544C403.819 220.774 403.079 217.041 401.641 213.558C400.203 210.075 398.096 206.91 395.438 204.244C392.781 201.578 389.627 199.463 386.155 198.021C382.683 196.578 378.962 195.835 375.205 195.835C371.447 195.835 367.726 196.578 364.254 198.021C360.782 199.463 357.628 201.578 354.971 204.244C352.314 206.91 350.206 210.075 348.768 213.558C347.33 217.041 346.59 220.774 346.59 224.544V260.813H335.657V224.544C335.657 202.666 353.398 184.867 375.205 184.867C397.011 184.867 414.752 202.666 414.752 224.544V260.813Z" fill="#665E58"/>
<g filter="url(#filter0_d)">
<path d="M420.064 241.164H331.304C329.308 241.164 327.689 242.775 327.689 244.763V302.182C327.689 304.17 329.308 305.781 331.304 305.781H420.064C422.06 305.781 423.679 304.17 423.679 302.182V244.763C423.679 242.775 422.06 241.164 420.064 241.164Z" fill="#73808D"/>
</g>
<path d="M382.476 267.104C382.478 265.965 382.189 264.844 381.636 263.849C381.083 262.854 380.286 262.018 379.32 261.42C378.354 260.821 377.251 260.481 376.117 260.432C374.982 260.383 373.855 260.626 372.84 261.138C371.826 261.65 370.96 262.414 370.324 263.357C369.687 264.301 369.302 265.392 369.206 266.527C369.109 267.662 369.304 268.803 369.771 269.841C370.239 270.879 370.963 271.779 371.876 272.457L371.402 287.538H380.351L379.782 272.457C380.617 271.838 381.296 271.032 381.764 270.102C382.232 269.172 382.476 268.145 382.476 267.104Z" fill="#665E58"/>
<path d="M133.35 78.05L124 77.8C123.867 83.1 123.75 88.35 123.65 93.55C123.55 98.75 123.45 104.017 123.35 109.35C121.95 109.283 120.5 109.233 119 109.2C117.533 109.2 116.067 109.167 114.6 109.1L115.25 77.45L105.7 77.75L106.15 68.75C110.85 68.9167 115.517 69.0833 120.15 69.25C124.783 69.3833 129.4 69.5167 134 69.65L133.35 78.05ZM161.95 109.05L153.4 109.3L152.8 93.8L142.6 94.3L143.1 108.9L134.1 110C133.967 103.3 133.833 96.5667 133.7 89.8C133.567 83.0333 133.433 76.3 133.3 69.6L142.1 68.95L142.5 85.7L152.65 84.95L151.9 69.1H160.85L161.95 109.05ZM185.55 83.75C185.617 85.0167 185.683 86.35 185.75 87.75C185.85 89.1167 185.933 90.4667 186 91.8C183.933 91.9667 181.833 92.1333 179.7 92.3C177.567 92.4667 175.45 92.6167 173.35 92.75L173.15 101.2L189 100.25C189.167 101.683 189.3 103.133 189.4 104.6C189.533 106.067 189.633 107.5 189.7 108.9C185.6 109.133 181.433 109.333 177.2 109.5C172.967 109.7 168.767 109.883 164.6 110.05L165.45 68.45L189 69.1C188.933 70.3667 188.883 71.65 188.85 72.95C188.85 74.25 188.833 75.55 188.8 76.85L173.85 76.3L173.5 84.25L185.55 83.75ZM215.647 86.5C216.08 86.5333 216.497 86.55 216.897 86.55C217.297 86.55 217.68 86.55 218.047 86.55C220.647 86.55 222.664 86.2 224.097 85.5C225.564 84.8 226.43 83.4833 226.697 81.55C226.93 79.7833 226.497 78.4333 225.397 77.5C224.33 76.5333 222.864 75.9667 220.997 75.8C219.93 75.8 219.014 75.8167 218.247 75.85C217.48 75.8833 216.547 76.0167 215.447 76.25C215.48 77.9833 215.497 79.7 215.497 81.4C215.53 83.1 215.58 84.8 215.647 86.5ZM206.397 69.85C208.864 69.15 211.247 68.6167 213.547 68.25C215.847 67.85 218.047 67.65 220.147 67.65C222.347 67.65 224.364 67.9 226.197 68.4C228.064 68.9 229.68 69.7 231.047 70.8C232.414 71.9 233.48 73.3167 234.247 75.05C235.014 76.75 235.397 78.8167 235.397 81.25C235.397 84.0833 234.847 86.4333 233.747 88.3C232.647 90.1667 231.114 91.6 229.147 92.6L238.597 105.3C237.53 106.167 236.397 107.1 235.197 108.1C234.03 109.133 232.847 110.15 231.647 111.15C229.68 108.417 227.664 105.667 225.597 102.9C223.564 100.133 221.547 97.3167 219.547 94.45C218.88 94.45 218.23 94.4333 217.597 94.4C216.997 94.3667 216.364 94.35 215.697 94.35C215.764 96.85 215.797 99.3333 215.797 101.8C215.83 104.267 215.864 106.717 215.897 109.15C214.397 109.217 212.93 109.283 211.497 109.35C210.064 109.417 208.564 109.483 206.997 109.55L206.397 69.85ZM254.573 100.45C254.707 100.483 254.84 100.5 254.973 100.5C255.107 100.5 255.24 100.5 255.373 100.5C256.407 100.5 257.323 100.233 258.123 99.7C258.957 99.1333 259.673 98.3833 260.273 97.45C260.873 96.5167 261.357 95.45 261.723 94.25C262.123 93.0167 262.373 91.75 262.473 90.45C262.607 88.9833 262.573 87.5167 262.373 86.05C262.173 84.55 261.807 83.1833 261.273 81.95C260.74 80.7167 260.023 79.6833 259.123 78.85C258.257 77.9833 257.207 77.4333 255.973 77.2C255.807 77.1667 255.657 77.15 255.523 77.15C255.39 77.15 255.24 77.15 255.073 77.15C254.073 77.15 253.157 77.4167 252.323 77.95C251.523 78.4833 250.807 79.2167 250.173 80.15C249.54 81.05 249.007 82.1 248.573 83.3C248.14 84.4667 247.807 85.7 247.573 87C247.373 88.4667 247.357 89.9667 247.523 91.5C247.69 93 248.04 94.3833 248.573 95.65C249.14 96.9167 249.907 97.9833 250.873 98.85C251.873 99.7167 253.107 100.25 254.573 100.45ZM255.323 68.5C258.157 68.5 260.607 69.1167 262.673 70.35C264.74 71.55 266.44 73.15 267.773 75.15C269.14 77.15 270.14 79.4167 270.773 81.95C271.407 84.4833 271.69 87.0667 271.623 89.7C271.557 92.2333 271.173 94.7167 270.473 97.15C269.773 99.55 268.757 101.7 267.423 103.6C266.123 105.467 264.507 106.967 262.573 108.1C260.64 109.267 258.39 109.85 255.823 109.85H255.223C252.357 109.783 249.857 109.133 247.723 107.9C245.623 106.667 243.89 105.067 242.523 103.1C241.157 101.1 240.157 98.8667 239.523 96.4C238.89 93.9 238.59 91.3667 238.623 88.8C238.69 86.2 239.09 83.6833 239.823 81.25C240.557 78.8167 241.623 76.6667 243.023 74.8C244.423 72.9 246.14 71.3833 248.173 70.25C250.24 69.0833 252.623 68.5 255.323 68.5ZM290.267 100.45C290.4 100.483 290.533 100.5 290.667 100.5C290.8 100.5 290.933 100.5 291.067 100.5C292.1 100.5 293.017 100.233 293.817 99.7C294.65 99.1333 295.367 98.3833 295.967 97.45C296.567 96.5167 297.05 95.45 297.417 94.25C297.817 93.0167 298.067 91.75 298.167 90.45C298.3 88.9833 298.267 87.5167 298.067 86.05C297.867 84.55 297.5 83.1833 296.967 81.95C296.433 80.7167 295.717 79.6833 294.817 78.85C293.95 77.9833 292.9 77.4333 291.667 77.2C291.5 77.1667 291.35 77.15 291.217 77.15C291.083 77.15 290.933 77.15 290.767 77.15C289.767 77.15 288.85 77.4167 288.017 77.95C287.217 78.4833 286.5 79.2167 285.867 80.15C285.233 81.05 284.7 82.1 284.267 83.3C283.833 84.4667 283.5 85.7 283.267 87C283.067 88.4667 283.05 89.9667 283.217 91.5C283.383 93 283.733 94.3833 284.267 95.65C284.833 96.9167 285.6 97.9833 286.567 98.85C287.567 99.7167 288.8 100.25 290.267 100.45ZM291.017 68.5C293.85 68.5 296.3 69.1167 298.367 70.35C300.433 71.55 302.133 73.15 303.467 75.15C304.833 77.15 305.833 79.4167 306.467 81.95C307.1 84.4833 307.383 87.0667 307.317 89.7C307.25 92.2333 306.867 94.7167 306.167 97.15C305.467 99.55 304.45 101.7 303.117 103.6C301.817 105.467 300.2 106.967 298.267 108.1C296.333 109.267 294.083 109.85 291.517 109.85H290.917C288.05 109.783 285.55 109.133 283.417 107.9C281.317 106.667 279.583 105.067 278.217 103.1C276.85 101.1 275.85 98.8667 275.217 96.4C274.583 93.9 274.283 91.3667 274.317 88.8C274.383 86.2 274.783 83.6833 275.517 81.25C276.25 78.8167 277.317 76.6667 278.717 74.8C280.117 72.9 281.833 71.3833 283.867 70.25C285.933 69.0833 288.317 68.5 291.017 68.5ZM338.91 85.7C338.377 87.4 337.86 89.0167 337.36 90.55C336.893 92.0833 336.427 93.6 335.96 95.1C335.493 96.6 335.027 98.1167 334.56 99.65C334.093 101.183 333.577 102.817 333.01 104.55C331.743 104.517 330.393 104.467 328.96 104.4C327.56 104.333 326.193 104.283 324.86 104.25L319.16 85.55L319.01 109.2C317.61 109.133 316.127 109.083 314.56 109.05C313.027 109.017 311.51 108.967 310.01 108.9C310.143 102.5 310.293 96.0833 310.46 89.65C310.627 83.2167 310.777 76.7667 310.91 70.3L322.46 69.8L329.16 93.7L335.76 70.3C337.593 70.2 339.51 70.1167 341.51 70.05C343.543 69.9833 345.477 69.9 347.31 69.8C347.41 76.2 347.543 82.5833 347.71 88.95C347.877 95.2833 348.043 101.7 348.21 108.2C346.777 108.3 345.277 108.4 343.71 108.5C342.143 108.6 340.61 108.733 339.11 108.9L338.91 85.7ZM377.593 109.15C376.16 109.183 374.676 109.2 373.143 109.2C371.643 109.233 370.143 109.267 368.643 109.3L367.093 69.1H376.493L377.593 109.15ZM394.252 79.9C394.219 80.3667 394.336 80.8 394.602 81.2C394.869 81.5667 395.252 81.9167 395.752 82.25C396.252 82.55 396.836 82.85 397.502 83.15C398.202 83.45 398.952 83.75 399.752 84.05C401.219 84.55 402.752 85.1 404.352 85.7C405.952 86.2667 407.419 87.0333 408.752 88C410.086 88.9333 411.152 90.1333 411.952 91.6C412.786 93.0667 413.152 94.9333 413.052 97.2C412.952 99.3333 412.486 101.2 411.652 102.8C410.819 104.367 409.736 105.683 408.402 106.75C407.102 107.783 405.619 108.567 403.952 109.1C402.286 109.667 400.552 110 398.752 110.1C398.552 110.1 398.336 110.1 398.102 110.1C397.902 110.133 397.702 110.15 397.502 110.15C396.069 110.15 394.636 110.017 393.202 109.75C391.802 109.483 390.469 109.067 389.202 108.5C387.969 107.967 386.836 107.3 385.802 106.5C384.769 105.7 383.919 104.767 383.252 103.7C384.019 102.7 384.802 101.65 385.602 100.55C386.402 99.45 387.202 98.3333 388.002 97.2C389.269 98.8667 390.786 100 392.552 100.6C394.319 101.2 396.202 101.5 398.202 101.5C399.202 101.433 400.086 101.267 400.852 101C401.619 100.733 402.252 100.383 402.752 99.95C403.252 99.5167 403.602 99.0167 403.802 98.45C404.002 97.8833 404.019 97.2833 403.852 96.65C403.686 95.7167 403.102 94.95 402.102 94.35C401.136 93.75 399.969 93.2 398.602 92.7C397.236 92.1667 395.769 91.6167 394.202 91.05C392.669 90.45 391.252 89.7 389.952 88.8C388.686 87.8667 387.636 86.7 386.802 85.3C386.002 83.9 385.652 82.1333 385.752 80C385.819 78 386.236 76.2667 387.002 74.8C387.802 73.3333 388.819 72.1167 390.052 71.15C391.319 70.1833 392.736 69.4667 394.302 69C395.902 68.5 397.552 68.25 399.252 68.25C401.552 68.25 403.752 68.6167 405.852 69.35C407.952 70.05 409.852 71.2 411.552 72.8L406.552 80.25C406.119 79.65 405.602 79.1333 405.002 78.7C404.402 78.2333 403.752 77.8333 403.052 77.5C402.352 77.1667 401.619 76.9167 400.852 76.75C400.119 76.5833 399.386 76.5 398.652 76.5C397.452 76.5 396.436 76.7833 395.602 77.35C394.769 77.9167 394.319 78.7667 394.252 79.9ZM430.084 69.15C431.584 69.1167 433.084 69.1 434.584 69.1C436.084 69.1 437.584 69.0833 439.084 69.05L438.734 100.75L454.884 100.3C454.818 101.7 454.751 103.15 454.684 104.65C454.651 106.15 454.601 107.6 454.534 109L429.834 109.15L430.084 69.15ZM472.542 100.45C472.676 100.483 472.809 100.5 472.942 100.5C473.076 100.5 473.209 100.5 473.342 100.5C474.376 100.5 475.292 100.233 476.092 99.7C476.926 99.1333 477.642 98.3833 478.242 97.45C478.842 96.5167 479.326 95.45 479.692 94.25C480.092 93.0167 480.342 91.75 480.442 90.45C480.576 88.9833 480.542 87.5167 480.342 86.05C480.142 84.55 479.776 83.1833 479.242 81.95C478.709 80.7167 477.992 79.6833 477.092 78.85C476.226 77.9833 475.176 77.4333 473.942 77.2C473.776 77.1667 473.626 77.15 473.492 77.15C473.359 77.15 473.209 77.15 473.042 77.15C472.042 77.15 471.126 77.4167 470.292 77.95C469.492 78.4833 468.776 79.2167 468.142 80.15C467.509 81.05 466.976 82.1 466.542 83.3C466.109 84.4667 465.776 85.7 465.542 87C465.342 88.4667 465.326 89.9667 465.492 91.5C465.659 93 466.009 94.3833 466.542 95.65C467.109 96.9167 467.876 97.9833 468.842 98.85C469.842 99.7167 471.076 100.25 472.542 100.45ZM473.292 68.5C476.126 68.5 478.576 69.1167 480.642 70.35C482.709 71.55 484.409 73.15 485.742 75.15C487.109 77.15 488.109 79.4167 488.742 81.95C489.376 84.4833 489.659 87.0667 489.592 89.7C489.526 92.2333 489.142 94.7167 488.442 97.15C487.742 99.55 486.726 101.7 485.392 103.6C484.092 105.467 482.476 106.967 480.542 108.1C478.609 109.267 476.359 109.85 473.792 109.85H473.192C470.326 109.783 467.826 109.133 465.692 107.9C463.592 106.667 461.859 105.067 460.492 103.1C459.126 101.1 458.126 98.8667 457.492 96.4C456.859 93.9 456.559 91.3667 456.592 88.8C456.659 86.2 457.059 83.6833 457.792 81.25C458.526 78.8167 459.592 76.6667 460.992 74.8C462.392 72.9 464.109 71.3833 466.142 70.25C468.209 69.0833 470.592 68.5 473.292 68.5ZM515.386 79.95C513.652 77.85 511.619 76.8 509.286 76.8C509.119 76.8 508.936 76.8167 508.736 76.85C508.569 76.85 508.386 76.8667 508.186 76.9C507.186 77.0333 506.202 77.4333 505.236 78.1C504.302 78.7667 503.486 79.6833 502.786 80.85C502.086 82.0167 501.536 83.4333 501.136 85.1C500.769 86.7667 500.619 88.6833 500.686 90.85C500.752 92.5833 500.952 94.1 501.286 95.4C501.652 96.7 502.119 97.7833 502.686 98.65C503.286 99.5167 503.969 100.183 504.736 100.65C505.502 101.117 506.336 101.383 507.236 101.45C508.836 101.45 510.252 101.167 511.486 100.6C512.719 100 513.819 99.05 514.786 97.75L519.086 104.4C517.686 106.3 515.936 107.733 513.836 108.7C511.736 109.667 509.536 110.15 507.236 110.15C505.369 110.15 503.536 109.767 501.736 109C499.969 108.233 498.386 107.083 496.986 105.55C495.586 103.983 494.452 102.017 493.586 99.65C492.719 97.25 492.286 94.4333 492.286 91.2C492.286 88.4667 492.586 85.7333 493.186 83C493.786 80.2333 494.752 77.75 496.086 75.55C497.452 73.3167 499.219 71.5167 501.386 70.15C503.586 68.75 506.269 68.05 509.436 68.05C511.369 68.05 513.252 68.4167 515.086 69.15C516.919 69.85 518.636 70.8667 520.236 72.2L515.386 79.95ZM529.799 69.15C529.799 71.9833 529.815 74.9833 529.849 78.15C529.882 81.3167 529.915 84.3167 529.949 87.15L544.899 67.9L551.949 72.7L540.049 88.35L553.849 105.2L546.949 111.2L529.999 90.75L530.399 109.05C528.899 109.117 527.415 109.2 525.949 109.3C524.482 109.4 522.965 109.483 521.399 109.55C521.299 103.017 521.199 96.3833 521.099 89.65C520.999 82.9167 520.915 76.25 520.849 69.65L529.799 69.15ZM575.638 83.75C575.705 85.0167 575.771 86.35 575.838 87.75C575.938 89.1167 576.021 90.4667 576.088 91.8C574.021 91.9667 571.921 92.1333 569.788 92.3C567.655 92.4667 565.538 92.6167 563.438 92.75L563.238 101.2L579.088 100.25C579.255 101.683 579.388 103.133 579.488 104.6C579.621 106.067 579.721 107.5 579.788 108.9C575.688 109.133 571.521 109.333 567.288 109.5C563.055 109.7 558.855 109.883 554.688 110.05L555.538 68.45L579.088 69.1C579.021 70.3667 578.971 71.65 578.938 72.95C578.938 74.25 578.921 75.55 578.888 76.85L563.938 76.3L563.588 84.25L575.638 83.75ZM591.922 101.3C592.089 101.3 592.239 101.317 592.372 101.35C592.506 101.35 592.656 101.35 592.822 101.35C594.622 101.35 596.172 101.033 597.472 100.4C598.806 99.7333 599.906 98.8167 600.772 97.65C601.639 96.45 602.272 95.0333 602.672 93.4C603.106 91.7333 603.322 89.8833 603.322 87.85C603.322 86.4833 603.189 85.1333 602.922 83.8C602.689 82.4333 602.256 81.2167 601.622 80.15C600.989 79.05 600.139 78.1667 599.072 77.5C598.039 76.8333 596.739 76.5 595.172 76.5C594.506 76.5 593.822 76.55 593.122 76.65C592.456 76.75 591.756 76.85 591.022 76.95L591.922 101.3ZM595.822 68.6C598.822 68.9 601.372 69.6833 603.472 70.95C605.572 72.2167 607.272 73.8333 608.572 75.8C609.872 77.7333 610.806 79.95 611.372 82.45C611.972 84.95 612.256 87.6167 612.222 90.45C612.189 93.4833 611.622 96.2 610.522 98.6C609.456 101 608.006 103.033 606.172 104.7C604.339 106.367 602.222 107.65 599.822 108.55C597.422 109.45 594.889 109.9 592.222 109.9L583.422 109.35L582.422 69.9C582.622 69.9 583.156 69.8333 584.022 69.7C584.922 69.5333 585.972 69.3667 587.172 69.2C588.406 69.0333 589.689 68.8833 591.022 68.75C592.356 68.6167 593.539 68.55 594.572 68.55C594.806 68.55 595.022 68.55 595.222 68.55C595.456 68.55 595.656 68.5667 595.822 68.6ZM620.092 96.8H620.542C621.742 96.8 622.775 97 623.642 97.4C624.508 97.7667 625.208 98.2667 625.742 98.9C626.275 99.5 626.658 100.2 626.892 101C627.158 101.8 627.258 102.633 627.192 103.5C627.158 104.3 626.992 105.1 626.692 105.9C626.392 106.667 625.975 107.367 625.442 108C624.942 108.6 624.325 109.083 623.592 109.45C622.858 109.817 622.042 110 621.142 110C619.275 110 617.675 109.433 616.342 108.3C615.042 107.167 614.292 105.667 614.092 103.8C613.992 102.967 614.042 102.15 614.242 101.35C614.442 100.517 614.792 99.7833 615.292 99.15C615.792 98.4833 616.442 97.9333 617.242 97.5C618.042 97.0667 618.992 96.8333 620.092 96.8ZM626.092 65.05L624.942 93.5L616.192 94.15C616.025 89.5167 615.858 84.7833 615.692 79.95C615.525 75.1167 615.358 70.3667 615.192 65.7L626.092 65.05Z" fill="#4166B0"/>
<path d="M119.743 371.438C119.743 372.384 120.491 373.132 121.437 373.132C122.383 373.132 123.131 372.384 123.131 371.438V366.994L128.103 360.284C128.323 359.976 128.543 359.558 128.543 359.096C128.543 358.172 127.927 357.446 126.893 357.446C126.189 357.446 125.683 357.842 125.265 358.458L121.459 363.892L117.719 358.502C117.301 357.886 116.817 357.468 116.047 357.468C115.101 357.468 114.353 358.194 114.353 359.096C114.353 359.58 114.529 359.976 114.771 360.306L119.743 367.06V371.438ZM134.858 373.264C138.532 373.264 141.26 370.514 141.26 367.126V367.082C141.26 363.694 138.554 360.988 134.902 360.988C131.228 360.988 128.5 363.738 128.5 367.126V367.17C128.5 370.558 131.206 373.264 134.858 373.264ZM134.902 370.382C133.054 370.382 131.8 368.864 131.8 367.126V367.082C131.8 365.344 132.944 363.87 134.858 363.87C136.706 363.87 137.96 365.388 137.96 367.126V367.17C137.96 368.908 136.816 370.382 134.902 370.382ZM154.396 362.748C154.396 361.824 153.648 361.076 152.724 361.076C151.8 361.076 151.052 361.824 151.052 362.748V367.786C151.052 369.37 150.238 370.184 148.962 370.184C147.686 370.184 146.938 369.37 146.938 367.786V362.748C146.938 361.824 146.19 361.076 145.266 361.076C144.342 361.076 143.594 361.824 143.594 362.748V368.842C143.594 371.548 145.068 373.22 147.598 373.22C149.292 373.22 150.282 372.318 151.052 371.328V371.46C151.052 372.384 151.8 373.132 152.724 373.132C153.648 373.132 154.396 372.384 154.396 371.46V362.748ZM169.55 373.264C171.486 373.264 172.74 372.648 173.73 371.746C174.016 371.482 174.214 371.13 174.214 370.69C174.214 369.898 173.598 369.26 172.806 369.26C172.41 369.26 172.08 369.436 171.904 369.568C171.266 370.074 170.584 370.382 169.704 370.382C167.878 370.382 166.712 368.93 166.712 367.126V367.082C166.712 365.344 167.9 363.87 169.572 363.87C170.452 363.87 171.068 364.156 171.662 364.618C171.86 364.772 172.19 364.948 172.63 364.948C173.466 364.948 174.148 364.288 174.148 363.452C174.148 362.88 173.84 362.484 173.62 362.308C172.63 361.472 171.376 360.988 169.594 360.988C165.986 360.988 163.412 363.76 163.412 367.126V367.17C163.412 370.536 166.008 373.264 169.55 373.264ZM179.897 373.22C181.525 373.22 182.647 372.626 183.461 371.724V371.746C183.461 372.45 184.099 373.132 185.067 373.132C185.969 373.132 186.695 372.428 186.695 371.526V366.158C186.695 364.574 186.299 363.276 185.419 362.396C184.583 361.56 183.263 361.076 181.437 361.076C179.875 361.076 178.731 361.296 177.675 361.692C177.147 361.89 176.773 362.396 176.773 362.99C176.773 363.76 177.389 364.354 178.159 364.354C178.313 364.354 178.445 364.332 178.643 364.266C179.281 364.068 180.029 363.936 180.953 363.936C182.625 363.936 183.483 364.706 183.483 366.092V366.29C182.647 366.004 181.789 365.806 180.601 365.806C177.807 365.806 175.849 366.994 175.849 369.568V369.612C175.849 371.944 177.675 373.22 179.897 373.22ZM180.909 370.91C179.831 370.91 179.083 370.382 179.083 369.48V369.436C179.083 368.38 179.963 367.808 181.393 367.808C182.207 367.808 182.955 367.984 183.527 368.248V368.842C183.527 370.052 182.471 370.91 180.909 370.91ZM189.572 371.46C189.572 372.384 190.32 373.132 191.244 373.132C192.168 373.132 192.916 372.384 192.916 371.46V366.422C192.916 364.838 193.73 364.024 195.006 364.024C196.282 364.024 197.03 364.838 197.03 366.422V371.46C197.03 372.384 197.778 373.132 198.702 373.132C199.626 373.132 200.374 372.384 200.374 371.46V365.366C200.374 362.66 198.9 360.988 196.37 360.988C194.676 360.988 193.686 361.89 192.916 362.88V362.748C192.916 361.824 192.168 361.076 191.244 361.076C190.32 361.076 189.572 361.824 189.572 362.748V371.46ZM213.219 373.22C214.847 373.22 215.969 372.626 216.783 371.724V371.746C216.783 372.45 217.421 373.132 218.389 373.132C219.291 373.132 220.017 372.428 220.017 371.526V366.158C220.017 364.574 219.621 363.276 218.741 362.396C217.905 361.56 216.585 361.076 214.759 361.076C213.197 361.076 212.053 361.296 210.997 361.692C210.469 361.89 210.095 362.396 210.095 362.99C210.095 363.76 210.711 364.354 211.481 364.354C211.635 364.354 211.767 364.332 211.965 364.266C212.603 364.068 213.351 363.936 214.275 363.936C215.947 363.936 216.805 364.706 216.805 366.092V366.29C215.969 366.004 215.111 365.806 213.923 365.806C211.129 365.806 209.171 366.994 209.171 369.568V369.612C209.171 371.944 210.997 373.22 213.219 373.22ZM214.231 370.91C213.153 370.91 212.405 370.382 212.405 369.48V369.436C212.405 368.38 213.285 367.808 214.715 367.808C215.529 367.808 216.277 367.984 216.849 368.248V368.842C216.849 370.052 215.793 370.91 214.231 370.91ZM223.048 371.46C223.048 372.384 223.796 373.132 224.72 373.132C225.644 373.132 226.392 372.384 226.392 371.46V358.48C226.392 357.556 225.644 356.808 224.72 356.808C223.796 356.808 223.048 357.556 223.048 358.48V371.46ZM233.559 373.22H233.669C234.483 373.22 235.165 372.758 235.473 371.79L237.365 365.85L239.235 371.79C239.543 372.758 240.225 373.22 241.039 373.22H241.149C241.963 373.22 242.645 372.758 242.997 371.724L245.967 363.298C246.011 363.144 246.077 362.836 246.077 362.616C246.077 361.78 245.439 361.076 244.515 361.076C243.635 361.076 243.129 361.648 242.909 362.352L241.061 368.38L239.191 362.396C238.949 361.604 238.333 361.054 237.475 361.054H237.277C236.419 361.054 235.803 361.604 235.561 362.396L233.713 368.358L231.909 362.374C231.667 361.604 231.117 361.076 230.281 361.076C229.291 361.076 228.675 361.824 228.675 362.594C228.675 362.88 228.763 363.21 228.829 363.408L231.711 371.724C232.063 372.758 232.745 373.22 233.559 373.22ZM251.44 373.22C253.068 373.22 254.19 372.626 255.004 371.724V371.746C255.004 372.45 255.642 373.132 256.61 373.132C257.512 373.132 258.238 372.428 258.238 371.526V366.158C258.238 364.574 257.842 363.276 256.962 362.396C256.126 361.56 254.806 361.076 252.98 361.076C251.418 361.076 250.274 361.296 249.218 361.692C248.69 361.89 248.316 362.396 248.316 362.99C248.316 363.76 248.932 364.354 249.702 364.354C249.856 364.354 249.988 364.332 250.186 364.266C250.824 364.068 251.572 363.936 252.496 363.936C254.168 363.936 255.026 364.706 255.026 366.092V366.29C254.19 366.004 253.332 365.806 252.144 365.806C249.35 365.806 247.392 366.994 247.392 369.568V369.612C247.392 371.944 249.218 373.22 251.44 373.22ZM252.452 370.91C251.374 370.91 250.626 370.382 250.626 369.48V369.436C250.626 368.38 251.506 367.808 252.936 367.808C253.75 367.808 254.498 367.984 255.07 368.248V368.842C255.07 370.052 254.014 370.91 252.452 370.91ZM263.342 376.586C265.344 376.586 266.334 375.684 267.324 373.286L271.438 363.408C271.504 363.254 271.592 362.88 271.592 362.616C271.592 361.736 270.866 361.076 270.008 361.076C269.15 361.076 268.666 361.648 268.402 362.352L265.938 369.194L263.386 362.33C263.1 361.538 262.616 361.076 261.78 361.076C260.856 361.076 260.13 361.736 260.13 362.682C260.13 362.902 260.218 363.232 260.306 363.452L264.332 372.78L264.222 373.044C263.914 373.638 263.628 373.748 263.034 373.748C262.792 373.748 262.616 373.704 262.33 373.616C262.198 373.572 262.044 373.528 261.78 373.528C261.098 373.528 260.46 374.078 260.46 374.892C260.46 375.706 261.032 376.102 261.516 376.278C262.066 376.476 262.594 376.586 263.342 376.586ZM277.712 373.22C280.264 373.22 282.222 372.032 282.222 369.414V369.37C282.222 367.214 280.308 366.422 278.658 365.872C277.382 365.432 276.26 365.124 276.26 364.464V364.42C276.26 363.958 276.678 363.606 277.492 363.606C278.196 363.606 279.098 363.892 280.044 364.354C280.264 364.464 280.418 364.508 280.66 364.508C281.408 364.508 282.002 363.936 282.002 363.188C282.002 362.616 281.694 362.176 281.21 361.934C280.066 361.362 278.79 361.032 277.558 361.032C275.182 361.032 273.246 362.374 273.246 364.772V364.816C273.246 367.104 275.116 367.874 276.766 368.358C278.064 368.754 279.208 368.996 279.208 369.722V369.766C279.208 370.294 278.768 370.646 277.8 370.646C276.854 370.646 275.732 370.294 274.61 369.59C274.434 369.48 274.192 369.414 273.95 369.414C273.202 369.414 272.63 369.986 272.63 370.734C272.63 371.262 272.916 371.658 273.268 371.878C274.698 372.802 276.26 373.22 277.712 373.22ZM291.787 371.46C291.787 372.384 292.535 373.132 293.459 373.132C294.383 373.132 295.131 372.384 295.131 371.46V364.068H296.539C297.309 364.068 297.925 363.474 297.925 362.704C297.925 361.934 297.309 361.34 296.539 361.34H295.087V360.878C295.087 359.998 295.527 359.602 296.297 359.602H296.583C297.331 359.602 297.947 358.964 297.947 358.216C297.947 357.468 297.375 356.962 296.803 356.874C296.429 356.808 295.967 356.786 295.439 356.786C294.251 356.786 293.349 357.094 292.733 357.71C292.117 358.326 291.787 359.272 291.787 360.57V361.318H291.655C290.885 361.318 290.269 361.934 290.269 362.704C290.269 363.474 290.885 364.068 291.655 364.068H291.787V371.46ZM299.773 371.46C299.773 372.384 300.521 373.132 301.445 373.132C302.369 373.132 303.117 372.384 303.117 371.46V362.748C303.117 361.824 302.369 361.076 301.445 361.076C300.521 361.076 299.773 361.824 299.773 362.748V371.46ZM299.575 358.436C299.575 359.404 300.389 360.02 301.445 360.02C302.501 360.02 303.315 359.404 303.315 358.436V358.392C303.315 357.424 302.501 356.83 301.445 356.83C300.389 356.83 299.575 357.424 299.575 358.392V358.436ZM306.254 371.46C306.254 372.384 307.002 373.132 307.926 373.132C308.85 373.132 309.598 372.384 309.598 371.46V366.422C309.598 364.838 310.412 364.024 311.688 364.024C312.964 364.024 313.712 364.838 313.712 366.422V371.46C313.712 372.384 314.46 373.132 315.384 373.132C316.308 373.132 317.056 372.384 317.056 371.46V365.366C317.056 362.66 315.582 360.988 313.052 360.988C311.358 360.988 310.368 361.89 309.598 362.88V362.748C309.598 361.824 308.85 361.076 307.926 361.076C307.002 361.076 306.254 361.824 306.254 362.748V371.46ZM331.819 358.48C331.819 357.556 331.071 356.808 330.147 356.808C329.223 356.808 328.475 357.556 328.475 358.48V362.748C327.683 361.802 326.583 360.988 324.801 360.988C322.007 360.988 319.433 363.144 319.433 367.082V367.126C319.433 371.064 322.051 373.22 324.801 373.22C326.539 373.22 327.661 372.406 328.475 371.306V371.46C328.475 372.384 329.223 373.132 330.147 373.132C331.071 373.132 331.819 372.384 331.819 371.46V358.48ZM325.659 363.826C327.221 363.826 328.519 365.124 328.519 367.082V367.126C328.519 369.084 327.221 370.382 325.659 370.382C324.097 370.382 322.777 369.084 322.777 367.126V367.082C322.777 365.102 324.097 363.826 325.659 363.826ZM345.538 373.22C348.09 373.22 350.048 372.032 350.048 369.414V369.37C350.048 367.214 348.134 366.422 346.484 365.872C345.208 365.432 344.086 365.124 344.086 364.464V364.42C344.086 363.958 344.504 363.606 345.318 363.606C346.022 363.606 346.924 363.892 347.87 364.354C348.09 364.464 348.244 364.508 348.486 364.508C349.234 364.508 349.828 363.936 349.828 363.188C349.828 362.616 349.52 362.176 349.036 361.934C347.892 361.362 346.616 361.032 345.384 361.032C343.008 361.032 341.072 362.374 341.072 364.772V364.816C341.072 367.104 342.942 367.874 344.592 368.358C345.89 368.754 347.034 368.996 347.034 369.722V369.766C347.034 370.294 346.594 370.646 345.626 370.646C344.68 370.646 343.558 370.294 342.436 369.59C342.26 369.48 342.018 369.414 341.776 369.414C341.028 369.414 340.456 369.986 340.456 370.734C340.456 371.262 340.742 371.658 341.094 371.878C342.524 372.802 344.086 373.22 345.538 373.22ZM358.231 373.264C361.905 373.264 364.633 370.514 364.633 367.126V367.082C364.633 363.694 361.927 360.988 358.275 360.988C354.601 360.988 351.873 363.738 351.873 367.126V367.17C351.873 370.558 354.579 373.264 358.231 373.264ZM358.275 370.382C356.427 370.382 355.173 368.864 355.173 367.126V367.082C355.173 365.344 356.317 363.87 358.231 363.87C360.079 363.87 361.333 365.388 361.333 367.126V367.17C361.333 368.908 360.189 370.382 358.275 370.382ZM367.055 371.46C367.055 372.384 367.803 373.132 368.727 373.132C369.651 373.132 370.399 372.384 370.399 371.46V366.422C370.399 364.838 371.169 364.024 372.423 364.024C373.677 364.024 374.381 364.838 374.381 366.422V371.46C374.381 372.384 375.129 373.132 376.053 373.132C376.977 373.132 377.725 372.384 377.725 371.46V366.422C377.725 364.838 378.495 364.024 379.749 364.024C381.003 364.024 381.707 364.838 381.707 366.422V371.46C381.707 372.384 382.455 373.132 383.379 373.132C384.303 373.132 385.051 372.384 385.051 371.46V365.322C385.051 362.484 383.555 360.988 381.069 360.988C379.463 360.988 378.231 361.648 377.197 362.858C376.581 361.67 375.415 360.988 373.875 360.988C372.181 360.988 371.169 361.89 370.399 362.88V362.748C370.399 361.824 369.651 361.076 368.727 361.076C367.803 361.076 367.055 361.824 367.055 362.748V371.46ZM390.665 366.18C390.929 364.662 391.831 363.672 393.217 363.672C394.625 363.672 395.505 364.684 395.703 366.18H390.665ZM397.639 371.834C397.881 371.614 398.079 371.284 398.079 370.844C398.079 370.096 397.529 369.524 396.781 369.524C396.429 369.524 396.209 369.612 395.967 369.788C395.285 370.294 394.515 370.58 393.591 370.58C392.095 370.58 391.039 369.788 390.709 368.27H397.331C398.211 368.27 398.893 367.632 398.893 366.664C398.893 364.222 397.155 360.988 393.217 360.988C389.785 360.988 387.387 363.76 387.387 367.126V367.17C387.387 370.778 390.005 373.264 393.547 373.264C395.263 373.264 396.605 372.714 397.639 371.834ZM405.433 373.198C406.159 373.198 406.731 373.11 407.347 372.868C407.809 372.692 408.205 372.208 408.205 371.614C408.205 370.844 407.567 370.228 406.819 370.228C406.753 370.228 406.533 370.25 406.423 370.25C405.675 370.25 405.345 369.876 405.345 369.106V364.068H406.819C407.611 364.068 408.249 363.43 408.249 362.638C408.249 361.846 407.611 361.208 406.819 361.208H405.345V359.734C405.345 358.81 404.597 358.062 403.673 358.062C402.749 358.062 402.001 358.81 402.001 359.734V361.208H401.891C401.099 361.208 400.461 361.846 400.461 362.638C400.461 363.43 401.099 364.068 401.891 364.068H402.001V369.656C402.001 372.384 403.387 373.198 405.433 373.198ZM410.582 371.46C410.582 372.384 411.33 373.132 412.254 373.132C413.178 373.132 413.926 372.384 413.926 371.46V366.422C413.926 364.838 414.74 364.024 416.016 364.024C417.292 364.024 418.04 364.838 418.04 366.422V371.46C418.04 372.384 418.788 373.132 419.712 373.132C420.636 373.132 421.384 372.384 421.384 371.46V365.366C421.384 362.66 419.91 360.988 417.38 360.988C415.686 360.988 414.696 361.89 413.926 362.88V358.48C413.926 357.556 413.178 356.808 412.254 356.808C411.33 356.808 410.582 357.556 410.582 358.48V371.46ZM424.245 358.436C424.245 359.404 425.059 360.02 426.115 360.02C427.171 360.02 427.985 359.404 427.985 358.436V358.392C427.985 357.424 427.171 356.83 426.115 356.83C425.059 356.83 424.245 357.424 424.245 358.392V358.436ZM424.443 371.46C424.443 372.384 425.191 373.132 426.115 373.132C427.039 373.132 427.787 372.384 427.787 371.46V362.748C427.787 361.824 427.039 361.076 426.115 361.076C425.191 361.076 424.443 361.824 424.443 362.748V371.46ZM430.928 371.46C430.928 372.384 431.676 373.132 432.6 373.132C433.524 373.132 434.272 372.384 434.272 371.46V366.422C434.272 364.838 435.086 364.024 436.362 364.024C437.638 364.024 438.386 364.838 438.386 366.422V371.46C438.386 372.384 439.134 373.132 440.058 373.132C440.982 373.132 441.73 372.384 441.73 371.46V365.366C441.73 362.66 440.256 360.988 437.726 360.988C436.032 360.988 435.042 361.89 434.272 362.88V362.748C434.272 361.824 433.524 361.076 432.6 361.076C431.676 361.076 430.928 361.824 430.928 362.748V371.46ZM449.915 376.564C452.203 376.564 453.897 376.08 454.997 374.98C455.987 373.99 456.493 372.45 456.493 370.338V362.748C456.493 361.824 455.745 361.076 454.821 361.076C453.897 361.076 453.149 361.824 453.149 362.726V362.748C452.247 361.758 451.169 360.988 449.343 360.988C446.637 360.988 444.107 362.968 444.107 366.488V366.532C444.107 370.03 446.593 372.032 449.343 372.032C451.125 372.032 452.203 371.306 453.193 370.118V370.69C453.193 372.802 452.115 373.902 449.827 373.902C448.573 373.902 447.539 373.638 446.571 373.198C446.417 373.132 446.241 373.088 446.021 373.088C445.273 373.088 444.657 373.704 444.657 374.452C444.657 375.068 445.031 375.53 445.603 375.75C446.989 376.3 448.353 376.564 449.915 376.564ZM450.311 369.26C448.683 369.26 447.451 368.16 447.451 366.532V366.488C447.451 364.882 448.683 363.76 450.311 363.76C451.939 363.76 453.193 364.882 453.193 366.488V366.532C453.193 368.138 451.939 369.26 450.311 369.26ZM471.356 376.564C473.644 376.564 475.338 376.08 476.438 374.98C477.428 373.99 477.934 372.45 477.934 370.338V362.748C477.934 361.824 477.186 361.076 476.262 361.076C475.338 361.076 474.59 361.824 474.59 362.726V362.748C473.688 361.758 472.61 360.988 470.784 360.988C468.078 360.988 465.548 362.968 465.548 366.488V366.532C465.548 370.03 468.034 372.032 470.784 372.032C472.566 372.032 473.644 371.306 474.634 370.118V370.69C474.634 372.802 473.556 373.902 471.268 373.902C470.014 373.902 468.98 373.638 468.012 373.198C467.858 373.132 467.682 373.088 467.462 373.088C466.714 373.088 466.098 373.704 466.098 374.452C466.098 375.068 466.472 375.53 467.044 375.75C468.43 376.3 469.794 376.564 471.356 376.564ZM471.752 369.26C470.124 369.26 468.892 368.16 468.892 366.532V366.488C468.892 364.882 470.124 363.76 471.752 363.76C473.38 363.76 474.634 364.882 474.634 366.488V366.532C474.634 368.138 473.38 369.26 471.752 369.26ZM486.708 373.264C490.382 373.264 493.11 370.514 493.11 367.126V367.082C493.11 363.694 490.404 360.988 486.752 360.988C483.078 360.988 480.35 363.738 480.35 367.126V367.17C480.35 370.558 483.056 373.264 486.708 373.264ZM486.752 370.382C484.904 370.382 483.65 368.864 483.65 367.126V367.082C483.65 365.344 484.794 363.87 486.708 363.87C488.556 363.87 489.81 365.388 489.81 367.126V367.17C489.81 368.908 488.666 370.382 486.752 370.382ZM501.317 373.264C504.991 373.264 507.719 370.514 507.719 367.126V367.082C507.719 363.694 505.013 360.988 501.361 360.988C497.687 360.988 494.959 363.738 494.959 367.126V367.17C494.959 370.558 497.665 373.264 501.317 373.264ZM501.361 370.382C499.513 370.382 498.259 368.864 498.259 367.126V367.082C498.259 365.344 499.403 363.87 501.317 363.87C503.165 363.87 504.419 365.388 504.419 367.126V367.17C504.419 368.908 503.275 370.382 501.361 370.382ZM521.999 358.48C521.999 357.556 521.251 356.808 520.327 356.808C519.403 356.808 518.655 357.556 518.655 358.48V362.748C517.863 361.802 516.763 360.988 514.981 360.988C512.187 360.988 509.613 363.144 509.613 367.082V367.126C509.613 371.064 512.231 373.22 514.981 373.22C516.719 373.22 517.841 372.406 518.655 371.306V371.46C518.655 372.384 519.403 373.132 520.327 373.132C521.251 373.132 521.999 372.384 521.999 371.46V358.48ZM515.839 363.826C517.401 363.826 518.699 365.124 518.699 367.082V367.126C518.699 369.084 517.401 370.382 515.839 370.382C514.277 370.382 512.957 369.084 512.957 367.126V367.082C512.957 365.102 514.277 363.826 515.839 363.826ZM531.582 371.46C531.582 372.384 532.33 373.132 533.254 373.132C534.178 373.132 534.926 372.384 534.926 371.482V371.46C535.718 372.406 536.818 373.22 538.6 373.22C541.394 373.22 543.968 371.064 543.968 367.126V367.082C543.968 363.144 541.35 360.988 538.6 360.988C536.862 360.988 535.74 361.802 534.926 362.902V358.48C534.926 357.556 534.178 356.808 533.254 356.808C532.33 356.808 531.582 357.556 531.582 358.48V371.46ZM537.742 370.382C536.18 370.382 534.882 369.084 534.882 367.126V367.082C534.882 365.124 536.18 363.826 537.742 363.826C539.304 363.826 540.624 365.124 540.624 367.082V367.126C540.624 369.106 539.304 370.382 537.742 370.382ZM548.655 376.586C550.657 376.586 551.647 375.684 552.637 373.286L556.751 363.408C556.817 363.254 556.905 362.88 556.905 362.616C556.905 361.736 556.179 361.076 555.321 361.076C554.463 361.076 553.979 361.648 553.715 362.352L551.251 369.194L548.699 362.33C548.413 361.538 547.929 361.076 547.093 361.076C546.169 361.076 545.443 361.736 545.443 362.682C545.443 362.902 545.531 363.232 545.619 363.452L549.645 372.78L549.535 373.044C549.227 373.638 548.941 373.748 548.347 373.748C548.105 373.748 547.929 373.704 547.643 373.616C547.511 373.572 547.357 373.528 547.093 373.528C546.411 373.528 545.773 374.078 545.773 374.892C545.773 375.706 546.345 376.102 546.829 376.278C547.379 376.476 547.907 376.586 548.655 376.586ZM569.681 373.198C570.407 373.198 570.979 373.11 571.595 372.868C572.057 372.692 572.453 372.208 572.453 371.614C572.453 370.844 571.815 370.228 571.067 370.228C571.001 370.228 570.781 370.25 570.671 370.25C569.923 370.25 569.593 369.876 569.593 369.106V364.068H571.067C571.859 364.068 572.497 363.43 572.497 362.638C572.497 361.846 571.859 361.208 571.067 361.208H569.593V359.734C569.593 358.81 568.845 358.062 567.921 358.062C566.997 358.062 566.249 358.81 566.249 359.734V361.208H566.139C565.347 361.208 564.709 361.846 564.709 362.638C564.709 363.43 565.347 364.068 566.139 364.068H566.249V369.656C566.249 372.384 567.635 373.198 569.681 373.198ZM578.174 373.22C579.802 373.22 580.924 372.626 581.738 371.724V371.746C581.738 372.45 582.376 373.132 583.344 373.132C584.246 373.132 584.972 372.428 584.972 371.526V366.158C584.972 364.574 584.576 363.276 583.696 362.396C582.86 361.56 581.54 361.076 579.714 361.076C578.152 361.076 577.008 361.296 575.952 361.692C575.424 361.89 575.05 362.396 575.05 362.99C575.05 363.76 575.666 364.354 576.436 364.354C576.59 364.354 576.722 364.332 576.92 364.266C577.558 364.068 578.306 363.936 579.23 363.936C580.902 363.936 581.76 364.706 581.76 366.092V366.29C580.924 366.004 580.066 365.806 578.878 365.806C576.084 365.806 574.126 366.994 574.126 369.568V369.612C574.126 371.944 575.952 373.22 578.174 373.22ZM579.186 370.91C578.108 370.91 577.36 370.382 577.36 369.48V369.436C577.36 368.38 578.24 367.808 579.67 367.808C580.484 367.808 581.232 367.984 581.804 368.248V368.842C581.804 370.052 580.748 370.91 579.186 370.91ZM588.004 371.46C588.004 372.384 588.752 373.132 589.676 373.132C590.6 373.132 591.348 372.384 591.348 371.46V358.48C591.348 357.556 590.6 356.808 589.676 356.808C588.752 356.808 588.004 357.556 588.004 358.48V371.46ZM594.488 371.46C594.488 372.384 595.236 373.132 596.16 373.132C597.084 373.132 597.832 372.384 597.832 371.46V369.546L599.174 368.336L602.1 372.362C602.496 372.912 602.892 373.132 603.552 373.132C604.388 373.132 605.114 372.516 605.114 371.614C605.114 371.24 604.982 370.932 604.696 370.536L601.55 366.29L604.19 364.024C604.652 363.584 604.96 363.144 604.96 362.572C604.96 361.802 604.388 361.076 603.486 361.076C602.892 361.076 602.496 361.362 602.012 361.824L597.832 365.784V358.48C597.832 357.556 597.084 356.808 596.16 356.808C595.236 356.808 594.488 357.556 594.488 358.48V371.46ZM607.378 358.436C607.378 359.404 608.192 360.02 609.248 360.02C610.304 360.02 611.118 359.404 611.118 358.436V358.392C611.118 357.424 610.304 356.83 609.248 356.83C608.192 356.83 607.378 357.424 607.378 358.392V358.436ZM607.576 371.46C607.576 372.384 608.324 373.132 609.248 373.132C610.172 373.132 610.92 372.384 610.92 371.46V362.748C610.92 361.824 610.172 361.076 609.248 361.076C608.324 361.076 607.576 361.824 607.576 362.748V371.46ZM614.06 371.46C614.06 372.384 614.808 373.132 615.732 373.132C616.656 373.132 617.404 372.384 617.404 371.46V366.422C617.404 364.838 618.218 364.024 619.494 364.024C620.77 364.024 621.518 364.838 621.518 366.422V371.46C621.518 372.384 622.266 373.132 623.19 373.132C624.114 373.132 624.862 372.384 624.862 371.46V365.366C624.862 362.66 623.388 360.988 620.858 360.988C619.164 360.988 618.174 361.89 617.404 362.88V362.748C617.404 361.824 616.656 361.076 615.732 361.076C614.808 361.076 614.06 361.824 614.06 362.748V371.46ZM633.047 376.564C635.335 376.564 637.029 376.08 638.129 374.98C639.119 373.99 639.625 372.45 639.625 370.338V362.748C639.625 361.824 638.877 361.076 637.953 361.076C637.029 361.076 636.281 361.824 636.281 362.726V362.748C635.379 361.758 634.301 360.988 632.475 360.988C629.769 360.988 627.239 362.968 627.239 366.488V366.532C627.239 370.03 629.725 372.032 632.475 372.032C634.257 372.032 635.335 371.306 636.325 370.118V370.69C636.325 372.802 635.247 373.902 632.959 373.902C631.705 373.902 630.671 373.638 629.703 373.198C629.549 373.132 629.373 373.088 629.153 373.088C628.405 373.088 627.789 373.704 627.789 374.452C627.789 375.068 628.163 375.53 628.735 375.75C630.121 376.3 631.485 376.564 633.047 376.564ZM633.443 369.26C631.815 369.26 630.583 368.16 630.583 366.532V366.488C630.583 364.882 631.815 363.76 633.443 363.76C635.071 363.76 636.325 364.882 636.325 366.488V366.532C636.325 368.138 635.071 369.26 633.443 369.26ZM653.191 373.198C653.917 373.198 654.489 373.11 655.105 372.868C655.567 372.692 655.963 372.208 655.963 371.614C655.963 370.844 655.325 370.228 654.577 370.228C654.511 370.228 654.291 370.25 654.181 370.25C653.433 370.25 653.103 369.876 653.103 369.106V364.068H654.577C655.369 364.068 656.007 363.43 656.007 362.638C656.007 361.846 655.369 361.208 654.577 361.208H653.103V359.734C653.103 358.81 652.355 358.062 651.431 358.062C650.507 358.062 649.759 358.81 649.759 359.734V361.208H649.649C648.857 361.208 648.219 361.846 648.219 362.638C648.219 363.43 648.857 364.068 649.649 364.068H649.759V369.656C649.759 372.384 651.145 373.198 653.191 373.198ZM663.803 373.264C667.477 373.264 670.205 370.514 670.205 367.126V367.082C670.205 363.694 667.499 360.988 663.847 360.988C660.173 360.988 657.445 363.738 657.445 367.126V367.17C657.445 370.558 660.151 373.264 663.803 373.264ZM663.847 370.382C661.999 370.382 660.745 368.864 660.745 367.126V367.082C660.745 365.344 661.889 363.87 663.803 363.87C665.651 363.87 666.905 365.388 666.905 367.126V367.17C666.905 368.908 665.761 370.382 663.847 370.382ZM351.245 399.22C352.873 399.22 353.995 398.626 354.809 397.724V397.746C354.809 398.45 355.447 399.132 356.415 399.132C357.317 399.132 358.043 398.428 358.043 397.526V392.158C358.043 390.574 357.647 389.276 356.767 388.396C355.931 387.56 354.611 387.076 352.785 387.076C351.223 387.076 350.079 387.296 349.023 387.692C348.495 387.89 348.121 388.396 348.121 388.99C348.121 389.76 348.737 390.354 349.507 390.354C349.661 390.354 349.793 390.332 349.991 390.266C350.629 390.068 351.377 389.936 352.301 389.936C353.973 389.936 354.831 390.706 354.831 392.092V392.29C353.995 392.004 353.137 391.806 351.949 391.806C349.155 391.806 347.197 392.994 347.197 395.568V395.612C347.197 397.944 349.023 399.22 351.245 399.22ZM352.257 396.91C351.179 396.91 350.431 396.382 350.431 395.48V395.436C350.431 394.38 351.311 393.808 352.741 393.808C353.555 393.808 354.303 393.984 354.875 394.248V394.842C354.875 396.052 353.819 396.91 352.257 396.91ZM368.089 397.46C368.089 398.384 368.837 399.132 369.761 399.132C370.685 399.132 371.433 398.384 371.433 397.46V390.068H372.841C373.611 390.068 374.227 389.474 374.227 388.704C374.227 387.934 373.611 387.34 372.841 387.34H371.389V386.878C371.389 385.998 371.829 385.602 372.599 385.602H372.885C373.633 385.602 374.249 384.964 374.249 384.216C374.249 383.468 373.677 382.962 373.105 382.874C372.731 382.808 372.269 382.786 371.741 382.786C370.553 382.786 369.651 383.094 369.035 383.71C368.419 384.326 368.089 385.272 368.089 386.57V387.318H367.957C367.187 387.318 366.571 387.934 366.571 388.704C366.571 389.474 367.187 390.068 367.957 390.068H368.089V397.46ZM375.917 397.46C375.917 398.384 376.665 399.132 377.589 399.132C378.513 399.132 379.261 398.384 379.261 397.46V394.336C379.261 391.96 380.207 390.662 381.901 390.266C382.583 390.112 383.155 389.584 383.155 388.704C383.155 387.758 382.561 387.076 381.527 387.076C380.537 387.076 379.745 388.132 379.261 389.276V388.748C379.261 387.824 378.513 387.076 377.589 387.076C376.665 387.076 375.917 387.824 375.917 388.748V397.46ZM385.068 384.436C385.068 385.404 385.882 386.02 386.938 386.02C387.994 386.02 388.808 385.404 388.808 384.436V384.392C388.808 383.424 387.994 382.83 386.938 382.83C385.882 382.83 385.068 383.424 385.068 384.392V384.436ZM385.266 397.46C385.266 398.384 386.014 399.132 386.938 399.132C387.862 399.132 388.61 398.384 388.61 397.46V388.748C388.61 387.824 387.862 387.076 386.938 387.076C386.014 387.076 385.266 387.824 385.266 388.748V397.46ZM394.457 392.18C394.721 390.662 395.623 389.672 397.009 389.672C398.417 389.672 399.297 390.684 399.495 392.18H394.457ZM401.431 397.834C401.673 397.614 401.871 397.284 401.871 396.844C401.871 396.096 401.321 395.524 400.573 395.524C400.221 395.524 400.001 395.612 399.759 395.788C399.077 396.294 398.307 396.58 397.383 396.58C395.887 396.58 394.831 395.788 394.501 394.27H401.123C402.003 394.27 402.685 393.632 402.685 392.664C402.685 390.222 400.947 386.988 397.009 386.988C393.577 386.988 391.179 389.76 391.179 393.126V393.17C391.179 396.778 393.797 399.264 397.339 399.264C399.055 399.264 400.397 398.714 401.431 397.834ZM405.243 397.46C405.243 398.384 405.991 399.132 406.915 399.132C407.839 399.132 408.587 398.384 408.587 397.46V392.422C408.587 390.838 409.401 390.024 410.677 390.024C411.953 390.024 412.701 390.838 412.701 392.422V397.46C412.701 398.384 413.449 399.132 414.373 399.132C415.297 399.132 416.045 398.384 416.045 397.46V391.366C416.045 388.66 414.571 386.988 412.041 386.988C410.347 386.988 409.357 387.89 408.587 388.88V388.748C408.587 387.824 407.839 387.076 406.915 387.076C405.991 387.076 405.243 387.824 405.243 388.748V397.46ZM430.808 384.48C430.808 383.556 430.06 382.808 429.136 382.808C428.212 382.808 427.464 383.556 427.464 384.48V388.748C426.672 387.802 425.572 386.988 423.79 386.988C420.996 386.988 418.422 389.144 418.422 393.082V393.126C418.422 397.064 421.04 399.22 423.79 399.22C425.528 399.22 426.65 398.406 427.464 397.306V397.46C427.464 398.384 428.212 399.132 429.136 399.132C430.06 399.132 430.808 398.384 430.808 397.46V384.48ZM424.648 389.826C426.21 389.826 427.508 391.124 427.508 393.082V393.126C427.508 395.084 426.21 396.382 424.648 396.382C423.086 396.382 421.766 395.084 421.766 393.126V393.082C421.766 391.102 423.086 389.826 424.648 389.826ZM433.532 397.218V397.262C433.532 398.318 434.346 399.132 435.446 399.132C436.546 399.132 437.36 398.318 437.36 397.262V397.218C437.36 396.162 436.546 395.348 435.446 395.348C434.346 395.348 433.532 396.162 433.532 397.218Z" fill="#5590CC"/>
<defs>
<filter id="filter0_d" x="327.689" y="241.164" width="97.9891" height="64.6169" filterUnits="userSpaceOnUse" color-interpolation-filters="sRGB">
<feFlood flood-opacity="0" result="BackgroundImageFix"/>
<feColorMatrix in="SourceAlpha" type="matrix" values="0 0 0 0 0 0 0 0 0 0 0 0 0 0 0 0 0 0 127 0"/>
<feOffset dx="2"/>
<feColorMatrix type="matrix" values="0 0 0 0 0.4 0 0 0 0 0.368627 0 0 0 0 0.345098 0 0 0 1 0"/>
<feBlend mode="normal" in2="BackgroundImageFix" result="effect1_dropShadow"/>
<feBlend mode="normal" in="SourceGraphic" in2="effect1_dropShadow" result="shape"/>
</filter>
</defs>
</svg>
