<svg width="165" height="195" viewBox="0 0 165 195" fill="none" xmlns="http://www.w3.org/2000/svg">
<path d="M160 5L5 5L5 190L160 190L160 5Z" fill="#ACACAC" stroke="#808080" stroke-width="9.4824"/>
<path d="M83.5852 151.078C82.6765 149.718 81.4539 148.597 80.0207 147.809C78.5875 147.022 76.9858 146.59 75.3508 146.552C69.419 146.552 64.5987 152.252 64.5987 159.267C64.5937 160.69 64.8002 162.107 65.2113 163.469C71.2679 159.216 77.3925 155.086 83.5852 151.078Z" fill="#ACACAC"/>
<path d="M76.5928 171.906C79.087 171.521 81.351 170.228 82.95 168.275C81.2658 169.221 79.604 170.192 77.9199 171.164L76.5928 171.906Z" fill="#ACACAC"/>
<path d="M77.3787 103.47C77.3787 103.534 77.3788 103.447 77.3788 103.447C77.3788 103.447 77.3787 103.463 77.3787 103.47C77.3787 103.53 77.3926 103.592 77.4026 103.651C77.4018 103.659 77.4018 103.666 77.4026 103.673C77.3926 103.631 77.4026 103.715 77.4026 103.673C77.3926 103.639 77.4125 103.715 77.4026 103.673C77.4125 103.707 77.6353 104.053 77.6452 104.085V104.073C77.6631 104.123 77.6234 104.035 77.6452 104.085C77.67 104.149 77.6131 104.012 77.6452 104.073V104.085C77.6751 104.142 77.7089 104.202 77.7426 104.26C77.7426 104.26 77.7427 104.278 77.7586 104.288C77.7924 104.343 77.8282 104.399 77.8679 104.453C77.874 104.464 77.8814 104.475 77.8898 104.484C77.9275 104.54 77.9693 104.594 78.013 104.649L78.0369 104.681L78.1562 104.82L78.1899 104.858C78.2403 104.911 78.292 104.965 78.345 105.019L78.3728 105.045L78.5001 105.164L78.6054 105.256L78.7068 105.339L78.8221 105.431L78.9314 105.512L79.0567 105.6L79.174 105.679L79.3072 105.763C79.3629 105.798 79.4185 105.834 79.4762 105.868C79.5338 105.902 79.6392 105.957 79.7207 106.001L79.7843 106.035C79.8598 106.075 79.9354 106.112 80.0109 106.148L80.0408 106.162L80.2992 106.279L80.3668 106.307C80.4403 106.339 80.5159 106.369 80.5934 106.399L80.6411 106.419L80.9134 106.516L80.9771 106.538L81.1759 106.6C81.2335 106.617 81.2931 106.637 81.3528 106.653L81.5059 106.697L81.6888 106.747L81.8439 106.786L82.0287 106.828L82.1878 106.862L82.3866 106.902L82.5615 106.934L82.6371 106.945C82.7245 106.961 82.8139 106.975 82.9034 106.987H82.9471L83.2513 107.025H83.3289C83.3925 107.025 83.4541 107.039 83.5277 107.043L83.7642 107.065H83.9133L84.1618 107.077H84.299H84.5177H85.0305H85.2413H85.3884L85.611 107.061H85.7442L86.0007 107.037H86.0981L86.448 106.993H86.5116L86.8038 106.947L86.931 106.924L87.1537 106.88L87.275 106.854L87.5195 106.798L87.6567 106.765C87.7322 106.745 87.8057 106.727 87.8793 106.705C87.9529 106.683 88.0065 106.669 88.0682 106.651L88.1397 106.629C88.2352 106.602 88.3266 106.572 88.42 106.54L88.4757 106.52L88.7004 106.439L88.7799 106.409L88.9548 106.339L89.08 106.287L89.249 106.212L89.3623 106.16L89.5452 106.069L89.6347 106.023C89.7261 105.975 89.8136 105.928 89.9011 105.878C91.3503 105.041 92.0751 104.461 92.0711 103.365C92.0711 103.815 92.07 103.702 92.07 104.194C92.07 105.291 91.3503 106.391 89.8991 107.228C89.8136 107.277 89.7261 107.325 89.6367 107.373L89.5433 107.419C89.4836 107.448 89.4239 107.48 89.3623 107.508L89.249 107.56L89.08 107.637L88.9568 107.687L88.8395 107.735L88.7799 107.759L88.7004 107.788C88.6268 107.816 88.5512 107.844 88.4737 107.87L88.42 107.89C88.3286 107.922 88.2332 107.951 88.1397 107.979L88.0682 108.001L87.9469 108.037L87.8793 108.055L87.6567 108.114L87.5215 108.148L87.271 108.204L87.1815 108.226H87.1557L86.9271 108.269L86.8038 108.291L86.4937 108.341H86.452C86.3347 108.359 86.2174 108.373 86.1001 108.387H86.0404L85.7462 108.415H85.6349L85.3963 108.43H85.2492L85.0385 108.44H84.8993H84.6727H84.5216H84.2572H84.1578L83.9093 108.426H83.7622L83.5237 108.407H83.4421L83.3348 108.395H83.2573L82.9531 108.357H82.9074L82.643 108.315L82.5655 108.301H82.5038L82.3945 108.281L82.1957 108.242L82.0407 108.208L81.8518 108.164L81.6987 108.126L81.5138 108.077L81.3627 108.033L81.1838 107.979L81.1063 107.955L80.997 107.918L80.9314 107.896C80.8399 107.864 80.7484 107.832 80.659 107.796L80.6093 107.778L80.3847 107.687L80.3171 107.657C80.2296 107.621 80.1441 107.582 80.0586 107.542L80.0288 107.528C79.9533 107.492 79.8778 107.454 79.8042 107.415L79.7386 107.381C79.6551 107.337 79.5736 107.293 79.4941 107.246L79.4046 107.194C79.3768 107.178 79.3509 107.16 79.3251 107.142L79.1919 107.059L79.0726 106.979L78.9494 106.892L78.84 106.81L78.7247 106.719L78.6233 106.635L78.5179 106.542L78.4742 106.504C78.4464 106.478 78.4186 106.452 78.3927 106.425C78.3818 106.416 78.3719 106.407 78.3629 106.397C78.3092 106.345 78.2576 106.291 78.2098 106.238L78.174 106.2C78.1323 106.152 78.0925 106.107 78.0548 106.059L78.0289 106.029C78.0289 106.029 78.0289 106.029 78.019 106.015C77.9792 105.963 77.9415 105.914 77.9077 105.864L77.8858 105.832C77.846 105.777 77.8102 105.721 77.7764 105.665L77.7606 105.639L77.7227 105.576L77.6631 105.464V105.452C77.6313 105.391 77.6035 105.327 77.5756 105.266C77.5597 105.23 77.5458 105.194 77.5319 105.158L77.518 105.115L77.4822 105.007C77.4822 104.975 77.4624 104.944 77.4544 104.91C77.4464 104.876 77.4365 104.838 77.4285 104.802C77.4218 104.784 77.4172 104.764 77.4147 104.745C77.4147 104.723 77.4146 104.699 77.4027 104.677C77.4018 104.671 77.4018 104.664 77.4027 104.657C77.3928 104.596 77.3848 104.536 77.3788 104.476C77.3798 104.468 77.3798 104.46 77.3788 104.453C77.3788 104.409 77.3788 104.367 77.3788 104.323V104.26C77.3649 103.773 77.3807 103.92 77.3787 103.47Z" fill="#6C757D" fill-opacity="0.8"/>
<path d="M79.5337 100.528C76.6531 102.19 76.6392 104.886 79.4999 106.55C82.3606 108.213 87.0164 108.211 89.895 106.55C92.7736 104.888 92.7914 102.19 89.9308 100.528C87.0701 98.866 82.4142 98.864 79.5337 100.528Z" fill="#979797"/>
<path d="M82.5323 92.9682L82.5208 91.2434C82.5208 90.6674 82.5176 90.0911 82.5112 89.5145V89.5314C82.5112 89.5314 82.5112 89.5415 82.5112 89.5458C82.5112 89.55 82.5112 89.5542 82.5112 89.5585V89.5737V89.5864V89.6008C82.5112 89.605 82.5112 89.6092 82.5112 89.6135L82.5227 89.6279C82.5222 89.6321 82.5222 89.6363 82.5227 89.6405C82.5227 89.6405 82.5323 89.6499 82.538 89.6549C82.5417 89.6593 82.5462 89.6636 82.5514 89.6676L82.5667 89.682L82.582 89.6939L82.6069 89.7108L82.6222 89.7218C82.6318 89.7277 82.6433 89.7336 82.6529 89.7404C82.6584 89.7429 82.6629 89.7457 82.6663 89.7489L82.7237 89.7785L82.7409 89.7861L82.7907 89.8073L82.8155 89.8174C82.8462 89.8293 82.8462 89.8293 82.8768 89.8411L82.9113 89.853C82.9227 89.853 82.9323 89.8606 82.9457 89.864L82.9802 89.875L83.0165 89.886L83.0548 89.897L83.1084 89.9114C83.1563 89.9232 83.206 89.9351 83.2577 89.9461L83.2979 89.9537C83.3439 89.9638 83.3898 89.9723 83.4396 89.9808H83.4568L83.6157 90.0045L83.7305 90.0189L83.8166 90.029L83.9392 90.0409C83.9679 90.0409 83.9966 90.0468 84.0272 90.0485H84.0636L84.2167 90.0578H84.2607H84.3507H84.5H84.8178H84.9288L85.0302 90.0535C85.0685 90.0535 85.1049 90.0535 85.1413 90.0485L85.2408 90.0425L85.3575 90.0332L85.4494 90.0248L85.5854 90.0104L85.6734 89.9994L85.7193 89.9935C85.7653 89.9867 85.8112 89.9808 85.8533 89.9732L85.8916 89.9672L86.0084 89.9452L86.0658 89.9342C86.1213 89.9224 86.1768 89.9097 86.2285 89.897C86.663 89.7853 86.8812 89.6431 86.8793 89.4941L86.9233 103.662C86.9233 103.808 86.707 103.954 86.2725 104.065C86.2208 104.078 86.1673 104.09 86.1117 104.102L86.0543 104.113L85.9548 104.133C85.9548 104.133 85.9414 104.133 85.9375 104.133L85.8993 104.139C85.8533 104.146 85.8093 104.153 85.7634 104.159L85.7174 104.166H85.6868L85.6294 104.172L85.4934 104.187H85.4552H85.4016L85.2848 104.196H85.237H85.1853L85.0762 104.201H85.0226H84.9747H84.8618H84.8063C84.791 104.201 84.7756 104.201 84.7603 104.201H84.3496H84.3947H84.3354H84.3067H84.2607L84.1076 104.192H84.0712H84.054L83.9813 104.185L83.8607 104.174L83.7726 104.163L83.6597 104.15H83.6367L83.5008 104.128H83.4836L83.3419 104.102L83.3017 104.094C83.2501 104.083 83.2003 104.071 83.1524 104.059L83.1257 104.051L83.1027 104.045L83.0606 104.034L83.0261 104.023L82.9879 104.012L82.9553 104.001L82.9208 103.989L82.8902 103.978L82.8596 103.966L82.8462 103.96H82.8347L82.7849 103.937C82.7794 103.935 82.7742 103.933 82.7696 103.93C82.7486 103.92 82.7295 103.911 82.7122 103.901L82.7007 103.894L82.6701 103.875L82.6548 103.865L82.6299 103.847V103.842C82.6289 103.84 82.6289 103.838 82.6299 103.836C82.6234 103.831 82.6177 103.826 82.6127 103.821C82.6074 103.817 82.6029 103.813 82.5993 103.808L82.5839 103.794V103.787C82.5831 103.785 82.5831 103.783 82.5839 103.781L82.5724 103.767C82.5724 103.763 82.5724 103.759 82.5724 103.754C82.5715 103.75 82.5715 103.745 82.5724 103.74V103.732V103.727C82.5715 103.722 82.5715 103.717 82.5724 103.712C82.5713 103.708 82.5713 103.704 82.5724 103.699C82.5714 103.695 82.5714 103.69 82.5724 103.685C82.5724 103.685 82.5724 103.679 82.5724 103.676V103.668V103.229V103.126L82.5323 92.9682Z" fill="#6C757D" fill-opacity="0.8"/>
<path d="M84.5099 159.566C84.5099 165.946 79.69 171.132 73.7522 171.132C67.8204 171.132 63 165.946 63 159.566C63 153.185 67.8201 148 73.7522 148C79.6897 148 84.5099 153.185 84.5099 159.566Z" fill="#C5C5C5"/>
<path d="M81.9865 152.118C81.018 150.85 79.7727 149.82 78.3456 149.106C76.9186 148.393 75.3476 148.015 73.7523 148C67.8205 148 63.0001 153.186 63.0001 159.566C62.9957 160.865 63.2026 162.156 63.6125 163.389C69.6692 159.52 75.7939 155.763 81.9865 152.118Z" fill="#D7D7D7"/>
<path d="M74.9941 171.063C77.4346 170.74 79.6844 169.571 81.3512 167.76C79.667 168.62 78.0055 169.504 76.3213 170.387C75.8788 170.612 75.4364 170.837 74.9941 171.063Z" fill="#D7D7D7"/>
<path d="M81.7706 159.381C81.7706 164.249 78.1128 168.187 73.5874 168.187C69.062 168.187 65.3984 164.249 65.3984 159.381C65.3984 154.513 69.0619 150.581 73.5874 150.581C78.1128 150.598 81.7706 154.536 81.7706 159.381Z" fill="#8E8E8E"/>
<path d="M82.0034 159.745C82.0034 164.544 78.3854 168.412 73.9451 168.412C69.482 168.412 65.8809 164.521 65.8809 159.745C65.8809 154.947 69.5047 151.078 73.9451 151.078C78.3855 151.078 82.0034 154.97 82.0034 159.745Z" fill="#ACACAC"/>
<path d="M70.242 157.793C70.1913 157.391 70.2311 156.983 70.3583 156.598C70.4855 156.213 70.6971 155.861 70.9774 155.569C71.2578 155.276 71.6 155.05 71.979 154.906C72.358 154.762 72.7643 154.705 73.1682 154.738C73.5482 154.698 73.9324 154.74 74.2945 154.862C74.6565 154.985 74.9879 155.183 75.2659 155.446C75.5439 155.708 75.7618 156.027 75.9048 156.381C76.0478 156.736 76.1125 157.117 76.0944 157.498C76.1068 157.58 76.0873 157.664 76.0398 157.732C75.9923 157.799 75.9204 157.846 75.8393 157.862L74.5349 158.18C74.4785 158.19 74.4205 158.187 74.3651 158.173C74.3098 158.158 74.2584 158.131 74.2146 158.094C74.1708 158.057 74.1356 158.011 74.1116 157.959C74.0876 157.907 74.0753 157.85 74.0756 157.793C74.0076 157.25 73.7977 156.91 73.1682 156.91C72.3063 156.91 72.2439 157.498 72.2439 158.474V160.282C72.2439 161.258 72.3063 161.847 73.1682 161.847C73.8204 161.847 73.9905 161.529 74.0529 160.94C74.0929 160.669 74.2853 160.513 74.5178 160.576L75.8393 160.894C75.92 160.911 75.9913 160.958 76.0387 161.025C76.0861 161.093 76.106 161.176 76.0944 161.258C76.1112 161.639 76.0457 162.019 75.9022 162.373C75.7588 162.727 75.5408 163.045 75.2631 163.307C74.9854 163.569 74.6546 163.768 74.2931 163.891C73.9316 164.013 73.5479 164.057 73.1682 164.018C72.7638 164.053 72.3563 163.998 71.9762 163.855C71.5961 163.712 71.253 163.486 70.9721 163.192C70.6912 162.899 70.4798 162.547 70.3534 162.161C70.227 161.775 70.1889 161.366 70.242 160.963V157.793Z" fill="#A2A2A2"/>
<path d="M70.7464 157.793C70.6958 157.391 70.7355 156.983 70.8628 156.598C70.99 156.213 71.2015 155.861 71.4819 155.569C71.7623 155.276 72.1044 155.05 72.4834 154.906C72.8624 154.762 73.2687 154.705 73.6726 154.738C74.0526 154.698 74.4367 154.74 74.7988 154.862C75.1609 154.985 75.4924 155.183 75.7704 155.446C76.0483 155.708 76.2663 156.027 76.4093 156.381C76.5523 156.736 76.617 157.117 76.5989 157.498C76.6113 157.58 76.5918 157.664 76.5443 157.732C76.4968 157.799 76.4249 157.846 76.3437 157.862L75.0393 158.18C74.9829 158.19 74.925 158.187 74.8696 158.173C74.8143 158.158 74.7628 158.131 74.719 158.094C74.6752 158.057 74.64 158.011 74.616 157.959C74.5919 157.907 74.5797 157.85 74.5801 157.793C74.5121 157.25 74.3021 156.91 73.6726 156.91C72.8107 156.91 72.7482 157.498 72.7482 158.474V160.282C72.7482 161.258 72.8107 161.847 73.6726 161.847C74.3248 161.847 74.4951 161.529 74.5574 160.94C74.5974 160.669 74.7899 160.513 75.0223 160.576L76.3437 160.894C76.4245 160.911 76.4958 160.958 76.5432 161.025C76.5906 161.093 76.6104 161.176 76.5989 161.258C76.6156 161.639 76.5501 162.019 76.4066 162.373C76.2631 162.727 76.0452 163.045 75.7676 163.307C75.4899 163.569 75.159 163.768 74.7975 163.891C74.436 164.013 74.0523 164.057 73.6726 164.018C73.2674 164.048 72.8605 163.988 72.4814 163.841C72.1023 163.695 71.7604 163.466 71.4805 163.172C71.2005 162.877 70.9893 162.524 70.8624 162.138C70.7355 161.752 70.6959 161.343 70.7464 160.94V157.793Z" fill="#C5C5C5"/>
<path d="M93.204 164.74C93.204 165.496 93.816 166.108 94.572 166.108C95.328 166.108 95.94 165.496 95.94 164.74V154.588C95.94 153.832 95.328 153.22 94.572 153.22H94.536C94.158 153.22 93.762 153.31 93.24 153.454L91.458 153.976C90.9 154.138 90.54 154.606 90.54 155.164C90.54 155.812 91.098 156.352 91.746 156.352C91.89 156.352 92.088 156.316 92.232 156.28L93.204 156.028V164.74ZM104.146 166.216C107.512 166.216 109.762 163.354 109.762 159.7V159.664C109.762 156.01 107.512 153.184 104.182 153.184C100.834 153.184 98.5658 156.046 98.5658 159.7V159.736C98.5658 163.39 100.78 166.216 104.146 166.216ZM104.182 163.714C102.508 163.714 101.41 162.004 101.41 159.7V159.664C101.41 157.36 102.49 155.686 104.146 155.686C105.802 155.686 106.918 157.414 106.918 159.7V159.736C106.918 162.022 105.856 163.714 104.182 163.714Z" fill="#707070"/>
<path fill-rule="evenodd" clip-rule="evenodd" d="M59.4104 90.024L53.8103 98.1907L47.7258 106.944L35.8361 98.1907C37.2819 95.8606 38.7804 93.3941 40.2262 91.064C47.1741 79.5378 53.2995 69.3333 61.3931 65.6971C61.4869 65.6556 61.6746 65.5726 61.7684 65.5311C63.5113 72.4807 63.1291 83.0256 59.4104 90.024Z" fill="#44494E" fill-opacity="0.8"/>
<path d="M49.2875 104.671C43.1074 103.004 38.6678 98.3695 36.9808 96.3628C36.2047 97.8291 35.6237 98.7938 35.3107 99.0218C38.6458 106.409 45.2949 107.166 47.3465 107.376C48.0136 106.451 48.6629 105.544 49.2875 104.671Z" fill="#808080"/>
<path fill-rule="evenodd" clip-rule="evenodd" d="M105.633 90.4751L111.233 98.6419L117.317 107.395L129.207 98.6419C127.761 96.3117 126.263 93.8453 124.817 91.5151C117.869 79.9889 111.744 69.7845 103.65 66.1482C103.556 66.1067 103.368 66.0238 103.275 65.9823C101.532 72.9318 101.914 83.4767 105.633 90.4751Z" fill="#44494E" fill-opacity="0.8"/>
<path d="M115.564 104.737C121.744 103.07 126.183 98.4354 127.87 96.4287C128.646 97.895 129.227 98.8597 129.54 99.0877C126.205 106.475 119.556 107.232 117.505 107.441C116.838 106.517 116.188 105.61 115.564 104.737Z" fill="#808080"/>
<path d="M81.73 67.6327C73.2824 67.6327 70.7578 64.992 67.1652 63.5249C65.5145 63.9161 61.5723 65.2267 60.174 66.1656C60.0024 73.4828 59.7933 87.9738 56.9698 90.8122C56.3872 93.7464 52.0208 117.851 52.3091 122.207C58.7176 123.674 73.8067 124.555 81.73 124.555C89.6533 124.555 104.742 123.674 111.151 122.207C111.85 118.686 108.432 99.6146 106.782 90.8122C104.451 87.2913 103.674 72.9141 103.577 66.1656C102.179 65.2267 97.9456 63.9161 96.2949 63.5249C92.7022 64.992 90.1777 67.6327 81.73 67.6327Z" fill="#808080"/>
<g filter="url(#filter0_d)">
<path d="M81.761 83.3792C81.9712 83.0497 82.4523 83.0497 82.6625 83.3792L87.1236 90.3752C87.1958 90.4884 87.3079 90.5703 87.4377 90.6046L95.4277 92.7179C95.8029 92.8171 95.9506 93.2704 95.706 93.5717L90.4715 100.016C90.3875 100.12 90.3452 100.251 90.3527 100.384L90.8265 108.693C90.8487 109.082 90.4604 109.363 90.0976 109.221L82.407 106.203C82.2815 106.154 82.142 106.154 82.0165 106.203L74.3259 109.221C73.9631 109.363 73.5748 109.082 73.597 108.693L74.0708 100.384C74.0784 100.251 74.036 100.12 73.952 100.016L68.7175 93.5717C68.4729 93.2704 68.6206 92.8171 68.9958 92.7179L76.9858 90.6046C77.1156 90.5703 77.2277 90.4884 77.2999 90.3752L81.761 83.3792Z" fill="#A2A7A8"/>
</g>
<path d="M81.5487 67.5323C73.0011 67.5323 67.18 63.376 67.18 63.376L63.998 64.5431C63.998 64.5431 71.5648 69.6598 76.8113 70.4264C80.8601 71.0179 85.0534 70.7177 89.0308 69.7527C93.498 68.6689 98.9907 64.1918 98.9907 64.1918L96.0648 63.3018C96.0648 63.3018 90.0962 67.5323 81.5487 67.5323Z" fill="#808080"/>
<path d="M147.021 45.9543L143.916 42.5998C143.231 41.8365 142.394 41.2258 141.457 40.8072C140.521 40.3886 139.508 40.1715 138.482 40.1699C137.457 40.1684 136.442 40.3825 135.505 40.7983C134.568 41.2141 133.728 41.8224 133.041 42.5836L65.8524 114.871L35.9224 82.4816C35.2378 81.7182 34.4004 81.1072 33.4645 80.6882C32.5286 80.2693 31.5151 80.0517 30.4897 80.0496C29.4644 80.0476 28.4499 80.261 27.5123 80.6762C26.5747 81.0914 25.7349 81.699 25.0472 82.4596L21.2646 86.5331L65.2047 134.242L147.021 45.9543Z" fill="#59CE64"/>
<path d="M147.022 45.9541L65.2041 134.242L21.2642 86.5329L17.2492 90.8516C15.8038 92.4632 15.003 94.5509 15 96.7156C14.997 98.8804 15.7919 100.97 17.2328 102.586L60.3298 149.239C61.5323 150.577 63.1859 151.425 64.9741 151.62C66.7624 151.814 68.5597 151.343 70.022 150.295C70.5202 149.965 70.9777 149.577 71.3851 149.139L151.675 62.7488C153.123 61.1386 153.925 59.0508 153.928 56.8857C153.932 54.7205 153.136 52.6302 151.694 51.0154L147.022 45.9541Z" fill="#39B54A"/>
<defs>
<filter id="filter0_d" x="68.4195" y="83.0427" width="27.5848" height="26.4829" filterUnits="userSpaceOnUse" color-interpolation-filters="sRGB">
<feFlood flood-opacity="0" result="BackgroundImageFix"/>
<feColorMatrix in="SourceAlpha" type="matrix" values="0 0 0 0 0 0 0 0 0 0 0 0 0 0 0 0 0 0 127 0"/>
<feOffset dy="0.0890929"/>
<feGaussianBlur stdDeviation="0.0890929"/>
<feColorMatrix type="matrix" values="0 0 0 0 0.196078 0 0 0 0 0.560784 0 0 0 0 0.894118 0 0 0 1 0"/>
<feBlend mode="multiply" in2="BackgroundImageFix" result="effect1_dropShadow"/>
<feBlend mode="normal" in="SourceGraphic" in2="effect1_dropShadow" result="shape"/>
</filter>
</defs>
</svg>
