<svg width="2599" height="1942" viewBox="0 0 2599 1942" fill="none" xmlns="http://www.w3.org/2000/svg">
<g clip-path="url(#clip0)" filter="url(#filter0_d)">
<g filter="url(#filter1_d)">
<path d="M622.244 -5.69141H625.077V223.664H622.244V-5.69141Z" fill="#3B5368"/>
<path d="M589.665 -5.69141H592.498V228.216H589.665V-5.69141Z" fill="#3B5368"/>
<path d="M312.743 -5.69141H315.576V218.544H312.743V-5.69141Z" fill="#3B5368"/>
<path d="M285.665 -5.69141L284.414 224.239L281.581 224.228L282.83 -5.69141H285.665Z" fill="#3B5368"/>
<path d="M734.146 217.34H163.305L173.07 472.226H722.605L734.146 217.34Z" fill="#F8F8EE"/>
<path d="M310.619 208.227H317.701V217.33H310.619V208.227Z" fill="#3B5368"/>
<path d="M279.456 208.227H286.539V217.33H279.456V208.227Z" fill="#3B5368"/>
<path d="M619.412 208.867H626.494V217.97H619.412V208.867Z" fill="#3B5368"/>
<path d="M588.249 208.867H595.331V217.97H588.249V208.867Z" fill="#3B5368"/>
<path d="M345.36 378.28C345.76 378.36 346.12 378.4 346.44 378.4C346.84 378.4 347.24 378.4 347.64 378.4C350.76 378.4 353.48 377.56 355.8 375.88C358.2 374.2 360.24 372 361.92 369.28C363.6 366.48 364.88 363.32 365.76 359.8C366.64 356.2 367.12 352.52 367.2 348.76C367.28 345.16 366.96 341.64 366.24 338.2C365.6 334.76 364.56 331.6 363.12 328.72C361.68 325.84 359.8 323.44 357.48 321.52C355.24 319.52 352.56 318.24 349.44 317.68C349.04 317.6 348.6 317.56 348.12 317.56C347.64 317.48 347.2 317.44 346.8 317.44C343.84 317.44 341.12 318.36 338.64 320.2C336.24 321.96 334.16 324.28 332.4 327.16C330.64 330.04 329.24 333.32 328.2 337C327.16 340.68 326.56 344.44 326.4 348.28C326.32 351.72 326.6 355.16 327.24 358.6C327.88 361.96 328.96 365.04 330.48 367.84C332 370.56 334 372.88 336.48 374.8C338.96 376.64 341.92 377.8 345.36 378.28ZM347.4 301.6C353.64 301.6 359.08 302.96 363.72 305.68C368.36 308.32 372.2 311.84 375.24 316.24C378.28 320.56 380.52 325.56 381.96 331.24C383.48 336.84 384.24 342.6 384.24 348.52C384.16 354.52 383.32 360.4 381.72 366.16C380.12 371.84 377.76 376.92 374.64 381.4C371.52 385.88 367.68 389.48 363.12 392.2C358.56 394.84 353.32 396.12 347.4 396.04C341.16 395.8 335.68 394.28 330.96 391.48C326.24 388.68 322.32 385.08 319.2 380.68C316.08 376.28 313.72 371.32 312.12 365.8C310.6 360.28 309.84 354.64 309.84 348.88C309.92 342.96 310.76 337.16 312.36 331.48C313.96 325.8 316.32 320.76 319.44 316.36C322.64 311.88 326.56 308.32 331.2 305.68C335.84 302.96 341.24 301.6 347.4 301.6ZM409.151 350.92C409.951 351 410.711 351.04 411.431 351.04C412.231 351.04 413.031 351.04 413.831 351.04C416.871 351.04 419.911 350.8 422.951 350.32C425.991 349.76 428.711 348.8 431.111 347.44C433.591 346.08 435.671 344.2 437.351 341.8C439.031 339.32 440.071 336.16 440.471 332.32C440.791 329.52 440.511 327.08 439.631 325C438.831 322.84 437.551 321 435.791 319.48C434.031 317.96 431.871 316.8 429.311 316C426.831 315.2 424.031 314.76 420.911 314.68C418.511 314.68 416.471 314.76 414.791 314.92C413.111 315 411.031 315.28 408.551 315.76L409.151 350.92ZM391.871 304C401.471 301.28 410.631 299.92 419.351 299.92C424.791 299.92 429.791 300.56 434.351 301.84C438.911 303.04 442.831 304.92 446.111 307.48C449.471 310.04 452.071 313.32 453.911 317.32C455.751 321.24 456.671 325.96 456.671 331.48C456.671 337 455.751 341.8 453.911 345.88C452.151 349.96 449.671 353.4 446.471 356.2C443.351 358.92 439.631 361.04 435.311 362.56C430.991 364 426.311 364.84 421.271 365.08C419.431 365.08 417.511 365.08 415.511 365.08C413.511 365 411.471 364.8 409.391 364.48L409.871 394.24C406.831 394.4 404.031 394.56 401.471 394.72C398.991 394.88 396.231 395.04 393.191 395.2L391.871 304ZM506.606 338.2C506.766 340.76 506.926 343.28 507.086 345.76C507.246 348.24 507.406 350.64 507.566 352.96C502.286 353.36 497.206 353.76 492.326 354.16C487.526 354.48 482.526 354.8 477.326 355.12L476.726 380.2L515.006 377.92C515.246 380.88 515.486 383.6 515.726 386.08C516.046 388.56 516.286 391.2 516.446 394C507.006 394.48 497.766 394.88 488.726 395.2C479.766 395.6 470.566 396 461.126 396.4L463.166 301.48L514.886 302.92C514.806 305.48 514.686 307.84 514.526 310C514.446 312.16 514.366 314.44 514.286 316.84L478.526 315.4L477.686 340.12L506.606 338.2ZM588.376 394.24C585.816 394.32 583.376 394.4 581.056 394.48C578.816 394.56 576.456 394.64 573.976 394.72L540.256 335.56C540.496 345.32 540.736 354.96 540.976 364.48C541.296 374 541.576 383.88 541.816 394.12L524.896 395.92L524.176 307.12L539.536 301.24L572.776 363.04L570.616 303.76C573.336 303.68 576.096 303.56 578.896 303.4C581.696 303.24 584.416 303.12 587.056 303.04L588.376 394.24Z" fill="#52CC94"/>
</g>
<path d="M301.005 1616.41L252 864.263C252 864.263 521.528 746.671 869.813 864.263L808.557 1616.41H301.005Z" fill="#E9F7FE"/>
<path opacity="0.58" d="M279.483 1286.1L702.151 823.293L800.681 843.634L283.25 1343.9L279.483 1286.1Z" fill="white"/>
<path opacity="0.38" d="M293.485 1383.72L827.809 886.449L866.313 915.293L302.755 1516.57L293.485 1383.72Z" fill="white"/>
<path d="M301.005 1616.41L311.506 1667.44H847.061L861.062 1616.41H301.005Z" fill="#EEA995"/>
<path d="M280 1616L289.769 1667H787.975L801 1616H280Z" fill="#F8CC95"/>
<g style="mix-blend-mode:multiply" opacity="0.23">
<path d="M908.18 883.251L862.156 1571.59L924.944 1590.51L908.052 1663.56L813.34 1667.84L881.622 875.633L908.18 883.251Z" fill="#C7867B"/>
</g>
<path d="M869.813 864.258L882.064 877.57L826.538 1616.41H808.557L869.813 864.258Z" fill="#C7867B"/>
<path d="M554.879 834.186C654.685 834.195 754.105 849.902 850.86 880.945L792.769 1594.23H317.121L270.601 880.222C283.99 875.316 307.395 867.477 338.983 859.702C410.149 842.58 482.433 834.038 554.868 834.187H554.879V834.186ZM554.846 812C371.809 812.005 252 864.264 252 864.264L301.005 1616.41H808.557L869.813 864.264C767.061 829.571 661.18 812.002 554.846 812Z" fill="#EEA995"/>
<path d="M2536.63 532.12C2536.75 527.321 2542.38 524.811 2546.03 527.937L2555.34 535.937C2556.63 537.039 2557.36 538.656 2557.33 540.349L2539.89 1583.68C2539.84 1586.63 2537.53 1589.06 2534.58 1589.26L2517.83 1590.37C2514.49 1590.59 2511.68 1587.9 2511.76 1584.56L2536.63 532.12Z" fill="#C7867B"/>
<path d="M2533.79 443.773L1015.35 443.774C1012.15 443.774 1009.57 446.419 1009.66 449.622L1041.22 1581.82C1041.31 1584.9 1043.83 1587.35 1046.91 1587.35H2509.38C2512.47 1587.35 2515 1584.88 2515.07 1581.79L2539.47 449.586C2539.54 446.396 2536.98 443.773 2533.79 443.773Z" fill="#DBAA75"/>
<path d="M2647.7 1587.36H977.877C974.377 1587.36 971.707 1590.49 972.259 1593.94L982.254 1656.53C982.695 1659.29 985.076 1661.32 987.872 1661.32H2647.7C2650.84 1661.32 2653.39 1658.77 2653.39 1655.63V1593.04C2653.39 1589.9 2650.84 1587.36 2647.7 1587.36Z" fill="#AE7F5A"/>
<path d="M1871.71 439.197C1872.29 442.649 1869.64 445.802 1866.14 445.831L1719.7 447.035C1716.64 447.06 1714.11 444.664 1713.97 441.61L1705.04 249.427C1704.89 246.204 1707.45 243.501 1710.67 243.474L1833.71 242.447C1836.51 242.423 1838.91 244.434 1839.37 247.191L1871.71 439.197Z" fill="#FFF5EA"/>
<path d="M1713.93 441.171C1714.08 444.395 1711.52 447.098 1708.29 447.124L1561.84 448.32C1558.51 448.348 1555.87 445.524 1556.12 442.205L1570.58 249.856C1570.8 246.906 1573.24 244.618 1576.2 244.593L1699.27 243.565C1702.32 243.54 1704.86 245.936 1705 248.99L1713.93 441.171Z" fill="#D33746"/>
<path d="M1556.05 443.155C1555.83 446.105 1553.39 448.393 1550.43 448.417L1404.14 449.612C1400.54 449.642 1397.82 446.36 1398.51 442.826L1436.34 250.311C1436.86 247.661 1439.17 245.742 1441.87 245.719L1564.79 244.692C1568.12 244.664 1570.76 247.488 1570.51 250.808L1556.05 443.155Z" fill="#FFF5EA"/>
<path d="M1398.06 445.123C1397.54 447.774 1395.23 449.693 1392.53 449.715L1246.55 450.908C1242.68 450.94 1239.91 447.184 1241.08 443.497L1302.28 250.807C1303.02 248.461 1305.19 246.861 1307.65 246.84L1430.26 245.823C1433.86 245.794 1436.58 249.076 1435.89 252.61L1398.06 445.123Z" fill="#D33746"/>
<path d="M1239.95 447.032C1239.2 449.378 1237.03 450.979 1234.57 450.999L1089.06 452.188C1084.94 452.222 1082.15 447.993 1083.8 444.215L1168.35 251.358C1169.25 249.305 1171.27 247.972 1173.51 247.953L1295.67 246.933C1299.54 246.9 1302.32 250.656 1301.14 254.344L1239.95 447.032Z" fill="#FFF5EA"/>
<path d="M1081.78 448.886C1080.88 450.939 1078.85 452.272 1076.61 452.29L931.709 453.475C927.344 453.511 924.566 448.82 926.696 445.01L1034.59 251.987C1035.59 250.203 1037.46 249.091 1039.51 249.074L1161.06 248.058C1165.19 248.023 1167.98 252.253 1166.32 256.031L1081.78 448.886Z" fill="#D33746"/>
<path d="M2029.34 437.266C2030.39 440.887 2027.7 444.512 2023.92 444.543L1877.66 445.737C1874.86 445.759 1872.47 443.749 1872 440.992L1839.66 248.985C1839.08 245.533 1841.73 242.38 1845.23 242.35L1968.08 241.325C1970.63 241.304 1972.88 242.979 1973.59 245.427L2029.34 437.266Z" fill="#D33746"/>
<path d="M2186.89 435.394C2188.43 439.121 2185.71 443.223 2181.68 443.255L2035.74 444.446C2033.2 444.467 2030.94 442.792 2030.23 440.345L1974.48 248.503C1973.43 244.882 1976.13 241.258 1979.9 241.227L2102.41 240.204C2104.73 240.185 2106.83 241.576 2107.72 243.721L2186.89 435.394Z" fill="#FFF5EA"/>
<path d="M2344.37 433.596C2346.39 437.368 2343.68 441.938 2339.41 441.972L2193.94 443.159C2191.62 443.178 2189.52 441.786 2188.64 439.642L2109.47 247.967C2107.93 244.24 2110.64 240.139 2114.68 240.105L2236.7 239.087C2238.82 239.07 2240.77 240.226 2241.76 242.09L2344.37 433.596Z" fill="#D33746"/>
<path d="M2501.83 431.859C2504.31 435.624 2501.63 440.641 2497.12 440.678L2352.26 441.868C2350.15 441.885 2348.2 440.729 2347.2 438.865L2244.59 247.357C2242.57 243.585 2245.28 239.016 2249.56 238.98L2370.96 237.967C2372.89 237.951 2374.7 238.915 2375.76 240.526L2501.83 431.859Z" fill="#FFF5EA"/>
<path d="M2658.17 428.757C2661.08 432.477 2658.45 437.919 2653.73 437.951L2509.63 438.942C2507.7 438.955 2505.9 437.992 2504.84 436.383L2378.86 245.172C2376.36 241.381 2379.09 236.335 2383.63 236.352L2505.29 236.81C2507.03 236.816 2508.67 237.621 2509.75 238.994L2658.17 428.757Z" fill="#D33746"/>
<path d="M1871.49 449.73C1872.09 446.237 1869.38 443.054 1865.84 443.083L1718.51 444.287C1715.89 444.309 1713.62 446.117 1713.02 448.666L1700.76 500.46C1692.99 533.276 1728.98 562.939 1776.1 562.558L1785.37 562.483C1823.63 562.174 1855.76 541.832 1860.34 515.012L1871.49 449.73Z" fill="#F4E4D3"/>
<path d="M1712.81 451.225C1713.53 447.681 1710.8 444.375 1707.19 444.405L1560.23 445.607C1557.65 445.628 1555.41 447.376 1554.77 449.868L1541.92 499.408C1531.79 532.914 1568.11 564.262 1616.62 563.87L1624.64 563.806C1661.59 563.507 1693.03 544.492 1699.12 518.756L1712.81 451.225Z" fill="#B5303D"/>
<path d="M1553.79 454.135C1554.79 450.512 1552.07 446.934 1548.31 446.934H1401.82C1399.36 446.934 1397.19 448.51 1396.42 450.842L1380.74 498.417C1368.18 532.525 1404.78 565.581 1454.67 565.178L1461.12 565.125C1496.79 564.837 1527.51 547.078 1534.97 522.44L1553.79 454.135Z" fill="#F4E4D3"/>
<path d="M1238.76 455.667C1240.46 451.884 1237.67 447.608 1233.52 447.64L1081.4 448.837C1079.29 448.854 1077.36 450.035 1076.39 451.907L1053.52 495.992C1035.36 531.012 1073.73 567.47 1128.3 567.045L1130.83 567.026C1165.3 566.758 1195.65 551.31 1205.76 528.887L1238.76 455.667Z" fill="#F4E4D3"/>
<path d="M1078.66 455.912C1080.56 452.111 1077.78 447.647 1073.53 447.681L927.724 448.873C925.689 448.89 923.818 449.993 922.817 451.765L898.943 494.035C878.955 529.425 916.008 567.624 969.903 567.189C1001.94 566.93 1030.43 552.513 1041.09 531.155L1078.66 455.912Z" fill="#B5303D"/>
<path d="M2030.29 447.823C2030.48 444.541 2027.85 441.784 2024.56 441.811L1877.62 442.991C1874.77 443.014 1872.38 445.145 1872.02 447.975L1865.33 501.574C1859.86 533.617 1895.44 561.62 1941.16 561.251L1951.36 561.166C1990.97 560.846 2023.75 539.11 2026.68 511.231L2030.29 447.823Z" fill="#B5303D"/>
<path d="M2189.08 446.106C2189.03 442.981 2186.47 440.482 2183.34 440.507L2036.01 441.711C2033 441.736 2030.53 444.105 2030.38 447.114L2027.58 502.717C2024.31 533.911 2059.43 560.289 2103.75 559.93L2114.56 559.846C2155.53 559.515 2188.93 536.317 2190.06 507.424L2189.08 446.106Z" fill="#F4E4D3"/>
<path d="M2347.85 444.394C2347.58 441.442 2345.1 439.187 2342.13 439.211L2194.75 440.416C2191.58 440.442 2189.05 443.047 2189.11 446.213L2190.2 503.893C2189.02 534.168 2223.62 558.966 2266.54 558.619L2277.63 558.53C2319.98 558.192 2353.96 533.478 2353.14 503.609L2347.85 444.394Z" fill="#B5303D"/>
<path d="M2506.58 442.682C2506.12 439.913 2503.72 437.888 2500.91 437.911L2353.52 439.116C2350.2 439.143 2347.61 441.996 2347.9 445.303L2353.16 505.074C2353.96 534.369 2387.99 557.632 2429.52 557.301L2440.56 557.216C2484.31 556.862 2518.8 530.581 2515.92 499.8L2506.58 442.682Z" fill="#F4E4D3"/>
<path d="M2666.07 442.606C2665.61 439.872 2663.24 437.871 2660.46 437.871H2512.14C2508.75 437.871 2506.11 440.82 2506.49 444.191L2513.72 509.043C2516.37 537.305 2549.77 559.098 2589.93 558.774L2600.59 558.69C2645.74 558.326 2680.69 530.427 2675.63 498.802L2666.07 442.606Z" fill="#B5303D"/>
<path d="M1045.53 626.597C1045.33 622.048 1048.97 618.254 1053.52 618.254H2497.26C2501.76 618.254 2505.37 621.959 2505.26 626.455L2482.9 1516.97C2482.79 1521.31 2479.24 1524.77 2474.9 1524.77H1091.71C1087.43 1524.77 1083.9 1521.4 1083.72 1517.12L1045.53 626.597Z" fill="white" fill-opacity="0.9"/>
<path d="M1250.89 642.34H1124.39C1118.65 642.34 1114 648.817 1114 656.806V685.189C1114 693.178 1118.65 699.655 1124.39 699.655H1250.89C1256.63 699.655 1261.28 693.178 1261.28 685.189V656.806C1261.28 648.817 1256.63 642.34 1250.89 642.34Z" fill="#497FA3"/>
<path d="M1251.61 638H1125.11C1119.37 638 1114.72 644.477 1114.72 652.466V680.849C1114.72 688.838 1119.37 695.315 1125.11 695.315H1251.61C1257.35 695.315 1262 688.838 1262 680.849V652.466C1262 644.477 1257.35 638 1251.61 638Z" fill="#5590CC"/>
<path d="M1176.37 673.22L1182.7 672.74L1180.03 662.12L1176.37 673.22ZM1177.6 657.02C1178.44 657.06 1179.22 657.12 1179.94 657.2C1180.66 657.26 1181.41 657.31 1182.19 657.35L1188.85 679.73C1188.09 679.89 1187.38 680.05 1186.72 680.21C1186.06 680.37 1185.36 680.53 1184.62 680.69L1183.63 676.61L1175.11 677.06L1173.94 680.69L1170.28 680.18L1177.6 657.02ZM1189.81 657.29C1190.57 657.29 1191.27 657.28 1191.91 657.26C1192.57 657.24 1193.26 657.23 1193.98 657.23L1193.8 676.22L1203.46 675.98C1203.42 676.72 1203.38 677.4 1203.34 678.02C1203.32 678.64 1203.29 679.3 1203.25 680L1189.66 680.09L1189.81 657.29ZM1204.93 657.29C1205.69 657.29 1206.39 657.28 1207.03 657.26C1207.69 657.24 1208.38 657.23 1209.1 657.23L1208.92 676.22L1218.58 675.98C1218.54 676.72 1218.5 677.4 1218.46 678.02C1218.44 678.64 1218.41 679.3 1218.37 680L1204.78 680.09L1204.93 657.29Z" fill="white"/>
<path d="M1257.23 653.109C1257.83 651.955 1256.09 648.758 1253.33 645.967C1250.57 643.177 1247.85 641.85 1247.25 643.004C1246.64 644.158 1248.39 647.356 1251.15 650.146C1253.9 652.937 1256.63 654.263 1257.23 653.109Z" fill="white"/>
<path d="M1396.41 451.293C1397.62 447.596 1394.84 443.807 1390.96 443.84L1244.72 445.062C1242.46 445.081 1240.42 446.437 1239.53 448.517L1219.29 495.917C1204.05 531.618 1241.42 567.47 1293.43 567.041L1298.09 567.003C1333.03 566.717 1363.46 549.627 1372.26 525.359L1396.41 451.293Z" fill="#B5303D"/>
<path d="M2524.43 235.169L2539.6 235.169L2533.91 265.51L2518.74 265.51L2524.43 235.169Z" fill="#C7867B"/>
<path d="M2524.43 235.164H1016.72L1026.15 265.508H2519.72L2524.43 235.164Z" fill="#DBAA75"/>
<path d="M1330.93 651.965C1332.15 651.137 1333.17 651.298 1333.99 651.413L1343.02 654.449L1351.3 651L1353.22 651.62L1357.74 668.935L1362.04 678.937L1339.04 682.386L1324.32 677.213C1325.96 669.28 1329.7 652.792 1330.93 651.965Z" fill="#5590CC"/>
<path d="M1341.78 656.244C1339.08 655.829 1335.16 653.21 1332.83 651.278C1333.81 651.278 1334.79 651.553 1335.77 651.83C1340.18 653.485 1344.97 653.485 1349.38 651.415C1350 651.14 1350.73 651 1351.47 651C1349.38 653.21 1345.34 656.659 1341.78 656.244L1341.78 656.244Z" fill="#5590CC"/>
<path d="M1325.95 669.903C1326.44 663.695 1327.17 657.902 1328.4 655.417C1329.13 653.485 1329.99 652.243 1331.46 651.693C1334.29 654.037 1339.31 657.626 1342.75 657.626C1346.92 657.626 1351.09 653.762 1353.05 651.556C1355.75 653.073 1356.48 656.799 1356.97 660.66L1358.32 669.213C1356.97 675.973 1328.03 675.146 1325.95 669.902L1325.95 669.903Z" fill="#5590CC"/>
<path d="M1370.11 678.996C1359.06 692.812 1294.72 683.694 1316.45 673.054C1319.52 671.397 1322.71 670.706 1325.91 670.291L1325.66 674.851C1326.27 681.484 1360.78 681.759 1358.81 673.607L1358.32 670.015C1362.5 670.291 1367.9 672.225 1370.11 674.989C1371.09 676.233 1370.97 677.892 1370.11 678.996Z" fill="#5590CC"/>
<path d="M1326.61 676.682C1328.82 678.336 1332.13 679.162 1336.9 679.624C1336.91 678.061 1337.3 675.341 1337.27 673.788C1335.07 673.789 1329.92 672.962 1326.98 671.308C1326.87 672.774 1326.7 675.144 1326.61 676.682Z" fill="#5590CC"/>
<rect x="1127.67" y="1077.21" width="274.99" height="291.092" fill="#59CAF0" stroke="#2EADE3" stroke-width="9.48242"/>
<rect x="1123.87" y="740.569" width="274.99" height="291.092" fill="#59CAF0" stroke="#2EADE3" stroke-width="9.48242"/>
<rect x="1465.24" y="740.569" width="274.99" height="291.092" fill="#59CAF0" stroke="#2EADE3" stroke-width="9.48242"/>
<rect x="1806.61" y="740.569" width="274.99" height="291.092" fill="#59CAF0" stroke="#2EADE3" stroke-width="9.48242"/>
<path d="M1828.7 671.577C1828.7 671.577 1828.57 661.999 1830.64 661.132C1830.64 661.132 1839.06 660.859 1839.4 667.974C1839.44 667.974 1838.41 673.492 1828.7 671.577Z" fill="#5590CC"/>
<path d="M1828.7 671.668C1828.7 671.668 1829.47 661.817 1830.64 661.087C1830.64 661.087 1825.5 662.911 1824.55 659.126L1824.42 654.2L1818.03 654.292C1818.03 654.292 1817.73 660.129 1818.77 665.785C1818.77 665.785 1820.11 670.619 1828.7 671.668Z" fill="#5590CC"/>
<path d="M1817.85 654.473H1824.41V649L1817.85 649V654.473Z" fill="#5590CC"/>
<path d="M1817.85 684.117C1817.85 684.117 1817.72 674.54 1819.79 673.673C1819.79 673.673 1828.21 673.4 1828.55 680.514C1828.6 680.514 1827.56 686.033 1817.85 684.117Z" fill="#5590CC"/>
<path d="M1817.85 684.21C1817.85 684.21 1818.62 674.359 1819.79 673.629C1819.79 673.629 1814.65 675.453 1813.7 671.668L1813.57 666.742L1807.19 666.834C1807.19 666.834 1806.88 672.671 1807.92 678.327C1807.92 678.327 1809.26 683.161 1817.85 684.21Z" fill="#5590CC"/>
<path d="M1807 667.015H1813.56V661.542H1807L1807 667.015Z" fill="#5590CC"/>
<rect x="2147.98" y="740.569" width="274.99" height="291.092" fill="#59CAF0" stroke="#2EADE3" stroke-width="9.48242"/>
<rect x="1469.03" y="1077.21" width="274.99" height="291.092" fill="#59CAF0" stroke="#2EADE3" stroke-width="9.48242"/>
<path fill-rule="evenodd" clip-rule="evenodd" d="M1527 656.806V648H1530.24H1530.47H1536.47H1536.73H1542.52H1542.94H1545.99V656.949C1545.97 656.931 1545.95 656.914 1545.93 656.897L1546.2 687.759H1538.42L1536.61 663.914L1534.78 688H1527V656.949V656.806Z" fill="#5590CC"/>
<rect x="1810.4" y="1077.21" width="274.99" height="291.092" fill="#59CAF0" stroke="#2EADE3" stroke-width="9.48242"/>
<rect x="2151.77" y="1077.21" width="274.99" height="291.092" fill="#59CAF0" stroke="#2EADE3" stroke-width="9.48242"/>
<path fill-rule="evenodd" clip-rule="evenodd" d="M1694.96 657.766C1696.16 657.295 1697.43 656.937 1699.83 656.35C1700.67 655.814 1701.53 655.212 1702.43 654.566V654.468C1702.43 653.937 1702.95 653.596 1703.4 653.826L1703.43 653.844C1703.94 653.475 1704.47 653.095 1705.02 652.709L1705.02 652.602C1705.02 652.129 1705.45 651.79 1705.87 651.913L1705.91 651.924L1706.07 651.982C1706.57 651.643 1707.09 651.301 1707.63 650.958L1707.53 650.572C1707.38 650.003 1707.91 649.509 1708.42 649.722L1708.46 649.736L1709.11 650.046C1709.64 649.735 1710.18 649.423 1710.75 649.115C1710.7 648.796 1710.86 648.466 1711.15 648.331C1711.42 648.205 1711.73 648.285 1711.92 648.506C1712.15 648.388 1712.39 648.27 1712.64 648.152C1712.64 648.152 1713.54 647.968 1715.02 648.829C1715.33 649.011 1715.66 649.259 1716.02 649.528L1716.02 649.528L1716.02 649.528L1716.02 649.528C1717.13 650.346 1718.5 651.363 1720.33 651.347C1722.98 651.321 1725.34 650.715 1726.8 649.885C1727.43 648.013 1728.84 648 1728.84 648C1728.84 648 1730.81 652.064 1730.85 656.146C1730.86 657.988 1730.87 660.379 1730.87 662.449L1730.98 662.447L1731 663.785C1731.15 663.967 1731.23 664.197 1731.23 664.448V665.242C1731.23 665.477 1731.16 665.694 1731.03 665.87L1731.03 666.462C1731.04 666.659 1730.98 666.842 1730.88 666.99L1730.88 667.009L1730.86 667.009C1730.71 667.217 1730.48 667.353 1730.21 667.358L1699.19 667.876L1692.55 667.381C1691.62 667.313 1690.93 666.454 1691.01 665.472L1691.26 662.353L1691.26 662.353C1691.24 662.075 1691.26 661.728 1691.32 661.299C1691.63 659.197 1693.23 658.445 1694.96 657.766ZM1717.13 683.337L1717.13 683.336C1717.06 683.068 1717.01 682.726 1716.99 682.294C1716.89 680.17 1718.31 679.092 1719.88 678.056C1720.97 677.339 1722.14 676.718 1724.37 675.632C1725.1 674.927 1725.82 674.154 1726.58 673.329L1726.56 673.231C1726.46 672.71 1726.91 672.264 1727.39 672.395L1727.42 672.405L1727.43 672.406C1727.86 671.936 1728.3 671.452 1728.76 670.957L1728.74 670.85C1728.65 670.386 1729.01 669.964 1729.45 669.993L1729.48 669.997L1729.66 670.018C1730.08 669.581 1730.52 669.136 1730.98 668.686L1730.81 668.327C1730.56 667.8 1730.99 667.203 1731.53 667.302L1731.56 667.309L1732.26 667.475C1732.72 667.058 1733.2 666.637 1733.7 666.213C1733.58 665.912 1733.67 665.554 1733.93 665.359C1734.17 665.177 1734.49 665.19 1734.72 665.368C1734.93 665.202 1735.14 665.036 1735.35 664.869C1735.35 664.869 1736.21 664.496 1737.82 665.024C1738.15 665.136 1738.53 665.307 1738.93 665.494L1738.93 665.494L1738.93 665.494C1740.17 666.06 1741.71 666.763 1743.5 666.356C1746.09 665.767 1748.28 664.67 1749.56 663.545C1749.82 661.576 1751.19 661.264 1751.19 661.264C1751.19 661.264 1753.9 664.823 1754.72 668.813C1755.08 670.613 1755.55 672.952 1755.95 674.978L1756.05 674.953L1756.33 676.257C1756.5 676.405 1756.63 676.613 1756.68 676.86L1756.83 677.629C1756.88 677.861 1756.84 678.091 1756.75 678.292L1756.87 678.874C1756.91 679.067 1756.89 679.259 1756.82 679.426L1756.82 679.446L1756.81 679.449C1756.7 679.683 1756.5 679.866 1756.24 679.927L1725.95 687.055L1719.36 687.985C1718.43 688.116 1717.59 687.423 1717.48 686.445L1717.13 683.337Z" fill="#5590CC"/>
<path d="M1445.79 649.763C1442.96 649.763 1440.62 648.999 1439.04 648.282C1438.8 648.156 1438.56 648.029 1438.34 647.904C1438 647.719 1437.67 647.539 1437.33 647.373C1437.01 647.175 1436.84 647.048 1436.84 647.048L1434.3 647.921C1434.3 647.921 1434.33 647.934 1434.37 647.96C1433.6 648.26 1432.88 648.59 1432.48 648.869L1432.48 648.958C1427.83 651.606 1424.2 657.926 1420.12 665.031L1420.06 665.128C1419.61 665.889 1419.15 666.672 1418.69 667.455L1418.69 667.456C1418.23 668.239 1417.78 669.021 1417.33 669.782L1417.38 669.821C1417.22 670.083 1417.09 670.257 1417 670.327C1419.08 675.151 1423.22 675.645 1424.49 675.782C1424.56 675.68 1424.63 675.579 1424.7 675.478L1424.73 675.498L1428.52 669.782L1430.05 667.443C1429.18 672.5 1427.44 683.174 1427.58 685.467C1431.57 686.425 1440.97 687 1445.9 687C1450.83 687 1460.23 686.425 1464.21 685.467C1464.62 683.316 1462.79 672.275 1461.71 666.154L1464.27 670.07L1468.05 675.786L1468.12 675.738L1468.17 675.815C1469.45 675.678 1473.59 675.184 1475.66 670.36C1475.6 670.314 1475.53 670.221 1475.43 670.087L1475.46 670.07C1475.22 669.675 1474.99 669.274 1474.75 668.87C1474.71 668.79 1474.67 668.708 1474.62 668.623L1474.61 668.637C1474.45 668.354 1474.28 668.069 1474.11 667.785L1474.09 667.743C1473.63 666.96 1473.17 666.177 1472.72 665.416L1472.67 665.319C1468.36 657.832 1464.56 651.215 1459.54 648.85L1459.31 648.742L1459.31 648.748C1458.69 648.384 1457.58 647.959 1456.58 647.628C1456.62 647.597 1456.64 647.581 1456.64 647.581L1454.82 647C1454.82 647 1451.11 649.763 1445.79 649.763Z" fill="#5590CC"/>
<path d="M1635.32 683.592C1635.42 684.868 1636.06 687.337 1636.12 688.614L1634.13 689.88C1633.67 689.021 1633.35 688.637 1632.94 687.856C1632.9 687.856 1632.85 687.85 1632.81 687.85C1632.4 688.624 1632 689.405 1631.55 690.264L1629.6 690.026C1629.55 690.026 1629.99 687.53 1629.94 687.53C1629.49 688.395 1629.02 689.26 1628.54 690.215C1628.42 690.034 1627.16 690.318 1627.1 690.215C1626.77 689.58 1627.41 690.85 1627.1 690.215C1626.98 689.979 1627.1 687.445 1627.1 687.203C1627.14 685.975 1627.2 684.747 1627.25 683.519C1627.48 683.55 1627.7 683.574 1627.93 683.604C1630.39 683.949 1632.85 683.931 1635.32 683.592Z" fill="#5590CC"/>
<path d="M1634.12 669.682C1634.21 670.892 1634.3 672.102 1634.39 673.311C1632.08 673.584 1629.78 673.559 1627.5 673.251C1627.55 672.041 1627.59 670.831 1627.64 669.628C1628.56 669.688 1629.47 669.797 1630.4 669.803C1631.63 669.803 1632.88 669.724 1634.12 669.682Z" fill="#5590CC"/>
<path d="M1634.87 679.234C1634.93 680.238 1635.01 681.248 1635.07 682.252C1632.41 682.609 1629.77 682.615 1627.13 682.198C1627.16 681.169 1627.21 680.135 1627.25 679.107C1629.77 679.476 1632.3 679.524 1634.87 679.234Z" fill="#5590CC"/>
<path d="M1627.9 663.162C1627.95 661.776 1628 660.391 1628.05 659C1629.85 659 1631.57 659 1633.36 659C1633.45 660.415 1633.54 661.819 1633.63 663.222C1631.71 663.41 1629.8 663.373 1627.9 663.162Z" fill="#5590CC"/>
<path d="M1634.49 674.644C1634.58 675.727 1634.66 676.809 1634.75 677.898C1634.58 677.91 1634.42 677.922 1634.25 677.94C1631.91 678.188 1629.6 678.134 1627.33 677.789C1627.37 676.719 1627.42 675.648 1627.46 674.577C1627.59 674.589 1627.71 674.595 1627.83 674.614C1630.05 674.892 1632.27 674.916 1634.49 674.644Z" fill="#5590CC"/>
<path d="M1633.74 664.595C1633.83 665.847 1633.93 667.093 1634.02 668.345C1633.79 668.358 1633.56 668.376 1633.33 668.388C1631.44 668.521 1629.56 668.539 1627.7 668.297C1627.75 667.027 1627.8 665.757 1627.86 664.48C1629.81 664.71 1631.76 664.71 1633.74 664.595Z" fill="#5590CC"/>
<path d="M1627.13 682.198C1629.76 682.615 1632.41 682.609 1635.07 682.252C1635.1 682.7 1635.14 683.141 1635.16 683.589C1632.7 683.928 1630.23 683.946 1627.77 683.601C1627.55 683.571 1627.32 683.547 1627.09 683.516C1627.11 683.075 1627.11 682.639 1627.13 682.198Z" fill="#5590CC"/>
<path d="M1627.33 677.786C1629.6 678.137 1631.91 678.185 1634.25 677.937C1634.42 677.919 1634.58 677.913 1634.75 677.895C1634.79 678.343 1634.83 678.784 1634.85 679.232C1632.3 679.522 1629.76 679.48 1627.25 679.105C1627.28 678.669 1627.3 678.228 1627.33 677.786Z" fill="#5590CC"/>
<path d="M1634.49 674.643C1632.26 674.909 1630.05 674.891 1627.83 674.607C1627.7 674.589 1627.59 674.583 1627.46 674.571C1627.47 674.129 1627.47 673.688 1627.48 673.246C1629.77 673.554 1632.07 673.579 1634.38 673.306C1634.43 673.754 1634.47 674.202 1634.49 674.643Z" fill="#5590CC"/>
<path d="M1627.72 668.3C1629.58 668.548 1631.45 668.53 1633.34 668.391C1633.57 668.373 1633.8 668.361 1634.03 668.349C1634.07 668.796 1634.1 669.238 1634.13 669.686C1632.89 669.728 1631.64 669.807 1630.4 669.8C1629.47 669.8 1628.56 669.692 1627.64 669.625C1627.65 669.183 1627.68 668.742 1627.72 668.3Z" fill="#5590CC"/>
<path d="M1633.74 664.599C1631.76 664.708 1629.81 664.714 1627.86 664.484C1627.87 664.042 1627.88 663.601 1627.88 663.159C1629.78 663.377 1631.69 663.407 1633.62 663.22C1633.66 663.686 1633.7 664.145 1633.74 664.599Z" fill="#5590CC"/>
<mask id="mask0" mask-type="alpha" maskUnits="userSpaceOnUse" x="1598" y="652" width="38" height="13">
<path d="M1598.41 652.974C1598.41 652.974 1606.58 656.142 1618.44 656.142C1630.3 656.142 1635.06 652 1635.06 652C1635.06 652 1635.06 655.241 1635.06 660.284C1635.06 668.325 1598.65 663.939 1598.41 662.599C1597.49 657.482 1598.41 652.974 1598.41 652.974Z" fill="#5590CC"/>
</mask>
<g mask="url(#mask0)">
<path d="M1613.8 665.076C1615.64 665.296 1617.49 665.516 1619.33 665.737C1619.77 661.362 1619.75 657 1619.29 652.65C1617.45 652.698 1615.6 652.721 1613.76 652.77C1613.85 654.526 1614.01 656.261 1614.01 658.015C1614 660.354 1613.87 662.715 1613.8 665.076Z" fill="#5590CC"/>
<path d="M1628.37 666.878C1629.9 667.041 1631.44 667.229 1632.97 667.392C1633.54 662.363 1633.57 657.344 1632.95 652.307C1631.38 652.338 1629.8 652.393 1628.23 652.424C1628.77 657.215 1628.83 662.017 1628.37 666.878Z" fill="#5590CC"/>
<path d="M1603.89 652.989C1601.78 653.029 1599.67 653.07 1597.54 653.111C1597.53 656.522 1597.52 659.787 1597.5 663.198C1599.66 663.426 1601.8 663.654 1603.94 663.882C1604.24 660.235 1604.2 656.603 1603.89 652.989Z" fill="#5590CC"/>
<path d="M1621.36 665.986C1623.02 666.201 1624.67 666.391 1626.33 666.606C1626.35 666.29 1626.37 665.974 1626.4 665.658C1626.79 661.233 1626.73 656.846 1626.22 652.519C1624.58 652.548 1622.95 652.602 1621.31 652.631C1621.33 652.875 1621.34 653.119 1621.37 653.339C1621.78 657.566 1621.8 661.782 1621.36 665.986Z" fill="#5590CC"/>
<path d="M1606.04 664.128C1607.95 664.35 1609.85 664.596 1611.76 664.818C1611.78 664.38 1611.81 663.942 1611.83 663.504C1612.05 659.928 1612.09 656.371 1611.73 652.828C1609.79 652.874 1607.85 652.919 1605.91 652.964C1606.24 656.677 1606.23 660.381 1606.04 664.128Z" fill="#5590CC"/>
<path d="M1632.95 652.306C1633.57 657.318 1633.54 662.361 1632.97 667.39C1633.66 667.458 1634.33 667.549 1635.01 667.616C1635.55 662.951 1635.59 658.274 1635.08 653.582C1635.04 653.166 1635 652.727 1634.96 652.287C1634.29 652.318 1633.62 652.3 1632.95 652.306Z" fill="#5590CC"/>
<path d="M1626.21 652.517C1626.73 656.844 1626.78 661.231 1626.39 665.656C1626.36 665.972 1626.35 666.288 1626.32 666.604C1627 666.696 1627.68 666.787 1628.36 666.854C1628.82 662.017 1628.77 657.191 1628.22 652.425C1627.56 652.455 1626.88 652.486 1626.21 652.517Z" fill="#5590CC"/>
<path d="M1621.36 665.993C1621.79 661.764 1621.78 657.573 1621.36 653.346C1621.33 653.101 1621.32 652.882 1621.31 652.638C1620.63 652.644 1619.96 652.626 1619.28 652.632C1619.74 656.982 1619.76 661.344 1619.33 665.719C1620.01 665.835 1620.69 665.926 1621.36 665.993Z" fill="#5590CC"/>
<path d="M1611.73 652.858C1612.1 656.401 1612.06 659.958 1611.83 663.534C1611.8 663.972 1611.78 664.41 1611.76 664.848C1612.44 664.939 1613.12 665.006 1613.8 665.098C1613.87 662.736 1614 660.376 1614 658.012C1614.01 656.258 1613.85 654.523 1613.75 652.766C1613.08 652.773 1612.41 652.803 1611.73 652.858Z" fill="#5590CC"/>
<path d="M1606.04 664.133C1606.22 660.385 1606.24 656.682 1605.91 652.969C1605.23 652.975 1604.56 652.981 1603.88 652.963C1604.2 656.578 1604.23 660.21 1603.93 663.857C1604.64 663.949 1605.35 664.041 1606.04 664.133Z" fill="#5590CC"/>
</g>
<path fill-rule="evenodd" clip-rule="evenodd" d="M2001.29 1457.92L1959.83 1487.67C1958.77 1488.43 1957.51 1488.89 1956.21 1488.98C1954.9 1489.08 1953.6 1488.81 1952.43 1488.22C1951.27 1487.62 1950.29 1486.71 1949.61 1485.6C1948.93 1484.48 1948.57 1483.2 1948.57 1481.89V1422.31C1948.57 1421 1948.93 1419.72 1949.61 1418.6C1950.3 1417.48 1951.27 1416.57 1952.44 1415.98C1953.6 1415.38 1954.91 1415.12 1956.22 1415.22C1957.52 1415.31 1958.77 1415.77 1959.84 1416.54L2002.35 1441.6C2006.29 1444.44 2005.24 1455.09 2001.29 1457.92Z" fill="#3DAC7D"/>
<path fill-rule="evenodd" clip-rule="evenodd" d="M2001.29 1451.73L1959.83 1481.47C1958.77 1482.24 1957.51 1482.69 1956.21 1482.79C1954.9 1482.88 1953.6 1482.62 1952.43 1482.02C1951.27 1481.42 1950.29 1480.52 1949.61 1479.4C1948.93 1478.28 1948.57 1477 1948.57 1475.69V1416.11C1948.57 1414.8 1948.93 1413.52 1949.61 1412.4C1950.3 1411.29 1951.27 1410.38 1952.44 1409.78C1953.6 1409.19 1954.91 1408.92 1956.22 1409.02C1957.52 1409.12 1958.77 1409.58 1959.84 1410.34L2001.3 1440.18C2002.22 1440.84 2002.96 1441.7 2003.48 1442.71C2003.99 1443.71 2004.26 1444.83 2004.26 1445.96C2004.26 1447.08 2003.99 1448.2 2003.47 1449.2C2002.96 1450.2 2002.21 1451.07 2001.29 1451.73Z" fill="#4BBC89"/>
<path d="M1992.92 1442.95C1993.58 1441.87 1991.03 1439.12 1987.23 1436.8C1983.42 1434.48 1979.81 1433.48 1979.15 1434.56C1978.49 1435.64 1981.04 1438.39 1984.84 1440.71C1988.65 1443.03 1992.26 1444.03 1992.92 1442.95Z" fill="white"/>
<path fill-rule="evenodd" clip-rule="evenodd" d="M1559.54 1457.92L1601 1487.67C1602.07 1488.43 1603.32 1488.89 1604.62 1488.98C1605.93 1489.08 1607.23 1488.81 1608.4 1488.22C1609.56 1487.62 1610.54 1486.71 1611.22 1485.6C1611.9 1484.48 1612.26 1483.2 1612.26 1481.89V1422.31C1612.26 1421 1611.9 1419.72 1611.22 1418.6C1610.54 1417.48 1609.56 1416.57 1608.39 1415.98C1607.23 1415.38 1605.92 1415.12 1604.62 1415.22C1603.31 1415.31 1602.06 1415.77 1601 1416.54L1558.49 1441.6C1554.54 1444.44 1555.59 1455.09 1559.54 1457.92Z" fill="#3DAC7D"/>
<path fill-rule="evenodd" clip-rule="evenodd" d="M1559.54 1451.73L1601 1481.47C1602.07 1482.24 1603.32 1482.69 1604.62 1482.79C1605.93 1482.88 1607.23 1482.62 1608.4 1482.02C1609.56 1481.42 1610.54 1480.52 1611.22 1479.4C1611.9 1478.28 1612.26 1477 1612.26 1475.69V1416.11C1612.26 1414.8 1611.9 1413.52 1611.22 1412.4C1610.53 1411.29 1609.56 1410.38 1608.39 1409.78C1607.23 1409.19 1605.92 1408.92 1604.61 1409.02C1603.31 1409.12 1602.06 1409.58 1600.99 1410.34L1559.53 1440.18C1558.62 1440.84 1557.87 1441.7 1557.35 1442.71C1556.84 1443.71 1556.57 1444.83 1556.57 1445.96C1556.57 1447.08 1556.84 1448.2 1557.36 1449.2C1557.88 1450.2 1558.62 1451.07 1559.54 1451.73Z" fill="#4BBC89"/>
<path d="M1575.99 1440.71C1579.79 1438.39 1582.34 1435.64 1581.68 1434.56C1581.02 1433.48 1577.41 1434.48 1573.6 1436.8C1569.8 1439.12 1567.25 1441.87 1567.91 1442.95C1568.57 1444.03 1572.18 1443.03 1575.99 1440.71Z" fill="white"/>
<path fill-rule="evenodd" clip-rule="evenodd" d="M1918.23 652.599L1925.26 666.983C1926.8 669.836 1923.79 671.444 1922.44 672.167C1922.34 672.223 1922.24 672.275 1922.16 672.32C1921.64 676.753 1917.61 682 1912.75 682C1907.47 682 1903.23 675.849 1903.23 671.235C1903.23 670.421 1903.44 669.787 1903.65 669.154C1903.65 667.707 1902.1 666.983 1900.75 666.983C1899.3 666.983 1897.86 667.616 1897.86 669.154C1898.17 669.787 1898.27 670.421 1898.27 671.235C1898.27 675.849 1894.03 682 1888.75 682C1883.89 682 1879.96 676.753 1879.34 672.32L1877.9 671.506C1876.24 670.511 1875.52 668.611 1876.34 666.983L1883.48 652.599C1883.69 652.147 1884.31 651.876 1884.82 652.057C1885.34 652.238 1885.55 652.78 1885.34 653.233L1878.21 667.616C1877.69 668.521 1878 669.426 1879.34 670.149C1879.86 666.35 1883.89 665.264 1888.75 665.264C1891.65 665.264 1894.24 665.626 1895.99 666.712C1897.03 665.355 1898.79 664.45 1900.85 664.45C1902.92 664.45 1904.78 665.355 1905.72 666.712C1907.47 665.626 1910.06 665.264 1912.95 665.264C1917.82 665.264 1921.85 666.35 1922.37 670.149C1923.71 669.426 1923.92 668.521 1923.5 667.616L1916.37 653.233C1916.16 652.78 1916.37 652.328 1916.88 652.147C1917.4 651.966 1918.02 652.147 1918.23 652.599Z" fill="#5590CC"/>
<g filter="url(#filter2_d)">
<path d="M-92.4945 1717.05L-118.145 1578.88H109.855L97.5055 1709.49C97.5055 1709.49 69.9555 1741.88 10.1055 1741.88C-49.7445 1741.88 -92.4945 1717.05 -92.4945 1717.05Z" fill="#7F7F7F"/>
<path d="M69.6816 1605.95L109.855 1581.88L99.3793 1713.04L65.8555 1732.88L69.6816 1605.95Z" fill="#4F4F4F" fill-opacity="0.2"/>
<path d="M-115.898 1554.17C-115.979 1569.33 -106.46 1585.88 -84.3006 1599.25C-62.1372 1612.63 -32.5529 1619.54 -2.5174 1619.54C27.5158 1619.55 57.1875 1612.63 79.5165 1599.24C101.856 1585.84 111.59 1569.26 111.679 1554.07C111.768 1538.9 102.255 1522.36 80.0686 1508.98C57.8759 1495.6 28.2906 1488.68 -1.73798 1488.69C-31.7641 1488.69 -61.4256 1495.61 -83.7618 1509L-115.898 1554.17ZM-115.898 1554.17C-115.817 1538.98 -106.099 1522.4 -83.7625 1509L-115.898 1554.17Z" fill="#443324" stroke="#564F4F" stroke-width="15.1719"/>
<path d="M-19.4442 1469.89C-25.1337 1435.11 13.4602 1386.12 74.8684 1373C74.8684 1373 100.964 1495.21 42.3244 1502.45C42.3244 1502.45 -5.50504 1506.85 -2.81203 1500.92C-2.81203 1500.92 -15.3099 1495.34 -19.4442 1469.89Z" fill="#5AA85C"/>
<path d="M-3.5874 1499.49C-3.5874 1499.49 -3.11342 1462.68 52.6811 1404.99C52.6811 1404.99 6.55872 1435.62 -6.98218 1497.92L-3.5874 1499.49Z" fill="#478949"/>
<path d="M21.9004 1494.09C27.5898 1459.31 -11.0036 1410.32 -72.4117 1397.2C-72.4117 1397.2 -98.5071 1519.4 -39.8678 1526.65C-39.8678 1526.65 7.96119 1531.05 5.26818 1525.11C5.26818 1525.11 17.7661 1519.54 21.9004 1494.09Z" fill="#5AA85C"/>
<path d="M6.04605 1523.69C6.04605 1523.69 5.57159 1486.88 -50.2419 1429.19C-50.2419 1429.19 -4.11904 1459.82 9.44083 1522.12L6.04605 1523.69Z" fill="#478949"/>
<path d="M4.88853 1542.68C4.88853 1542.68 -31.0499 1480.87 -66.2296 1478.94C-101.409 1477 -151.951 1506.38 -169 1566.82C-169 1566.82 -48.725 1600.73 -37.7064 1542.68C-37.7064 1542.68 -30.2344 1495.27 -36.36 1497.52C-36.36 1497.52 -20.3535 1507.01 3.18188 1543.82C3.18188 1543.82 3.99718 1549.62 4.88853 1542.68Z" fill="#71BF76"/>
<path d="M2.63184 1545.53C2.63184 1545.53 38.5702 1483.72 73.75 1481.78C108.93 1479.85 159.471 1509.23 176.52 1569.67C176.52 1569.67 56.2454 1603.58 45.2268 1545.53C45.2268 1545.53 37.7737 1498.11 43.8804 1500.39C43.8804 1500.39 27.8739 1509.87 4.33849 1546.66C4.33849 1546.66 3.54215 1552.47 2.63184 1545.53Z" fill="#71BF76"/>
<path d="M45.2271 1499.51C45.2271 1499.51 81.9997 1497.61 143.161 1549.6C143.161 1549.6 109.631 1505.54 46.4406 1496.02L45.2271 1499.51Z" fill="#478949"/>
<path d="M42.6107 1483.53C73.8079 1499.92 89.8332 1560.17 63.472 1617.14C63.472 1617.14 -49.8998 1564.61 -20.4854 1513.36C-20.4854 1513.36 4.73778 1472.48 7.86698 1478.2C7.79112 1478.2 19.796 1471.55 42.6107 1483.53Z" fill="#71BF76"/>
<path d="M9.42139 1478.42C9.42139 1478.42 38.5704 1500.91 51.144 1580.19C51.144 1580.19 54.349 1524.91 12.6263 1476.6L9.42139 1478.42Z" fill="#478949"/>
</g>
<path d="M1363.5 30.4408C1364.88 30.371 1380.37 31.2914 1381.73 31.4663C1412.66 35.4316 1429.14 114.581 1430.56 142.745C1432.05 172.148 1402.14 182.136 1369.43 183.794C1336.73 185.451 1306.91 176.127 1305.42 146.723C1303.99 118.589 1327.39 37.9227 1358 30.7193C1359.82 30.4988 1361.66 30.4057 1363.5 30.4408Z" fill="#3A191D"/>
<path d="M1296.04 85.8704L1446.12 91.5553C1448.33 91.6392 1450.5 92.1979 1452.48 93.1936C1454.46 94.1893 1456.2 95.5987 1457.58 97.3263C1458.97 99.054 1459.97 101.059 1460.51 103.207C1461.06 105.354 1461.13 107.593 1460.73 109.772L1446.76 186.361C1446.12 189.91 1444.25 193.121 1441.48 195.437C1438.72 197.753 1435.23 199.029 1431.62 199.042L1299.71 199.542C1295.74 199.557 1291.91 198.041 1289.02 195.309C1286.14 192.577 1284.42 188.838 1284.22 184.87L1280.02 102.095C1279.91 99.9536 1280.25 97.8126 1281.01 95.8087C1281.78 93.8048 1282.95 91.9818 1284.46 90.4557C1285.96 88.9296 1287.77 87.7338 1289.77 86.9444C1291.76 86.155 1293.9 85.7893 1296.04 85.8704Z" fill="#762E40"/>
<path d="M1365.15 99.2543C1397.85 97.5967 1425.43 117.154 1426.73 142.937C1428.04 168.719 1402.59 190.963 1369.88 192.62C1337.17 194.277 1309.6 174.721 1308.3 148.939C1306.99 123.156 1332.44 100.912 1365.15 99.2543Z" fill="#EFE095" stroke="#3A191D" stroke-width="4.68519" stroke-miterlimit="10"/>
<path d="M1364.54 45.7585L1359.09 29.222V3.63281H1385.42V28.7607L1378.98 45.7744L1364.54 45.7585Z" fill="#5F242F"/>
<path d="M1367.17 14.6455C1366.85 14.8971 1366.45 15.0379 1366.04 15.0472C1365.78 15.0473 1365.52 14.9963 1365.28 14.897C1365.04 14.7978 1364.83 14.6524 1364.64 14.4689C1364.46 14.2855 1364.31 14.0678 1364.22 13.8281C1364.12 13.5885 1364.06 13.3316 1364.06 13.0722C1364.07 12.6607 1364.22 12.2631 1364.47 11.9375L1367.17 14.6455Z" fill="white"/>
<path d="M1366.04 11.0938C1366.3 11.0937 1366.56 11.1447 1366.8 11.244C1367.04 11.3432 1367.25 11.4886 1367.44 11.672C1367.62 11.8554 1367.77 12.0731 1367.87 12.3127C1367.96 12.5523 1368.02 12.8092 1368.02 13.0685C1368.01 13.4805 1367.87 13.8786 1367.61 14.2044L1364.9 11.4962C1365.23 11.2439 1365.63 11.1029 1366.04 11.0938Z" fill="white"/>
<path d="M1374.47 38.948C1373.81 39.5082 1372.96 39.7992 1372.1 39.7633C1371.23 39.7274 1370.41 39.3671 1369.8 38.7541C1369.18 38.1411 1368.82 37.32 1368.79 36.4539C1368.75 35.5877 1369.04 34.7397 1369.6 34.0781L1374.47 38.948Z" fill="white"/>
<path d="M1372.26 32.8164C1372.92 32.8133 1373.56 32.9996 1374.12 33.3533C1374.68 33.7069 1375.13 34.2131 1375.4 34.8118C1375.68 35.4105 1375.79 36.0767 1375.7 36.7315C1375.61 37.3862 1375.34 38.002 1374.91 38.5059L1370.04 33.636C1370.66 33.1098 1371.44 32.8195 1372.26 32.8164Z" fill="white"/>
<path d="M1412.05 127.578C1410.07 132.502 1407.93 137.353 1405.77 142.192C1403.61 147.033 1401.32 151.814 1399.11 156.627C1396.78 161.386 1394.51 166.175 1392.12 170.907C1389.73 175.639 1387.32 180.36 1384.75 185.007C1386.73 180.081 1388.87 175.231 1391.04 170.391C1393.2 165.552 1395.48 160.769 1397.7 155.956C1400.03 151.199 1402.3 146.408 1404.69 141.677C1407.08 136.947 1409.49 132.226 1412.05 127.578Z" fill="white"/>
<path d="M1398.74 116.902C1396.97 122.733 1395.04 128.506 1393.09 134.27C1391.14 140.036 1389.06 145.753 1387.05 151.496C1384.92 157.197 1382.86 162.921 1380.67 168.6C1378.49 174.279 1376.27 179.949 1373.9 185.56C1375.66 179.728 1377.59 173.956 1379.54 168.191C1381.49 162.427 1383.57 156.708 1385.58 150.966C1387.72 145.267 1389.77 139.541 1391.97 133.863C1394.15 128.184 1396.37 122.513 1398.74 116.902Z" fill="white"/>
<path d="M1377.36 112.32C1376.68 118.341 1375.83 124.334 1374.96 130.322C1374.1 136.311 1373.09 142.276 1372.16 148.255C1371.11 154.212 1370.12 160.181 1369 166.128C1367.89 172.076 1366.74 178.018 1365.43 183.933C1366.1 177.912 1366.95 171.919 1367.82 165.931C1368.69 159.943 1369.69 153.976 1370.62 147.998C1371.68 142.041 1372.66 136.072 1373.78 130.125C1374.9 124.178 1376.04 118.235 1377.36 112.32Z" fill="white"/>
<path d="M1353.78 117.09C1354.09 122.639 1354.24 128.187 1354.35 133.736C1354.47 139.285 1354.45 144.833 1354.5 150.381C1354.43 155.93 1354.42 161.478 1354.29 167.026C1354.15 172.574 1353.99 178.122 1353.66 183.67C1353.34 178.121 1353.2 172.573 1353.09 167.024C1352.97 161.475 1352.99 155.927 1352.94 150.378C1353.02 144.831 1353.01 139.282 1353.15 133.734C1353.29 128.185 1353.45 122.637 1353.78 117.09Z" fill="white"/>
<path d="M1332.1 124.387C1333.43 129.171 1334.6 133.99 1335.74 138.814C1336.88 143.637 1337.89 148.489 1338.97 153.326C1339.93 158.188 1340.96 163.037 1341.85 167.912C1342.75 172.788 1343.62 177.669 1344.32 182.586C1342.99 177.803 1341.82 172.984 1340.68 168.16C1339.54 163.336 1338.53 158.484 1337.45 153.647C1336.49 148.784 1335.46 143.936 1334.57 139.06C1333.67 134.185 1332.8 129.303 1332.1 124.387Z" fill="white"/>
<path d="M1318.64 139.562C1319.83 142.516 1320.85 145.516 1321.85 148.524C1322.87 151.527 1323.77 154.564 1324.66 157.601C1325.52 160.649 1326.38 163.697 1327.12 166.779C1327.88 169.856 1328.62 172.941 1329.18 176.073C1327.99 173.121 1326.97 170.12 1325.97 167.112C1324.96 164.11 1324.06 161.072 1323.16 158.034C1322.3 154.986 1321.45 151.938 1320.7 148.856C1319.95 145.779 1319.21 142.694 1318.64 139.562Z" fill="white"/>
<path d="M1419.2 137.586C1410.58 139.134 1401.94 140.513 1393.29 141.866L1367.31 145.733L1341.29 149.243C1332.6 150.348 1323.92 151.428 1315.2 152.336C1323.82 150.785 1332.47 149.407 1341.12 148.054L1367.09 144.189L1393.12 140.681C1401.8 139.576 1410.49 138.496 1419.2 137.586Z" fill="white"/>
<path d="M1416.13 153.148C1407.93 154.411 1399.72 155.504 1391.5 156.571C1383.28 157.641 1375.05 158.572 1366.83 159.58L1342.11 162.23C1333.87 163.048 1325.62 163.84 1317.35 164.461C1325.55 163.196 1333.76 162.104 1341.98 161.036L1366.65 158.03C1374.89 157.152 1383.12 156.197 1391.37 155.382C1399.61 154.564 1407.86 153.771 1416.13 153.148Z" fill="white"/>
<path d="M1403.81 168.715C1397.63 169.649 1391.42 170.412 1385.21 171.15C1379.01 171.891 1372.79 172.492 1366.57 173.17C1360.35 173.723 1354.13 174.342 1347.9 174.832C1341.67 175.321 1335.43 175.783 1329.18 176.073C1335.37 175.137 1341.57 174.374 1347.78 173.636C1353.99 172.898 1360.21 172.292 1366.42 171.618C1372.65 171.07 1378.87 170.445 1385.1 169.96C1391.33 169.471 1397.56 169.008 1403.81 168.715Z" fill="white"/>
<path d="M1406.59 120.613C1399.12 122.519 1391.61 124.257 1384.09 125.969C1376.58 127.685 1369.03 129.264 1361.5 130.919C1353.95 132.45 1346.41 134.045 1338.84 135.514C1331.28 136.983 1323.7 138.425 1316.09 139.697C1323.57 137.79 1331.08 136.052 1338.59 134.339C1346.11 132.625 1353.65 131.042 1361.18 129.392C1368.74 127.866 1376.27 126.264 1383.84 124.799C1391.41 123.331 1398.98 121.888 1406.59 120.613Z" fill="white"/>
<path d="M1377.62 11.0938C1378.14 11.0941 1378.64 11.3023 1379.01 11.6726C1379.38 12.0429 1379.59 12.5449 1379.59 13.0685C1379.58 13.4801 1379.44 13.8779 1379.19 14.2034L1376.48 11.4962C1376.81 11.244 1377.21 11.103 1377.62 11.0938Z" fill="white"/>
<path d="M1378.75 14.6448C1378.43 14.8966 1378.03 15.0376 1377.62 15.0472C1377.36 15.0474 1377.1 14.9965 1376.86 14.8973C1376.62 14.7982 1376.4 14.6527 1376.22 14.4693C1376.04 14.2859 1375.89 14.0681 1375.79 13.8283C1375.69 13.5886 1375.64 13.3317 1375.64 13.0722C1375.65 12.6607 1375.79 12.2631 1376.04 11.9375L1378.75 14.6448Z" fill="white"/>
<g style="mix-blend-mode:hard-light" opacity="0.2">
<path d="M1627 635.091L1423.52 120.35L1423.46 120.297C1421.04 107.676 1393.96 98.2286 1361.96 99.0497C1331 99.8432 1306.56 109.955 1305.08 122.089L1305.07 122.097L1305.07 122.147C1304.99 122.835 1304.98 123.524 1305.04 124.212C1305.07 124.475 1305.12 124.734 1305.17 124.994L1090.03 635.091C1090.03 649.942 1170.31 635.091 1336 635.091C1336 635.091 1627 649.942 1627 635.091Z" fill="#EAE28A"/>
</g>
<path d="M2298.76 29.808C2297.38 29.7382 2281.88 30.6586 2280.52 30.8335C2249.59 34.7988 2233.12 113.948 2231.69 142.112C2230.2 171.515 2260.11 181.503 2292.82 183.161C2325.53 184.819 2355.34 175.494 2356.83 146.09C2358.26 117.956 2334.86 37.2899 2304.25 30.0865C2302.43 29.866 2300.59 29.7729 2298.76 29.808Z" fill="#3A191D"/>
<path d="M2366.21 85.2377L2216.14 90.9226C2213.92 91.0065 2211.75 91.5652 2209.78 92.5609C2207.8 93.5566 2206.06 94.966 2204.67 96.6936C2203.28 98.4212 2202.28 100.427 2201.74 102.574C2201.2 104.721 2201.12 106.96 2201.52 109.14L2215.49 185.729C2216.14 189.278 2218.01 192.489 2220.77 194.805C2223.54 197.121 2227.03 198.397 2230.63 198.411L2362.55 198.911C2366.52 198.926 2370.35 197.41 2373.23 194.677C2376.12 191.945 2377.84 188.207 2378.04 184.238L2382.23 101.464C2382.34 99.3216 2382 97.1804 2381.24 95.1762C2380.48 93.172 2379.3 91.3488 2377.8 89.8226C2376.29 88.2964 2374.48 87.1006 2372.49 86.3112C2370.49 85.5219 2368.36 85.1563 2366.21 85.2377Z" fill="#762E40"/>
<path d="M2297.1 98.6215C2264.4 96.9639 2236.83 116.522 2235.52 142.304C2234.21 168.087 2259.67 190.33 2292.37 191.987C2325.08 193.644 2352.65 174.088 2353.96 148.306C2355.26 122.523 2329.81 100.279 2297.1 98.6215Z" fill="#EFE095" stroke="#3A191D" stroke-width="4.68519" stroke-miterlimit="10"/>
<path d="M2297.71 45.1257L2303.16 28.5892V3H2276.83V28.1279L2283.27 45.1416L2297.71 45.1257Z" fill="#5F242F"/>
<path d="M2295.08 14.0127C2295.4 14.2643 2295.8 14.4051 2296.21 14.4144C2296.47 14.4145 2296.73 14.3635 2296.97 14.2642C2297.21 14.165 2297.42 14.0195 2297.61 13.8361C2297.79 13.6527 2297.94 13.435 2298.04 13.1953C2298.14 12.9556 2298.19 12.6988 2298.19 12.4394C2298.18 12.028 2298.04 11.6303 2297.78 11.3047L2295.08 14.0127Z" fill="white"/>
<path d="M2296.21 10.4609C2295.95 10.4609 2295.7 10.5119 2295.46 10.6111C2295.22 10.7104 2295 10.8558 2294.82 11.0392C2294.63 11.2226 2294.49 11.4403 2294.39 11.6799C2294.29 11.9195 2294.24 12.1763 2294.24 12.4357C2294.25 12.8476 2294.39 13.2457 2294.64 13.5716L2297.35 10.8634C2297.02 10.6111 2296.62 10.47 2296.21 10.4609Z" fill="white"/>
<path d="M2287.78 38.3152C2288.44 38.8755 2289.29 39.1666 2290.16 39.1308C2291.02 39.0949 2291.84 38.7347 2292.46 38.1216C2293.07 37.5085 2293.43 36.6873 2293.46 35.8211C2293.5 34.9548 2293.21 34.1068 2292.65 33.4453L2287.78 38.3152Z" fill="white"/>
<path d="M2290 32.1836C2289.33 32.1805 2288.69 32.3668 2288.13 32.7205C2287.57 33.0741 2287.13 33.5803 2286.85 34.179C2286.57 34.7777 2286.47 35.4439 2286.55 36.0986C2286.64 36.7534 2286.92 37.3692 2287.34 37.8731L2292.21 33.0032C2291.59 32.477 2290.81 32.1866 2290 32.1836Z" fill="white"/>
<path d="M2250.2 126.945C2252.76 131.593 2255.17 136.314 2257.56 141.046C2259.95 145.777 2262.22 150.567 2264.55 155.325C2266.77 160.137 2269.05 164.92 2271.22 169.76C2273.38 174.599 2275.52 179.45 2277.5 184.375C2274.93 179.729 2272.52 175.007 2270.13 170.276C2267.74 165.544 2265.47 160.755 2263.14 155.995C2260.93 151.181 2258.64 146.401 2256.48 141.56C2254.32 136.72 2252.18 131.87 2250.2 126.945Z" fill="white"/>
<path d="M2263.51 116.27C2265.89 121.881 2268.1 127.552 2270.28 133.231C2272.48 138.908 2274.53 144.634 2276.67 150.333C2278.68 156.075 2280.75 161.795 2282.71 167.558C2284.66 173.322 2286.59 179.095 2288.35 184.927C2285.98 179.316 2283.77 173.646 2281.58 167.967C2279.39 162.289 2277.33 156.564 2275.2 150.864C2273.19 145.12 2271.11 139.403 2269.16 133.637C2267.21 127.873 2265.28 122.1 2263.51 116.27Z" fill="white"/>
<path d="M2284.9 111.688C2286.21 117.602 2287.35 123.545 2288.47 129.492C2289.59 135.439 2290.57 141.409 2291.63 147.366C2292.56 153.343 2293.56 159.31 2294.43 165.298C2295.3 171.286 2296.15 177.279 2296.82 183.3C2295.51 177.386 2294.37 171.443 2293.25 165.496C2292.13 159.548 2291.14 153.579 2290.09 147.622C2289.16 141.644 2288.15 135.678 2287.29 129.689C2286.42 123.701 2285.57 117.708 2284.9 111.688Z" fill="white"/>
<path d="M2308.47 116.457C2308.8 122.004 2308.96 127.553 2309.1 133.101C2309.24 138.648 2309.24 144.198 2309.31 149.746C2309.26 155.294 2309.28 160.843 2309.16 166.391C2309.05 171.94 2308.91 177.488 2308.59 183.037C2308.26 177.49 2308.1 171.941 2307.96 166.393C2307.83 160.845 2307.82 155.297 2307.75 149.749C2307.81 144.2 2307.78 138.652 2307.9 133.103C2308.02 127.555 2308.16 122.006 2308.47 116.457Z" fill="white"/>
<path d="M2330.15 123.754C2329.45 128.67 2328.58 133.551 2327.68 138.427C2326.79 143.304 2325.76 148.151 2324.8 153.014C2323.73 157.852 2322.71 162.703 2321.57 167.527C2320.43 172.352 2319.26 177.171 2317.93 181.954C2318.63 177.037 2319.5 172.156 2320.4 167.28C2321.29 162.404 2322.32 157.556 2323.28 152.693C2324.36 147.857 2325.37 143.004 2326.51 138.181C2327.65 133.356 2328.82 128.538 2330.15 123.754Z" fill="white"/>
<path d="M2343.61 138.93C2343.04 142.062 2342.31 145.146 2341.55 148.223C2340.81 151.305 2339.95 154.353 2339.09 157.401C2338.19 160.439 2337.3 163.476 2336.28 166.479C2335.28 169.487 2334.26 172.488 2333.07 175.44C2333.64 172.308 2334.37 169.224 2335.13 166.146C2335.87 163.064 2336.73 160.016 2337.59 156.969C2338.49 153.932 2339.38 150.895 2340.4 147.891C2341.4 144.884 2342.42 141.883 2343.61 138.93Z" fill="white"/>
<path d="M2243.05 136.953C2251.76 137.863 2260.45 138.943 2269.13 140.049L2295.16 143.556L2321.13 147.421C2329.78 148.775 2338.43 150.153 2347.05 151.703C2338.34 150.795 2329.65 149.715 2320.96 148.61L2294.94 145.1L2268.97 141.232C2260.32 139.879 2251.67 138.501 2243.05 136.953Z" fill="white"/>
<path d="M2246.12 152.516C2254.39 153.138 2262.64 153.931 2270.89 154.75C2279.13 155.565 2287.36 156.519 2295.6 157.397L2320.28 160.403C2328.49 161.471 2336.71 162.563 2344.9 163.829C2336.63 163.208 2328.38 162.415 2320.14 161.597L2295.42 158.947C2287.2 157.939 2278.97 157.008 2270.75 155.938C2262.53 154.871 2254.32 153.778 2246.12 152.516Z" fill="white"/>
<path d="M2258.44 168.082C2264.69 168.375 2270.92 168.838 2277.16 169.327C2283.39 169.812 2289.61 170.437 2295.83 170.985C2302.05 171.659 2308.27 172.266 2314.47 173.003C2320.68 173.74 2326.88 174.505 2333.07 175.441C2326.82 175.15 2320.59 174.687 2314.35 174.199C2308.12 173.711 2301.9 173.09 2295.68 172.538C2289.47 171.86 2283.24 171.258 2277.04 170.517C2270.83 169.779 2264.63 169.016 2258.44 168.082Z" fill="white"/>
<path d="M2255.66 119.98C2263.27 121.256 2270.84 122.698 2278.41 124.166C2285.98 125.631 2293.51 127.233 2301.07 128.759C2308.6 130.41 2316.14 131.994 2323.66 133.706C2331.17 135.418 2338.68 137.157 2346.16 139.065C2338.55 137.792 2330.97 136.349 2323.41 134.881C2315.84 133.414 2308.3 131.816 2300.75 130.286C2293.22 128.631 2285.68 127.053 2278.16 125.336C2270.65 123.624 2263.13 121.886 2255.66 119.98Z" fill="white"/>
<path d="M2284.63 10.4609C2284.11 10.4613 2283.61 10.6694 2283.24 11.0397C2282.87 11.41 2282.66 11.9121 2282.66 12.4357C2282.67 12.8473 2282.81 13.245 2283.06 13.5706L2285.77 10.8634C2285.44 10.6112 2285.05 10.4701 2284.63 10.4609Z" fill="white"/>
<path d="M2283.5 14.0119C2283.82 14.2639 2284.22 14.4049 2284.63 14.4144C2284.89 14.4146 2285.15 14.3636 2285.39 14.2644C2285.63 14.1653 2285.85 14.0199 2286.03 13.8364C2286.21 13.653 2286.36 13.4352 2286.46 13.1955C2286.56 12.9558 2286.61 12.6988 2286.61 12.4394C2286.6 12.0279 2286.46 11.6303 2286.21 11.3047L2283.5 14.0119Z" fill="white"/>
<g style="mix-blend-mode:hard-light" opacity="0.2">
<path d="M1884.03 643.337L2235.48 125.383L2235.54 125.317C2237.96 109.721 2265.04 98.0468 2297.04 99.0614C2328 100.042 2352.44 112.538 2353.92 127.532L2353.93 127.541L2353.93 127.603C2354.01 128.453 2354.02 129.304 2353.96 130.154C2353.93 130.479 2353.88 130.8 2353.83 131.121L2502 642.5C2502 660.851 2041.69 651 1876 651C1847.5 710 1878.79 645.798 1884.03 643.337Z" fill="#EAE28A"/>
</g>
</g>
<defs>
<filter id="filter0_d" x="0" y="0" width="2598.6" height="1950" filterUnits="userSpaceOnUse" color-interpolation-filters="sRGB">
<feFlood flood-opacity="0" result="BackgroundImageFix"/>
<feColorMatrix in="SourceAlpha" type="matrix" values="0 0 0 0 0 0 0 0 0 0 0 0 0 0 0 0 0 0 127 0"/>
<feOffset dy="4"/>
<feGaussianBlur stdDeviation="2"/>
<feColorMatrix type="matrix" values="0 0 0 0 0 0 0 0 0 0 0 0 0 0 0 0 0 0 0.25 0"/>
<feBlend mode="normal" in2="BackgroundImageFix" result="effect1_dropShadow"/>
<feBlend mode="normal" in="SourceGraphic" in2="effect1_dropShadow" result="shape"/>
</filter>
<filter id="filter1_d" x="163.305" y="-5.69141" width="608.771" height="485.503" filterUnits="userSpaceOnUse" color-interpolation-filters="sRGB">
<feFlood flood-opacity="0" result="BackgroundImageFix"/>
<feColorMatrix in="SourceAlpha" type="matrix" values="0 0 0 0 0 0 0 0 0 0 0 0 0 0 0 0 0 0 127 0"/>
<feOffset dx="37.9297" dy="7.58594"/>
<feColorMatrix type="matrix" values="0 0 0 0 0 0 0 0 0 0 0 0 0 0 0 0 0 0 0.15 0"/>
<feBlend mode="normal" in2="BackgroundImageFix" result="effect1_dropShadow"/>
<feBlend mode="normal" in="SourceGraphic" in2="effect1_dropShadow" result="shape"/>
</filter>
<filter id="filter2_d" x="-169" y="1373" width="383.45" height="376.461" filterUnits="userSpaceOnUse" color-interpolation-filters="sRGB">
<feFlood flood-opacity="0" result="BackgroundImageFix"/>
<feColorMatrix in="SourceAlpha" type="matrix" values="0 0 0 0 0 0 0 0 0 0 0 0 0 0 0 0 0 0 127 0"/>
<feOffset dx="37.9297" dy="7.58594"/>
<feColorMatrix type="matrix" values="0 0 0 0 0 0 0 0 0 0 0 0 0 0 0 0 0 0 0.15 0"/>
<feBlend mode="normal" in2="BackgroundImageFix" result="effect1_dropShadow"/>
<feBlend mode="normal" in="SourceGraphic" in2="effect1_dropShadow" result="shape"/>
</filter>
<clipPath id="clip0">
<rect width="2590.6" height="1942" fill="white" transform="translate(4)"/>
</clipPath>
</defs>
</svg>
