<svg width="742" height="562" viewBox="0 0 742 562" fill="none" xmlns="http://www.w3.org/2000/svg">
<path d="M714.932 4.22461H23.6266C11.0731 4.22461 0.896484 14.4012 0.896484 26.9547V538.393C0.896484 550.946 11.0731 561.123 23.6266 561.123H714.932C727.485 561.123 737.662 550.946 737.662 538.393V26.9547C737.662 14.4012 727.485 4.22461 714.932 4.22461Z" fill="#294688"/>
<path d="M718.322 0.722656H33.6281C21.0746 0.722656 10.8979 10.8993 10.8979 23.4528V531.405C10.8979 543.959 21.0746 554.135 33.6281 554.135H718.322C730.876 554.135 741.052 543.959 741.052 531.405V23.4528C741.052 10.8993 730.876 0.722656 718.322 0.722656Z" fill="#4166AF"/>
<path d="M391.942 161.805H368.003V200.96L375.233 272.587H403.986L403.007 186.005C392.775 178.777 391.61 166.118 391.942 161.805Z" fill="#64BE6A"/>
<path d="M368.984 161.8H344.975C345.306 166.106 343.191 179.102 333 186.337V273.253H361.753L368.984 201.619V161.8Z" fill="#64BE6A"/>
<path d="M333 186.733C343.128 179.321 346.395 167.076 345.836 161.8H333V186.733Z" fill="#2B92EA"/>
<path d="M403.21 186.738C393.082 179.326 389.815 167.081 390.374 161.805H403.21V186.738Z" fill="#2B92EA"/>
<rect x="333" y="272.2" width="28.5922" height="4.79998" fill="#55B05B"/>
<rect x="375.412" y="272.2" width="28.5922" height="4.79998" fill="#55B05B"/>
<path d="M333 157H403.326V161.8H333V157Z" fill="#55B05B"/>
<path opacity="0.8" d="M729.946 28.1297C731.081 26.2683 726.687 21.5216 720.134 17.5278C713.58 13.5339 707.348 11.8053 706.214 13.6668C705.079 15.5282 709.472 20.2748 716.026 24.2686C722.579 28.2624 728.812 29.9912 729.946 28.1297Z" fill="white"/>
<path d="M236.361 102.72C235.128 102.754 233.812 102.787 232.412 102.82C231.012 102.854 229.679 102.887 228.413 102.92L216.416 80.7259C216.516 84.425 216.616 88.0907 216.716 91.7231C216.816 95.3555 216.899 98.9879 216.966 102.62L207.918 103.62L207.668 64.78L216.066 61.4808L227.563 85.0248L226.963 63.0804C228.363 63.0137 229.796 62.9638 231.262 62.9304C232.729 62.8638 234.262 62.7971 235.861 62.7305L236.361 102.72ZM251.703 102.77C250.27 102.804 248.787 102.82 247.254 102.82C245.754 102.854 244.254 102.887 242.755 102.92L241.205 62.7305H250.603L251.703 102.77ZM280.455 73.5777C278.722 71.4783 276.689 70.4285 274.356 70.4285C274.19 70.4285 274.006 70.4452 273.806 70.4785C273.64 70.4785 273.456 70.4952 273.256 70.5285C272.257 70.6618 271.274 71.0617 270.307 71.7282C269.374 72.3947 268.558 73.3111 267.858 74.4775C267.158 75.6439 266.608 77.0602 266.208 78.7264C265.842 80.3927 265.692 82.3088 265.758 84.475C265.825 86.2079 266.025 87.7241 266.358 89.0238C266.725 90.3235 267.191 91.4065 267.758 92.273C268.358 93.1394 269.041 93.8059 269.807 94.2725C270.574 94.739 271.407 95.0056 272.307 95.0723C273.906 95.0723 275.323 94.789 276.556 94.2225C277.789 93.6226 278.888 92.6729 279.855 91.3732L284.154 98.0215C282.754 99.921 281.004 101.354 278.905 102.32C276.806 103.287 274.606 103.77 272.307 103.77C270.44 103.77 268.608 103.387 266.808 102.62C265.042 101.854 263.459 100.704 262.059 99.1712C260.66 97.605 259.527 95.6388 258.66 93.2727C257.794 90.8733 257.36 88.0574 257.36 84.8249C257.36 82.0922 257.66 79.3596 258.26 76.627C258.86 73.861 259.826 71.3783 261.159 69.1788C262.526 66.9461 264.292 65.1465 266.458 63.7802C268.658 62.3806 271.34 61.6808 274.506 61.6808C276.439 61.6808 278.322 62.0473 280.155 62.7805C281.988 63.4803 283.704 64.4967 285.303 65.8297L280.455 73.5777ZM306.911 77.3768C306.978 78.6431 307.044 79.9761 307.111 81.3757C307.211 82.7421 307.294 84.0917 307.361 85.4247C305.295 85.5913 303.195 85.758 301.063 85.9246C298.93 86.0912 296.814 86.2412 294.714 86.3745L294.514 94.8223L310.36 93.8726C310.527 95.3055 310.66 96.7552 310.76 98.2215C310.893 99.6878 310.993 101.121 311.06 102.52C306.961 102.754 302.796 102.954 298.563 103.12C294.331 103.32 290.132 103.503 285.966 103.67L286.816 62.0807L310.36 62.7305C310.294 63.9968 310.244 65.2798 310.21 66.5795C310.21 67.8792 310.194 69.1788 310.16 70.4785L295.214 69.9287L294.864 77.8766L306.911 77.3768ZM350.847 73.5777C349.114 71.4783 347.081 70.4285 344.748 70.4285C344.582 70.4285 344.398 70.4452 344.199 70.4785C344.032 70.4785 343.849 70.4952 343.649 70.5285C342.649 70.6618 341.666 71.0617 340.699 71.7282C339.766 72.3947 338.95 73.3111 338.25 74.4775C337.55 75.6439 337 77.0602 336.6 78.7264C336.234 80.3927 336.084 82.3088 336.151 84.475C336.217 86.2079 336.417 87.7241 336.75 89.0238C337.117 90.3235 337.584 91.4065 338.15 92.273C338.75 93.1394 339.433 93.8059 340.2 94.2725C340.966 94.739 341.799 95.0056 342.699 95.0723C344.299 95.0723 345.715 94.789 346.948 94.2225C348.181 93.6226 349.281 92.6729 350.247 91.3732L354.546 98.0215C353.146 99.921 351.397 101.354 349.297 102.32C347.198 103.287 344.998 103.77 342.699 103.77C340.833 103.77 339 103.387 337.2 102.62C335.434 101.854 333.851 100.704 332.452 99.1712C331.052 97.605 329.919 95.6388 329.052 93.2727C328.186 90.8733 327.753 88.0574 327.753 84.8249C327.753 82.0922 328.053 79.3596 328.652 76.627C329.252 73.861 330.219 71.3783 331.552 69.1788C332.918 66.9461 334.684 65.1465 336.85 63.7802C339.05 62.3806 341.733 61.6808 344.898 61.6808C346.831 61.6808 348.714 62.0473 350.547 62.7805C352.38 63.4803 354.096 64.4967 355.696 65.8297L350.847 73.5777ZM384.951 102.67L376.404 102.92L375.804 87.4242L365.606 87.9241L366.106 102.52L357.109 103.62C356.975 96.9218 356.842 90.1902 356.709 83.4252C356.575 76.6603 356.442 69.9287 356.309 63.2304L365.107 62.5805L365.506 79.3263L375.654 78.5765L374.904 62.7305H383.852L384.951 102.67ZM403.547 94.0725C403.68 94.1058 403.813 94.1225 403.947 94.1225C404.08 94.1225 404.213 94.1225 404.347 94.1225C405.38 94.1225 406.296 93.8559 407.096 93.3227C407.929 92.7562 408.645 92.0064 409.245 91.0733C409.845 90.1402 410.328 89.0738 410.695 87.8741C411.095 86.6411 411.345 85.3747 411.445 84.0751C411.578 82.6088 411.545 81.1425 411.345 79.6762C411.145 78.1766 410.778 76.8102 410.245 75.5772C409.712 74.3442 408.995 73.3111 408.096 72.478C407.229 71.6116 406.179 71.0617 404.946 70.8284C404.78 70.7951 404.63 70.7784 404.497 70.7784C404.363 70.7784 404.213 70.7784 404.047 70.7784C403.047 70.7784 402.13 71.045 401.297 71.5782C400.498 72.1114 399.781 72.8446 399.148 73.7777C398.515 74.6774 397.981 75.7272 397.548 76.9269C397.115 78.0932 396.782 79.3263 396.549 80.6259C396.349 82.0922 396.332 83.5919 396.499 85.1248C396.665 86.6244 397.015 88.0074 397.548 89.2737C398.115 90.5401 398.881 91.6065 399.848 92.4729C400.847 93.3394 402.08 93.8726 403.547 94.0725ZM404.297 62.1306C407.129 62.1306 409.579 62.7471 411.645 63.9802C413.711 65.1799 415.41 66.7795 416.743 68.7789C418.11 70.7784 419.109 73.0445 419.743 75.5772C420.376 78.1099 420.659 80.6926 420.592 83.3253C420.526 85.8579 420.143 88.3406 419.443 90.7734C418.743 93.1728 417.726 95.3222 416.393 97.2217C415.094 99.0879 413.478 100.588 411.545 101.721C409.612 102.887 407.362 103.47 404.796 103.47H404.197C401.331 103.403 398.831 102.754 396.698 101.521C394.599 100.288 392.866 98.688 391.5 96.7218C390.133 94.7224 389.134 92.4896 388.501 90.0236C387.867 87.5242 387.567 84.9915 387.601 82.4255C387.667 79.8261 388.067 77.3101 388.8 74.8774C389.534 72.4447 390.6 70.2952 392 68.429C393.399 66.5295 395.116 65.0132 397.148 63.8802C399.215 62.7138 401.597 62.1306 404.297 62.1306ZM435.982 102.77C434.549 102.804 433.066 102.82 431.533 102.82C430.033 102.854 428.534 102.887 427.034 102.92L425.485 62.7305H434.882L435.982 102.77ZM464.734 73.5777C463.001 71.4783 460.968 70.4285 458.635 70.4285C458.469 70.4285 458.286 70.4452 458.086 70.4785C457.919 70.4785 457.736 70.4952 457.536 70.5285C456.536 70.6618 455.553 71.0617 454.587 71.7282C453.653 72.3947 452.837 73.3111 452.137 74.4775C451.437 75.6439 450.887 77.0602 450.488 78.7264C450.121 80.3927 449.971 82.3088 450.038 84.475C450.104 86.2079 450.304 87.7241 450.638 89.0238C451.004 90.3235 451.471 91.4065 452.037 92.273C452.637 93.1394 453.32 93.8059 454.087 94.2725C454.853 94.739 455.686 95.0056 456.586 95.0723C458.186 95.0723 459.602 94.789 460.835 94.2225C462.068 93.6226 463.168 92.6729 464.134 91.3732L468.433 98.0215C467.033 99.921 465.284 101.354 463.184 102.32C461.085 103.287 458.885 103.77 456.586 103.77C454.72 103.77 452.887 103.387 451.087 102.62C449.321 101.854 447.738 100.704 446.339 99.1712C444.939 97.605 443.806 95.6388 442.939 93.2727C442.073 90.8733 441.64 88.0574 441.64 84.8249C441.64 82.0922 441.94 79.3596 442.54 76.627C443.139 73.861 444.106 71.3783 445.439 69.1788C446.805 66.9461 448.571 65.1465 450.737 63.7802C452.937 62.3806 455.62 61.6808 458.785 61.6808C460.718 61.6808 462.601 62.0473 464.434 62.7805C466.267 63.4803 467.983 64.4967 469.583 65.8297L464.734 73.5777ZM491.19 77.3768C491.257 78.6431 491.324 79.9761 491.39 81.3757C491.49 82.7421 491.574 84.0917 491.64 85.4247C489.574 85.5913 487.475 85.758 485.342 85.9246C483.209 86.0912 481.093 86.2412 478.994 86.3745L478.794 94.8223L494.64 93.8726C494.806 95.3055 494.94 96.7552 495.04 98.2215C495.173 99.6878 495.273 101.121 495.339 102.52C491.24 102.754 487.075 102.954 482.843 103.12C478.61 103.32 474.411 103.503 470.246 103.67L471.096 62.0807L494.64 62.7305C494.573 63.9968 494.523 65.2798 494.49 66.5795C494.49 67.8792 494.473 69.1788 494.44 70.4785L479.493 69.9287L479.144 77.8766L491.19 77.3768ZM503.122 90.4234H503.572C504.771 90.4234 505.805 90.6234 506.671 91.0233C507.537 91.3899 508.237 91.8897 508.77 92.5229C509.304 93.1228 509.687 93.8226 509.92 94.6224C510.187 95.4222 510.287 96.2553 510.22 97.1217C510.187 97.9215 510.02 98.7213 509.72 99.5211C509.42 100.288 509.004 100.987 508.47 101.621C507.971 102.22 507.354 102.704 506.621 103.07C505.888 103.437 505.071 103.62 504.172 103.62C502.305 103.62 500.706 103.054 499.373 101.921C498.073 100.787 497.323 99.2879 497.123 97.4217C497.023 96.5886 497.073 95.7721 497.273 94.9723C497.473 94.1392 497.823 93.406 498.323 92.7729C498.823 92.1064 499.473 91.5565 500.273 91.1233C501.072 90.69 502.022 90.4568 503.122 90.4234ZM509.12 58.6815L507.971 87.1243L499.223 87.7741C499.056 83.142 498.89 78.4098 498.723 73.5777C498.556 68.7456 498.39 63.9968 498.223 59.3313L509.12 58.6815Z" fill="white"/>
<path d="M195.621 360.551C195.621 361.669 196.505 362.553 197.623 362.553C198.741 362.553 199.625 361.669 199.625 360.551V355.299L205.501 347.369C205.761 347.005 206.021 346.511 206.021 345.965C206.021 344.873 205.293 344.015 204.071 344.015C203.239 344.015 202.641 344.483 202.147 345.211L197.649 351.633L193.229 345.263C192.735 344.535 192.163 344.041 191.253 344.041C190.135 344.041 189.251 344.899 189.251 345.965C189.251 346.537 189.459 347.005 189.745 347.395L195.621 355.377V360.551ZM213.484 362.709C217.826 362.709 221.05 359.459 221.05 355.455V355.403C221.05 351.399 217.852 348.201 213.536 348.201C209.194 348.201 205.97 351.451 205.97 355.455V355.507C205.97 359.511 209.168 362.709 213.484 362.709ZM213.536 359.303C211.352 359.303 209.87 357.509 209.87 355.455V355.403C209.87 353.349 211.222 351.607 213.484 351.607C215.668 351.607 217.15 353.401 217.15 355.455V355.507C217.15 357.561 215.798 359.303 213.536 359.303ZM236.574 350.281C236.574 349.189 235.69 348.305 234.598 348.305C233.506 348.305 232.622 349.189 232.622 350.281V356.235C232.622 358.107 231.66 359.069 230.152 359.069C228.644 359.069 227.76 358.107 227.76 356.235V350.281C227.76 349.189 226.876 348.305 225.784 348.305C224.692 348.305 223.808 349.189 223.808 350.281V357.483C223.808 360.681 225.55 362.657 228.54 362.657C230.542 362.657 231.712 361.591 232.622 360.421V360.577C232.622 361.669 233.506 362.553 234.598 362.553C235.69 362.553 236.574 361.669 236.574 360.577V350.281ZM247.854 345.185C247.854 346.329 248.816 347.057 250.064 347.057C251.312 347.057 252.274 346.329 252.274 345.185V345.133C252.274 343.989 251.312 343.287 250.064 343.287C248.816 343.287 247.854 343.989 247.854 345.133V345.185ZM247.828 366.635C250.428 366.635 252.04 365.231 252.04 362.163V350.281C252.04 349.189 251.156 348.305 250.064 348.305C248.972 348.305 248.088 349.189 248.088 350.281V362.137C248.088 363.073 247.698 363.437 247.126 363.437H247.1C246.268 363.437 245.566 364.061 245.566 365.023C245.566 366.115 246.502 366.635 247.776 366.635H247.828ZM268.413 350.281C268.413 349.189 267.529 348.305 266.437 348.305C265.345 348.305 264.461 349.189 264.461 350.281V356.235C264.461 358.107 263.499 359.069 261.991 359.069C260.483 359.069 259.599 358.107 259.599 356.235V350.281C259.599 349.189 258.715 348.305 257.623 348.305C256.531 348.305 255.647 349.189 255.647 350.281V357.483C255.647 360.681 257.389 362.657 260.379 362.657C262.381 362.657 263.551 361.591 264.461 360.421V360.577C264.461 361.669 265.345 362.553 266.437 362.553C267.529 362.553 268.413 361.669 268.413 360.577V350.281ZM276.839 362.657C279.855 362.657 282.169 361.253 282.169 358.159V358.107C282.169 355.559 279.907 354.623 277.957 353.973C276.449 353.453 275.123 353.089 275.123 352.309V352.257C275.123 351.711 275.617 351.295 276.579 351.295C277.411 351.295 278.477 351.633 279.595 352.179C279.855 352.309 280.037 352.361 280.323 352.361C281.207 352.361 281.909 351.685 281.909 350.801C281.909 350.125 281.545 349.605 280.973 349.319C279.621 348.643 278.113 348.253 276.657 348.253C273.849 348.253 271.561 349.839 271.561 352.673V352.725C271.561 355.429 273.771 356.339 275.721 356.911C277.255 357.379 278.607 357.665 278.607 358.523V358.575C278.607 359.199 278.087 359.615 276.943 359.615C275.825 359.615 274.499 359.199 273.173 358.367C272.965 358.237 272.679 358.159 272.393 358.159C271.509 358.159 270.833 358.835 270.833 359.719C270.833 360.343 271.171 360.811 271.587 361.071C273.277 362.163 275.123 362.657 276.839 362.657ZM289.453 362.631C290.311 362.631 290.987 362.527 291.715 362.241C292.261 362.033 292.729 361.461 292.729 360.759C292.729 359.849 291.975 359.121 291.091 359.121C291.013 359.121 290.753 359.147 290.623 359.147C289.739 359.147 289.349 358.705 289.349 357.795V351.841H291.091C292.027 351.841 292.781 351.087 292.781 350.151C292.781 349.215 292.027 348.461 291.091 348.461H289.349V346.719C289.349 345.627 288.465 344.743 287.373 344.743C286.281 344.743 285.397 345.627 285.397 346.719V348.461H285.267C284.331 348.461 283.577 349.215 283.577 350.151C283.577 351.087 284.331 351.841 285.267 351.841H285.397V358.445C285.397 361.669 287.035 362.631 289.453 362.631ZM303.333 364.737C303.333 365.829 304.217 366.713 305.309 366.713C306.401 366.713 307.285 365.829 307.285 364.737V360.577C308.221 361.695 309.521 362.657 311.627 362.657C314.929 362.657 317.971 360.109 317.971 355.455V355.403C317.971 350.749 314.877 348.201 311.627 348.201C309.573 348.201 308.247 349.163 307.285 350.463V350.281C307.285 349.189 306.401 348.305 305.309 348.305C304.217 348.305 303.333 349.189 303.333 350.281V364.737ZM310.613 359.303C308.767 359.303 307.233 357.769 307.233 355.455V355.403C307.233 353.089 308.767 351.555 310.613 351.555C312.459 351.555 314.019 353.089 314.019 355.403V355.455C314.019 357.795 312.459 359.303 310.613 359.303ZM333.54 350.281C333.54 349.189 332.656 348.305 331.564 348.305C330.472 348.305 329.588 349.189 329.588 350.281V356.235C329.588 358.107 328.626 359.069 327.118 359.069C325.61 359.069 324.726 358.107 324.726 356.235V350.281C324.726 349.189 323.842 348.305 322.75 348.305C321.658 348.305 320.774 349.189 320.774 350.281V357.483C320.774 360.681 322.516 362.657 325.506 362.657C327.508 362.657 328.678 361.591 329.588 360.421V360.577C329.588 361.669 330.472 362.553 331.564 362.553C332.656 362.553 333.54 361.669 333.54 360.577V350.281ZM337.078 360.577C337.078 361.669 337.962 362.553 339.054 362.553C340.146 362.553 341.03 361.669 341.03 360.577V356.885C341.03 354.077 342.148 352.543 344.15 352.075C344.956 351.893 345.632 351.269 345.632 350.229C345.632 349.111 344.93 348.305 343.708 348.305C342.538 348.305 341.602 349.553 341.03 350.905V350.281C341.03 349.189 340.146 348.305 339.054 348.305C337.962 348.305 337.078 349.189 337.078 350.281V360.577ZM354.142 362.709C356.43 362.709 357.912 361.981 359.082 360.915C359.42 360.603 359.654 360.187 359.654 359.667C359.654 358.731 358.926 357.977 357.99 357.977C357.522 357.977 357.132 358.185 356.924 358.341C356.17 358.939 355.364 359.303 354.324 359.303C352.166 359.303 350.788 357.587 350.788 355.455V355.403C350.788 353.349 352.192 351.607 354.168 351.607C355.208 351.607 355.936 351.945 356.638 352.491C356.872 352.673 357.262 352.881 357.782 352.881C358.77 352.881 359.576 352.101 359.576 351.113C359.576 350.437 359.212 349.969 358.952 349.761C357.782 348.773 356.3 348.201 354.194 348.201C349.93 348.201 346.888 351.477 346.888 355.455V355.507C346.888 359.485 349.956 362.709 354.142 362.709ZM362.417 360.577C362.417 361.669 363.301 362.553 364.393 362.553C365.485 362.553 366.369 361.669 366.369 360.577V354.623C366.369 352.751 367.331 351.789 368.839 351.789C370.347 351.789 371.231 352.751 371.231 354.623V360.577C371.231 361.669 372.115 362.553 373.207 362.553C374.299 362.553 375.183 361.669 375.183 360.577V353.375C375.183 350.177 373.441 348.201 370.451 348.201C368.449 348.201 367.279 349.267 366.369 350.437V345.237C366.369 344.145 365.485 343.261 364.393 343.261C363.301 343.261 362.417 344.145 362.417 345.237V360.577ZM382.569 362.657C384.493 362.657 385.819 361.955 386.781 360.889V360.915C386.781 361.747 387.535 362.553 388.679 362.553C389.745 362.553 390.603 361.721 390.603 360.655V354.311C390.603 352.439 390.135 350.905 389.095 349.865C388.107 348.877 386.547 348.305 384.389 348.305C382.543 348.305 381.191 348.565 379.943 349.033C379.319 349.267 378.877 349.865 378.877 350.567C378.877 351.477 379.605 352.179 380.515 352.179C380.697 352.179 380.853 352.153 381.087 352.075C381.841 351.841 382.725 351.685 383.817 351.685C385.793 351.685 386.807 352.595 386.807 354.233V354.467C385.819 354.129 384.805 353.895 383.401 353.895C380.099 353.895 377.785 355.299 377.785 358.341V358.393C377.785 361.149 379.943 362.657 382.569 362.657ZM383.765 359.927C382.491 359.927 381.607 359.303 381.607 358.237V358.185C381.607 356.937 382.647 356.261 384.337 356.261C385.299 356.261 386.183 356.469 386.859 356.781V357.483C386.859 358.913 385.611 359.927 383.765 359.927ZM398.891 362.657C401.907 362.657 404.221 361.253 404.221 358.159V358.107C404.221 355.559 401.959 354.623 400.009 353.973C398.501 353.453 397.175 353.089 397.175 352.309V352.257C397.175 351.711 397.669 351.295 398.631 351.295C399.463 351.295 400.529 351.633 401.647 352.179C401.907 352.309 402.089 352.361 402.375 352.361C403.259 352.361 403.961 351.685 403.961 350.801C403.961 350.125 403.597 349.605 403.025 349.319C401.673 348.643 400.165 348.253 398.709 348.253C395.901 348.253 393.613 349.839 393.613 352.673V352.725C393.613 355.429 395.823 356.339 397.773 356.911C399.307 357.379 400.659 357.665 400.659 358.523V358.575C400.659 359.199 400.139 359.615 398.995 359.615C397.877 359.615 396.551 359.199 395.225 358.367C395.017 358.237 394.731 358.159 394.445 358.159C393.561 358.159 392.885 358.835 392.885 359.719C392.885 360.343 393.223 360.811 393.639 361.071C395.329 362.163 397.175 362.657 398.891 362.657ZM410.252 354.337C410.564 352.543 411.63 351.373 413.268 351.373C414.932 351.373 415.972 352.569 416.206 354.337H410.252ZM418.494 361.019C418.78 360.759 419.014 360.369 419.014 359.849C419.014 358.965 418.364 358.289 417.48 358.289C417.064 358.289 416.804 358.393 416.518 358.601C415.712 359.199 414.802 359.537 413.71 359.537C411.942 359.537 410.694 358.601 410.304 356.807H418.13C419.17 356.807 419.976 356.053 419.976 354.909C419.976 352.023 417.922 348.201 413.268 348.201C409.212 348.201 406.378 351.477 406.378 355.455V355.507C406.378 359.771 409.472 362.709 413.658 362.709C415.686 362.709 417.272 362.059 418.494 361.019ZM437.013 345.237C437.013 344.145 436.129 343.261 435.037 343.261C433.945 343.261 433.061 344.145 433.061 345.237V350.281C432.125 349.163 430.825 348.201 428.719 348.201C425.417 348.201 422.375 350.749 422.375 355.403V355.455C422.375 360.109 425.469 362.657 428.719 362.657C430.773 362.657 432.099 361.695 433.061 360.395V360.577C433.061 361.669 433.945 362.553 435.037 362.553C436.129 362.553 437.013 361.669 437.013 360.577V345.237ZM429.733 351.555C431.579 351.555 433.113 353.089 433.113 355.403V355.455C433.113 357.769 431.579 359.303 429.733 359.303C427.887 359.303 426.327 357.769 426.327 355.455V355.403C426.327 353.063 427.887 351.555 429.733 351.555ZM452.291 362.657C454.215 362.657 455.541 361.955 456.503 360.889V360.915C456.503 361.747 457.257 362.553 458.401 362.553C459.467 362.553 460.325 361.721 460.325 360.655V354.311C460.325 352.439 459.857 350.905 458.817 349.865C457.829 348.877 456.269 348.305 454.111 348.305C452.265 348.305 450.913 348.565 449.665 349.033C449.041 349.267 448.599 349.865 448.599 350.567C448.599 351.477 449.327 352.179 450.237 352.179C450.419 352.179 450.575 352.153 450.809 352.075C451.563 351.841 452.447 351.685 453.539 351.685C455.515 351.685 456.529 352.595 456.529 354.233V354.467C455.541 354.129 454.527 353.895 453.123 353.895C449.821 353.895 447.507 355.299 447.507 358.341V358.393C447.507 361.149 449.665 362.657 452.291 362.657ZM453.487 359.927C452.213 359.927 451.329 359.303 451.329 358.237V358.185C451.329 356.937 452.369 356.261 454.059 356.261C455.021 356.261 455.905 356.469 456.581 356.781V357.483C456.581 358.913 455.333 359.927 453.487 359.927ZM463.726 360.577C463.726 361.669 464.61 362.553 465.702 362.553C466.794 362.553 467.678 361.669 467.678 360.577V354.623C467.678 352.751 468.64 351.789 470.148 351.789C471.656 351.789 472.54 352.751 472.54 354.623V360.577C472.54 361.669 473.424 362.553 474.516 362.553C475.608 362.553 476.492 361.669 476.492 360.577V353.375C476.492 350.177 474.75 348.201 471.76 348.201C469.758 348.201 468.588 349.267 467.678 350.437V350.281C467.678 349.189 466.794 348.305 465.702 348.305C464.61 348.305 463.726 349.189 463.726 350.281V360.577ZM487.668 345.185C487.668 346.329 488.63 347.057 489.878 347.057C491.126 347.057 492.088 346.329 492.088 345.185V345.133C492.088 343.989 491.126 343.287 489.878 343.287C488.63 343.287 487.668 343.989 487.668 345.133V345.185ZM487.902 360.577C487.902 361.669 488.786 362.553 489.878 362.553C490.97 362.553 491.854 361.669 491.854 360.577V350.281C491.854 349.189 490.97 348.305 489.878 348.305C488.786 348.305 487.902 349.189 487.902 350.281V360.577ZM500.272 362.631C501.13 362.631 501.806 362.527 502.534 362.241C503.08 362.033 503.548 361.461 503.548 360.759C503.548 359.849 502.794 359.121 501.91 359.121C501.832 359.121 501.572 359.147 501.442 359.147C500.558 359.147 500.168 358.705 500.168 357.795V351.841H501.91C502.846 351.841 503.6 351.087 503.6 350.151C503.6 349.215 502.846 348.461 501.91 348.461H500.168V346.719C500.168 345.627 499.284 344.743 498.192 344.743C497.1 344.743 496.216 345.627 496.216 346.719V348.461H496.086C495.15 348.461 494.396 349.215 494.396 350.151C494.396 351.087 495.15 351.841 496.086 351.841H496.216V358.445C496.216 361.669 497.854 362.631 500.272 362.631ZM509.174 354.337C509.486 352.543 510.552 351.373 512.19 351.373C513.854 351.373 514.894 352.569 515.128 354.337H509.174ZM517.416 361.019C517.702 360.759 517.936 360.369 517.936 359.849C517.936 358.965 517.286 358.289 516.402 358.289C515.986 358.289 515.726 358.393 515.44 358.601C514.634 359.199 513.724 359.537 512.632 359.537C510.864 359.537 509.616 358.601 509.226 356.807H517.052C518.092 356.807 518.898 356.053 518.898 354.909C518.898 352.023 516.844 348.201 512.19 348.201C508.134 348.201 505.3 351.477 505.3 355.455V355.507C505.3 359.771 508.394 362.709 512.58 362.709C514.608 362.709 516.194 362.059 517.416 361.019ZM521.921 360.577C521.921 361.669 522.805 362.553 523.897 362.553C524.989 362.553 525.873 361.669 525.873 360.577V354.623C525.873 352.751 526.783 351.789 528.265 351.789C529.747 351.789 530.579 352.751 530.579 354.623V360.577C530.579 361.669 531.463 362.553 532.555 362.553C533.647 362.553 534.531 361.669 534.531 360.577V354.623C534.531 352.751 535.441 351.789 536.923 351.789C538.405 351.789 539.237 352.751 539.237 354.623V360.577C539.237 361.669 540.121 362.553 541.213 362.553C542.305 362.553 543.189 361.669 543.189 360.577V353.323C543.189 349.969 541.421 348.201 538.483 348.201C536.585 348.201 535.129 348.981 533.907 350.411C533.179 349.007 531.801 348.201 529.981 348.201C527.979 348.201 526.783 349.267 525.873 350.437V350.281C525.873 349.189 524.989 348.305 523.897 348.305C522.805 348.305 521.921 349.189 521.921 350.281V360.577ZM547.874 355.221C547.952 355.923 548.42 356.365 549.07 356.365C549.72 356.365 550.188 355.923 550.266 355.221L551.384 345.445C551.462 344.691 551.046 344.119 550.344 344.119H547.796C547.094 344.119 546.678 344.691 546.756 345.445L547.874 355.221ZM546.808 360.291V360.343C546.808 361.591 547.77 362.553 549.07 362.553C550.37 362.553 551.332 361.591 551.332 360.343V360.291C551.332 359.043 550.37 358.081 549.07 358.081C547.77 358.081 546.808 359.043 546.808 360.291Z" fill="#F9E075"/>
</svg>
