<svg width="2599" height="1950" viewBox="0 0 2599 1950" fill="none" xmlns="http://www.w3.org/2000/svg">
<g clip-path="url(#clip0)" filter="url(#filter0_d)">
<rect width="2590.6" height="1942" transform="translate(4)" fill="#5DABFF"/>
<path d="M1923.11 -54.0498L-23.2857 897.502C-27.1968 899.414 -31.7186 896.404 -31.4643 892.058L23.5995 -48.6928C23.7756 -51.7007 26.2662 -54.0498 29.2793 -54.0498H1923.11L2010.06 -96.5549C2012.5 -97.7522 2015.46 -97.0441 2017.1 -94.8666L2047.84 -54.0498H2677.09C2680.24 -54.0498 2682.78 -51.5026 2682.78 -48.3604V771.927C2682.78 777.389 2675.84 779.713 2672.55 775.35L2047.84 -54.0498H1923.11Z" fill="#7DB8F8" fill-opacity="0.7"/>
<g opacity="0.9">
<mask id="mask0" mask-type="alpha" maskUnits="userSpaceOnUse" x="-10" y="1448" width="2618" height="493">
<rect x="-9.27563" y="1448.91" width="2617.15" height="491.189" rx="5.68945" fill="#C4C4C4"/>
</mask>
<g mask="url(#mask0)">
<path d="M-9.27563 1934.41V1448.91C-9.27563 1445.77 -6.7284 1443.22 -3.5862 1443.22H691.401C696.776 1443.22 699.154 1449.99 694.959 1453.35L89.2724 1938.85C88.2629 1939.66 87.0078 1940.1 85.714 1940.1H-3.58618C-6.72838 1940.1 -9.27563 1937.55 -9.27563 1934.41Z" fill="#DABF92"/>
<path d="M2607.87 1938.11V1454.6C2607.87 1451.46 2605.33 1448.91 2602.18 1448.91H1714.22C1708.32 1448.91 1706.32 1456.78 1711.5 1459.6L2599.46 1943.11C2603.25 1945.17 2607.87 1942.43 2607.87 1938.11Z" fill="#DABF92"/>
<path d="M1011.48 1443.22C1011.48 1443.24 1011.49 1443.25 1011.51 1443.25C1072.46 1443.16 1172.72 1443.35 1235.12 1443.25C1237.27 1443.25 1239.1 1444.23 1240.07 1446.16C1257.4 1480.78 1424.63 1814.37 1495.42 1937.34C1497.61 1941.16 1494.79 1945.79 1490.39 1945.79H999.856C996.636 1945.79 994.058 1943.12 994.17 1939.9L1011.48 1443.22Z" fill="#DABF92"/>
<path d="M555.309 1443.69C556.327 1442.84 557.547 1442.43 558.868 1442.43H771.989C772.157 1438.59 772.039 1446.28 771.989 1442.43L692.603 1541.4C602.288 1654.11 469.047 1827.11 377.738 1939.91C376.658 1941.25 375.055 1942 373.339 1942H46.0871C41.0319 1942 38.4312 1935.96 41.9957 1932.38C100.096 1873.95 408.495 1565.08 555.309 1443.69Z" fill="#C1A785"/>
<path d="M1495.18 1945.79C1493.16 1945.79 1491.36 1944.84 1490.35 1943.1C1424.22 1829.47 1268.69 1506.15 1242.41 1451.35C1240.6 1447.58 1243.45 1443.41 1247.63 1443.4C1273.48 1443.34 1289.97 1443.22 1290.1 1443.22C1290.1 1443.22 1290.1 1443.23 1290.1 1443.23C1290.1 1443.23 1290.1 1443.24 1290.1 1443.24L1398.3 1443.41C1399.87 1443.42 1401.28 1443.97 1402.35 1445.13C1494.92 1545.28 1717.72 1879.03 1756.3 1937.13C1758.81 1940.91 1756 1945.79 1751.46 1945.79H1495.18Z" fill="#E5C99B"/>
<path d="M2104.24 1949.58C2102.75 1949.58 2101.33 1949 2100.26 1947.96L1597.55 1456.77C1593.9 1453.21 1596.43 1447.02 1601.53 1447.02H1900.59C1901.76 1447.02 1902.89 1447.37 1903.85 1448.04L2606.34 1939.23C2610.9 1942.42 2608.65 1949.58 2603.08 1949.58H2104.24Z" fill="#E5C99B"/>
<path d="M1022.12 1443.22C1025.37 1443.22 1027.97 1445.95 1027.8 1449.2L1003.3 1940.39C1003.15 1943.41 1000.65 1945.79 997.615 1945.79H824.876C821.175 1945.79 818.396 1942.57 819.293 1938.98C832.782 1884.96 922.473 1525.88 942.681 1447.27C943.327 1444.76 945.528 1443.25 948.121 1443.25L1022.12 1443.22Z" fill="#E5C99B"/>
<path d="M961.681 1444.11C961.553 1441.03 961.826 1447.19 961.681 1444.11C961.681 1444.13 961.685 1444.12 961.68 1444.14C961.53 1444.65 908.928 1622.79 880.558 1723.45C858.582 1801.43 825.368 1918.54 818.792 1941.72C818.098 1944.17 815.882 1945.79 813.338 1945.79H640.984C636.744 1945.79 633.994 1941.32 635.905 1937.54L883.974 1446.39C884.953 1444.45 886.949 1443.24 889.119 1443.26L961.681 1444.11Z" fill="#DABF92"/>
<path d="M880.343 1443.22H774.003C772.274 1443.22 770.639 1444.01 769.559 1445.36L381.008 1931.33C378.064 1935.01 380.618 1940.47 385.331 1940.57L628.179 1945.72C630.355 1945.76 632.367 1944.56 633.361 1942.63L885.405 1451.51C887.348 1447.72 884.599 1443.22 880.343 1443.22Z" fill="#E5C99B"/>
<path d="M1593.96 1445.97C1592.9 1444.94 1591.48 1444.36 1590 1444.36H1405.22C1400.59 1444.36 1397.9 1449.61 1400.6 1453.37L1753.05 1943.42C1754.12 1944.91 1755.84 1945.79 1757.67 1945.79H2095.06C2100.17 1945.79 2102.69 1939.57 2099.03 1936.02L1593.96 1445.97Z" fill="#C1A785"/>
</g>
</g>
</g>
<defs>
<filter id="filter0_d" x="0" y="0" width="2598.6" height="1950" filterUnits="userSpaceOnUse" color-interpolation-filters="sRGB">
<feFlood flood-opacity="0" result="BackgroundImageFix"/>
<feColorMatrix in="SourceAlpha" type="matrix" values="0 0 0 0 0 0 0 0 0 0 0 0 0 0 0 0 0 0 127 0"/>
<feOffset dy="4"/>
<feGaussianBlur stdDeviation="2"/>
<feColorMatrix type="matrix" values="0 0 0 0 0 0 0 0 0 0 0 0 0 0 0 0 0 0 0.25 0"/>
<feBlend mode="normal" in2="BackgroundImageFix" result="effect1_dropShadow"/>
<feBlend mode="normal" in="SourceGraphic" in2="effect1_dropShadow" result="shape"/>
</filter>
<clipPath id="clip0">
<rect width="2590.6" height="1942" fill="white" transform="translate(4)"/>
</clipPath>
</defs>
</svg>
