<svg width="741" height="562" viewBox="0 0 741 562" fill="none" xmlns="http://www.w3.org/2000/svg">
<path d="M714.583 4.19775H23.2775C10.724 4.19775 0.547363 14.3744 0.547363 26.9279V538.366C0.547363 550.92 10.724 561.096 23.2775 561.096H714.583C727.136 561.096 737.313 550.92 737.313 538.366V26.9279C737.313 14.3744 727.136 4.19775 714.583 4.19775Z" fill="#294688"/>
<path d="M717.973 0.695801H33.2789C20.7254 0.695801 10.5488 10.8724 10.5488 23.4259V531.378C10.5488 543.932 20.7254 554.109 33.2789 554.109H717.973C730.527 554.109 740.703 543.932 740.703 531.378V23.4259C740.703 10.8724 730.527 0.695801 717.973 0.695801Z" fill="#4166AF"/>
<path opacity="0.8" d="M729.597 28.1028C730.731 26.2413 726.338 21.4947 719.785 17.5009C713.231 13.507 706.999 11.7783 705.865 13.6398C704.73 15.5012 709.123 20.2479 715.677 24.2417C722.23 28.2356 728.463 29.9642 729.597 28.1028Z" fill="white"/>
<path d="M236.012 102.693C234.779 102.727 233.463 102.76 232.063 102.793C230.663 102.827 229.33 102.86 228.064 102.893L216.067 80.6991C216.167 84.3981 216.267 88.0639 216.367 91.6963C216.467 95.3287 216.55 98.9611 216.617 102.593L207.569 103.593L207.319 64.7531L215.717 61.4539L227.214 84.998L226.614 63.0535C228.014 62.9869 229.447 62.9369 230.913 62.9036C232.38 62.8369 233.913 62.7703 235.512 62.7036L236.012 102.693ZM251.353 102.743C249.92 102.777 248.437 102.793 246.905 102.793C245.405 102.827 243.905 102.86 242.406 102.893L240.856 62.7036H250.254L251.353 102.743ZM280.105 73.5509C278.373 71.4514 276.34 70.4017 274.007 70.4017C273.84 70.4017 273.657 70.4183 273.457 70.4517C273.291 70.4517 273.107 70.4683 272.907 70.5016C271.908 70.6349 270.924 71.0348 269.958 71.7013C269.025 72.3678 268.208 73.2843 267.509 74.4506C266.809 75.617 266.259 77.0333 265.859 78.6996C265.493 80.3658 265.343 82.282 265.409 84.4481C265.476 86.181 265.676 87.6973 266.009 88.9969C266.376 90.2966 266.842 91.3797 267.409 92.2461C268.009 93.1126 268.692 93.7791 269.458 94.2456C270.225 94.7122 271.058 94.9788 271.958 95.0454C273.557 95.0454 274.973 94.7622 276.206 94.1956C277.439 93.5958 278.539 92.646 279.506 91.3464L283.805 97.9947C282.405 99.8942 280.655 101.327 278.556 102.294C276.456 103.26 274.257 103.743 271.958 103.743C270.091 103.743 268.258 103.36 266.459 102.593C264.693 101.827 263.11 100.677 261.71 99.1444C260.31 97.5781 259.177 95.6119 258.311 93.2459C257.445 90.8465 257.011 88.0305 257.011 84.798C257.011 82.0654 257.311 79.3327 257.911 76.6001C258.511 73.8341 259.477 71.3514 260.81 69.152C262.177 66.9192 263.943 65.1197 266.109 63.7534C268.308 62.3537 270.991 61.6539 274.157 61.6539C276.09 61.6539 277.973 62.0205 279.806 62.7536C281.638 63.4534 283.355 64.4698 284.954 65.8028L280.105 73.5509ZM306.562 77.3499C306.629 78.6163 306.695 79.9492 306.762 81.3489C306.862 82.7152 306.945 84.0649 307.012 85.3979C304.946 85.5645 302.846 85.7311 300.714 85.8977C298.581 86.0644 296.465 86.2143 294.365 86.3476L294.165 94.7955L310.011 93.8457C310.178 95.2787 310.311 96.7283 310.411 98.1946C310.544 99.6609 310.644 101.094 310.711 102.494C306.612 102.727 302.446 102.927 298.214 103.093C293.982 103.293 289.783 103.477 285.617 103.643L286.467 62.0538L310.011 62.7036C309.944 63.97 309.895 65.253 309.861 66.5527C309.861 67.8523 309.845 69.152 309.811 70.4517L294.865 69.9018L294.515 77.8498L306.562 77.3499ZM350.498 73.5509C348.765 71.4514 346.732 70.4017 344.399 70.4017C344.233 70.4017 344.049 70.4183 343.849 70.4517C343.683 70.4517 343.5 70.4683 343.3 70.5016C342.3 70.6349 341.317 71.0348 340.35 71.7013C339.417 72.3678 338.601 73.2843 337.901 74.4506C337.201 75.617 336.651 77.0333 336.251 78.6996C335.885 80.3658 335.735 82.282 335.801 84.4481C335.868 86.181 336.068 87.6973 336.401 88.9969C336.768 90.2966 337.234 91.3797 337.801 92.2461C338.401 93.1126 339.084 93.7791 339.85 94.2456C340.617 94.7122 341.45 94.9788 342.35 95.0454C343.949 95.0454 345.366 94.7622 346.599 94.1956C347.832 93.5958 348.931 92.646 349.898 91.3464L354.197 97.9947C352.797 99.8942 351.048 101.327 348.948 102.294C346.849 103.26 344.649 103.743 342.35 103.743C340.484 103.743 338.651 103.36 336.851 102.593C335.085 101.827 333.502 100.677 332.102 99.1444C330.703 97.5781 329.57 95.6119 328.703 93.2459C327.837 90.8465 327.404 88.0305 327.404 84.798C327.404 82.0654 327.704 79.3327 328.303 76.6001C328.903 73.8341 329.87 71.3514 331.203 69.152C332.569 66.9192 334.335 65.1197 336.501 63.7534C338.701 62.3537 341.383 61.6539 344.549 61.6539C346.482 61.6539 348.365 62.0205 350.198 62.7536C352.031 63.4534 353.747 64.4698 355.346 65.8028L350.498 73.5509ZM384.602 102.643L376.055 102.893L375.455 87.3974L365.257 87.8972L365.757 102.494L356.759 103.593C356.626 96.8949 356.493 90.1633 356.36 83.3984C356.226 76.6334 356.093 69.9018 355.96 63.2035L364.757 62.5537L365.157 79.2994L375.305 78.5496L374.555 62.7036H383.503L384.602 102.643ZM403.198 94.0457C403.331 94.079 403.464 94.0957 403.598 94.0957C403.731 94.0957 403.864 94.0957 403.997 94.0957C405.03 94.0957 405.947 93.8291 406.747 93.2959C407.58 92.7293 408.296 91.9795 408.896 91.0464C409.496 90.1133 409.979 89.0469 410.346 87.8472C410.746 86.6142 410.996 85.3479 411.096 84.0482C411.229 82.5819 411.196 81.1156 410.996 79.6493C410.796 78.1497 410.429 76.7834 409.896 75.5504C409.363 74.3173 408.646 73.2843 407.746 72.4512C406.88 71.5847 405.83 71.0348 404.597 70.8016C404.431 70.7682 404.281 70.7516 404.147 70.7516C404.014 70.7516 403.864 70.7516 403.698 70.7516C402.698 70.7516 401.781 71.0182 400.948 71.5514C400.148 72.0846 399.432 72.8177 398.799 73.7508C398.166 74.6506 397.632 75.7003 397.199 76.9C396.766 78.0664 396.433 79.2994 396.199 80.5991C395.999 82.0654 395.983 83.565 396.149 85.0979C396.316 86.5976 396.666 87.9805 397.199 89.2469C397.766 90.5132 398.532 91.5796 399.499 92.4461C400.498 93.3125 401.731 93.8457 403.198 94.0457ZM403.947 62.1038C406.78 62.1038 409.229 62.7203 411.296 63.9533C413.362 65.153 415.061 66.7526 416.394 68.7521C417.761 70.7516 418.76 73.0177 419.394 75.5504C420.027 78.0831 420.31 80.6657 420.243 83.2984C420.177 85.8311 419.793 88.3138 419.094 90.7465C418.394 93.1459 417.377 95.2953 416.044 97.1949C414.745 99.0611 413.128 100.561 411.196 101.694C409.263 102.86 407.013 103.443 404.447 103.443H403.847C400.982 103.377 398.482 102.727 396.349 101.494C394.25 100.261 392.517 98.6612 391.151 96.695C389.784 94.6955 388.785 92.4627 388.151 89.9967C387.518 87.4973 387.218 84.9646 387.252 82.3986C387.318 79.7993 387.718 77.2833 388.451 74.8505C389.185 72.4178 390.251 70.2684 391.651 68.4022C393.05 66.5027 394.766 64.9864 396.799 63.8533C398.865 62.687 401.248 62.1038 403.947 62.1038ZM435.633 102.743C434.2 102.777 432.717 102.793 431.184 102.793C429.684 102.827 428.185 102.86 426.685 102.893L425.135 62.7036H434.533L435.633 102.743ZM464.385 73.5509C462.652 71.4514 460.619 70.4017 458.286 70.4017C458.12 70.4017 457.936 70.4183 457.737 70.4517C457.57 70.4517 457.387 70.4683 457.187 70.5016C456.187 70.6349 455.204 71.0348 454.237 71.7013C453.304 72.3678 452.488 73.2843 451.788 74.4506C451.088 75.617 450.538 77.0333 450.138 78.6996C449.772 80.3658 449.622 82.282 449.689 84.4481C449.755 86.181 449.955 87.6973 450.288 88.9969C450.655 90.2966 451.122 91.3797 451.688 92.2461C452.288 93.1126 452.971 93.7791 453.738 94.2456C454.504 94.7122 455.337 94.9788 456.237 95.0454C457.836 95.0454 459.253 94.7622 460.486 94.1956C461.719 93.5958 462.819 92.646 463.785 91.3464L468.084 97.9947C466.684 99.8942 464.935 101.327 462.835 102.294C460.736 103.26 458.536 103.743 456.237 103.743C454.371 103.743 452.538 103.36 450.738 102.593C448.972 101.827 447.389 100.677 445.989 99.1444C444.59 97.5781 443.457 95.6119 442.59 93.2459C441.724 90.8465 441.291 88.0305 441.291 84.798C441.291 82.0654 441.591 79.3327 442.19 76.6001C442.79 73.8341 443.757 71.3514 445.09 69.152C446.456 66.9192 448.222 65.1197 450.388 63.7534C452.588 62.3537 455.27 61.6539 458.436 61.6539C460.369 61.6539 462.252 62.0205 464.085 62.7536C465.918 63.4534 467.634 64.4698 469.234 65.8028L464.385 73.5509ZM490.841 77.3499C490.908 78.6163 490.975 79.9492 491.041 81.3489C491.141 82.7152 491.225 84.0649 491.291 85.3979C489.225 85.5645 487.126 85.7311 484.993 85.8977C482.86 86.0644 480.744 86.2143 478.644 86.3476L478.445 94.7955L494.29 93.8457C494.457 95.2787 494.59 96.7283 494.69 98.1946C494.824 99.6609 494.924 101.094 494.99 102.494C490.891 102.727 486.726 102.927 482.493 103.093C478.261 103.293 474.062 103.477 469.897 103.643L470.746 62.0538L494.29 62.7036C494.224 63.97 494.174 65.253 494.141 66.5527C494.141 67.8523 494.124 69.152 494.091 70.4517L479.144 69.9018L478.794 77.8498L490.841 77.3499ZM502.773 90.3966H503.223C504.422 90.3966 505.455 90.5965 506.322 90.9964C507.188 91.363 507.888 91.8629 508.421 92.4961C508.954 93.0959 509.338 93.7957 509.571 94.5955C509.838 95.3953 509.938 96.2284 509.871 97.0949C509.838 97.8947 509.671 98.6945 509.371 99.4943C509.071 100.261 508.655 100.961 508.121 101.594C507.622 102.194 507.005 102.677 506.272 103.043C505.539 103.41 504.722 103.593 503.822 103.593C501.956 103.593 500.357 103.027 499.024 101.894C497.724 100.761 496.974 99.261 496.774 97.3948C496.674 96.5617 496.724 95.7452 496.924 94.9454C497.124 94.1123 497.474 93.3792 497.974 92.746C498.474 92.0795 499.124 91.5296 499.923 91.0964C500.723 90.6632 501.673 90.4299 502.773 90.3966ZM508.771 58.6547L507.622 87.0974L498.874 87.7473C498.707 83.1151 498.54 78.383 498.374 73.5509C498.207 68.7188 498.041 63.97 497.874 59.3045L508.771 58.6547Z" fill="white"/>
<path d="M105.942 359.154C105.942 360.272 106.826 361.156 107.944 361.156C109.062 361.156 109.946 360.272 109.946 359.154V353.902L115.822 345.972C116.082 345.608 116.342 345.114 116.342 344.568C116.342 343.476 115.614 342.618 114.392 342.618C113.56 342.618 112.962 343.086 112.468 343.814L107.97 350.236L103.55 343.866C103.056 343.138 102.484 342.644 101.574 342.644C100.456 342.644 99.572 343.502 99.572 344.568C99.572 345.14 99.78 345.608 100.066 345.998L105.942 353.98V359.154ZM123.805 361.312C128.147 361.312 131.371 358.062 131.371 354.058V354.006C131.371 350.002 128.173 346.804 123.857 346.804C119.515 346.804 116.291 350.054 116.291 354.058V354.11C116.291 358.114 119.489 361.312 123.805 361.312ZM123.857 357.906C121.673 357.906 120.191 356.112 120.191 354.058V354.006C120.191 351.952 121.543 350.21 123.805 350.21C125.989 350.21 127.471 352.004 127.471 354.058V354.11C127.471 356.164 126.119 357.906 123.857 357.906ZM146.895 348.884C146.895 347.792 146.011 346.908 144.919 346.908C143.827 346.908 142.943 347.792 142.943 348.884V354.838C142.943 356.71 141.981 357.672 140.473 357.672C138.965 357.672 138.081 356.71 138.081 354.838V348.884C138.081 347.792 137.197 346.908 136.105 346.908C135.013 346.908 134.129 347.792 134.129 348.884V356.086C134.129 359.284 135.871 361.26 138.861 361.26C140.863 361.26 142.033 360.194 142.943 359.024V359.18C142.943 360.272 143.827 361.156 144.919 361.156C146.011 361.156 146.895 360.272 146.895 359.18V348.884ZM158.227 363.34C158.227 364.432 159.111 365.316 160.203 365.316C161.295 365.316 162.179 364.432 162.179 363.34V359.18C163.115 360.298 164.415 361.26 166.521 361.26C169.823 361.26 172.865 358.712 172.865 354.058V354.006C172.865 349.352 169.771 346.804 166.521 346.804C164.467 346.804 163.141 347.766 162.179 349.066V348.884C162.179 347.792 161.295 346.908 160.203 346.908C159.111 346.908 158.227 347.792 158.227 348.884V363.34ZM165.507 357.906C163.661 357.906 162.127 356.372 162.127 354.058V354.006C162.127 351.692 163.661 350.158 165.507 350.158C167.353 350.158 168.913 351.692 168.913 354.006V354.058C168.913 356.398 167.353 357.906 165.507 357.906ZM188.434 348.884C188.434 347.792 187.55 346.908 186.458 346.908C185.366 346.908 184.482 347.792 184.482 348.884V354.838C184.482 356.71 183.52 357.672 182.012 357.672C180.504 357.672 179.62 356.71 179.62 354.838V348.884C179.62 347.792 178.736 346.908 177.644 346.908C176.552 346.908 175.668 347.792 175.668 348.884V356.086C175.668 359.284 177.41 361.26 180.4 361.26C182.402 361.26 183.572 360.194 184.482 359.024V359.18C184.482 360.272 185.366 361.156 186.458 361.156C187.55 361.156 188.434 360.272 188.434 359.18V348.884ZM191.971 359.18C191.971 360.272 192.855 361.156 193.947 361.156C195.039 361.156 195.923 360.272 195.923 359.18V355.488C195.923 352.68 197.041 351.146 199.043 350.678C199.849 350.496 200.525 349.872 200.525 348.832C200.525 347.714 199.823 346.908 198.601 346.908C197.431 346.908 196.495 348.156 195.923 349.508V348.884C195.923 347.792 195.039 346.908 193.947 346.908C192.855 346.908 191.971 347.792 191.971 348.884V359.18ZM209.035 361.312C211.323 361.312 212.805 360.584 213.975 359.518C214.313 359.206 214.547 358.79 214.547 358.27C214.547 357.334 213.819 356.58 212.883 356.58C212.415 356.58 212.025 356.788 211.817 356.944C211.063 357.542 210.257 357.906 209.217 357.906C207.059 357.906 205.681 356.19 205.681 354.058V354.006C205.681 351.952 207.085 350.21 209.061 350.21C210.101 350.21 210.829 350.548 211.531 351.094C211.765 351.276 212.155 351.484 212.675 351.484C213.663 351.484 214.469 350.704 214.469 349.716C214.469 349.04 214.105 348.572 213.845 348.364C212.675 347.376 211.193 346.804 209.087 346.804C204.823 346.804 201.781 350.08 201.781 354.058V354.11C201.781 358.088 204.849 361.312 209.035 361.312ZM217.311 359.18C217.311 360.272 218.195 361.156 219.287 361.156C220.379 361.156 221.263 360.272 221.263 359.18V353.226C221.263 351.354 222.225 350.392 223.733 350.392C225.241 350.392 226.125 351.354 226.125 353.226V359.18C226.125 360.272 227.009 361.156 228.101 361.156C229.193 361.156 230.077 360.272 230.077 359.18V351.978C230.077 348.78 228.335 346.804 225.345 346.804C223.343 346.804 222.173 347.87 221.263 349.04V343.84C221.263 342.748 220.379 341.864 219.287 341.864C218.195 341.864 217.311 342.748 217.311 343.84V359.18ZM237.462 361.26C239.386 361.26 240.712 360.558 241.674 359.492V359.518C241.674 360.35 242.428 361.156 243.572 361.156C244.638 361.156 245.496 360.324 245.496 359.258V352.914C245.496 351.042 245.028 349.508 243.988 348.468C243 347.48 241.44 346.908 239.282 346.908C237.436 346.908 236.084 347.168 234.836 347.636C234.212 347.87 233.77 348.468 233.77 349.17C233.77 350.08 234.498 350.782 235.408 350.782C235.59 350.782 235.746 350.756 235.98 350.678C236.734 350.444 237.618 350.288 238.71 350.288C240.686 350.288 241.7 351.198 241.7 352.836V353.07C240.712 352.732 239.698 352.498 238.294 352.498C234.992 352.498 232.678 353.902 232.678 356.944V356.996C232.678 359.752 234.836 361.26 237.462 361.26ZM238.658 358.53C237.384 358.53 236.5 357.906 236.5 356.84V356.788C236.5 355.54 237.54 354.864 239.23 354.864C240.192 354.864 241.076 355.072 241.752 355.384V356.086C241.752 357.516 240.504 358.53 238.658 358.53ZM253.785 361.26C256.801 361.26 259.115 359.856 259.115 356.762V356.71C259.115 354.162 256.853 353.226 254.903 352.576C253.395 352.056 252.069 351.692 252.069 350.912V350.86C252.069 350.314 252.563 349.898 253.525 349.898C254.357 349.898 255.423 350.236 256.541 350.782C256.801 350.912 256.983 350.964 257.269 350.964C258.153 350.964 258.855 350.288 258.855 349.404C258.855 348.728 258.491 348.208 257.919 347.922C256.567 347.246 255.059 346.856 253.603 346.856C250.795 346.856 248.507 348.442 248.507 351.276V351.328C248.507 354.032 250.717 354.942 252.667 355.514C254.201 355.982 255.553 356.268 255.553 357.126V357.178C255.553 357.802 255.033 358.218 253.889 358.218C252.771 358.218 251.445 357.802 250.119 356.97C249.911 356.84 249.625 356.762 249.339 356.762C248.455 356.762 247.779 357.438 247.779 358.322C247.779 358.946 248.117 359.414 248.533 359.674C250.223 360.766 252.069 361.26 253.785 361.26ZM265.146 352.94C265.458 351.146 266.524 349.976 268.162 349.976C269.826 349.976 270.866 351.172 271.1 352.94H265.146ZM273.388 359.622C273.674 359.362 273.908 358.972 273.908 358.452C273.908 357.568 273.258 356.892 272.374 356.892C271.958 356.892 271.698 356.996 271.412 357.204C270.606 357.802 269.696 358.14 268.604 358.14C266.836 358.14 265.588 357.204 265.198 355.41H273.024C274.064 355.41 274.87 354.656 274.87 353.512C274.87 350.626 272.816 346.804 268.162 346.804C264.106 346.804 261.272 350.08 261.272 354.058V354.11C261.272 358.374 264.366 361.312 268.552 361.312C270.58 361.312 272.166 360.662 273.388 359.622ZM291.907 343.84C291.907 342.748 291.023 341.864 289.931 341.864C288.839 341.864 287.955 342.748 287.955 343.84V348.884C287.019 347.766 285.719 346.804 283.613 346.804C280.311 346.804 277.269 349.352 277.269 354.006V354.058C277.269 358.712 280.363 361.26 283.613 361.26C285.667 361.26 286.993 360.298 287.955 358.998V359.18C287.955 360.272 288.839 361.156 289.931 361.156C291.023 361.156 291.907 360.272 291.907 359.18V343.84ZM284.627 350.158C286.473 350.158 288.007 351.692 288.007 354.006V354.058C288.007 356.372 286.473 357.906 284.627 357.906C282.781 357.906 281.221 356.372 281.221 354.058V354.006C281.221 351.666 282.781 350.158 284.627 350.158ZM307.185 361.26C309.109 361.26 310.435 360.558 311.397 359.492V359.518C311.397 360.35 312.151 361.156 313.295 361.156C314.361 361.156 315.219 360.324 315.219 359.258V352.914C315.219 351.042 314.751 349.508 313.711 348.468C312.723 347.48 311.163 346.908 309.005 346.908C307.159 346.908 305.807 347.168 304.559 347.636C303.935 347.87 303.493 348.468 303.493 349.17C303.493 350.08 304.221 350.782 305.131 350.782C305.313 350.782 305.469 350.756 305.703 350.678C306.457 350.444 307.341 350.288 308.433 350.288C310.409 350.288 311.423 351.198 311.423 352.836V353.07C310.435 352.732 309.421 352.498 308.017 352.498C304.715 352.498 302.401 353.902 302.401 356.944V356.996C302.401 359.752 304.559 361.26 307.185 361.26ZM308.381 358.53C307.107 358.53 306.223 357.906 306.223 356.84V356.788C306.223 355.54 307.263 354.864 308.953 354.864C309.915 354.864 310.799 355.072 311.475 355.384V356.086C311.475 357.516 310.227 358.53 308.381 358.53ZM331.302 361.26C334.318 361.26 336.632 359.856 336.632 356.762V356.71C336.632 354.162 334.37 353.226 332.42 352.576C330.912 352.056 329.586 351.692 329.586 350.912V350.86C329.586 350.314 330.08 349.898 331.042 349.898C331.874 349.898 332.94 350.236 334.058 350.782C334.318 350.912 334.5 350.964 334.786 350.964C335.67 350.964 336.372 350.288 336.372 349.404C336.372 348.728 336.008 348.208 335.436 347.922C334.084 347.246 332.576 346.856 331.12 346.856C328.312 346.856 326.024 348.442 326.024 351.276V351.328C326.024 354.032 328.234 354.942 330.184 355.514C331.718 355.982 333.07 356.268 333.07 357.126V357.178C333.07 357.802 332.55 358.218 331.406 358.218C330.288 358.218 328.962 357.802 327.636 356.97C327.428 356.84 327.142 356.762 326.856 356.762C325.972 356.762 325.296 357.438 325.296 358.322C325.296 358.946 325.634 359.414 326.05 359.674C327.74 360.766 329.586 361.26 331.302 361.26ZM342.663 352.94C342.975 351.146 344.041 349.976 345.679 349.976C347.343 349.976 348.383 351.172 348.617 352.94H342.663ZM350.905 359.622C351.191 359.362 351.425 358.972 351.425 358.452C351.425 357.568 350.775 356.892 349.891 356.892C349.475 356.892 349.215 356.996 348.929 357.204C348.123 357.802 347.213 358.14 346.121 358.14C344.353 358.14 343.105 357.204 342.715 355.41H350.541C351.581 355.41 352.387 354.656 352.387 353.512C352.387 350.626 350.333 346.804 345.679 346.804C341.623 346.804 338.789 350.08 338.789 354.058V354.11C338.789 358.374 341.883 361.312 346.069 361.312C348.097 361.312 349.683 360.662 350.905 359.622ZM358.609 352.94C358.921 351.146 359.987 349.976 361.625 349.976C363.289 349.976 364.329 351.172 364.563 352.94H358.609ZM366.851 359.622C367.137 359.362 367.371 358.972 367.371 358.452C367.371 357.568 366.721 356.892 365.837 356.892C365.421 356.892 365.161 356.996 364.875 357.204C364.069 357.802 363.159 358.14 362.067 358.14C360.299 358.14 359.051 357.204 358.661 355.41H366.487C367.527 355.41 368.333 354.656 368.333 353.512C368.333 350.626 366.279 346.804 361.625 346.804C357.569 346.804 354.735 350.08 354.735 354.058V354.11C354.735 358.374 357.829 361.312 362.015 361.312C364.043 361.312 365.629 360.662 366.851 359.622ZM376.244 361.26C379.26 361.26 381.574 359.856 381.574 356.762V356.71C381.574 354.162 379.312 353.226 377.362 352.576C375.854 352.056 374.528 351.692 374.528 350.912V350.86C374.528 350.314 375.022 349.898 375.984 349.898C376.816 349.898 377.882 350.236 379 350.782C379.26 350.912 379.442 350.964 379.728 350.964C380.612 350.964 381.314 350.288 381.314 349.404C381.314 348.728 380.95 348.208 380.378 347.922C379.026 347.246 377.518 346.856 376.062 346.856C373.254 346.856 370.966 348.442 370.966 351.276V351.328C370.966 354.032 373.176 354.942 375.126 355.514C376.66 355.982 378.012 356.268 378.012 357.126V357.178C378.012 357.802 377.492 358.218 376.348 358.218C375.23 358.218 373.904 357.802 372.578 356.97C372.37 356.84 372.084 356.762 371.798 356.762C370.914 356.762 370.238 357.438 370.238 358.322C370.238 358.946 370.576 359.414 370.992 359.674C372.682 360.766 374.528 361.26 376.244 361.26ZM388.359 361.26C390.283 361.26 391.609 360.558 392.571 359.492V359.518C392.571 360.35 393.325 361.156 394.469 361.156C395.535 361.156 396.393 360.324 396.393 359.258V352.914C396.393 351.042 395.925 349.508 394.885 348.468C393.897 347.48 392.337 346.908 390.179 346.908C388.333 346.908 386.981 347.168 385.733 347.636C385.109 347.87 384.667 348.468 384.667 349.17C384.667 350.08 385.395 350.782 386.305 350.782C386.487 350.782 386.643 350.756 386.877 350.678C387.631 350.444 388.515 350.288 389.607 350.288C391.583 350.288 392.597 351.198 392.597 352.836V353.07C391.609 352.732 390.595 352.498 389.191 352.498C385.889 352.498 383.575 353.902 383.575 356.944V356.996C383.575 359.752 385.733 361.26 388.359 361.26ZM389.555 358.53C388.281 358.53 387.397 357.906 387.397 356.84V356.788C387.397 355.54 388.437 354.864 390.127 354.864C391.089 354.864 391.973 355.072 392.649 355.384V356.086C392.649 357.516 391.401 358.53 389.555 358.53ZM404.297 361.26H404.427C405.389 361.26 406.195 360.714 406.559 359.57L408.795 352.55L411.005 359.57C411.369 360.714 412.175 361.26 413.137 361.26H413.267C414.229 361.26 415.035 360.714 415.451 359.492L418.961 349.534C419.013 349.352 419.091 348.988 419.091 348.728C419.091 347.74 418.337 346.908 417.245 346.908C416.205 346.908 415.607 347.584 415.347 348.416L413.163 355.54L410.953 348.468C410.667 347.532 409.939 346.882 408.925 346.882H408.691C407.677 346.882 406.949 347.532 406.663 348.468L404.479 355.514L402.347 348.442C402.061 347.532 401.411 346.908 400.423 346.908C399.253 346.908 398.525 347.792 398.525 348.702C398.525 349.04 398.629 349.43 398.707 349.664L402.113 359.492C402.529 360.714 403.335 361.26 404.297 361.26ZM430.075 359.18C430.075 360.272 430.959 361.156 432.051 361.156C433.143 361.156 434.027 360.272 434.027 359.18V350.444H435.691C436.601 350.444 437.329 349.742 437.329 348.832C437.329 347.922 436.601 347.22 435.691 347.22H433.975V346.674C433.975 345.634 434.495 345.166 435.405 345.166H435.743C436.627 345.166 437.355 344.412 437.355 343.528C437.355 342.644 436.679 342.046 436.003 341.942C435.561 341.864 435.015 341.838 434.391 341.838C432.987 341.838 431.921 342.202 431.193 342.93C430.465 343.658 430.075 344.776 430.075 346.31V347.194H429.919C429.009 347.194 428.281 347.922 428.281 348.832C428.281 349.742 429.009 350.444 429.919 350.444H430.075V359.18ZM445.911 361.312C450.253 361.312 453.477 358.062 453.477 354.058V354.006C453.477 350.002 450.279 346.804 445.963 346.804C441.621 346.804 438.397 350.054 438.397 354.058V354.11C438.397 358.114 441.595 361.312 445.911 361.312ZM445.963 357.906C443.779 357.906 442.297 356.112 442.297 354.058V354.006C442.297 351.952 443.649 350.21 445.911 350.21C448.095 350.21 449.577 352.004 449.577 354.058V354.11C449.577 356.164 448.225 357.906 445.963 357.906ZM456.338 359.18C456.338 360.272 457.222 361.156 458.314 361.156C459.406 361.156 460.29 360.272 460.29 359.18V355.488C460.29 352.68 461.408 351.146 463.41 350.678C464.216 350.496 464.892 349.872 464.892 348.832C464.892 347.714 464.19 346.908 462.968 346.908C461.798 346.908 460.862 348.156 460.29 349.508V348.884C460.29 347.792 459.406 346.908 458.314 346.908C457.222 346.908 456.338 347.792 456.338 348.884V359.18ZM479.706 361.234C480.564 361.234 481.24 361.13 481.968 360.844C482.514 360.636 482.982 360.064 482.982 359.362C482.982 358.452 482.228 357.724 481.344 357.724C481.266 357.724 481.006 357.75 480.876 357.75C479.992 357.75 479.602 357.308 479.602 356.398V350.444H481.344C482.28 350.444 483.034 349.69 483.034 348.754C483.034 347.818 482.28 347.064 481.344 347.064H479.602V345.322C479.602 344.23 478.718 343.346 477.626 343.346C476.534 343.346 475.65 344.23 475.65 345.322V347.064H475.52C474.584 347.064 473.83 347.818 473.83 348.754C473.83 349.69 474.584 350.444 475.52 350.444H475.65V357.048C475.65 360.272 477.288 361.234 479.706 361.234ZM485.791 359.18C485.791 360.272 486.675 361.156 487.767 361.156C488.859 361.156 489.743 360.272 489.743 359.18V353.226C489.743 351.354 490.705 350.392 492.213 350.392C493.721 350.392 494.605 351.354 494.605 353.226V359.18C494.605 360.272 495.489 361.156 496.581 361.156C497.673 361.156 498.557 360.272 498.557 359.18V351.978C498.557 348.78 496.815 346.804 493.825 346.804C491.823 346.804 490.653 347.87 489.743 349.04V343.84C489.743 342.748 488.859 341.864 487.767 341.864C486.675 341.864 485.791 342.748 485.791 343.84V359.18ZM505.189 352.94C505.501 351.146 506.567 349.976 508.205 349.976C509.869 349.976 510.909 351.172 511.143 352.94H505.189ZM513.431 359.622C513.717 359.362 513.951 358.972 513.951 358.452C513.951 357.568 513.301 356.892 512.417 356.892C512.001 356.892 511.741 356.996 511.455 357.204C510.649 357.802 509.739 358.14 508.647 358.14C506.879 358.14 505.631 357.204 505.241 355.41H513.067C514.107 355.41 514.913 354.656 514.913 353.512C514.913 350.626 512.859 346.804 508.205 346.804C504.149 346.804 501.315 350.08 501.315 354.058V354.11C501.315 358.374 504.409 361.312 508.595 361.312C510.623 361.312 512.209 360.662 513.431 359.622ZM525.731 363.34C525.731 364.432 526.615 365.316 527.707 365.316C528.799 365.316 529.683 364.432 529.683 363.34V359.18C530.619 360.298 531.919 361.26 534.025 361.26C537.327 361.26 540.369 358.712 540.369 354.058V354.006C540.369 349.352 537.275 346.804 534.025 346.804C531.971 346.804 530.645 347.766 529.683 349.066V348.884C529.683 347.792 528.799 346.908 527.707 346.908C526.615 346.908 525.731 347.792 525.731 348.884V363.34ZM533.011 357.906C531.165 357.906 529.631 356.372 529.631 354.058V354.006C529.631 351.692 531.165 350.158 533.011 350.158C534.857 350.158 536.417 351.692 536.417 354.006V354.058C536.417 356.398 534.857 357.906 533.011 357.906ZM543.458 359.18C543.458 360.272 544.342 361.156 545.434 361.156C546.526 361.156 547.41 360.272 547.41 359.18V343.84C547.41 342.748 546.526 341.864 545.434 341.864C544.342 341.864 543.458 342.748 543.458 343.84V359.18ZM555.074 361.26C556.998 361.26 558.324 360.558 559.286 359.492V359.518C559.286 360.35 560.04 361.156 561.184 361.156C562.25 361.156 563.108 360.324 563.108 359.258V352.914C563.108 351.042 562.64 349.508 561.6 348.468C560.612 347.48 559.052 346.908 556.894 346.908C555.048 346.908 553.696 347.168 552.448 347.636C551.824 347.87 551.382 348.468 551.382 349.17C551.382 350.08 552.11 350.782 553.02 350.782C553.202 350.782 553.358 350.756 553.592 350.678C554.346 350.444 555.23 350.288 556.322 350.288C558.298 350.288 559.312 351.198 559.312 352.836V353.07C558.324 352.732 557.31 352.498 555.906 352.498C552.604 352.498 550.29 353.902 550.29 356.944V356.996C550.29 359.752 552.448 361.26 555.074 361.26ZM556.27 358.53C554.996 358.53 554.112 357.906 554.112 356.84V356.788C554.112 355.54 555.152 354.864 556.842 354.864C557.804 354.864 558.688 355.072 559.364 355.384V356.086C559.364 357.516 558.116 358.53 556.27 358.53ZM569.14 365.238C571.506 365.238 572.676 364.172 573.846 361.338L578.708 349.664C578.786 349.482 578.89 349.04 578.89 348.728C578.89 347.688 578.032 346.908 577.018 346.908C576.004 346.908 575.432 347.584 575.12 348.416L572.208 356.502L569.192 348.39C568.854 347.454 568.282 346.908 567.294 346.908C566.202 346.908 565.344 347.688 565.344 348.806C565.344 349.066 565.448 349.456 565.552 349.716L570.31 360.74L570.18 361.052C569.816 361.754 569.478 361.884 568.776 361.884C568.49 361.884 568.282 361.832 567.944 361.728C567.788 361.676 567.606 361.624 567.294 361.624C566.488 361.624 565.734 362.274 565.734 363.236C565.734 364.198 566.41 364.666 566.982 364.874C567.632 365.108 568.256 365.238 569.14 365.238ZM587.399 365.212C590.103 365.212 592.105 364.64 593.405 363.34C594.575 362.17 595.173 360.35 595.173 357.854V348.884C595.173 347.792 594.289 346.908 593.197 346.908C592.105 346.908 591.221 347.792 591.221 348.858V348.884C590.155 347.714 588.881 346.804 586.723 346.804C583.525 346.804 580.535 349.144 580.535 353.304V353.356C580.535 357.49 583.473 359.856 586.723 359.856C588.829 359.856 590.103 358.998 591.273 357.594V358.27C591.273 360.766 589.999 362.066 587.295 362.066C585.813 362.066 584.591 361.754 583.447 361.234C583.265 361.156 583.057 361.104 582.797 361.104C581.913 361.104 581.185 361.832 581.185 362.716C581.185 363.444 581.627 363.99 582.303 364.25C583.941 364.9 585.553 365.212 587.399 365.212ZM587.867 356.58C585.943 356.58 584.487 355.28 584.487 353.356V353.304C584.487 351.406 585.943 350.08 587.867 350.08C589.791 350.08 591.273 351.406 591.273 353.304V353.356C591.273 355.254 589.791 356.58 587.867 356.58ZM598.704 359.18C598.704 360.272 599.588 361.156 600.68 361.156C601.772 361.156 602.656 360.272 602.656 359.18V355.488C602.656 352.68 603.774 351.146 605.776 350.678C606.582 350.496 607.258 349.872 607.258 348.832C607.258 347.714 606.556 346.908 605.334 346.908C604.164 346.908 603.228 348.156 602.656 349.508V348.884C602.656 347.792 601.772 346.908 600.68 346.908C599.588 346.908 598.704 347.792 598.704 348.884V359.18ZM616.028 361.312C620.37 361.312 623.594 358.062 623.594 354.058V354.006C623.594 350.002 620.396 346.804 616.08 346.804C611.738 346.804 608.514 350.054 608.514 354.058V354.11C608.514 358.114 611.712 361.312 616.028 361.312ZM616.08 357.906C613.896 357.906 612.414 356.112 612.414 354.058V354.006C612.414 351.952 613.766 350.21 616.028 350.21C618.212 350.21 619.694 352.004 619.694 354.058V354.11C619.694 356.164 618.342 357.906 616.08 357.906ZM639.118 348.884C639.118 347.792 638.234 346.908 637.142 346.908C636.05 346.908 635.166 347.792 635.166 348.884V354.838C635.166 356.71 634.204 357.672 632.696 357.672C631.188 357.672 630.304 356.71 630.304 354.838V348.884C630.304 347.792 629.42 346.908 628.328 346.908C627.236 346.908 626.352 347.792 626.352 348.884V356.086C626.352 359.284 628.094 361.26 631.084 361.26C633.086 361.26 634.256 360.194 635.166 359.024V359.18C635.166 360.272 636.05 361.156 637.142 361.156C638.234 361.156 639.118 360.272 639.118 359.18V348.884ZM642.655 359.18C642.655 360.272 643.539 361.156 644.631 361.156C645.723 361.156 646.607 360.272 646.607 359.18V353.226C646.607 351.354 647.569 350.392 649.077 350.392C650.585 350.392 651.469 351.354 651.469 353.226V359.18C651.469 360.272 652.353 361.156 653.445 361.156C654.537 361.156 655.421 360.272 655.421 359.18V351.978C655.421 348.78 653.679 346.804 650.689 346.804C648.687 346.804 647.517 347.87 646.607 349.04V348.884C646.607 347.792 645.723 346.908 644.631 346.908C643.539 346.908 642.655 347.792 642.655 348.884V359.18ZM672.868 343.84C672.868 342.748 671.984 341.864 670.892 341.864C669.8 341.864 668.916 342.748 668.916 343.84V348.884C667.98 347.766 666.68 346.804 664.574 346.804C661.272 346.804 658.23 349.352 658.23 354.006V354.058C658.23 358.712 661.324 361.26 664.574 361.26C666.628 361.26 667.954 360.298 668.916 358.998V359.18C668.916 360.272 669.8 361.156 670.892 361.156C671.984 361.156 672.868 360.272 672.868 359.18V343.84ZM665.588 350.158C667.434 350.158 668.968 351.692 668.968 354.006V354.058C668.968 356.372 667.434 357.906 665.588 357.906C663.742 357.906 662.182 356.372 662.182 354.058V354.006C662.182 351.666 663.742 350.158 665.588 350.158ZM677.647 353.824C677.725 354.526 678.193 354.968 678.843 354.968C679.493 354.968 679.961 354.526 680.039 353.824L681.157 344.048C681.235 343.294 680.819 342.722 680.117 342.722H677.569C676.867 342.722 676.451 343.294 676.529 344.048L677.647 353.824ZM676.581 358.894V358.946C676.581 360.194 677.543 361.156 678.843 361.156C680.143 361.156 681.105 360.194 681.105 358.946V358.894C681.105 357.646 680.143 356.684 678.843 356.684C677.543 356.684 676.581 357.646 676.581 358.894Z" fill="#F9E075"/>
<path d="M350.38 273.826C350.38 273.964 350.38 273.775 350.38 273.775C350.38 273.775 350.38 273.809 350.38 273.826C350.38 273.955 350.41 274.088 350.431 274.217C350.43 274.233 350.43 274.249 350.431 274.264C350.41 274.174 350.431 274.354 350.431 274.264C350.41 274.191 350.453 274.354 350.431 274.264C350.453 274.337 350.934 275.084 350.955 275.153V275.127C350.994 275.234 350.908 275.046 350.955 275.153C351.009 275.291 350.886 274.996 350.955 275.127V275.153C351.02 275.277 351.093 275.406 351.166 275.531C351.166 275.531 351.166 275.569 351.2 275.591C351.273 275.711 351.35 275.831 351.436 275.947C351.45 275.972 351.465 275.995 351.483 276.016C351.565 276.136 351.655 276.252 351.75 276.372L351.801 276.441L352.059 276.741L352.132 276.823C352.24 276.937 352.352 277.053 352.467 277.17L352.527 277.226L352.801 277.484L353.029 277.681L353.248 277.862L353.497 278.059L353.733 278.235L354.003 278.424L354.257 278.596L354.544 278.776C354.664 278.853 354.785 278.93 354.909 279.003C355.034 279.076 355.261 279.197 355.437 279.291L355.574 279.364C355.738 279.45 355.901 279.531 356.064 279.609L356.128 279.639L356.686 279.892L356.832 279.952C356.991 280.021 357.154 280.085 357.322 280.15L357.425 280.193L358.013 280.403L358.15 280.45L358.579 280.583C358.704 280.622 358.833 280.665 358.961 280.699L359.292 280.794L359.687 280.901L360.022 280.987L360.421 281.077L360.764 281.15L361.194 281.236L361.571 281.304L361.735 281.33C361.924 281.364 362.117 281.395 362.31 281.42H362.404L363.061 281.502H363.229C363.366 281.502 363.499 281.532 363.658 281.54L364.169 281.588H364.491L365.027 281.613H365.323H365.796H366.903H367.358H367.676L368.157 281.579H368.444L368.998 281.528H369.208L369.964 281.433H370.101L370.732 281.334L371.007 281.283L371.488 281.188L371.75 281.133L372.278 281.012L372.574 280.939C372.737 280.897 372.896 280.858 373.055 280.811C373.214 280.763 373.329 280.733 373.462 280.695L373.617 280.648C373.823 280.587 374.021 280.523 374.222 280.454L374.343 280.411L374.828 280.235L374.999 280.171L375.377 280.021L375.648 279.909L376.012 279.746L376.257 279.634L376.652 279.437L376.845 279.338C377.043 279.235 377.232 279.132 377.42 279.025C380.55 277.218 382.115 275.964 382.106 273.599C382.106 274.569 382.104 274.326 382.104 275.389C382.104 277.759 380.55 280.132 377.416 281.94C377.232 282.047 377.043 282.15 376.85 282.253L376.648 282.352C376.519 282.416 376.39 282.485 376.257 282.545L376.012 282.657L375.648 282.824L375.381 282.931L375.128 283.034L374.999 283.086L374.828 283.15C374.669 283.21 374.506 283.271 374.338 283.326L374.222 283.369C374.025 283.438 373.819 283.502 373.617 283.562L373.462 283.61L373.201 283.687L373.055 283.726L372.574 283.854L372.282 283.927L371.741 284.047L371.548 284.095H371.492L370.998 284.189L370.732 284.236L370.063 284.344H369.973C369.719 284.382 369.466 284.412 369.213 284.442H369.084L368.449 284.503H368.208L367.693 284.537H367.375L366.92 284.558H366.62H366.13H365.804H365.233H365.019L364.482 284.528H364.164L363.649 284.485H363.473L363.241 284.46H363.074L362.417 284.378H362.318L361.747 284.288L361.58 284.258H361.447L361.211 284.215L360.782 284.129L360.447 284.056L360.039 283.962L359.708 283.88L359.309 283.773L358.983 283.678L358.597 283.562L358.429 283.511L358.193 283.429L358.051 283.382C357.854 283.313 357.656 283.245 357.463 283.167L357.356 283.129L356.871 282.931L356.725 282.867C356.536 282.79 356.351 282.704 356.167 282.618L356.102 282.588C355.939 282.511 355.776 282.429 355.617 282.343L355.476 282.27C355.295 282.176 355.119 282.081 354.948 281.978L354.755 281.867C354.695 281.832 354.639 281.794 354.583 281.755L354.295 281.575L354.038 281.403L353.772 281.214L353.535 281.038L353.286 280.841L353.067 280.66L352.84 280.459L352.746 280.377C352.685 280.321 352.625 280.266 352.57 280.205C352.546 280.188 352.525 280.168 352.505 280.145C352.389 280.034 352.278 279.918 352.175 279.802L352.097 279.72C352.007 279.617 351.921 279.519 351.84 279.416L351.784 279.351C351.784 279.351 351.784 279.351 351.763 279.321C351.677 279.209 351.595 279.102 351.522 278.995L351.475 278.926C351.389 278.806 351.312 278.686 351.239 278.566L351.204 278.51L351.123 278.372L350.994 278.132V278.106C350.925 277.973 350.865 277.836 350.805 277.703C350.771 277.625 350.741 277.548 350.711 277.471L350.681 277.376L350.603 277.145C350.603 277.076 350.561 277.007 350.543 276.934C350.526 276.861 350.505 276.78 350.487 276.703C350.473 276.662 350.463 276.62 350.458 276.578C350.458 276.531 350.457 276.479 350.432 276.432C350.43 276.418 350.43 276.403 350.432 276.389C350.41 276.256 350.393 276.127 350.38 275.998C350.382 275.981 350.382 275.964 350.38 275.947C350.38 275.853 350.38 275.762 350.38 275.668V275.531C350.35 274.479 350.384 274.797 350.38 273.826Z" fill="#1359BC"/>
<path d="M355.034 267.472C348.814 271.061 348.784 276.882 354.961 280.475C361.138 284.068 371.192 284.064 377.408 280.475C383.624 276.886 383.662 271.061 377.485 267.472C371.308 263.883 361.254 263.879 355.034 267.472Z" fill="#8EB9FF"/>
<path d="M361.508 251.148L361.484 247.423C361.484 246.18 361.477 244.935 361.463 243.69V243.726C361.463 243.726 361.463 243.748 361.463 243.757C361.463 243.767 361.463 243.776 361.463 243.785V243.818V243.845V243.876C361.463 243.885 361.463 243.895 361.463 243.904L361.488 243.935C361.487 243.944 361.487 243.953 361.488 243.962C361.488 243.962 361.508 243.982 361.521 243.993C361.529 244.003 361.538 244.012 361.55 244.021L361.583 244.052L361.616 244.077L361.67 244.114L361.703 244.138C361.723 244.15 361.748 244.163 361.769 244.178C361.781 244.183 361.79 244.189 361.798 244.196L361.922 244.26L361.959 244.276L362.066 244.322L362.12 244.344C362.186 244.37 362.186 244.37 362.252 244.395L362.327 244.421C362.351 244.421 362.372 244.437 362.401 244.445L362.476 244.468L362.554 244.492L362.637 244.516L362.752 244.547C362.856 244.573 362.963 244.598 363.075 244.622L363.162 244.638C363.261 244.66 363.36 244.679 363.468 244.697H363.505L363.848 244.748L364.096 244.779L364.282 244.801L364.546 244.827C364.608 244.827 364.67 244.839 364.736 244.843H364.815L365.146 244.863H365.241H365.435H365.757H366.444H366.683L366.902 244.854C366.985 244.854 367.064 244.854 367.142 244.843L367.357 244.83L367.609 244.81L367.808 244.792L368.101 244.761L368.291 244.737L368.39 244.724C368.49 244.71 368.589 244.697 368.68 244.68L368.762 244.668L369.015 244.62L369.138 244.596C369.258 244.571 369.378 244.543 369.49 244.516C370.428 244.275 370.899 243.968 370.895 243.646L370.99 274.24C370.99 274.554 370.523 274.87 369.585 275.11C369.473 275.137 369.358 275.165 369.238 275.19L369.114 275.214L368.899 275.256C368.899 275.256 368.87 275.256 368.862 275.256L368.779 275.269C368.68 275.285 368.585 275.3 368.485 275.313L368.386 275.327H368.32L368.196 275.34L367.903 275.373H367.82H367.704L367.452 275.393H367.349H367.237L367.002 275.404H366.886H366.782H366.539H366.419C366.386 275.403 366.353 275.403 366.32 275.404H365.433H365.53H365.402H365.34H365.241L364.91 275.384H364.832H364.794L364.637 275.369L364.377 275.346L364.187 275.322L363.943 275.293H363.893L363.6 275.247H363.563L363.257 275.19L363.17 275.172C363.058 275.148 362.951 275.123 362.848 275.097L362.79 275.081L362.74 275.068L362.649 275.042L362.575 275.02L362.492 274.995L362.422 274.971L362.347 274.945L362.281 274.922L362.215 274.896L362.186 274.883H362.161L362.054 274.834C362.042 274.83 362.031 274.825 362.021 274.819C361.975 274.797 361.934 274.777 361.897 274.755L361.872 274.741L361.806 274.701L361.773 274.679L361.719 274.64V274.629C361.717 274.624 361.717 274.619 361.719 274.615C361.705 274.605 361.693 274.594 361.682 274.584C361.671 274.575 361.661 274.566 361.653 274.556L361.62 274.525V274.51C361.618 274.506 361.618 274.502 361.62 274.498L361.595 274.467C361.595 274.457 361.595 274.448 361.595 274.439C361.593 274.429 361.593 274.418 361.595 274.408V274.392V274.381C361.593 274.37 361.593 274.359 361.595 274.348C361.593 274.339 361.593 274.329 361.595 274.32C361.593 274.31 361.593 274.3 361.595 274.289C361.595 274.289 361.595 274.277 361.595 274.271V274.253V273.304V273.081L361.508 251.148Z" fill="#1359BC"/>
<path fill-rule="evenodd" clip-rule="evenodd" d="M268.337 270.534C269.34 275.252 266.676 279.816 262.387 280.727C258.098 281.639 253.808 278.553 252.805 273.835L268.337 270.534Z" fill="#E1CD14"/>
<path fill-rule="evenodd" clip-rule="evenodd" d="M487.338 223.984C488.341 228.702 485.677 233.265 481.388 234.177C477.099 235.089 472.809 232.003 471.806 227.285L487.338 223.984Z" fill="#E1CD14"/>
<rect x="306.32" y="212.013" width="3.63811" height="26.9944" rx="1.81905" transform="rotate(-12 306.32 212.013)" fill="#D2649B"/>
<rect x="413.765" y="190.8" width="3.63811" height="25.4065" rx="1.81905" transform="rotate(-12 413.765 190.8)" fill="#D2649B"/>
<path d="M229.666 256.84L503.12 198.716L508.988 211.267L510.027 219.975L233.185 278.819L229.411 270.693L229.666 256.84Z" fill="#74A5E1"/>
<path d="M229.559 251.629L501.094 193.912L508.783 211.212L229.389 270.599L229.559 251.629Z" fill="#8EB9FF"/>
<path d="M234.246 250.431C234.165 249.315 234.932 248.315 236.03 248.104L277.31 240.174C278.57 239.932 279.771 240.813 279.918 242.088L281.594 256.63C281.724 257.76 280.973 258.803 279.861 259.04L238.036 267.93C236.728 268.208 235.475 267.267 235.377 265.933L234.246 250.431Z" fill="#AE4A80"/>
<path d="M234.391 247.06C234.357 245.977 235.115 245.029 236.18 244.825L276.623 237.073C277.893 236.829 279.099 237.726 279.232 239.012L280.688 253.055C280.805 254.177 280.056 255.206 278.953 255.44L237.528 264.245C236.183 264.531 234.907 263.531 234.864 262.157L234.391 247.06Z" fill="#D2649B"/>
<path d="M449.56 205.688C449.189 204.453 449.953 203.164 451.214 202.896L494.152 193.769C495.231 193.54 496.313 194.143 496.686 195.182L501.682 209.09C502.134 210.348 501.372 211.715 500.064 211.993L456.354 221.284C455.231 221.523 454.113 220.86 453.783 219.76L449.56 205.688Z" fill="#AE4A80"/>
<path d="M448.933 202.601C448.545 201.36 449.309 200.056 450.58 199.786L493.276 190.71C494.38 190.476 495.483 191.112 495.832 192.185L500.228 205.673C500.634 206.919 499.871 208.242 498.589 208.515L455.719 217.627C454.605 217.864 453.494 217.214 453.155 216.127L448.933 202.601Z" fill="#D2649B"/>
<path d="M297.178 234.377L300.282 233.708L306.555 263.219L303.449 263.88L297.178 234.377Z" fill="#D2649B"/>
<rect width="7.12458" height="35.1134" rx="3.56229" transform="matrix(0.974128 0.225995 -0.334397 0.942432 306.409 208.06)" fill="#1359BC"/>
<path d="M433.861 205.325L430.752 205.977L437.025 235.488L440.132 234.827L433.861 205.325Z" fill="#D2649B"/>
<rect width="7.12969" height="34.1593" rx="3.56484" transform="matrix(-0.79799 0.602671 0.688809 0.724943 414.998 184.979)" fill="#1359BC"/>
</svg>
