<svg width="741" height="561" viewBox="0 0 741 561" fill="none" xmlns="http://www.w3.org/2000/svg">
<path d="M714.036 3.50195H22.7301C10.1766 3.50195 0 13.6786 0 26.2321V537.67C0 550.224 10.1766 560.4 22.7301 560.4H714.036C726.589 560.4 736.766 550.224 736.766 537.67V26.2321C736.766 13.6786 726.589 3.50195 714.036 3.50195Z" fill="#294688"/>
<path d="M717.426 0H32.7313C20.1778 0 10.0012 10.1766 10.0012 22.7301V530.683C10.0012 543.236 20.1778 553.413 32.7313 553.413H717.426C729.979 553.413 740.156 543.236 740.156 530.683V22.7301C740.156 10.1766 729.979 0 717.426 0Z" fill="#4166AF"/>
<path opacity="0.8" d="M729.05 27.407C730.184 25.5455 725.791 20.7991 719.237 16.8052C712.684 12.8114 706.452 11.0825 705.317 12.944C704.183 14.8054 708.576 19.5521 715.129 23.5459C721.683 27.5398 727.915 29.2684 729.05 27.407Z" fill="white"/>
<path d="M235.465 101.998C234.232 102.031 232.915 102.064 231.516 102.098C230.116 102.131 228.783 102.164 227.517 102.198L215.52 80.0033C215.62 83.7023 215.72 87.3681 215.82 91.0005C215.92 94.6329 216.003 98.2653 216.07 101.898L207.022 102.897L206.772 64.0573L215.17 60.7581L226.667 84.3022L226.067 62.3577C227.467 62.2911 228.9 62.2411 230.366 62.2078C231.832 62.1411 233.365 62.0745 234.965 62.0078L235.465 101.998ZM250.806 102.048C249.373 102.081 247.89 102.098 246.357 102.098C244.858 102.131 243.358 102.164 241.858 102.198L240.309 62.0078H249.706L250.806 102.048ZM279.558 72.8551C277.825 70.7556 275.792 69.7059 273.46 69.7059C273.293 69.7059 273.11 69.7225 272.91 69.7559C272.743 69.7559 272.56 69.7725 272.36 69.8058C271.36 69.9391 270.377 70.339 269.411 71.0055C268.478 71.672 267.661 72.5885 266.961 73.7548C266.261 74.9212 265.712 76.3375 265.312 78.0038C264.945 79.67 264.795 81.5862 264.862 83.7523C264.928 85.4852 265.128 87.0015 265.462 88.3011C265.828 89.6008 266.295 90.6839 266.861 91.5503C267.461 92.4168 268.144 93.0833 268.911 93.5498C269.677 94.0164 270.51 94.283 271.41 94.3496C273.01 94.3496 274.426 94.0664 275.659 93.4998C276.892 92.9 277.992 91.9502 278.958 90.6506L283.257 97.2989C281.858 99.1984 280.108 100.631 278.008 101.598C275.909 102.564 273.71 103.047 271.41 103.047C269.544 103.047 267.711 102.664 265.912 101.898C264.145 101.131 262.562 99.9815 261.163 98.4486C259.763 96.8823 258.63 94.9161 257.764 92.5501C256.897 90.1507 256.464 87.3347 256.464 84.1022C256.464 81.3696 256.764 78.6369 257.364 75.9043C257.964 73.1383 258.93 70.6556 260.263 68.4562C261.629 66.2234 263.396 64.4239 265.562 63.0576C267.761 61.6579 270.444 60.9581 273.61 60.9581C275.542 60.9581 277.425 61.3247 279.258 62.0578C281.091 62.7576 282.807 63.774 284.407 65.107L279.558 72.8551ZM306.015 76.6541C306.081 77.9205 306.148 79.2534 306.215 80.6531C306.315 82.0194 306.398 83.3691 306.465 84.7021C304.398 84.8687 302.299 85.0353 300.166 85.2019C298.033 85.3686 295.917 85.5185 293.818 85.6518L293.618 94.0997L309.464 93.1499C309.63 94.5829 309.764 96.0325 309.864 97.4988C309.997 98.9651 310.097 100.398 310.164 101.798C306.065 102.031 301.899 102.231 297.667 102.398C293.435 102.598 289.236 102.781 285.07 102.947L285.92 61.358L309.464 62.0078C309.397 63.2742 309.347 64.5572 309.314 65.8568C309.314 67.1565 309.297 68.4562 309.264 69.7559L294.318 69.206L293.968 77.154L306.015 76.6541ZM349.95 72.8551C348.217 70.7556 346.185 69.7059 343.852 69.7059C343.685 69.7059 343.502 69.7225 343.302 69.7559C343.135 69.7559 342.952 69.7725 342.752 69.8058C341.752 69.9391 340.769 70.339 339.803 71.0055C338.87 71.672 338.053 72.5885 337.354 73.7548C336.654 74.9212 336.104 76.3375 335.704 78.0038C335.337 79.67 335.187 81.5862 335.254 83.7523C335.321 85.4852 335.521 87.0015 335.854 88.3011C336.221 89.6008 336.687 90.6839 337.254 91.5503C337.853 92.4168 338.537 93.0833 339.303 93.5498C340.07 94.0164 340.903 94.283 341.802 94.3496C343.402 94.3496 344.818 94.0664 346.051 93.4998C347.284 92.9 348.384 91.9502 349.351 90.6506L353.649 97.2989C352.25 99.1984 350.5 100.631 348.401 101.598C346.301 102.564 344.102 103.047 341.802 103.047C339.936 103.047 338.103 102.664 336.304 101.898C334.538 101.131 332.955 99.9815 331.555 98.4486C330.155 96.8823 329.022 94.9161 328.156 92.5501C327.289 90.1507 326.856 87.3347 326.856 84.1022C326.856 81.3696 327.156 78.6369 327.756 75.9043C328.356 73.1383 329.322 70.6556 330.655 68.4562C332.022 66.2234 333.788 64.4239 335.954 63.0576C338.153 61.6579 340.836 60.9581 344.002 60.9581C345.935 60.9581 347.818 61.3247 349.65 62.0578C351.483 62.7576 353.2 63.774 354.799 65.107L349.95 72.8551ZM384.055 101.948L375.507 102.198L374.907 86.7016L364.71 87.2014L365.21 101.798L356.212 102.897C356.079 96.1991 355.945 89.4675 355.812 82.7026C355.679 75.9376 355.546 69.206 355.412 62.5077L364.21 61.8579L364.61 78.6036L374.757 77.8538L374.008 62.0078H382.955L384.055 101.948ZM402.65 93.3499C402.784 93.3832 402.917 93.3999 403.05 93.3999C403.183 93.3999 403.317 93.3999 403.45 93.3999C404.483 93.3999 405.4 93.1333 406.199 92.6001C407.032 92.0335 407.749 91.2837 408.349 90.3506C408.949 89.4175 409.432 88.3511 409.798 87.1514C410.198 85.9184 410.448 84.6521 410.548 83.3524C410.682 81.8861 410.648 80.4198 410.448 78.9535C410.248 77.4539 409.882 76.0876 409.349 74.8546C408.815 73.6215 408.099 72.5885 407.199 71.7554C406.333 70.8889 405.283 70.339 404.05 70.1058C403.883 70.0724 403.733 70.0558 403.6 70.0558C403.467 70.0558 403.317 70.0558 403.15 70.0558C402.15 70.0558 401.234 70.3224 400.401 70.8556C399.601 71.3888 398.885 72.1219 398.251 73.055C397.618 73.9548 397.085 75.0045 396.652 76.2042C396.219 77.3706 395.885 78.6036 395.652 79.9033C395.452 81.3696 395.435 82.8692 395.602 84.4021C395.769 85.9018 396.119 87.2847 396.652 88.5511C397.218 89.8174 397.985 90.8838 398.951 91.7503C399.951 92.6167 401.184 93.1499 402.65 93.3499ZM403.4 61.408C406.233 61.408 408.682 62.0245 410.748 63.2575C412.814 64.4572 414.514 66.0568 415.847 68.0563C417.213 70.0558 418.213 72.3219 418.846 74.8546C419.479 77.3873 419.763 79.9699 419.696 82.6026C419.629 85.1353 419.246 87.618 418.546 90.0507C417.846 92.4501 416.83 94.5995 415.497 96.4991C414.197 98.3653 412.581 99.8649 410.648 100.998C408.715 102.164 406.466 102.747 403.9 102.747H403.3C400.434 102.681 397.935 102.031 395.802 100.798C393.703 99.565 391.97 97.9654 390.603 95.9992C389.237 93.9997 388.237 91.7669 387.604 89.3009C386.971 86.8015 386.671 84.2688 386.704 81.7028C386.771 79.1035 387.171 76.5875 387.904 74.1547C388.637 71.722 389.704 69.5726 391.103 67.7064C392.503 65.8069 394.219 64.2906 396.252 63.1575C398.318 61.9912 400.701 61.408 403.4 61.408ZM435.085 102.048C433.652 102.081 432.169 102.098 430.637 102.098C429.137 102.131 427.637 102.164 426.138 102.198L424.588 62.0078H433.986L435.085 102.048ZM463.837 72.8551C462.105 70.7556 460.072 69.7059 457.739 69.7059C457.572 69.7059 457.389 69.7225 457.189 69.7559C457.023 69.7559 456.839 69.7725 456.639 69.8058C455.64 69.9391 454.656 70.339 453.69 71.0055C452.757 71.672 451.94 72.5885 451.241 73.7548C450.541 74.9212 449.991 76.3375 449.591 78.0038C449.224 79.67 449.075 81.5862 449.141 83.7523C449.208 85.4852 449.408 87.0015 449.741 88.3011C450.108 89.6008 450.574 90.6839 451.141 91.5503C451.741 92.4168 452.424 93.0833 453.19 93.5498C453.957 94.0164 454.79 94.283 455.69 94.3496C457.289 94.3496 458.705 94.0664 459.938 93.4998C461.171 92.9 462.271 91.9502 463.238 90.6506L467.537 97.2989C466.137 99.1984 464.387 100.631 462.288 101.598C460.188 102.564 457.989 103.047 455.69 103.047C453.823 103.047 451.99 102.664 450.191 101.898C448.425 101.131 446.842 99.9815 445.442 98.4486C444.042 96.8823 442.909 94.9161 442.043 92.5501C441.177 90.1507 440.743 87.3347 440.743 84.1022C440.743 81.3696 441.043 78.6369 441.643 75.9043C442.243 73.1383 443.209 70.6556 444.542 68.4562C445.909 66.2234 447.675 64.4239 449.841 63.0576C452.04 61.6579 454.723 60.9581 457.889 60.9581C459.822 60.9581 461.705 61.3247 463.538 62.0578C465.37 62.7576 467.087 63.774 468.686 65.107L463.837 72.8551ZM490.294 76.6541C490.361 77.9205 490.427 79.2534 490.494 80.6531C490.594 82.0194 490.677 83.3691 490.744 84.7021C488.678 84.8687 486.578 85.0353 484.445 85.2019C482.313 85.3686 480.197 85.5185 478.097 85.6518L477.897 94.0997L493.743 93.1499C493.91 94.5829 494.043 96.0325 494.143 97.4988C494.276 98.9651 494.376 100.398 494.443 101.798C490.344 102.031 486.178 102.231 481.946 102.398C477.714 102.598 473.515 102.781 469.349 102.947L470.199 61.358L493.743 62.0078C493.676 63.2742 493.626 64.5572 493.593 65.8568C493.593 67.1565 493.577 68.4562 493.543 69.7559L478.597 69.206L478.247 77.154L490.294 76.6541ZM502.225 89.7008H502.675C503.875 89.7008 504.908 89.9007 505.774 90.3006C506.641 90.6672 507.341 91.1671 507.874 91.8003C508.407 92.4001 508.79 93.0999 509.024 93.8997C509.29 94.6995 509.39 95.5326 509.324 96.3991C509.29 97.1989 509.124 97.9987 508.824 98.7985C508.524 99.565 508.107 100.265 507.574 100.898C507.074 101.498 506.458 101.981 505.724 102.348C504.991 102.714 504.175 102.897 503.275 102.897C501.409 102.897 499.809 102.331 498.476 101.198C497.177 100.065 496.427 98.5652 496.227 96.699C496.127 95.8659 496.177 95.0494 496.377 94.2496C496.577 93.4165 496.927 92.6834 497.427 92.0502C497.926 91.3837 498.576 90.8338 499.376 90.4006C500.176 89.9674 501.126 89.7341 502.225 89.7008ZM508.224 57.9589L507.074 86.4016L498.326 87.0515C498.16 82.4193 497.993 77.6872 497.826 72.8551C497.66 68.023 497.493 63.2742 497.327 58.6087L508.224 57.9589Z" fill="white"/>
<path d="M194.724 359.829C194.724 360.947 195.608 361.831 196.726 361.831C197.844 361.831 198.728 360.947 198.728 359.829V354.577L204.604 346.647C204.864 346.283 205.124 345.789 205.124 345.243C205.124 344.151 204.396 343.293 203.174 343.293C202.342 343.293 201.744 343.761 201.25 344.489L196.752 350.911L192.332 344.541C191.838 343.813 191.266 343.319 190.356 343.319C189.238 343.319 188.354 344.177 188.354 345.243C188.354 345.815 188.562 346.283 188.848 346.673L194.724 354.655V359.829ZM212.587 361.987C216.929 361.987 220.153 358.737 220.153 354.733V354.681C220.153 350.677 216.955 347.479 212.639 347.479C208.297 347.479 205.073 350.729 205.073 354.733V354.785C205.073 358.789 208.271 361.987 212.587 361.987ZM212.639 358.581C210.455 358.581 208.973 356.787 208.973 354.733V354.681C208.973 352.627 210.325 350.885 212.587 350.885C214.771 350.885 216.253 352.679 216.253 354.733V354.785C216.253 356.839 214.901 358.581 212.639 358.581ZM235.677 349.559C235.677 348.467 234.793 347.583 233.701 347.583C232.609 347.583 231.725 348.467 231.725 349.559V355.513C231.725 357.385 230.763 358.347 229.255 358.347C227.747 358.347 226.863 357.385 226.863 355.513V349.559C226.863 348.467 225.979 347.583 224.887 347.583C223.795 347.583 222.911 348.467 222.911 349.559V356.761C222.911 359.959 224.653 361.935 227.643 361.935C229.645 361.935 230.815 360.869 231.725 359.699V359.855C231.725 360.947 232.609 361.831 233.701 361.831C234.793 361.831 235.677 360.947 235.677 359.855V349.559ZM246.957 344.463C246.957 345.607 247.919 346.335 249.167 346.335C250.415 346.335 251.377 345.607 251.377 344.463V344.411C251.377 343.267 250.415 342.565 249.167 342.565C247.919 342.565 246.957 343.267 246.957 344.411V344.463ZM246.931 365.913C249.531 365.913 251.143 364.509 251.143 361.441V349.559C251.143 348.467 250.259 347.583 249.167 347.583C248.075 347.583 247.191 348.467 247.191 349.559V361.415C247.191 362.351 246.801 362.715 246.229 362.715H246.203C245.371 362.715 244.669 363.339 244.669 364.301C244.669 365.393 245.605 365.913 246.879 365.913H246.931ZM267.516 349.559C267.516 348.467 266.632 347.583 265.54 347.583C264.448 347.583 263.564 348.467 263.564 349.559V355.513C263.564 357.385 262.602 358.347 261.094 358.347C259.586 358.347 258.702 357.385 258.702 355.513V349.559C258.702 348.467 257.818 347.583 256.726 347.583C255.634 347.583 254.75 348.467 254.75 349.559V356.761C254.75 359.959 256.492 361.935 259.482 361.935C261.484 361.935 262.654 360.869 263.564 359.699V359.855C263.564 360.947 264.448 361.831 265.54 361.831C266.632 361.831 267.516 360.947 267.516 359.855V349.559ZM275.942 361.935C278.958 361.935 281.272 360.531 281.272 357.437V357.385C281.272 354.837 279.01 353.901 277.06 353.251C275.552 352.731 274.226 352.367 274.226 351.587V351.535C274.226 350.989 274.72 350.573 275.682 350.573C276.514 350.573 277.58 350.911 278.698 351.457C278.958 351.587 279.14 351.639 279.426 351.639C280.31 351.639 281.012 350.963 281.012 350.079C281.012 349.403 280.648 348.883 280.076 348.597C278.724 347.921 277.216 347.531 275.76 347.531C272.952 347.531 270.664 349.117 270.664 351.951V352.003C270.664 354.707 272.874 355.617 274.824 356.189C276.358 356.657 277.71 356.943 277.71 357.801V357.853C277.71 358.477 277.19 358.893 276.046 358.893C274.928 358.893 273.602 358.477 272.276 357.645C272.068 357.515 271.782 357.437 271.496 357.437C270.612 357.437 269.936 358.113 269.936 358.997C269.936 359.621 270.274 360.089 270.69 360.349C272.38 361.441 274.226 361.935 275.942 361.935ZM288.557 361.909C289.415 361.909 290.091 361.805 290.819 361.519C291.365 361.311 291.833 360.739 291.833 360.037C291.833 359.127 291.079 358.399 290.195 358.399C290.117 358.399 289.857 358.425 289.727 358.425C288.843 358.425 288.453 357.983 288.453 357.073V351.119H290.195C291.131 351.119 291.885 350.365 291.885 349.429C291.885 348.493 291.131 347.739 290.195 347.739H288.453V345.997C288.453 344.905 287.569 344.021 286.477 344.021C285.385 344.021 284.501 344.905 284.501 345.997V347.739H284.371C283.435 347.739 282.681 348.493 282.681 349.429C282.681 350.365 283.435 351.119 284.371 351.119H284.501V357.723C284.501 360.947 286.139 361.909 288.557 361.909ZM302.436 364.015C302.436 365.107 303.32 365.991 304.412 365.991C305.504 365.991 306.388 365.107 306.388 364.015V359.855C307.324 360.973 308.624 361.935 310.73 361.935C314.032 361.935 317.074 359.387 317.074 354.733V354.681C317.074 350.027 313.98 347.479 310.73 347.479C308.676 347.479 307.35 348.441 306.388 349.741V349.559C306.388 348.467 305.504 347.583 304.412 347.583C303.32 347.583 302.436 348.467 302.436 349.559V364.015ZM309.716 358.581C307.87 358.581 306.336 357.047 306.336 354.733V354.681C306.336 352.367 307.87 350.833 309.716 350.833C311.562 350.833 313.122 352.367 313.122 354.681V354.733C313.122 357.073 311.562 358.581 309.716 358.581ZM332.643 349.559C332.643 348.467 331.759 347.583 330.667 347.583C329.575 347.583 328.691 348.467 328.691 349.559V355.513C328.691 357.385 327.729 358.347 326.221 358.347C324.713 358.347 323.829 357.385 323.829 355.513V349.559C323.829 348.467 322.945 347.583 321.853 347.583C320.761 347.583 319.877 348.467 319.877 349.559V356.761C319.877 359.959 321.619 361.935 324.609 361.935C326.611 361.935 327.781 360.869 328.691 359.699V359.855C328.691 360.947 329.575 361.831 330.667 361.831C331.759 361.831 332.643 360.947 332.643 359.855V349.559ZM336.181 359.855C336.181 360.947 337.065 361.831 338.157 361.831C339.249 361.831 340.133 360.947 340.133 359.855V356.163C340.133 353.355 341.251 351.821 343.253 351.353C344.059 351.171 344.735 350.547 344.735 349.507C344.735 348.389 344.033 347.583 342.811 347.583C341.641 347.583 340.705 348.831 340.133 350.183V349.559C340.133 348.467 339.249 347.583 338.157 347.583C337.065 347.583 336.181 348.467 336.181 349.559V359.855ZM353.245 361.987C355.533 361.987 357.015 361.259 358.185 360.193C358.523 359.881 358.757 359.465 358.757 358.945C358.757 358.009 358.029 357.255 357.093 357.255C356.625 357.255 356.235 357.463 356.027 357.619C355.273 358.217 354.467 358.581 353.427 358.581C351.269 358.581 349.891 356.865 349.891 354.733V354.681C349.891 352.627 351.295 350.885 353.271 350.885C354.311 350.885 355.039 351.223 355.741 351.769C355.975 351.951 356.365 352.159 356.885 352.159C357.873 352.159 358.679 351.379 358.679 350.391C358.679 349.715 358.315 349.247 358.055 349.039C356.885 348.051 355.403 347.479 353.297 347.479C349.033 347.479 345.991 350.755 345.991 354.733V354.785C345.991 358.763 349.059 361.987 353.245 361.987ZM361.52 359.855C361.52 360.947 362.404 361.831 363.496 361.831C364.588 361.831 365.472 360.947 365.472 359.855V353.901C365.472 352.029 366.434 351.067 367.942 351.067C369.45 351.067 370.334 352.029 370.334 353.901V359.855C370.334 360.947 371.218 361.831 372.31 361.831C373.402 361.831 374.286 360.947 374.286 359.855V352.653C374.286 349.455 372.544 347.479 369.554 347.479C367.552 347.479 366.382 348.545 365.472 349.715V344.515C365.472 343.423 364.588 342.539 363.496 342.539C362.404 342.539 361.52 343.423 361.52 344.515V359.855ZM381.672 361.935C383.596 361.935 384.922 361.233 385.884 360.167V360.193C385.884 361.025 386.638 361.831 387.782 361.831C388.848 361.831 389.706 360.999 389.706 359.933V353.589C389.706 351.717 389.238 350.183 388.198 349.143C387.21 348.155 385.65 347.583 383.492 347.583C381.646 347.583 380.294 347.843 379.046 348.311C378.422 348.545 377.98 349.143 377.98 349.845C377.98 350.755 378.708 351.457 379.618 351.457C379.8 351.457 379.956 351.431 380.19 351.353C380.944 351.119 381.828 350.963 382.92 350.963C384.896 350.963 385.91 351.873 385.91 353.511V353.745C384.922 353.407 383.908 353.173 382.504 353.173C379.202 353.173 376.888 354.577 376.888 357.619V357.671C376.888 360.427 379.046 361.935 381.672 361.935ZM382.868 359.205C381.594 359.205 380.71 358.581 380.71 357.515V357.463C380.71 356.215 381.75 355.539 383.44 355.539C384.402 355.539 385.286 355.747 385.962 356.059V356.761C385.962 358.191 384.714 359.205 382.868 359.205ZM397.994 361.935C401.01 361.935 403.324 360.531 403.324 357.437V357.385C403.324 354.837 401.062 353.901 399.112 353.251C397.604 352.731 396.278 352.367 396.278 351.587V351.535C396.278 350.989 396.772 350.573 397.734 350.573C398.566 350.573 399.632 350.911 400.75 351.457C401.01 351.587 401.192 351.639 401.478 351.639C402.362 351.639 403.064 350.963 403.064 350.079C403.064 349.403 402.7 348.883 402.128 348.597C400.776 347.921 399.268 347.531 397.812 347.531C395.004 347.531 392.716 349.117 392.716 351.951V352.003C392.716 354.707 394.926 355.617 396.876 356.189C398.41 356.657 399.762 356.943 399.762 357.801V357.853C399.762 358.477 399.242 358.893 398.098 358.893C396.98 358.893 395.654 358.477 394.328 357.645C394.12 357.515 393.834 357.437 393.548 357.437C392.664 357.437 391.988 358.113 391.988 358.997C391.988 359.621 392.326 360.089 392.742 360.349C394.432 361.441 396.278 361.935 397.994 361.935ZM409.355 353.615C409.667 351.821 410.733 350.651 412.371 350.651C414.035 350.651 415.075 351.847 415.309 353.615H409.355ZM417.597 360.297C417.883 360.037 418.117 359.647 418.117 359.127C418.117 358.243 417.467 357.567 416.583 357.567C416.167 357.567 415.907 357.671 415.621 357.879C414.815 358.477 413.905 358.815 412.813 358.815C411.045 358.815 409.797 357.879 409.407 356.085H417.233C418.273 356.085 419.079 355.331 419.079 354.187C419.079 351.301 417.025 347.479 412.371 347.479C408.315 347.479 405.481 350.755 405.481 354.733V354.785C405.481 359.049 408.575 361.987 412.761 361.987C414.789 361.987 416.375 361.337 417.597 360.297ZM436.116 344.515C436.116 343.423 435.232 342.539 434.14 342.539C433.048 342.539 432.164 343.423 432.164 344.515V349.559C431.228 348.441 429.928 347.479 427.822 347.479C424.52 347.479 421.478 350.027 421.478 354.681V354.733C421.478 359.387 424.572 361.935 427.822 361.935C429.876 361.935 431.202 360.973 432.164 359.673V359.855C432.164 360.947 433.048 361.831 434.14 361.831C435.232 361.831 436.116 360.947 436.116 359.855V344.515ZM428.836 350.833C430.682 350.833 432.216 352.367 432.216 354.681V354.733C432.216 357.047 430.682 358.581 428.836 358.581C426.99 358.581 425.43 357.047 425.43 354.733V354.681C425.43 352.341 426.99 350.833 428.836 350.833ZM451.394 361.935C453.318 361.935 454.644 361.233 455.606 360.167V360.193C455.606 361.025 456.36 361.831 457.504 361.831C458.57 361.831 459.428 360.999 459.428 359.933V353.589C459.428 351.717 458.96 350.183 457.92 349.143C456.932 348.155 455.372 347.583 453.214 347.583C451.368 347.583 450.016 347.843 448.768 348.311C448.144 348.545 447.702 349.143 447.702 349.845C447.702 350.755 448.43 351.457 449.34 351.457C449.522 351.457 449.678 351.431 449.912 351.353C450.666 351.119 451.55 350.963 452.642 350.963C454.618 350.963 455.632 351.873 455.632 353.511V353.745C454.644 353.407 453.63 353.173 452.226 353.173C448.924 353.173 446.61 354.577 446.61 357.619V357.671C446.61 360.427 448.768 361.935 451.394 361.935ZM452.59 359.205C451.316 359.205 450.432 358.581 450.432 357.515V357.463C450.432 356.215 451.472 355.539 453.162 355.539C454.124 355.539 455.008 355.747 455.684 356.059V356.761C455.684 358.191 454.436 359.205 452.59 359.205ZM462.829 359.855C462.829 360.947 463.713 361.831 464.805 361.831C465.897 361.831 466.781 360.947 466.781 359.855V353.901C466.781 352.029 467.743 351.067 469.251 351.067C470.759 351.067 471.643 352.029 471.643 353.901V359.855C471.643 360.947 472.527 361.831 473.619 361.831C474.711 361.831 475.595 360.947 475.595 359.855V352.653C475.595 349.455 473.853 347.479 470.863 347.479C468.861 347.479 467.691 348.545 466.781 349.715V349.559C466.781 348.467 465.897 347.583 464.805 347.583C463.713 347.583 462.829 348.467 462.829 349.559V359.855ZM486.771 344.463C486.771 345.607 487.733 346.335 488.981 346.335C490.229 346.335 491.191 345.607 491.191 344.463V344.411C491.191 343.267 490.229 342.565 488.981 342.565C487.733 342.565 486.771 343.267 486.771 344.411V344.463ZM487.005 359.855C487.005 360.947 487.889 361.831 488.981 361.831C490.073 361.831 490.957 360.947 490.957 359.855V349.559C490.957 348.467 490.073 347.583 488.981 347.583C487.889 347.583 487.005 348.467 487.005 349.559V359.855ZM499.375 361.909C500.233 361.909 500.909 361.805 501.637 361.519C502.183 361.311 502.651 360.739 502.651 360.037C502.651 359.127 501.897 358.399 501.013 358.399C500.935 358.399 500.675 358.425 500.545 358.425C499.661 358.425 499.271 357.983 499.271 357.073V351.119H501.013C501.949 351.119 502.703 350.365 502.703 349.429C502.703 348.493 501.949 347.739 501.013 347.739H499.271V345.997C499.271 344.905 498.387 344.021 497.295 344.021C496.203 344.021 495.319 344.905 495.319 345.997V347.739H495.189C494.253 347.739 493.499 348.493 493.499 349.429C493.499 350.365 494.253 351.119 495.189 351.119H495.319V357.723C495.319 360.947 496.957 361.909 499.375 361.909ZM508.277 353.615C508.589 351.821 509.655 350.651 511.293 350.651C512.957 350.651 513.997 351.847 514.231 353.615H508.277ZM516.519 360.297C516.805 360.037 517.039 359.647 517.039 359.127C517.039 358.243 516.389 357.567 515.505 357.567C515.089 357.567 514.829 357.671 514.543 357.879C513.737 358.477 512.827 358.815 511.735 358.815C509.967 358.815 508.719 357.879 508.329 356.085H516.155C517.195 356.085 518.001 355.331 518.001 354.187C518.001 351.301 515.947 347.479 511.293 347.479C507.237 347.479 504.403 350.755 504.403 354.733V354.785C504.403 359.049 507.497 361.987 511.683 361.987C513.711 361.987 515.297 361.337 516.519 360.297ZM521.024 359.855C521.024 360.947 521.908 361.831 523 361.831C524.092 361.831 524.976 360.947 524.976 359.855V353.901C524.976 352.029 525.886 351.067 527.368 351.067C528.85 351.067 529.682 352.029 529.682 353.901V359.855C529.682 360.947 530.566 361.831 531.658 361.831C532.75 361.831 533.634 360.947 533.634 359.855V353.901C533.634 352.029 534.544 351.067 536.026 351.067C537.508 351.067 538.34 352.029 538.34 353.901V359.855C538.34 360.947 539.224 361.831 540.316 361.831C541.408 361.831 542.292 360.947 542.292 359.855V352.601C542.292 349.247 540.524 347.479 537.586 347.479C535.688 347.479 534.232 348.259 533.01 349.689C532.282 348.285 530.904 347.479 529.084 347.479C527.082 347.479 525.886 348.545 524.976 349.715V349.559C524.976 348.467 524.092 347.583 523 347.583C521.908 347.583 521.024 348.467 521.024 349.559V359.855ZM546.977 354.499C547.055 355.201 547.523 355.643 548.173 355.643C548.823 355.643 549.291 355.201 549.369 354.499L550.487 344.723C550.565 343.969 550.149 343.397 549.447 343.397H546.899C546.197 343.397 545.781 343.969 545.859 344.723L546.977 354.499ZM545.911 359.569V359.621C545.911 360.869 546.873 361.831 548.173 361.831C549.473 361.831 550.435 360.869 550.435 359.621V359.569C550.435 358.321 549.473 357.359 548.173 357.359C546.873 357.359 545.911 358.321 545.911 359.569Z" fill="#F9E075"/>
<path fill-rule="evenodd" clip-rule="evenodd" d="M327.054 221.004L316.403 236.424L304.831 252.951L282.219 236.424C284.969 232.025 287.818 227.368 290.568 222.968C303.782 201.205 315.432 181.938 330.825 175.072C331.003 174.993 331.36 174.837 331.538 174.758C334.853 187.88 334.126 207.79 327.054 221.004Z" fill="#4B216C"/>
<path d="M307.802 248.659C296.049 245.512 287.605 236.762 284.397 232.973C282.921 235.742 281.816 237.563 281.22 237.994C287.563 251.942 300.209 253.371 304.111 253.767C305.379 252.021 306.614 250.309 307.802 248.659Z" fill="#63C1F8"/>
<path fill-rule="evenodd" clip-rule="evenodd" d="M414.963 221.857L425.613 237.276L437.185 253.803L459.798 237.276C457.048 232.877 454.198 228.22 451.448 223.82C438.234 202.057 426.585 182.79 411.192 175.924C411.013 175.846 410.657 175.689 410.478 175.611C407.163 188.732 407.89 208.643 414.963 221.857Z" fill="#4B216C"/>
<path d="M433.85 248.784C445.603 245.637 454.047 236.886 457.255 233.098C458.731 235.866 459.836 237.688 460.432 238.118C454.089 252.066 441.443 253.495 437.541 253.891C436.273 252.145 435.038 250.434 433.85 248.784Z" fill="#63C1F8"/>
<path d="M369.503 178.726C353.437 178.726 348.636 173.74 341.803 170.97C338.664 171.709 331.166 174.183 328.507 175.956C328.18 189.772 327.783 217.133 322.413 222.493C321.305 228.033 313.001 273.546 313.549 281.771C325.737 284.541 354.434 286.203 369.503 286.203C384.572 286.203 413.27 284.541 425.458 281.771C426.787 275.123 420.287 239.113 417.148 222.493C412.716 215.845 411.238 188.698 411.054 175.956C408.394 174.183 400.343 171.709 397.203 170.97C390.371 173.74 385.569 178.726 369.503 178.726Z" fill="#A65FBF"/>
<g filter="url(#filter0_d)">
<path d="M369.97 207.824C370.18 207.496 370.659 207.496 370.87 207.824L379.862 221.825C379.935 221.937 380.047 222.019 380.176 222.053L396.271 226.279C396.647 226.378 396.795 226.833 396.549 227.134L386.012 240.014C385.927 240.117 385.885 240.249 385.892 240.383L386.846 256.996C386.869 257.384 386.481 257.666 386.119 257.524L370.614 251.483C370.489 251.435 370.35 251.435 370.226 251.483L354.721 257.524C354.358 257.666 353.971 257.384 353.993 256.996L354.947 240.383C354.955 240.249 354.912 240.117 354.827 240.014L344.291 227.134C344.044 226.833 344.192 226.378 344.569 226.279L360.663 222.053C360.793 222.019 360.905 221.937 360.977 221.825L369.97 207.824Z" fill="#C6F5FF"/>
</g>
<path d="M369.158 178.537C352.902 178.537 341.831 170.689 341.831 170.689L335.779 172.893C335.779 172.893 350.17 182.554 360.148 184.002C367.848 185.119 375.824 184.552 383.388 182.73C391.884 180.683 402.33 172.23 402.33 172.23L396.765 170.549C396.765 170.549 385.414 178.537 369.158 178.537Z" fill="#63C1F8"/>
<defs>
<filter id="filter0_d" x="343.991" y="207.489" width="52.857" height="50.3396" filterUnits="userSpaceOnUse" color-interpolation-filters="sRGB">
<feFlood flood-opacity="0" result="BackgroundImageFix"/>
<feColorMatrix in="SourceAlpha" type="matrix" values="0 0 0 0 0 0 0 0 0 0 0 0 0 0 0 0 0 0 127 0"/>
<feOffset dy="0.0890929"/>
<feGaussianBlur stdDeviation="0.0890929"/>
<feColorMatrix type="matrix" values="0 0 0 0 0.196078 0 0 0 0 0.560784 0 0 0 0 0.894118 0 0 0 1 0"/>
<feBlend mode="multiply" in2="BackgroundImageFix" result="effect1_dropShadow"/>
<feBlend mode="normal" in="SourceGraphic" in2="effect1_dropShadow" result="shape"/>
</filter>
</defs>
</svg>
