<svg width="277" height="392" viewBox="0 0 277 392" fill="none" xmlns="http://www.w3.org/2000/svg">
<g id="spr_seesaw_blue">
<rect width="277" height="391" transform="translate(0 0.441406)" fill="white"/>
<g id="spr_seesaw_blue_2">
<g id="base">
<g id="Group 4093">
<path id="Vector" d="M127.741 138.975C127.741 139.061 127.741 138.942 127.741 138.942C127.741 138.942 127.741 138.964 127.741 138.975C127.741 139.056 127.76 139.14 127.774 139.221C127.773 139.231 127.773 139.24 127.774 139.25C127.76 139.194 127.774 139.307 127.774 139.25C127.76 139.204 127.787 139.307 127.774 139.25C127.787 139.296 128.09 139.767 128.104 139.81V139.794C128.128 139.861 128.074 139.742 128.104 139.81C128.137 139.897 128.06 139.711 128.104 139.794V139.81C128.144 139.888 128.19 139.97 128.236 140.048C128.236 140.048 128.236 140.072 128.258 140.086C128.304 140.161 128.352 140.237 128.406 140.31C128.415 140.326 128.425 140.34 128.436 140.353C128.487 140.429 128.544 140.502 128.604 140.578L128.636 140.621L128.798 140.81L128.844 140.862C128.913 140.934 128.983 141.007 129.055 141.081L129.093 141.116L129.266 141.278L129.409 141.402L129.547 141.516L129.704 141.64L129.853 141.751L130.023 141.87L130.182 141.978L130.364 142.092C130.439 142.14 130.515 142.189 130.593 142.235C130.672 142.281 130.815 142.357 130.926 142.416L131.012 142.462C131.115 142.516 131.218 142.568 131.321 142.616L131.361 142.635L131.713 142.795L131.805 142.832C131.905 142.876 132.007 142.916 132.113 142.957L132.178 142.984L132.548 143.116L132.634 143.146L132.905 143.23C132.983 143.254 133.064 143.281 133.145 143.303L133.354 143.362L133.602 143.43L133.813 143.484L134.065 143.541L134.281 143.587L134.551 143.641L134.789 143.684L134.892 143.7C135.011 143.722 135.132 143.741 135.254 143.757H135.314L135.727 143.808H135.833C135.919 143.808 136.003 143.827 136.103 143.833L136.425 143.862H136.627L136.965 143.879H137.152H137.449H138.147H138.433H138.633L138.936 143.857H139.117L139.466 143.825H139.599L140.074 143.765H140.161L140.558 143.703L140.731 143.671L141.034 143.611L141.199 143.576L141.531 143.5L141.718 143.454C141.821 143.427 141.921 143.403 142.021 143.373C142.121 143.343 142.194 143.324 142.278 143.3L142.375 143.27C142.505 143.233 142.629 143.192 142.756 143.149L142.832 143.122L143.137 143.011L143.245 142.97L143.483 142.876L143.654 142.805L143.883 142.703L144.038 142.632L144.286 142.508L144.408 142.446C144.532 142.381 144.651 142.316 144.77 142.249C146.741 141.11 147.727 140.321 147.721 138.832C147.721 139.443 147.72 139.289 147.72 139.959C147.72 141.451 146.741 142.946 144.767 144.084C144.651 144.152 144.532 144.217 144.411 144.281L144.284 144.344C144.202 144.384 144.121 144.427 144.038 144.465L143.883 144.536L143.654 144.641L143.486 144.709L143.327 144.773L143.245 144.806L143.137 144.846C143.037 144.884 142.935 144.922 142.829 144.957L142.756 144.984C142.632 145.028 142.502 145.068 142.375 145.106L142.278 145.136L142.113 145.184L142.021 145.209L141.718 145.29L141.534 145.336L141.194 145.412L141.072 145.441H141.037L140.726 145.501L140.558 145.53L140.137 145.598H140.08C139.92 145.622 139.761 145.641 139.601 145.66H139.52L139.12 145.698H138.969L138.644 145.72H138.444L138.158 145.733H137.968H137.66H137.455H137.095H136.96L136.622 145.714H136.422L136.098 145.687H135.987L135.841 145.671H135.735L135.322 145.62H135.26L134.9 145.563L134.795 145.544H134.711L134.562 145.517L134.292 145.463L134.081 145.417L133.824 145.357L133.616 145.306L133.364 145.238L133.159 145.179L132.916 145.106L132.81 145.074L132.662 145.022L132.572 144.992C132.448 144.949 132.324 144.906 132.202 144.857L132.134 144.833L131.829 144.709L131.737 144.668C131.618 144.619 131.502 144.565 131.385 144.511L131.345 144.492C131.242 144.444 131.14 144.392 131.04 144.338L130.95 144.292C130.837 144.233 130.726 144.173 130.618 144.108L130.496 144.038C130.458 144.017 130.423 143.992 130.388 143.968L130.207 143.854L130.045 143.746L129.877 143.627L129.728 143.516L129.571 143.392L129.434 143.278L129.29 143.151L129.231 143.1C129.193 143.065 129.155 143.03 129.12 142.992C129.105 142.981 129.092 142.968 129.08 142.954C129.007 142.884 128.936 142.811 128.871 142.738L128.823 142.686C128.766 142.622 128.712 142.559 128.66 142.494L128.625 142.454C128.625 142.454 128.625 142.454 128.612 142.435C128.558 142.365 128.506 142.297 128.46 142.23L128.431 142.186C128.377 142.111 128.328 142.035 128.282 141.959L128.26 141.924L128.209 141.838L128.128 141.686V141.67C128.085 141.586 128.047 141.5 128.009 141.416C127.987 141.367 127.968 141.319 127.949 141.27L127.931 141.21L127.882 141.064C127.882 141.021 127.855 140.978 127.844 140.932C127.833 140.886 127.82 140.835 127.809 140.786C127.8 140.761 127.793 140.734 127.79 140.708C127.79 140.678 127.79 140.645 127.774 140.616C127.772 140.607 127.772 140.598 127.774 140.589C127.76 140.505 127.749 140.424 127.741 140.343C127.743 140.332 127.743 140.321 127.741 140.31C127.741 140.251 127.741 140.194 127.741 140.134V140.048C127.722 139.386 127.744 139.586 127.741 138.975Z" fill="#1359BC"/>
<path id="Vector_2" d="M130.672 134.973C126.755 137.233 126.736 140.899 130.626 143.162C134.516 145.425 140.848 145.422 144.762 143.162C148.677 140.902 148.701 137.233 144.811 134.973C140.921 132.713 134.589 132.711 130.672 134.973Z" fill="#8EB9FF"/>
</g>
<path id="Vector_3" d="M134.75 124.693L134.734 122.348C134.734 121.564 134.73 120.781 134.721 119.996V120.019C134.721 120.019 134.721 120.033 134.721 120.039C134.721 120.045 134.721 120.05 134.721 120.056V120.077V120.094V120.114C134.721 120.12 134.721 120.125 134.721 120.131L134.737 120.151C134.736 120.156 134.736 120.162 134.737 120.168C134.737 120.168 134.75 120.181 134.758 120.187C134.763 120.193 134.769 120.199 134.776 120.205L134.797 120.224L134.817 120.24L134.851 120.263L134.872 120.278C134.885 120.286 134.901 120.294 134.914 120.304C134.921 120.307 134.928 120.311 134.932 120.315L135.01 120.355L135.034 120.366L135.101 120.395L135.135 120.408C135.177 120.425 135.177 120.425 135.218 120.441L135.265 120.457C135.281 120.457 135.294 120.467 135.312 120.472L135.359 120.487L135.408 120.502L135.46 120.517L135.533 120.536C135.598 120.552 135.666 120.568 135.736 120.583L135.791 120.594C135.853 120.607 135.916 120.619 135.984 120.631H136.007L136.223 120.663L136.379 120.682L136.496 120.696L136.663 120.712C136.702 120.712 136.741 120.72 136.783 120.723H136.832L137.04 120.735H137.1H137.223H137.426H137.858H138.009L138.147 120.729C138.199 120.729 138.248 120.729 138.298 120.723L138.433 120.715L138.592 120.702L138.717 120.69L138.902 120.671L139.021 120.656L139.084 120.648C139.146 120.639 139.209 120.631 139.266 120.62L139.318 120.612L139.477 120.582L139.555 120.567C139.63 120.551 139.706 120.534 139.776 120.517C140.367 120.365 140.664 120.171 140.661 119.969L140.721 139.236C140.721 139.434 140.427 139.633 139.836 139.783C139.766 139.801 139.693 139.818 139.618 139.834L139.539 139.849L139.404 139.876C139.404 139.876 139.386 139.876 139.381 139.876L139.329 139.884C139.266 139.894 139.206 139.903 139.144 139.911L139.081 139.92H139.04L138.962 139.928L138.777 139.949H138.725H138.652L138.493 139.962H138.428H138.358L138.209 139.969H138.136H138.071H137.918H137.842C137.821 139.968 137.801 139.968 137.78 139.969H137.221H137.283H137.202H137.163H137.1L136.892 139.956H136.843H136.819L136.72 139.947L136.556 139.932L136.437 139.917L136.283 139.899H136.252L136.067 139.87H136.043L135.851 139.834L135.796 139.823C135.726 139.808 135.658 139.792 135.593 139.775L135.557 139.765L135.525 139.757L135.468 139.741L135.421 139.727L135.369 139.711L135.325 139.696L135.278 139.68L135.237 139.665L135.195 139.649L135.177 139.641H135.161L135.093 139.61C135.086 139.607 135.079 139.604 135.073 139.6C135.044 139.587 135.018 139.574 134.995 139.56L134.979 139.551L134.937 139.526L134.916 139.512L134.883 139.488V139.481C134.881 139.478 134.881 139.475 134.883 139.472C134.874 139.465 134.866 139.459 134.859 139.452C134.852 139.446 134.846 139.441 134.841 139.435L134.82 139.415V139.406C134.819 139.403 134.819 139.401 134.82 139.398L134.804 139.378C134.804 139.373 134.804 139.367 134.804 139.361C134.803 139.355 134.803 139.348 134.804 139.342V139.331V139.324C134.803 139.317 134.803 139.31 134.804 139.304C134.803 139.298 134.803 139.292 134.804 139.286C134.803 139.28 134.803 139.273 134.804 139.267C134.804 139.267 134.804 139.259 134.804 139.255V139.244V138.646V138.506L134.75 124.693Z" fill="#1359BC"/>
</g>
<g id="Group 8595">
<path id="Ellipse 133" fill-rule="evenodd" clip-rule="evenodd" d="M73.96 131.543C74.3358 134.557 72.4191 137.278 69.6789 137.619C66.9387 137.961 64.4126 135.794 64.0368 132.78L73.96 131.543Z" fill="#E1CD14"/>
<path id="Ellipse 134" fill-rule="evenodd" clip-rule="evenodd" d="M213.877 114.099C214.253 117.113 212.336 119.833 209.596 120.175C206.856 120.517 204.33 118.35 203.954 115.336L213.877 114.099Z" fill="#E1CD14"/>
<rect id="Rectangle 127" x="100.938" y="96.8633" width="2.29114" height="17" rx="1.14557" transform="rotate(-7.1068 100.938 96.8633)" fill="#D2649B"/>
<rect id="Rectangle 128" x="169.495" y="89.3247" width="2.29114" height="16" rx="1.14557" transform="rotate(-7.1068 169.495 89.3247)" fill="#D2649B"/>
<g id="Group 4142">
<g id="Group 4143">
<path id="Rectangle 124" d="M50.4305 120.873L225.136 99.0916L228.143 107.282L228.328 112.802L51.4576 134.854L49.5262 129.552L50.4305 120.873Z" fill="#74A5E1"/>
<path id="Rectangle 123" d="M50.6445 117.598L224.124 95.9688L228.019 107.237L49.5187 129.492L50.6445 117.598Z" fill="#8EB9FF"/>
</g>
<g id="Group 4144">
<path id="Rectangle 124_2" d="M53.6316 118.53C53.6507 117.009 54.8056 115.743 56.3188 115.584L79.4946 113.156C81.2305 112.975 82.7546 114.307 82.8058 116.052L82.9824 122.066C83.0278 123.613 81.8899 124.94 80.3548 125.131L56.9206 128.053C55.1154 128.278 53.5268 126.857 53.5497 125.038L53.6316 118.53Z" fill="#AE4A80"/>
<path id="Rectangle 123_2" d="M53.8472 116.362C53.9269 114.89 55.0648 113.694 56.5314 113.541L79.2109 111.174C80.96 110.991 82.4903 112.346 82.5218 114.104L82.6237 119.79C82.6512 121.324 81.5174 122.631 79.9954 122.821L56.8785 125.703C55.0233 125.934 53.4107 124.431 53.5117 122.564L53.8472 116.362Z" fill="#D2649B"/>
</g>
<g id="Group 4145">
<path id="Rectangle 124_3" d="M191.513 102.302C191.154 100.585 192.338 98.9278 194.078 98.7108L218.379 95.681C219.868 95.4954 221.265 96.4382 221.65 97.8884L223.204 103.741C223.67 105.498 222.479 107.263 220.675 107.488L196.053 110.558C194.503 110.751 193.065 109.723 192.745 108.195L191.513 102.302Z" fill="#AE4A80"/>
<path id="Rectangle 123_3" d="M191.308 100.345C190.927 98.6193 192.113 96.9401 193.867 96.7215L217.952 93.7185C219.475 93.5287 220.895 94.5185 221.245 96.0127L222.541 101.558C222.946 103.293 221.759 104.998 219.991 105.218L195.834 108.23C194.298 108.421 192.867 107.412 192.534 105.899L191.308 100.345Z" fill="#D2649B"/>
</g>
</g>
<g id="Group 4147">
<path id="Rectangle 125" d="M93.9992 110.404L95.9832 110.151L98.3338 129.005L96.3492 129.252L93.9992 110.404Z" fill="#D2649B"/>
<rect id="Rectangle 126" width="4.48678" height="22.113" rx="2.24339" transform="matrix(0.951301 0.308263 -0.413567 0.910474 101.205 94.3867)" fill="#1359BC"/>
</g>
<g id="Group 4148">
<path id="Rectangle 125_2" d="M181.323 99.518L179.338 99.7601L181.689 118.614L183.673 118.367L181.323 99.518Z" fill="#D2649B"/>
<rect id="Rectangle 126_2" width="4.49" height="21.5122" rx="2.245" transform="matrix(-0.846489 0.532407 0.624462 0.781055 170.581 85.7383)" fill="#1359BC"/>
</g>
</g>
</g>
<g id="spr_seesaw_blue_3">
<g id="base_2">
<g id="Group 4093_2">
<path id="Vector_4" d="M129.741 215.974C129.741 216.061 129.741 215.942 129.741 215.942C129.741 215.942 129.741 215.963 129.741 215.974C129.741 216.055 129.76 216.139 129.774 216.22C129.773 216.23 129.773 216.24 129.774 216.25C129.76 216.193 129.774 216.307 129.774 216.25C129.76 216.204 129.787 216.307 129.774 216.25C129.787 216.296 130.09 216.766 130.104 216.81V216.793C130.128 216.861 130.074 216.742 130.104 216.81C130.137 216.896 130.06 216.711 130.104 216.793V216.81C130.144 216.888 130.19 216.969 130.236 217.047C130.236 217.047 130.236 217.072 130.258 217.085C130.304 217.161 130.352 217.237 130.406 217.31C130.415 217.325 130.425 217.34 130.436 217.353C130.487 217.429 130.544 217.502 130.604 217.577L130.636 217.621L130.798 217.81L130.844 217.861C130.913 217.933 130.983 218.006 131.055 218.08L131.093 218.115L131.266 218.277L131.409 218.402L131.547 218.515L131.704 218.64L131.853 218.751L132.023 218.87L132.182 218.978L132.364 219.091C132.439 219.14 132.515 219.189 132.593 219.234C132.672 219.28 132.815 219.356 132.926 219.416L133.012 219.462C133.115 219.516 133.218 219.567 133.321 219.616L133.361 219.635L133.713 219.794L133.805 219.832C133.905 219.875 134.007 219.916 134.113 219.956L134.178 219.983L134.548 220.116L134.634 220.146L134.905 220.229C134.983 220.254 135.064 220.281 135.145 220.302L135.354 220.362L135.602 220.429L135.813 220.483L136.065 220.54L136.281 220.586L136.551 220.64L136.789 220.684L136.892 220.7C137.011 220.721 137.132 220.74 137.254 220.757H137.314L137.727 220.808H137.833C137.919 220.808 138.003 220.827 138.103 220.832L138.425 220.862H138.627L138.965 220.878H139.152H139.449H140.147H140.433H140.633L140.936 220.857H141.117L141.466 220.824H141.599L142.074 220.765H142.161L142.558 220.702L142.731 220.67L143.034 220.611L143.199 220.575L143.531 220.5L143.718 220.454C143.821 220.427 143.921 220.402 144.021 220.373C144.121 220.343 144.194 220.324 144.278 220.3L144.375 220.27C144.505 220.232 144.629 220.192 144.756 220.148L144.832 220.121L145.137 220.01L145.245 219.97L145.483 219.875L145.654 219.805L145.883 219.702L146.038 219.632L146.286 219.508L146.408 219.445C146.532 219.38 146.651 219.316 146.77 219.248C148.741 218.11 149.727 217.321 149.721 215.831C149.721 216.442 149.72 216.289 149.72 216.958C149.72 218.45 148.741 219.945 146.767 221.084C146.651 221.151 146.532 221.216 146.411 221.281L146.284 221.343C146.202 221.384 146.121 221.427 146.038 221.465L145.883 221.535L145.654 221.641L145.486 221.708L145.327 221.773L145.245 221.805L145.137 221.846C145.037 221.884 144.935 221.922 144.829 221.957L144.756 221.984C144.632 222.027 144.502 222.068 144.375 222.106L144.278 222.135L144.113 222.184L144.021 222.208L143.718 222.289L143.534 222.335L143.194 222.411L143.072 222.441H143.037L142.726 222.5L142.558 222.53L142.137 222.598H142.08C141.92 222.622 141.761 222.641 141.601 222.66H141.52L141.12 222.698H140.969L140.644 222.719H140.444L140.158 222.733H139.968H139.66H139.455H139.095H138.96L138.622 222.714H138.422L138.098 222.687H137.987L137.841 222.671H137.735L137.322 222.619H137.26L136.9 222.562L136.795 222.543H136.711L136.562 222.516L136.292 222.462L136.081 222.416L135.824 222.357L135.616 222.306L135.364 222.238L135.159 222.179L134.916 222.106L134.81 222.073L134.662 222.022L134.572 221.992C134.448 221.949 134.324 221.905 134.202 221.857L134.134 221.832L133.829 221.708L133.737 221.668C133.618 221.619 133.502 221.565 133.385 221.511L133.345 221.492C133.242 221.443 133.14 221.392 133.04 221.338L132.95 221.292C132.837 221.232 132.726 221.173 132.618 221.108L132.496 221.038C132.458 221.016 132.423 220.992 132.388 220.967L132.207 220.854L132.045 220.746L131.877 220.627L131.728 220.516L131.571 220.392L131.434 220.278L131.29 220.151L131.231 220.1C131.193 220.064 131.155 220.029 131.12 219.991C131.105 219.98 131.092 219.968 131.08 219.954C131.007 219.883 130.936 219.81 130.871 219.737L130.823 219.686C130.766 219.621 130.712 219.559 130.66 219.494L130.625 219.453C130.625 219.453 130.625 219.453 130.612 219.435C130.558 219.364 130.506 219.297 130.46 219.229L130.431 219.186C130.377 219.11 130.328 219.034 130.282 218.959L130.26 218.924L130.209 218.837L130.128 218.686V218.669C130.085 218.586 130.047 218.499 130.009 218.415C129.987 218.367 129.968 218.318 129.949 218.269L129.931 218.21L129.882 218.064C129.882 218.021 129.855 217.977 129.844 217.931C129.833 217.885 129.82 217.834 129.809 217.785C129.8 217.76 129.793 217.734 129.79 217.707C129.79 217.677 129.79 217.645 129.774 217.615C129.772 217.606 129.772 217.597 129.774 217.588C129.76 217.504 129.749 217.423 129.741 217.342C129.743 217.331 129.743 217.32 129.741 217.31C129.741 217.25 129.741 217.193 129.741 217.134V217.047C129.722 216.385 129.744 216.585 129.741 215.974Z" fill="#1359BC"/>
<path id="Vector_5" d="M132.672 211.973C128.755 214.233 128.736 217.899 132.626 220.162C136.516 222.424 142.848 222.422 146.762 220.162C150.677 217.902 150.701 214.233 146.811 211.973C142.921 209.713 136.589 209.71 132.672 211.973Z" fill="#8EB9FF"/>
</g>
<path id="Vector_6" d="M136.75 201.693L136.734 199.347C136.734 198.564 136.73 197.78 136.721 196.996V197.019C136.721 197.019 136.721 197.033 136.721 197.038C136.721 197.044 136.721 197.05 136.721 197.056V197.076V197.094V197.113C136.721 197.119 136.721 197.125 136.721 197.131L136.737 197.15C136.736 197.156 136.736 197.162 136.737 197.167C136.737 197.167 136.75 197.18 136.758 197.187C136.763 197.193 136.769 197.199 136.776 197.204L136.797 197.224L136.817 197.24L136.851 197.263L136.872 197.278C136.885 197.286 136.901 197.294 136.914 197.303C136.921 197.307 136.928 197.31 136.932 197.315L137.01 197.355L137.034 197.365L137.101 197.394L137.135 197.408C137.177 197.424 137.177 197.424 137.218 197.44L137.265 197.456C137.281 197.456 137.294 197.467 137.312 197.471L137.359 197.486L137.408 197.501L137.46 197.516L137.533 197.536C137.598 197.552 137.666 197.568 137.736 197.583L137.791 197.593C137.853 197.607 137.916 197.619 137.984 197.63H138.007L138.223 197.662L138.379 197.682L138.496 197.696L138.663 197.712C138.702 197.712 138.741 197.72 138.783 197.722H138.832L139.04 197.735H139.1H139.223H139.426H139.858H140.009L140.147 197.729C140.199 197.729 140.248 197.729 140.298 197.722L140.433 197.714L140.592 197.701L140.717 197.69L140.902 197.67L141.021 197.655L141.084 197.647C141.146 197.638 141.209 197.63 141.266 197.62L141.318 197.612L141.477 197.582L141.555 197.567C141.63 197.551 141.706 197.533 141.776 197.516C142.367 197.364 142.664 197.171 142.661 196.968L142.721 216.235C142.721 216.433 142.427 216.632 141.836 216.783C141.766 216.8 141.693 216.817 141.618 216.834L141.539 216.849L141.404 216.875C141.404 216.875 141.386 216.875 141.381 216.875L141.329 216.883C141.266 216.893 141.206 216.903 141.144 216.911L141.081 216.92H141.04L140.962 216.928L140.777 216.949H140.725H140.652L140.493 216.961H140.428H140.358L140.209 216.968H140.136H140.071H139.918H139.842C139.821 216.968 139.801 216.968 139.78 216.968H139.221H139.283H139.202H139.163H139.1L138.892 216.956H138.843H138.819L138.72 216.946L138.556 216.931L138.437 216.916L138.283 216.898H138.252L138.067 216.869H138.043L137.851 216.834L137.796 216.822C137.726 216.807 137.658 216.791 137.593 216.775L137.557 216.765L137.525 216.757L137.468 216.74L137.421 216.727L137.369 216.71L137.325 216.696L137.278 216.679L137.237 216.664L137.195 216.648L137.177 216.64H137.161L137.093 216.609C137.086 216.606 137.079 216.603 137.073 216.6C137.044 216.586 137.018 216.574 136.995 216.56L136.979 216.55L136.937 216.525L136.916 216.511L136.883 216.487V216.48C136.881 216.477 136.881 216.474 136.883 216.471C136.874 216.465 136.866 216.458 136.859 216.452C136.852 216.446 136.846 216.44 136.841 216.434L136.82 216.415V216.405C136.819 216.403 136.819 216.4 136.82 216.397L136.804 216.378C136.804 216.372 136.804 216.366 136.804 216.361C136.803 216.354 136.803 216.348 136.804 216.341V216.331V216.324C136.803 216.317 136.803 216.31 136.804 216.303C136.803 216.297 136.803 216.292 136.804 216.286C136.803 216.279 136.803 216.273 136.804 216.266C136.804 216.266 136.804 216.258 136.804 216.255V216.243V215.646V215.505L136.75 201.693Z" fill="#1359BC"/>
</g>
<g id="Group 8595_2">
<path id="Ellipse 133_2" fill-rule="evenodd" clip-rule="evenodd" d="M73.7212 200.484C73.7212 203.522 71.4826 205.984 68.7212 205.984C65.9598 205.984 63.7212 203.522 63.7212 200.484H73.7212Z" fill="#E1CD14"/>
<path id="Ellipse 134_2" fill-rule="evenodd" clip-rule="evenodd" d="M214.721 200.484C214.721 203.522 212.483 205.984 209.721 205.984C206.96 205.984 204.721 203.522 204.721 200.484H214.721Z" fill="#E1CD14"/>
<rect id="Rectangle 127_2" x="104.782" y="169.409" width="2.29114" height="17" rx="1.14557" fill="#D2649B"/>
<rect id="Rectangle 128_2" x="173.745" y="170.41" width="2.29114" height="16" rx="1.14557" fill="#D2649B"/>
<g id="Group 4142_2">
<g id="Group 4143_2">
<path id="Rectangle 124_4" d="M51.6922 186.986H227.75L229.721 195.486L229.221 200.986H50.9818L49.7212 195.486L51.6922 186.986Z" fill="#74A5E1"/>
<path id="Rectangle 123_4" d="M52.3099 183.762H227.132L229.603 195.425H49.7212L52.3099 183.762Z" fill="#8EB9FF"/>
</g>
<g id="Group 4144_2">
<path id="Rectangle 124_5" d="M55.1587 185.056C55.3659 183.549 56.6686 182.436 58.1897 182.466L81.4878 182.924C83.233 182.958 84.5805 184.469 84.4154 186.207L83.8465 192.197C83.7002 193.737 82.4069 194.913 80.86 194.913H57.2443C55.4251 194.913 54.0245 193.307 54.2723 191.505L55.1587 185.056Z" fill="#AE4A80"/>
<path id="Rectangle 123_5" d="M55.6411 182.932C55.9024 181.481 57.1796 180.435 58.6539 180.464L81.4519 180.922C83.2101 180.957 84.5611 182.49 84.3748 184.239L83.7725 189.894C83.61 191.419 82.3232 192.576 80.7894 192.576H57.4935C55.6239 192.576 54.2097 190.885 54.5409 189.045L55.6411 182.932Z" fill="#D2649B"/>
</g>
<g id="Group 4145_2">
<path id="Rectangle 124_6" d="M193.988 186.011C193.844 184.263 195.224 182.765 196.978 182.765H221.468C222.968 182.765 224.238 183.874 224.44 185.36L225.257 191.36C225.503 193.161 224.103 194.765 222.285 194.765H197.472C195.91 194.765 194.61 193.567 194.482 192.011L193.988 186.011Z" fill="#AE4A80"/>
<path id="Rectangle 123_6" d="M194.027 184.044C193.863 182.285 195.247 180.765 197.014 180.765H221.286C222.821 180.765 224.108 181.923 224.27 183.449L224.87 189.112C225.058 190.884 223.668 192.428 221.887 192.428H197.543C195.995 192.428 194.7 191.249 194.556 189.707L194.027 184.044Z" fill="#D2649B"/>
</g>
</g>
<g id="Group 4147_2">
<path id="Rectangle 125_3" d="M96.2212 181.987L98.2212 181.981V200.981H96.2212V181.987Z" fill="#D2649B"/>
<rect id="Rectangle 126_3" width="4.48678" height="22.113" rx="2.24339" transform="matrix(0.905854 0.423589 -0.523033 0.852313 105.353 166.984)" fill="#1359BC"/>
</g>
<g id="Group 4148_2">
<path id="Rectangle 125_4" d="M184.221 181.988L182.221 181.983V200.983H184.221V181.988Z" fill="#D2649B"/>
<rect id="Rectangle 126_4" width="4.49" height="21.5122" rx="2.245" transform="matrix(-0.905854 0.423589 0.523033 0.852313 175.267 166.985)" fill="#1359BC"/>
</g>
</g>
</g>
<g id="spr_seesaw_blue_4">
<g id="base_3">
<g id="Group 4093_3">
<path id="Vector_7" d="M129.726 287.813C129.726 287.899 129.726 287.78 129.726 287.78C129.726 287.78 129.726 287.802 129.726 287.813C129.726 287.894 129.744 287.977 129.758 288.059C129.757 288.068 129.757 288.078 129.758 288.088C129.744 288.032 129.758 288.145 129.758 288.088C129.744 288.042 129.771 288.145 129.758 288.088C129.771 288.134 130.074 288.605 130.088 288.648V288.632C130.112 288.699 130.058 288.58 130.088 288.648C130.122 288.735 130.044 288.549 130.088 288.632V288.648C130.128 288.726 130.174 288.807 130.22 288.886C130.22 288.886 130.22 288.91 130.242 288.924C130.288 288.999 130.337 289.075 130.391 289.148C130.399 289.163 130.409 289.178 130.42 289.191C130.472 289.267 130.529 289.34 130.588 289.416L130.62 289.459L130.783 289.648L130.829 289.7C130.897 289.772 130.967 289.845 131.04 289.918L131.077 289.954L131.25 290.116L131.394 290.24L131.532 290.354L131.688 290.478L131.837 290.589L132.007 290.708L132.167 290.816L132.348 290.93C132.424 290.978 132.499 291.027 132.578 291.073C132.656 291.119 132.799 291.195 132.91 291.254L132.997 291.3C133.1 291.354 133.202 291.405 133.305 291.454L133.346 291.473L133.697 291.632L133.789 291.67C133.889 291.714 133.992 291.754 134.097 291.795L134.162 291.822L134.532 291.954L134.619 291.984L134.889 292.068C134.968 292.092 135.049 292.119 135.13 292.141L135.338 292.2L135.587 292.268L135.798 292.322L136.049 292.379L136.265 292.425L136.536 292.479L136.773 292.522L136.876 292.538C136.995 292.56 137.117 292.579 137.238 292.595H137.298L137.712 292.646H137.817C137.904 292.646 137.987 292.665 138.087 292.671L138.409 292.7H138.612L138.95 292.717H139.136H139.434H140.131H140.418H140.618L140.921 292.695H141.102L141.45 292.662H141.583L142.059 292.603H142.145L142.543 292.541L142.716 292.508L143.018 292.449L143.183 292.414L143.516 292.338L143.702 292.292C143.805 292.265 143.905 292.241 144.005 292.211C144.105 292.181 144.178 292.162 144.262 292.138L144.359 292.108C144.489 292.07 144.613 292.03 144.74 291.987L144.816 291.96L145.122 291.849L145.23 291.808L145.468 291.714L145.638 291.643L145.868 291.541L146.022 291.47L146.271 291.346L146.392 291.284C146.517 291.219 146.636 291.154 146.755 291.086C148.725 289.948 149.711 289.159 149.706 287.669C149.706 288.28 149.704 288.127 149.704 288.797C149.704 290.289 148.725 291.784 146.752 292.922C146.636 292.99 146.517 293.054 146.395 293.119L146.268 293.182C146.187 293.222 146.106 293.265 146.022 293.303L145.868 293.373L145.638 293.479L145.47 293.547L145.311 293.611L145.23 293.644L145.122 293.684C145.022 293.722 144.919 293.76 144.813 293.795L144.74 293.822C144.616 293.866 144.486 293.906 144.359 293.944L144.262 293.974L144.097 294.022L144.005 294.047L143.702 294.128L143.519 294.174L143.178 294.249L143.056 294.279H143.021L142.71 294.339L142.543 294.368L142.121 294.436H142.064C141.905 294.46 141.745 294.479 141.586 294.498H141.505L141.104 294.536H140.953L140.629 294.558H140.429L140.142 294.571H139.953H139.645H139.439H139.08H138.944L138.606 294.552H138.406L138.082 294.525H137.971L137.825 294.509H137.72L137.306 294.458H137.244L136.884 294.401L136.779 294.382H136.695L136.546 294.355L136.276 294.301L136.065 294.255L135.808 294.195L135.6 294.144L135.349 294.076L135.143 294.017L134.9 293.944L134.795 293.911L134.646 293.86L134.557 293.83C134.432 293.787 134.308 293.744 134.186 293.695L134.119 293.671L133.813 293.547L133.721 293.506C133.602 293.457 133.486 293.403 133.37 293.349L133.329 293.33C133.227 293.282 133.124 293.23 133.024 293.176L132.935 293.13C132.821 293.071 132.71 293.011 132.602 292.946L132.48 292.876C132.443 292.854 132.407 292.83 132.372 292.806L132.191 292.692L132.029 292.584L131.861 292.465L131.713 292.354L131.556 292.23L131.418 292.116L131.275 291.989L131.215 291.938C131.177 291.903 131.14 291.868 131.104 291.83C131.09 291.819 131.076 291.806 131.064 291.792C130.991 291.722 130.921 291.649 130.856 291.576L130.807 291.524C130.75 291.459 130.696 291.397 130.645 291.332L130.61 291.292C130.61 291.292 130.61 291.292 130.596 291.273C130.542 291.203 130.491 291.135 130.445 291.067L130.415 291.024C130.361 290.949 130.312 290.873 130.266 290.797L130.245 290.762L130.193 290.675L130.112 290.524V290.508C130.069 290.424 130.031 290.338 129.993 290.254C129.972 290.205 129.953 290.156 129.934 290.108L129.915 290.048L129.866 289.902C129.866 289.859 129.839 289.816 129.828 289.77C129.818 289.724 129.804 289.672 129.793 289.624C129.784 289.598 129.778 289.572 129.774 289.545C129.774 289.516 129.774 289.483 129.758 289.454C129.757 289.445 129.757 289.435 129.758 289.426C129.745 289.343 129.734 289.262 129.726 289.18C129.727 289.17 129.727 289.159 129.726 289.148C129.726 289.089 129.726 289.032 129.726 288.972V288.886C129.707 288.223 129.728 288.424 129.726 287.813Z" fill="#1359BC"/>
<path id="Vector_8" d="M132.656 283.811C128.739 286.071 128.72 289.737 132.61 292C136.501 294.263 142.832 294.26 146.747 292C150.661 289.74 150.686 286.071 146.795 283.811C142.905 281.551 136.574 281.549 132.656 283.811Z" fill="#8EB9FF"/>
</g>
<path id="Vector_9" d="M136.734 273.531L136.719 271.186C136.719 270.402 136.714 269.618 136.706 268.834V268.857C136.706 268.857 136.706 268.871 136.706 268.877C136.706 268.883 136.706 268.888 136.706 268.894V268.915V268.932V268.952C136.706 268.957 136.706 268.963 136.706 268.969L136.721 268.988C136.72 268.994 136.72 269 136.721 269.006C136.721 269.006 136.734 269.018 136.742 269.025C136.747 269.031 136.753 269.037 136.76 269.043L136.781 269.062L136.802 269.078L136.836 269.101L136.856 269.116C136.87 269.124 136.885 269.132 136.898 269.142C136.906 269.145 136.912 269.149 136.916 269.153L136.994 269.193L137.018 269.204L137.086 269.232L137.119 269.246C137.161 269.262 137.161 269.262 137.203 269.279L137.25 269.295C137.265 269.295 137.278 269.305 137.296 269.31L137.343 269.325L137.393 269.339L137.445 269.354L137.518 269.374C137.583 269.39 137.65 269.406 137.721 269.421L137.775 269.432C137.838 269.445 137.9 269.457 137.968 269.468H137.991L138.208 269.501L138.364 269.52L138.481 269.534L138.647 269.55C138.686 269.55 138.725 269.558 138.767 269.56H138.817L139.025 269.573H139.085H139.207H139.41H139.842H139.993L140.131 269.567C140.183 269.567 140.233 269.567 140.282 269.56L140.417 269.552L140.576 269.54L140.701 269.528L140.886 269.509L141.006 269.494L141.068 269.486C141.131 269.476 141.193 269.468 141.25 269.458L141.302 269.45L141.461 269.42L141.539 269.405C141.615 269.389 141.69 269.372 141.761 269.354C142.352 269.203 142.648 269.009 142.646 268.807L142.706 288.074C142.706 288.271 142.411 288.471 141.82 288.621C141.75 288.639 141.677 288.656 141.602 288.672L141.524 288.687L141.388 288.713C141.388 288.713 141.37 288.713 141.365 288.713L141.313 288.721C141.25 288.732 141.191 288.741 141.128 288.749L141.066 288.758H141.024L140.946 288.766L140.761 288.787H140.709H140.636L140.477 288.8H140.412H140.342L140.194 288.807H140.121H140.056H139.902H139.827C139.806 288.806 139.785 288.806 139.764 288.807H139.206H139.267H139.186H139.147H139.085L138.876 288.794H138.827H138.804L138.705 288.785L138.541 288.77L138.421 288.755L138.267 288.736H138.236L138.051 288.708H138.028L137.835 288.672L137.781 288.66C137.71 288.646 137.643 288.629 137.578 288.613L137.541 288.603L137.51 288.595L137.453 288.579L137.406 288.565L137.354 288.549L137.309 288.534L137.263 288.518L137.221 288.503L137.179 288.487L137.161 288.479H137.145L137.078 288.448C137.07 288.445 137.063 288.442 137.057 288.438C137.028 288.425 137.002 288.412 136.979 288.398L136.963 288.389L136.922 288.364L136.901 288.35L136.867 288.326V288.319C136.866 288.316 136.866 288.313 136.867 288.309C136.858 288.303 136.85 288.297 136.844 288.29C136.836 288.284 136.83 288.279 136.825 288.273L136.804 288.253V288.244C136.803 288.241 136.803 288.238 136.804 288.236L136.789 288.216C136.789 288.21 136.789 288.205 136.789 288.199C136.788 288.192 136.788 288.186 136.789 288.179V288.169V288.162C136.788 288.155 136.788 288.148 136.789 288.141C136.787 288.136 136.787 288.13 136.789 288.124C136.787 288.118 136.787 288.111 136.789 288.105C136.789 288.105 136.789 288.097 136.789 288.093V288.082V287.484V287.344L136.734 273.531Z" fill="#1359BC"/>
</g>
<g id="Group 8595_3">
<path id="Ellipse 133_3" fill-rule="evenodd" clip-rule="evenodd" d="M72.4913 264.175C72.1211 267.19 69.5991 269.361 66.8582 269.025C64.1174 268.688 62.1956 265.971 62.5658 262.957L72.4913 264.175Z" fill="#E1CD14"/>
<path id="Ellipse 134_3" fill-rule="evenodd" clip-rule="evenodd" d="M212.44 281.359C212.07 284.374 209.548 286.545 206.807 286.208C204.067 285.872 202.145 283.155 202.515 280.14L212.44 281.359Z" fill="#E1CD14"/>
<rect id="Rectangle 127_3" x="107.107" y="237.117" width="2.29114" height="17" rx="1.14557" transform="rotate(7 107.107 237.117)" fill="#D2649B"/>
<rect id="Rectangle 128_3" x="175.435" y="246.515" width="2.29114" height="16" rx="1.14557" transform="rotate(7 175.435 246.515)" fill="#D2649B"/>
<g id="Group 4142_3">
<g id="Group 4143_3">
<path id="Rectangle 124_7" d="M52.2712 248.093L227.017 269.549L227.937 278.226L226.771 283.624L49.86 261.902L49.2791 256.289L52.2712 248.093Z" fill="#74A5E1"/>
<path id="Rectangle 123_7" d="M53.2774 244.968L226.797 266.273L227.828 278.151L49.2866 256.229L53.2774 244.968Z" fill="#8EB9FF"/>
</g>
<g id="Group 4144_3">
<path id="Rectangle 124_8" d="M55.9471 246.6C56.3364 245.129 57.7651 244.183 59.2712 244.398L82.3399 247.692C84.0678 247.938 85.2211 249.603 84.8455 251.307L83.5509 257.183C83.218 258.694 81.791 259.704 80.2555 259.515L56.8159 256.637C55.0102 256.415 53.8159 254.65 54.2814 252.892L55.9471 246.6Z" fill="#AE4A80"/>
<path id="Rectangle 123_8" d="M56.6845 244.55C57.1206 243.142 58.5158 242.259 59.9755 242.468L82.5479 245.7C84.2887 245.95 85.4428 247.636 85.0448 249.349L83.7577 254.889C83.4106 256.383 81.9923 257.374 80.4699 257.187L57.3477 254.348C55.4921 254.12 54.2945 252.269 54.8475 250.483L56.6845 244.55Z" fill="#D2649B"/>
</g>
<g id="Group 4145_3">
<path id="Rectangle 124_9" d="M193.626 264.467C193.696 262.714 195.248 261.396 196.989 261.609L221.296 264.594C222.785 264.777 223.91 266.032 223.93 267.532L224.01 273.587C224.034 275.404 222.449 276.826 220.645 276.604L196.017 273.58C194.467 273.39 193.322 272.042 193.385 270.482L193.626 264.467Z" fill="#AE4A80"/>
<path id="Rectangle 123_9" d="M193.904 262.519C193.956 260.753 195.515 259.414 197.269 259.629L221.36 262.587C222.883 262.774 224.019 264.08 223.994 265.614L223.899 271.309C223.87 273.09 222.303 274.454 220.534 274.236L196.372 271.27C194.835 271.081 193.694 269.753 193.739 268.205L193.904 262.519Z" fill="#D2649B"/>
</g>
</g>
<g id="Group 4147_3">
<path id="Rectangle 125_5" d="M97.0785 248.558L99.0642 248.796L96.7487 267.654L94.7636 267.411L97.0785 248.558Z" fill="#D2649B"/>
<rect id="Rectangle 126_5" width="4.48678" height="22.113" rx="2.24339" transform="matrix(0.84748 0.530828 -0.623005 0.782218 107.97 234.78)" fill="#1359BC"/>
</g>
<g id="Group 4148_3">
<path id="Rectangle 125_6" d="M184.422 259.284L182.438 259.035L180.122 277.893L182.107 278.137L184.422 259.284Z" fill="#D2649B"/>
<rect id="Rectangle 126_6" width="4.49" height="21.5122" rx="2.245" transform="matrix(-0.950725 0.310036 0.415263 0.909701 177.363 243.301)" fill="#1359BC"/>
</g>
</g>
</g>
<g id="spr_seesaw_blue_5">
<g id="base_4">
<g id="Group 4093_4">
<path id="Vector_10" d="M129.108 366.275C129.108 366.362 129.108 366.243 129.108 366.243C129.108 366.243 129.108 366.265 129.108 366.275C129.108 366.357 129.127 366.44 129.14 366.521C129.139 366.531 129.139 366.541 129.14 366.551C129.127 366.494 129.14 366.608 129.14 366.551C129.127 366.505 129.154 366.608 129.14 366.551C129.154 366.597 129.457 367.068 129.47 367.111V367.095C129.495 367.162 129.441 367.043 129.47 367.111C129.504 367.198 129.427 367.012 129.47 367.095V367.111C129.511 367.189 129.557 367.27 129.603 367.349C129.603 367.349 129.603 367.373 129.624 367.387C129.67 367.462 129.719 367.538 129.773 367.611C129.781 367.626 129.791 367.641 129.803 367.654C129.854 367.73 129.911 367.803 129.97 367.879L130.003 367.922L130.165 368.111L130.211 368.162C130.279 368.235 130.35 368.307 130.422 368.381L130.46 368.417L130.633 368.579L130.776 368.703L130.914 368.817L131.071 368.941L131.219 369.052L131.39 369.171L131.549 369.279L131.73 369.392C131.806 369.441 131.882 369.49 131.96 369.536C132.038 369.582 132.182 369.657 132.293 369.717L132.379 369.763C132.482 369.817 132.585 369.868 132.687 369.917L132.728 369.936L133.079 370.095L133.171 370.133C133.271 370.176 133.374 370.217 133.479 370.258L133.544 370.285L133.915 370.417L134.001 370.447L134.272 370.531C134.35 370.555 134.431 370.582 134.512 370.604L134.72 370.663L134.969 370.731L135.18 370.785L135.431 370.842L135.648 370.887L135.918 370.942L136.156 370.985L136.259 371.001C136.378 371.023 136.499 371.042 136.621 371.058H136.68L137.094 371.109H137.199C137.286 371.109 137.37 371.128 137.47 371.133L137.791 371.163H137.994L138.332 371.179H138.519H138.816H139.513H139.8H140L140.303 371.158H140.484L140.833 371.125H140.965L141.441 371.066H141.528L141.925 371.004L142.098 370.971L142.401 370.912L142.566 370.877L142.898 370.801L143.085 370.755C143.187 370.728 143.287 370.704 143.387 370.674C143.488 370.644 143.561 370.625 143.644 370.601L143.742 370.571C143.871 370.533 143.996 370.493 144.123 370.45L144.199 370.422L144.504 370.312L144.612 370.271L144.85 370.176L145.02 370.106L145.25 370.003L145.404 369.933L145.653 369.809L145.775 369.747C145.899 369.682 146.018 369.617 146.137 369.549C148.108 368.411 149.093 367.622 149.088 366.132C149.088 366.743 149.086 366.59 149.086 367.259C149.086 368.752 148.108 370.247 146.134 371.385C146.018 371.452 145.899 371.517 145.777 371.582L145.65 371.644C145.569 371.685 145.488 371.728 145.404 371.766L145.25 371.836L145.02 371.942L144.853 372.009L144.693 372.074L144.612 372.107L144.504 372.147C144.404 372.185 144.301 372.223 144.196 372.258L144.123 372.285C143.998 372.328 143.869 372.369 143.742 372.407L143.644 372.437L143.479 372.485L143.387 372.51L143.085 372.591L142.901 372.637L142.56 372.712L142.439 372.742H142.403L142.093 372.801L141.925 372.831L141.503 372.899H141.446C141.287 372.923 141.127 372.942 140.968 372.961H140.887L140.487 372.999H140.335L140.011 373.02H139.811L139.524 373.034H139.335H139.027H138.821H138.462H138.327L137.989 373.015H137.789L137.464 372.988H137.353L137.207 372.972H137.102L136.688 372.92H136.626L136.267 372.864L136.161 372.845H136.077L135.929 372.818L135.658 372.764L135.448 372.718L135.191 372.658L134.983 372.607L134.731 372.539L134.526 372.48L134.282 372.407L134.177 372.374L134.028 372.323L133.939 372.293C133.815 372.25 133.69 372.207 133.569 372.158L133.501 372.134L133.196 372.009L133.104 371.969C132.985 371.92 132.868 371.866 132.752 371.812L132.712 371.793C132.609 371.744 132.506 371.693 132.406 371.639L132.317 371.593C132.203 371.534 132.093 371.474 131.984 371.409L131.863 371.339C131.825 371.317 131.79 371.293 131.755 371.269L131.574 371.155L131.411 371.047L131.244 370.928L131.095 370.817L130.938 370.693L130.8 370.579L130.657 370.452L130.598 370.401C130.56 370.366 130.522 370.331 130.487 370.293C130.472 370.282 130.458 370.269 130.446 370.255C130.373 370.185 130.303 370.112 130.238 370.039L130.189 369.987C130.133 369.922 130.079 369.86 130.027 369.795L129.992 369.755C129.992 369.755 129.992 369.755 129.979 369.736C129.924 369.666 129.873 369.598 129.827 369.53L129.797 369.487C129.743 369.411 129.695 369.336 129.649 369.26L129.627 369.225L129.576 369.138L129.495 368.987V368.971C129.451 368.887 129.413 368.8 129.376 368.717C129.354 368.668 129.335 368.619 129.316 368.571L129.297 368.511L129.249 368.365C129.249 368.322 129.222 368.279 129.211 368.233C129.2 368.187 129.186 368.135 129.176 368.087C129.166 368.061 129.16 368.035 129.157 368.008C129.157 367.979 129.157 367.946 129.14 367.916C129.139 367.907 129.139 367.898 129.14 367.889C129.127 367.806 129.116 367.724 129.108 367.643C129.109 367.633 129.109 367.622 129.108 367.611C129.108 367.551 129.108 367.495 129.108 367.435V367.349C129.089 366.686 129.111 366.886 129.108 366.275Z" fill="#1359BC"/>
<path id="Vector_11" d="M132.039 362.274C128.121 364.534 128.103 368.2 131.993 370.463C135.883 372.726 142.214 372.723 146.129 370.463C150.044 368.203 150.068 364.534 146.178 362.274C142.287 360.014 135.956 360.011 132.039 362.274Z" fill="#8EB9FF"/>
</g>
<path id="Vector_12" d="M136.116 351.994L136.101 349.648C136.101 348.865 136.097 348.081 136.088 347.297V347.32C136.088 347.32 136.088 347.334 136.088 347.34C136.088 347.345 136.088 347.351 136.088 347.357V347.378V347.395V347.415C136.088 347.42 136.088 347.426 136.088 347.432L136.104 347.451C136.103 347.457 136.103 347.463 136.104 347.469C136.104 347.469 136.116 347.481 136.124 347.488C136.129 347.494 136.135 347.5 136.143 347.505L136.163 347.525L136.184 347.541L136.218 347.564L136.239 347.579C136.252 347.587 136.267 347.595 136.281 347.604C136.288 347.608 136.294 347.612 136.299 347.616L136.377 347.656L136.4 347.667L136.468 347.695L136.502 347.709C136.543 347.725 136.543 347.725 136.585 347.741L136.632 347.758C136.648 347.758 136.661 347.768 136.679 347.772L136.726 347.787L136.775 347.802L136.827 347.817L136.9 347.837C136.965 347.853 137.033 347.869 137.103 347.884L137.158 347.894C137.22 347.908 137.283 347.92 137.35 347.931H137.374L137.59 347.964L137.746 347.983L137.863 347.997L138.03 348.013C138.069 348.013 138.108 348.021 138.149 348.023H138.199L138.407 348.036H138.467H138.589H138.792H139.225H139.375L139.513 348.03C139.566 348.03 139.615 348.03 139.664 348.023L139.8 348.015L139.959 348.003L140.084 347.991L140.268 347.972L140.388 347.957L140.451 347.949C140.513 347.939 140.576 347.931 140.633 347.921L140.685 347.913L140.844 347.883L140.922 347.868C140.997 347.852 141.073 347.835 141.143 347.817C141.734 347.665 142.031 347.472 142.028 347.27L142.088 366.536C142.088 366.734 141.794 366.933 141.203 367.084C141.133 367.102 141.06 367.119 140.984 367.135L140.906 367.15L140.771 367.176C140.771 367.176 140.752 367.176 140.747 367.176L140.695 367.184C140.633 367.195 140.573 367.204 140.51 367.212L140.448 367.221H140.406L140.328 367.229L140.143 367.25H140.091H140.018L139.86 367.263H139.795H139.724L139.576 367.27H139.503H139.438H139.284H139.209C139.188 367.269 139.167 367.269 139.146 367.27H138.588H138.649H138.569H138.53H138.467L138.259 367.257H138.209H138.186L138.087 367.248L137.923 367.233L137.803 367.218L137.65 367.199H137.618L137.434 367.171H137.41L137.218 367.135L137.163 367.123C137.093 367.108 137.025 367.092 136.96 367.076L136.923 367.066L136.892 367.058L136.835 367.042L136.788 367.028L136.736 367.012L136.692 366.997L136.645 366.981L136.603 366.966L136.562 366.95L136.543 366.942H136.528L136.46 366.91C136.453 366.908 136.446 366.905 136.439 366.901C136.411 366.887 136.385 366.875 136.361 366.861L136.346 366.852L136.304 366.826L136.283 366.813L136.249 366.788V366.782C136.248 366.779 136.248 366.775 136.249 366.772C136.24 366.766 136.233 366.76 136.226 366.753C136.219 366.747 136.213 366.741 136.208 366.736L136.187 366.716V366.707C136.186 366.704 136.186 366.701 136.187 366.699L136.171 366.679C136.171 366.673 136.171 366.668 136.171 366.662C136.17 366.655 136.17 366.649 136.171 366.642V366.632V366.625C136.17 366.618 136.17 366.611 136.171 366.604C136.17 366.599 136.17 366.593 136.171 366.587C136.17 366.581 136.17 366.574 136.171 366.567C136.171 366.567 136.171 366.559 136.171 366.556V366.544V365.947V365.807L136.116 351.994Z" fill="#1359BC"/>
</g>
<g id="Group 8595_4">
<path id="Ellipse 133_4" fill-rule="evenodd" clip-rule="evenodd" d="M71.6188 336.758C70.9873 339.729 68.2857 341.672 65.5846 341.098C62.8835 340.524 61.2058 337.65 61.8374 334.679L71.6188 336.758Z" fill="#E1CD14"/>
<path id="Ellipse 134_4" fill-rule="evenodd" clip-rule="evenodd" d="M209.538 366.073C208.906 369.045 206.205 370.988 203.504 370.414C200.802 369.839 199.125 366.965 199.756 363.994L209.538 366.073Z" fill="#E1CD14"/>
<rect id="Rectangle 127_4" x="108.462" y="312.819" width="2.29114" height="17" rx="1.14557" transform="rotate(12 108.462 312.819)" fill="#D2649B"/>
<rect id="Rectangle 128_4" x="175.709" y="328.137" width="2.29114" height="16" rx="1.14557" transform="rotate(12 175.709 328.137)" fill="#D2649B"/>
<g id="Group 4142_4">
<g id="Group 4143_4">
<path id="Rectangle 124_10" d="M52.8776 318.974L225.088 355.578L225.249 364.302L223.616 369.578L49.272 332.52L49.1825 326.878L52.8776 318.974Z" fill="#74A5E1"/>
<path id="Rectangle 123_10" d="M54.1522 315.949L225.154 352.297L225.147 364.219L49.1952 326.819L54.1522 315.949Z" fill="#8EB9FF"/>
</g>
<g id="Group 4144_4">
<path id="Rectangle 124_11" d="M56.6693 317.807C57.1854 316.376 58.6911 315.558 60.1728 315.903L82.8666 321.195C84.5664 321.592 85.5703 323.35 85.0476 325.015L83.2457 330.756C82.7824 332.232 81.2728 333.114 79.7597 332.792L56.6601 327.882C54.8806 327.504 53.8446 325.642 54.4617 323.93L56.6693 317.807Z" fill="#AE4A80"/>
<path id="Rectangle 123_11" d="M57.5828 315.83C58.1401 314.465 59.6069 313.707 61.0428 314.042L83.2476 319.23C84.9601 319.63 85.9628 321.41 85.417 323.082L83.652 328.488C83.176 329.947 81.6767 330.811 80.1764 330.492L57.3896 325.648C55.5609 325.26 54.5293 323.311 55.2358 321.58L57.5828 315.83Z" fill="#D2649B"/>
</g>
<g id="Group 4145_4">
<path id="Rectangle 124_12" d="M192.267 347.606C192.489 345.866 194.15 344.688 195.866 345.052L219.82 350.144C221.288 350.456 222.299 351.804 222.188 353.3L221.74 359.339C221.606 361.152 219.903 362.429 218.125 362.051L193.854 356.893C192.327 356.568 191.304 355.126 191.502 353.577L192.267 347.606Z" fill="#AE4A80"/>
<path id="Rectangle 123_12" d="M192.714 345.69C192.919 343.935 194.589 342.736 196.317 343.104L220.059 348.15C221.56 348.469 222.578 349.869 222.419 351.396L221.829 357.06C221.644 358.832 219.964 360.054 218.221 359.683L194.41 354.622C192.895 354.3 191.874 352.878 192.054 351.339L192.714 345.69Z" fill="#D2649B"/>
</g>
</g>
<g id="Group 4147_4">
<path id="Rectangle 125_7" d="M97.473 323.343L99.4304 323.753L95.4801 342.338L93.5238 341.922L97.473 323.343Z" fill="#D2649B"/>
<rect id="Rectangle 126_7" width="4.48678" height="22.113" rx="2.24339" transform="matrix(0.79799 0.602671 -0.688809 0.724943 109.524 310.566)" fill="#1359BC"/>
</g>
<g id="Group 4148_4">
<path id="Rectangle 125_8" d="M183.55 341.64L181.595 341.219L177.645 359.804L179.601 360.22L183.55 341.64Z" fill="#D2649B"/>
<rect id="Rectangle 126_8" width="4.49" height="21.5122" rx="2.245" transform="matrix(-0.974128 0.225995 0.334397 0.942432 177.91 325.104)" fill="#1359BC"/>
</g>
</g>
</g>
</g>
</svg>
