<svg width="391" height="254" viewBox="0 0 391 254" fill="none" xmlns="http://www.w3.org/2000/svg">
<path d="M198.527 26.3086C164.51 26.3086 154.344 15.7517 139.877 9.88672C133.23 11.4507 117.356 16.6901 111.726 20.4436C111.034 49.6961 110.192 107.627 98.8228 118.975C96.4769 130.705 78.8941 227.071 80.055 244.485C105.861 250.35 166.622 253.869 198.527 253.869C230.432 253.869 291.193 250.35 316.999 244.485C319.814 230.409 306.051 154.164 299.404 118.975C290.02 104.899 286.892 47.4224 286.501 20.4436C280.871 16.6901 263.823 11.4507 257.176 9.88672C242.71 15.7517 232.544 26.3086 198.527 26.3086Z" fill="#FFFEEE"/>
<path d="M197.796 25.9128C163.377 25.9128 139.936 9.29672 139.936 9.29672L123.53 14.6353C123.53 14.6353 157.593 34.418 178.72 37.4825C195.023 39.8474 208.694 39.2633 224.711 35.4055C242.699 31.0727 268.031 12.5583 268.031 12.5583L256.249 9C256.249 9 232.215 25.9128 197.796 25.9128Z" fill="#328FE4"/>
<path fill-rule="evenodd" clip-rule="evenodd" d="M102.321 116.031L79.7708 148.679L55.2699 183.671L7.39243 148.679C13.2146 139.364 19.2484 129.504 25.0706 120.188C53.048 74.1094 77.7137 33.3147 110.305 18.7777C110.683 18.6118 111.438 18.2801 111.816 18.1142C118.835 45.8969 117.295 88.0527 102.321 116.031Z" fill="#FDFBB8"/>
<path d="M61.5596 174.59C36.6738 167.926 18.7964 149.4 12.0029 141.377C8.87791 147.239 6.53852 151.096 5.27778 152.007C18.7079 181.539 45.4822 184.566 53.7435 185.404C56.4297 181.707 59.0443 178.083 61.5596 174.59Z" fill="#328FE4"/>
<path fill-rule="evenodd" clip-rule="evenodd" d="M288.969 116.031L311.519 148.679L336.02 183.671L383.898 148.679C378.075 139.364 372.042 129.504 366.219 120.188C338.242 74.1094 313.576 33.3147 280.985 18.7777C280.607 18.6118 279.852 18.2801 279.474 18.1142C272.455 45.8969 273.995 88.0527 288.969 116.031Z" fill="#FDFBB8"/>
<path d="M328.959 173.037C353.845 166.373 371.722 147.847 378.515 139.825C381.64 145.686 383.98 149.543 385.241 150.455C371.81 179.987 345.036 183.013 336.775 183.851C334.089 180.155 331.474 176.53 328.959 173.037Z" fill="#328FE4"/>
<path fill-rule="evenodd" clip-rule="evenodd" d="M168.689 29.4887C179.222 34.7286 190.234 39.1824 190.234 42.0643C190.234 45.2082 179.222 54.6399 168.689 54.6399C158.155 54.6399 161.507 48.8761 161.507 42.0643C161.507 34.9906 158.155 23.9869 168.689 29.4887Z" fill="#F23D31"/>
<path fill-rule="evenodd" clip-rule="evenodd" d="M222.311 29.4887C211.778 34.7286 200.766 39.1824 200.766 42.0643C200.766 45.2082 211.778 54.6399 222.311 54.6399C232.845 54.6399 229.493 48.8761 229.493 42.0643C229.493 34.9906 232.845 23.9869 222.311 29.4887Z" fill="#F23D31"/>
<path d="M194.671 55C200.488 55 205.204 49.9562 205.204 43.7344C205.204 37.5126 200.488 32.4688 194.671 32.4688C188.854 32.4688 184.138 37.5126 184.138 43.7344C184.138 49.9562 188.854 55 194.671 55Z" fill="#FF8328"/>
</svg>
