<svg width="285" height="296" viewBox="0 0 285 296" fill="none" xmlns="http://www.w3.org/2000/svg">
<path fill-rule="evenodd" clip-rule="evenodd" d="M137.555 11.1611V90.8099H147.235V11.1611H137.555Z" fill="#F23D31"/>
<path fill-rule="evenodd" clip-rule="evenodd" d="M142.403 22.2979C148.629 22.2979 153.699 17.3071 153.699 11.1575C153.699 4.99074 148.629 0 142.403 0C136.159 0 131.106 4.99074 131.106 11.1575C131.106 17.3076 136.159 22.2979 142.403 22.2979Z" fill="#F23D31"/>
<path fill-rule="evenodd" clip-rule="evenodd" d="M142.789 53.5094C149.015 53.5094 154.085 48.5187 154.085 42.3519C154.085 36.2018 149.015 31.1943 142.789 31.1943C136.546 31.1943 131.493 36.2018 131.493 42.3519C131.493 48.5187 136.546 53.5094 142.789 53.5094Z" fill="#F23D31"/>
<path fill-rule="evenodd" clip-rule="evenodd" d="M142.789 70.0817C149.015 70.0817 154.085 65.0909 154.085 58.9241C154.085 52.7741 149.015 47.7666 142.789 47.7666C136.546 47.7666 131.493 52.7741 131.493 58.9241C131.493 65.0909 136.546 70.0817 142.789 70.0817Z" fill="#F4CE5A"/>
<path fill-rule="evenodd" clip-rule="evenodd" d="M142.789 88.6032C149.015 88.6032 154.085 83.6124 154.085 77.4456C154.085 71.2956 149.015 66.2881 142.789 66.2881C136.546 66.2881 131.493 71.2956 131.493 77.4456C131.493 83.6124 136.546 88.6032 142.789 88.6032Z" fill="#F23D31"/>
<path fill-rule="evenodd" clip-rule="evenodd" d="M142.403 25.4773C142.403 25.4773 202.881 11.1611 226.664 11.1611C250.464 11.1611 250.804 20.823 250.804 20.823C250.804 20.823 245.82 33.459 228.621 33.459C211.439 33.459 142.404 25.4773 142.404 25.4773H142.403Z" fill="#F06292"/>
<path fill-rule="evenodd" clip-rule="evenodd" d="M142.402 25.4773C142.402 25.4773 81.9234 11.1611 58.123 11.1611C34.3405 11.1611 34 20.823 34 20.823C34 20.823 38.9843 33.459 56.1663 33.459C73.3483 33.459 142.401 25.4773 142.401 25.4773H142.402Z" fill="#F06292"/>
<path fill-rule="evenodd" clip-rule="evenodd" d="M142.403 36.6471C148.629 36.6471 153.699 31.6564 153.699 25.4896C153.699 19.3395 148.629 14.332 142.403 14.332C136.159 14.332 131.106 19.3395 131.106 25.4896C131.106 31.6564 136.159 36.6471 142.403 36.6471Z" fill="#FF8328"/>
<path d="M24.5 295C24.5 295 14.1997 291 19 272.431C22.4988 241.857 96.047 197 142.5 197C188.953 197 248.505 232.43 270.75 269.954C272.485 273.5 278.155 286.098 262.671 290.82C263.107 294.05 262.671 297.778 272.485 292.808C282.299 287.838 284.48 282.868 284.916 273.425C285.352 263.982 284.752 255.59 266.532 239.38C248.312 223.169 209.419 178.915 140.209 178.915C76.422 178.915 20.8003 234.642 20.8003 234.642C20.8003 234.642 -2.96212 258.017 0.309236 272.431C3.58059 286.844 10.9785 296.74 24.5 295Z" fill="#3BB376"/>
<path d="M24.6255 295.177C24.6255 295.177 10.1935 289.746 11.6591 270.76C13.0575 252.645 81.1521 195 140.801 195C200.45 195 264.736 245.828 275 271C275.655 276.034 278.451 281.83 274.1 285.682C270.846 288.243 266.866 291.119 263 292C263 292 216.683 222.538 140.801 222.538C64.9193 222.538 32.7054 294.421 24.6255 295.177Z" fill="#00838F"/>
<path fill-rule="evenodd" clip-rule="evenodd" d="M155 87C275.898 104.5 271.5 218.795 271.5 246C271.5 246 224.489 201.182 207 196C189.511 190.818 150.5 89 150.5 89C150.5 89 153.297 88.6337 155 87Z" fill="#F96131"/>
<path fill-rule="evenodd" clip-rule="evenodd" d="M132.169 86.6475C12.9545 93.7725 10.3636 214.897 13.6021 242.75C13.6021 242.75 61.3635 198.739 79.5 195.5C97.6365 192.261 136.67 89.8861 136.67 89.8861C136.67 89.8861 133.872 88.2812 132.169 86.6475Z" fill="#A57FF4"/>
<path fill-rule="evenodd" clip-rule="evenodd" d="M150.5 89C179.648 112.966 203.386 161.784 206.625 194.169C206.625 194.169 181.364 181.443 142.5 179.5C108.818 179.5 78 195.5 78 195.5C80.5909 179.955 94 126.5 136.5 90C136.5 90 147.5 90.5 150.5 89Z" fill="#358ED7"/>
</svg>
