<svg width="390" height="255" viewBox="0 0 390 255" fill="none" xmlns="http://www.w3.org/2000/svg">
<g id="spr-tshirt_w/flower">
<g id="sleeve-r">
<path id="Vector" fill-rule="evenodd" clip-rule="evenodd" d="M102.321 116.031L79.7708 148.679L55.2699 183.671L7.39247 148.679C13.2146 139.364 19.2485 129.504 25.0706 120.188C53.0481 74.1094 77.7138 33.3147 110.305 18.7777C110.683 18.6118 111.438 18.2801 111.816 18.1142C118.835 45.8969 117.295 88.0527 102.321 116.031Z" fill="#FD984F"/>
<path id="Vector_2" d="M61.5596 174.59C36.6738 167.926 18.7964 149.4 12.0029 141.377C8.87791 147.239 6.53852 151.096 5.27778 152.007C18.7079 181.539 45.4822 184.566 53.7435 185.404C56.4297 181.707 59.0443 178.083 61.5596 174.59Z" fill="#19561B"/>
</g>
<g id="sleeve-l">
<path id="sleeve-l_2" fill-rule="evenodd" clip-rule="evenodd" d="M288.45 117.812L311.001 150.46L335.502 185.453L383.379 150.46C377.557 141.145 371.523 131.285 365.701 121.97C337.724 75.8906 313.058 35.0959 280.467 20.5589C280.089 20.3931 279.333 20.0613 278.956 19.8955C271.937 47.6781 273.476 89.834 288.45 117.812Z" fill="#FD984F"/>
<path id="Vector_3" d="M328.44 174.819C353.326 168.155 371.204 149.628 377.997 141.606C381.122 147.468 383.461 151.324 384.722 152.236C371.292 181.768 344.518 184.794 336.257 185.632C333.57 181.936 330.956 178.312 328.44 174.819Z" fill="#19561B"/>
</g>
<g id="base">
<path id="vector" d="M192.199 26.5078C158.183 26.5078 148.017 15.9509 133.55 10.0859C126.903 11.6499 111.028 16.8893 105.398 20.6428C104.707 49.8953 103.865 107.826 92.4951 119.174C90.1492 130.904 72.5664 227.27 73.7273 244.684C99.5331 250.549 160.294 254.068 192.199 254.068C224.104 254.068 284.865 250.549 310.671 244.684C313.486 230.608 299.723 154.364 293.076 119.174C283.692 105.098 280.564 47.6216 280.173 20.6428C274.543 16.8893 257.496 11.6499 250.849 10.0859C236.382 15.9509 226.216 26.5078 192.199 26.5078Z" fill="#9AD163"/>
<path id="Vector 31" d="M191.468 26.1121C157.049 26.1121 133.609 9.49594 133.609 9.49594L117.203 14.8345C117.203 14.8345 151.265 34.6172 172.392 37.6817C188.696 40.0466 202.367 39.4625 218.383 35.6047C236.371 31.2719 261.704 12.7575 261.704 12.7575L249.921 9.19922C249.921 9.19922 225.887 26.1121 191.468 26.1121Z" fill="#19561B"/>
</g>
<g id="flower">
<g id="Group 91">
<ellipse id="Ellipse 114" rx="19.1034" ry="29.5235" transform="matrix(-0.75493 -0.655805 -0.655805 0.75493 211.498 110.229)" fill="#FFF1DB"/>
<ellipse id="Ellipse 115" rx="19.1034" ry="29.5235" transform="matrix(0.655805 -0.75493 -0.75493 -0.655805 214.145 156.106)" fill="#FFF1DB"/>
<ellipse id="Ellipse 116" rx="19.1034" ry="29.5235" transform="matrix(-0.0700916 -0.997541 -0.997541 0.0700916 224.307 136.994)" fill="#FFF1DB"/>
<ellipse id="Ellipse 117" cx="169.341" cy="158.761" rx="19.1034" ry="29.5235" transform="rotate(-139.019 169.341 158.761)" fill="#FFF1DB"/>
<ellipse id="Ellipse 118" cx="197.637" cy="167.697" rx="19.1034" ry="29.5235" transform="rotate(175.981 197.637 167.697)" fill="#FFF1DB"/>
<ellipse id="Ellipse 119" cx="166.234" cy="114.487" rx="19.1034" ry="29.5235" transform="rotate(-49.0193 166.234 114.487)" fill="#FFF1DB"/>
<ellipse id="Ellipse 120" cx="183.736" cy="101.75" rx="19.1034" ry="29.5235" transform="rotate(-4.01925 183.736 101.75)" fill="#FFF1DB"/>
<ellipse id="Ellipse 121" rx="19.1034" ry="29.5235" transform="matrix(0.0700916 0.997541 0.997541 -0.0700916 157.066 132.453)" fill="#FFF1DB"/>
</g>
<circle id="Ellipse 113" r="24.5022" transform="matrix(-0.861948 -0.506996 -0.506996 0.861948 191.542 132.542)" fill="#FFC369"/>
</g>
</g>
</svg>
