<svg width="235" height="153" viewBox="0 0 235 153" fill="none" xmlns="http://www.w3.org/2000/svg">
<g id="spr_tee_blue">
<g id="sleeve-r">
<path id="Vector" fill-rule="evenodd" clip-rule="evenodd" d="M61.6991 70.0416L48.1645 89.6369L33.4594 110.639L4.72392 89.6369C8.2183 84.0459 11.8397 78.1279 15.3341 72.537C32.1259 44.8809 46.9299 20.3964 66.4909 11.6715C66.7176 11.572 67.1711 11.3729 67.3978 11.2733C71.6102 27.9481 70.6864 53.2496 61.6991 70.0416Z" fill="#81CCF8"/>
<path id="Vector_2" d="M37.2344 105.188C22.2982 101.189 11.5684 90.0692 7.49108 85.2543C5.61548 88.7725 4.21141 91.0872 3.45473 91.6343C11.5153 109.359 27.5849 111.175 32.5433 111.678C34.1555 109.46 35.7248 107.285 37.2344 105.188Z" fill="#354258"/>
</g>
<g id="sleeve-l">
<path id="sleeve-l_2" fill-rule="evenodd" clip-rule="evenodd" d="M173.412 71.1109L186.946 90.7062L201.651 111.708L230.387 90.7062C226.892 85.1153 223.271 79.1972 219.777 73.6063C202.985 45.9503 188.181 21.4658 168.62 12.7409C168.393 12.6413 167.94 12.4422 167.713 12.3426C163.501 29.0175 164.424 54.3189 173.412 71.1109Z" fill="#81CCF8"/>
<path id="Vector_3" d="M197.413 105.326C212.349 101.326 223.079 90.2069 227.157 85.392C229.032 88.9102 230.436 91.2249 231.193 91.772C223.132 109.497 207.063 111.313 202.104 111.816C200.492 109.598 198.923 107.422 197.413 105.326Z" fill="#354258"/>
</g>
<g id="base">
<path id="vector" d="M115.643 16.3113C95.2263 16.3113 89.1248 9.97515 80.4419 6.45508C76.4525 7.39376 66.9249 10.5384 63.5456 12.7912C63.1307 30.3482 62.6254 65.1178 55.8014 71.9284C54.3935 78.9686 43.8405 136.806 44.5373 147.258C60.0256 150.778 96.4935 152.89 115.643 152.89C134.792 152.89 171.26 150.778 186.748 147.258C188.438 138.81 180.177 93.0489 176.188 71.9284C170.556 63.4802 168.678 28.9835 168.444 12.7912C165.064 10.5384 154.833 7.39376 150.843 6.45508C142.161 9.97515 136.059 16.3113 115.643 16.3113Z" fill="#63C1F8"/>
<g id="Star" filter="url(#filter0_d)">
<path d="M115.009 55.2027C115.85 53.8932 117.764 53.8932 118.605 55.2027L128.499 70.6073C128.789 71.0578 129.237 71.3833 129.755 71.5193L147.463 76.1692C148.968 76.5644 149.56 78.3847 148.574 79.5893L136.981 93.7597C136.642 94.1741 136.471 94.7008 136.501 95.2354L137.551 113.514C137.641 115.067 136.092 116.192 134.642 115.627L117.583 108.981C117.084 108.786 116.53 108.786 116.031 108.981L98.9717 115.627C97.5216 116.192 95.9732 115.067 96.0624 113.514L97.1122 95.2354C97.1429 94.7008 96.9718 94.1741 96.6327 93.7597L85.0397 79.5893C84.0542 78.3847 84.6457 76.5644 86.151 76.1692L103.859 71.5193C104.377 71.3833 104.825 71.0578 105.114 70.6073L115.009 55.2027Z" fill="#FADB6F"/>
</g>
<path id="Vector 31" d="M115.204 16.0737C94.546 16.0737 80.4772 6.10094 80.4772 6.10094L70.6306 9.30509C70.6306 9.30509 91.0746 21.1784 103.755 23.0177C113.54 24.4371 121.745 24.0865 131.358 21.7711C142.154 19.1706 157.358 8.05849 157.358 8.05849L150.287 5.92285C150.287 5.92285 135.862 16.0737 115.204 16.0737Z" fill="#354258"/>
</g>
</g>
<defs>
<filter id="filter0_d" x="83.843" y="53.8645" width="65.9279" height="62.9797" filterUnits="userSpaceOnUse" color-interpolation-filters="sRGB">
<feFlood flood-opacity="0" result="BackgroundImageFix"/>
<feColorMatrix in="SourceAlpha" type="matrix" values="0 0 0 0 0 0 0 0 0 0 0 0 0 0 0 0 0 0 127 0"/>
<feOffset dy="0.356172"/>
<feGaussianBlur stdDeviation="0.356172"/>
<feColorMatrix type="matrix" values="0 0 0 0 0.196078 0 0 0 0 0.560784 0 0 0 0 0.894118 0 0 0 1 0"/>
<feBlend mode="multiply" in2="BackgroundImageFix" result="effect1_dropShadow"/>
<feBlend mode="normal" in="SourceGraphic" in2="effect1_dropShadow" result="shape"/>
</filter>
</defs>
</svg>
