<svg width="257" height="145" viewBox="0 0 257 145" fill="none" xmlns="http://www.w3.org/2000/svg">
<path d="M82.7219 3.99009C88.0823 0.565987 92.5336 1.23447 96.1073 1.71004L135.6 14.2671L171.784 0L180.168 2.56506L199.926 74.1888L218.688 115.563L118.179 129.83L53.8533 108.43C61.0006 75.6156 77.3614 7.41419 82.7219 3.99009Z" fill="#FD521C"/>
<path d="M130.158 21.6904C118.369 19.9739 101.208 9.13989 91.0209 1.14804C95.3135 1.14804 99.5955 2.28496 103.888 3.433C123.184 10.2766 144.092 10.2766 163.387 1.7165C166.067 0.579588 169.281 0 172.495 0C163.387 9.13978 145.703 23.4069 130.156 21.6905L130.158 21.6904Z" fill="#A8694E"/>
<path d="M60.9508 78.1919C63.0971 52.5111 66.3112 28.5481 71.6717 18.2701C74.8859 10.2783 78.6446 5.13986 85.0729 2.86626C97.4062 12.5633 119.383 27.4102 134.384 27.4102C152.612 27.4102 170.84 11.4265 179.414 2.29785C191.203 8.57308 194.428 23.9884 196.564 39.9601L202.458 75.3368C196.564 103.303 70.0598 99.8807 60.9497 78.1902L60.9508 78.1919Z" fill="#A8694E"/>
<path d="M253.982 115.811C205.681 172.963 -75.5432 135.245 19.4557 91.231C32.8729 84.3773 46.824 81.5197 60.7752 79.8006L59.706 98.6654C62.3894 126.103 213.196 127.241 204.611 93.5194L202.463 78.6621C220.712 79.8007 244.329 87.8042 253.982 99.2346C258.269 104.381 257.734 111.245 253.982 115.811H253.982Z" fill="#A8694E"/>
<path d="M63.8728 106.23C73.5103 113.071 87.9666 116.491 108.845 118.398C108.862 111.935 110.561 100.683 110.454 94.2602C100.819 94.2612 78.3291 90.8401 65.4791 84C64.9973 90.065 64.2697 99.868 63.8728 106.23Z" fill="#F96D41"/>
</svg>
