<svg width="285" height="285" viewBox="0 0 285 285" fill="none" xmlns="http://www.w3.org/2000/svg">
<path d="M121.722 84.9874H101.015C73.1052 84.9874 47.5364 98.5042 29.3501 120.202C11.1638 141.722 0 171.246 0 203.615C0 205.75 1.08036 207.528 2.88098 208.417C23.957 215.436 44.113 216.983 58.1578 214.848C57.7977 214.493 58.4995 215.436 58.4995 215.436C56.6989 213.124 61.4068 213.315 63.9277 211.536C84.4547 195.885 112.87 185.83 141.5 180.494C169.41 175.337 193.567 171.78 218.415 179.249C219.496 179.605 220.576 179.961 221.836 180.494C216.255 156.129 202.03 127.316 186.004 111.843C168.538 94.9472 146.21 84.8096 121.902 84.8096L121.722 84.9874Z" fill="#A57FF4"/>
<path fill-rule="evenodd" clip-rule="evenodd" d="M130.89 88.4161C156.05 110.396 178.11 142.293 186.5 174.5C174.108 174.68 161.329 177.776 148.936 180.118C118.706 185.703 89.6023 197.233 68.0093 213.087C67.6338 213.447 90.3755 199.311 90 199.671C87.5 158.733 96.5 120.5 112.322 92.5597C113.636 91.1184 115.138 89.6771 116.453 88.416L130.89 88.4161C129.2 86.9748 132.58 89.8573 130.89 88.4161Z" fill="#358ED7"/>
<path fill-rule="evenodd" clip-rule="evenodd" d="M193.761 115.078C209.606 130.374 223.651 158.83 229.413 182.84C227.972 182.129 226.712 181.773 225.451 181.24C210.866 176.793 200.206 175.822 184 176C179.5 144 153.5 103 129.658 87.867C127.644 86.5883 134.76 86.2715 135.48 86.2715C158.888 86.805 176.835 98.5382 193.761 114.901V115.078Z" fill="#F96131"/>
<path d="M128.137 85.7852H107.43C103.289 85.7852 99.3275 86.1409 95.3661 86.6744C97.3468 89.1644 105.81 90.9429 116.073 90.9429C126.697 90.9429 135.7 88.9865 136.96 86.3187C134.079 85.963 131.018 85.7852 127.957 85.7852H128.137Z" fill="#0A0D45"/>
<path fill-rule="evenodd" clip-rule="evenodd" d="M111.548 11.1611V90.8099H121.228V11.1611H111.548Z" fill="#F23D31"/>
<path fill-rule="evenodd" clip-rule="evenodd" d="M116.395 22.2979C122.622 22.2979 127.692 17.3071 127.692 11.1575C127.692 4.99074 122.622 0 116.395 0C110.152 0 105.099 4.99074 105.099 11.1575C105.099 17.3076 110.152 22.2979 116.395 22.2979Z" fill="#F23D31"/>
<path fill-rule="evenodd" clip-rule="evenodd" d="M116.782 53.5094C123.008 53.5094 128.078 48.5187 128.078 42.3519C128.078 36.2018 123.008 31.1943 116.782 31.1943C110.538 31.1943 105.486 36.2018 105.486 42.3519C105.486 48.5187 110.538 53.5094 116.782 53.5094Z" fill="#F23D31"/>
<path fill-rule="evenodd" clip-rule="evenodd" d="M116.782 70.0817C123.008 70.0817 128.078 65.0909 128.078 58.9241C128.078 52.7741 123.008 47.7666 116.782 47.7666C110.538 47.7666 105.486 52.7741 105.486 58.9241C105.486 65.0909 110.538 70.0817 116.782 70.0817Z" fill="#F4CE5A"/>
<path fill-rule="evenodd" clip-rule="evenodd" d="M116.782 88.6032C123.008 88.6032 128.078 83.6124 128.078 77.4456C128.078 71.2956 123.008 66.2881 116.782 66.2881C110.538 66.2881 105.486 71.2956 105.486 77.4456C105.486 83.6124 110.538 88.6032 116.782 88.6032Z" fill="#F23D31"/>
<path fill-rule="evenodd" clip-rule="evenodd" d="M116.396 25.4773C116.396 25.4773 176.874 11.1611 200.657 11.1611C224.457 11.1611 224.797 20.823 224.797 20.823C224.797 20.823 219.813 33.459 202.613 33.459C185.431 33.459 116.397 25.4773 116.397 25.4773H116.396Z" fill="#F06292"/>
<path fill-rule="evenodd" clip-rule="evenodd" d="M116.395 25.4773C116.395 25.4773 55.9163 11.1611 32.1159 11.1611C8.33342 11.1611 7.99285 20.823 7.99285 20.823C7.99285 20.823 12.9772 33.459 30.1592 33.459C47.3412 33.459 116.394 25.4773 116.394 25.4773H116.395Z" fill="#F06292"/>
<path fill-rule="evenodd" clip-rule="evenodd" d="M116.395 36.6471C122.622 36.6471 127.692 31.6564 127.692 25.4896C127.692 19.3395 122.622 14.332 116.395 14.332C110.152 14.332 105.099 19.3395 105.099 25.4896C105.099 31.6564 110.152 36.6471 116.395 36.6471Z" fill="#FF8328"/>
<path d="M229.602 181.903C148.007 157.172 83.0514 196.845 57.5126 214.462C57.5126 214.462 65.6736 227.838 78.9742 240.139C97.3164 257.103 115.292 272.56 134.343 271.959C153.395 271.359 161.73 269.558 180.782 256.95C199.833 244.342 231.983 232.935 251.63 233.535C271.277 234.135 284.971 245.543 284.971 245.543C284.971 245.543 285.566 244.342 281.398 236.537C277.231 228.732 229.602 181.903 229.602 181.903Z" fill="#3BB376"/>
<path d="M275.13 230.546C268.367 225.641 239.898 222.277 220.356 226.159C175.254 239.824 174.862 258.778 138.009 260.233C106.234 261.488 88.0031 220.536 67.8751 208.125" stroke="#C0FB86" stroke-width="0.973765" stroke-miterlimit="10" stroke-dasharray="2.92 2.92"/>
</svg>
