<svg width="261" height="253" viewBox="0 0 261 253" fill="none" xmlns="http://www.w3.org/2000/svg">
<path d="M77.3755 231.358C77.3755 231.358 108.109 234.6 127.886 234.966C147.217 235.325 177.356 233.331 177.356 233.331L177.059 248.385C177.059 248.385 146.936 251.495 127.562 251.377C107.78 251.256 77.0545 247.633 77.0545 247.633L77.3755 231.358Z" fill="#3BB376"/>
<mask id="mask0" mask-type="alpha" maskUnits="userSpaceOnUse" x="0" y="86" width="261" height="166">
<path fill-rule="evenodd" clip-rule="evenodd" d="M19.9742 147.665C-1.85813 179.893 0.0417512 249.646 0.0417512 249.646C0.0417512 249.646 32.5873 249.79 75.9678 249.727C75.975 249.883 75.9796 249.966 75.9796 249.966C75.9796 249.966 142.633 252.731 174.5 251.5C203.908 251.135 240.272 252.319 260 251.5C260 251.5 262.345 187.259 235.068 143.111C214.107 109.186 179.834 86 131.788 86C84.1781 86 45.8206 109.512 19.9742 147.665ZM174.5 251.5C174.5 251.5 175.045 229.312 168 218C158.615 202.931 146.253 195.486 128.5 195.5C111.374 195.514 99.4219 202.198 90 216.5C82.5975 227.737 82.875 247.529 83 250.237C116.137 250.187 138.395 251.949 174.5 251.5Z" fill="#59C769"/>
</mask>
<g mask="url(#mask0)">
<path fill-rule="evenodd" clip-rule="evenodd" d="M116.52 86.3525C-4.3775 103.853 -0.999934 225.295 -1 252.5C-1 252.5 46.5113 257.682 64 252.5C81.4886 247.318 121.02 88.3525 121.02 88.3525C121.02 88.3525 118.223 87.9863 116.52 86.3525Z" fill="#F96131"/>
<path fill-rule="evenodd" clip-rule="evenodd" d="M139.351 86C258.566 93.125 263.738 225.648 260.5 253.5C260.5 253.5 213.137 256.739 195 253.5C176.864 250.261 134.85 89.2386 134.85 89.2386C134.85 89.2386 137.649 87.6337 139.351 86Z" fill="#A57FF4"/>
<path fill-rule="evenodd" clip-rule="evenodd" d="M121.289 88C80.5 125 65 170 65 251.926C65 251.926 80.0231 250.529 119 247.5C152.78 247.5 194 254 194 254C194 192 181 135.5 135.33 89.5587C135.33 89.5587 124.297 90.338 121.289 88Z" fill="#358ED7"/>
</g>
<path fill-rule="evenodd" clip-rule="evenodd" d="M134.249 11.1611V90.8099H124.569V11.1611H134.249Z" fill="#F23D31"/>
<path fill-rule="evenodd" clip-rule="evenodd" d="M129.402 22.2979C123.175 22.2979 118.106 17.3071 118.106 11.1575C118.106 4.99074 123.175 0 129.402 0C135.645 0 140.698 4.99074 140.698 11.1575C140.698 17.3076 135.645 22.2979 129.402 22.2979Z" fill="#F23D31"/>
<path fill-rule="evenodd" clip-rule="evenodd" d="M129.015 53.5094C122.789 53.5094 117.719 48.5187 117.719 42.3519C117.719 36.2018 122.789 31.1943 129.015 31.1943C135.259 31.1943 140.312 36.2018 140.312 42.3519C140.312 48.5187 135.259 53.5094 129.015 53.5094Z" fill="#F23D31"/>
<path fill-rule="evenodd" clip-rule="evenodd" d="M129.015 70.0817C122.789 70.0817 117.719 65.0909 117.719 58.9241C117.719 52.7741 122.789 47.7666 129.015 47.7666C135.259 47.7666 140.312 52.7741 140.312 58.9241C140.312 65.0909 135.259 70.0817 129.015 70.0817Z" fill="#F4CE5A"/>
<path fill-rule="evenodd" clip-rule="evenodd" d="M129.015 88.6032C122.789 88.6032 117.719 83.6124 117.719 77.4456C117.719 71.2956 122.789 66.2881 129.015 66.2881C135.259 66.2881 140.312 71.2956 140.312 77.4456C140.312 83.6124 135.259 88.6032 129.015 88.6032Z" fill="#F23D31"/>
<path fill-rule="evenodd" clip-rule="evenodd" d="M129.402 25.4773C129.402 25.4773 68.923 11.1611 45.14 11.1611C21.3406 11.1611 21 20.823 21 20.823C21 20.823 25.9844 33.459 43.1837 33.459C60.3657 33.459 129.401 25.4773 129.401 25.4773H129.402Z" fill="#F06292"/>
<path fill-rule="evenodd" clip-rule="evenodd" d="M129.402 25.4773C129.402 25.4773 189.881 11.1611 213.681 11.1611C237.464 11.1611 237.804 20.823 237.804 20.823C237.804 20.823 232.82 33.459 215.638 33.459C198.456 33.459 129.404 25.4773 129.404 25.4773H129.402Z" fill="#F06292"/>
<path fill-rule="evenodd" clip-rule="evenodd" d="M129.402 36.6471C123.175 36.6471 118.106 31.6564 118.106 25.4896C118.106 19.3395 123.175 14.332 129.402 14.332C135.645 14.332 140.698 19.3395 140.698 25.4896C140.698 31.6564 135.645 36.6471 129.402 36.6471Z" fill="#FF8328"/>
</svg>
